<?xml version="1.0" encoding="UTF-8"?><svg id="Layer_2" xmlns="http://www.w3.org/2000/svg" viewBox="0 0 56.58 32"><defs><style>.cls-1{fill:#d6453b;}.cls-1,.cls-2{stroke-width:0px;}.cls-2{fill:#ef6b63;}</style></defs><g id="Layer_2-2"><path class="cls-1" d="m56.56,16.97h-29.3v10.23h5.69c.04-3.43,2.83-6.2,6.26-6.2s6.23,2.77,6.26,6.2h3c8.26,0,8.17-5.43,8.09-10.23Z"/><path class="cls-1" d="m39.17,22.3c-2.68,0-4.85,2.17-4.85,4.85s2.17,4.85,4.85,4.85,4.85-2.17,4.85-4.85-2.17-4.85-4.85-4.85Zm0,7.02c-1.21,0-2.2-.98-2.2-2.2s.98-2.2,2.2-2.2,2.2.98,2.2,2.2-.98,2.2-2.2,2.2Z"/><path class="cls-1" d="m14.95,16.97h-3.4v9.06H3.83c.12-.26.19-.54.19-.85,0-1.11-.9-2.01-2.01-2.01s-2.01.9-2.01,2.01.9,2.01,2.01,2.01h12.94v-10.23Z"/><path class="cls-2" d="m56.54,15.17C56.13,1.37,30.96,0,23.23,0s-11.68,4.1-11.68,11.13v4.05h3.4v-5.89c0-2.37,1.92-4.3,4.3-4.3h3.72c2.37,0,4.3,1.92,4.3,4.3v5.89h29.27Zm-20.09-5.36c0-.92.75-1.67,1.67-1.67h8.1c.92,0,1.67.75,1.67,1.67v1.66c0,.92-.75,1.67-1.67,1.67h-8.1c-.92,0-1.67-.75-1.67-1.67v-1.66Z"/><path class="cls-1" d="m23.11,6.33h-3.95c-1.57,0-2.84,1.27-2.84,2.84v17.99h9.63V9.17c0-1.57-1.27-2.84-2.84-2.84Zm.82,8.41c0,.67-.55,1.22-1.22,1.22h-3.38c-.67,0-1.22-.55-1.22-1.22v-4.73c0-.67.55-1.22,1.22-1.22h3.38c.67,0,1.22.55,1.22,1.22v4.73Z"/></g></svg>