<?xml version="1.0" encoding="UTF-8"?><svg id="Layer_2" xmlns="http://www.w3.org/2000/svg" viewBox="0 0 1920 1128.47"><g id="Layer_25"><path d="m1920,106.13c-17.55,5.77-44.1,13.54-77.44,19.54-46.82,8.42-76.65,7.87-128.22,10.42,0,0-70.5,3.48-150.15,13.02-87.06,10.43-91.18,17.17-165.34,23.44-47.31,4-89.32,4.95-111.35,5.21-67.41.79-67.83-3.5-114.72-1.3-74.54,3.49-120.57,16.52-134.97,20.84-33.88,10.17-50.82,15.25-65.8,27.35-35.84,28.94-14.87,54.12-50.61,82.05-5.06,3.95-29.24,14.36-77.61,35.16-24.02,10.34-36.26,15.58-47.24,19.54-37.06,13.34-65.51,18.04-86.04,22.14-75.79,15.14-133.99,26.77-170.4,62.51-31.24,30.67-42.18,67.72-42.18,67.72-3.89,13.16-4.62,23.61-13.5,41.67-5.53,11.26-12.83,26.11-28.68,40.37-22.01,19.8-34.58,15.15-53.99,32.56-16.54,14.84-11.78,22.14-28.68,50.79-7.84,13.29-20.52,27.71-45.55,56-36.67,41.44-37.61,38.33-57.36,62.51-22.64,27.71-36.73,50.55-47.24,67.72-16.1,26.32-24.15,39.47-26.99,50.79-5.49,21.89-.63,32.31-13.5,45.58-9.23,9.52-19.03,11.67-25.31,23.44-5.84,10.95-3.68,20.94-3.37,23.44,1.8,14.56-25.7,45.97-153.78,119.82V0h1920v106.13Z"/></g></svg>