<?xml version="1.0" encoding="UTF-8"?><svg id="Layer_2" xmlns="http://www.w3.org/2000/svg" viewBox="0 0 210.67 94.15"><defs><style>.cls-1{fill:#0b3542;}.cls-1,.cls-2,.cls-3{stroke-width:0px;}.cls-2{fill:#d6453b;}.cls-3{fill:#ee6b63;}</style></defs><g id="Layer_1-2"><polygon class="cls-2" points="196.42 53.41 151.03 76.81 151.03 62.77 196.42 39.37 196.42 53.41"/><path class="cls-2" d="m117.47,15.8c-7.82,16.72-24.49,40.08-38,54.92-.01.03-.01.07,0,.13l-6.5,5.15c-.82.09-1.77.49-2.64,1.18-1.66,1.31-2.38,3.15-1.62,4.12.76.96,2.72.68,4.38-.63.87-.69,1.48-1.52,1.75-2.3l5.88-4.65c.78,1.54,1.63,3.1,1.63,3.1h16.61c10.79-10.79,16.83-36.65,16.83-43.51,0,14.39,12.84,47.61,20.15,47.61-.22.22,11.74-2.88,11.74-2.88v-14.62c-8.89-3.8-26.81-29.14-30.2-47.61Z"/><path class="cls-3" d="m210.11,53.62c-.66-1.31-1.76-2.18-2.81-2.36l-11.7-16.01,2.23-1.17c-10.36-9.2-19.2-24.76-19.03-34.07l-57.4,15.82c2,15.49,16.89,33.01,26.64,43.91l14.78,18.4c-.17.87-.02,1.93.49,2.94.96,1.88,2.81,2.86,4.14,2.19,1.33-.68,1.63-2.75.67-4.63-.69-1.36-1.85-2.24-2.94-2.38l-13.18-18.04,40.9-21.54,11.94,16.33c-.21.9-.07,2.01.46,3.06.96,1.88,2.81,2.86,4.14,2.19,1.33-.68,1.63-2.75.67-4.63Z"/><path class="cls-3" d="m52.99,56.84c-1.38-2.53-1.78-3.01-2.59-4.94-1.21,2.25-2.63,2.92-4.56,8.07s-2.97,10.76-2.97,10.76l11.13-9.44-1.01-4.45Z"/><path class="cls-2" d="m28.26,48.38c1.07,4.65,3,8.08,3.43,8.87s-1.72,7.8-1.72,7.8l-8.3-.43s.5-5.44,1.75-9.58,4.83-6.65,4.83-6.65Z"/><path class="cls-3" d="m19.8,47.47c1.23,5.96.91,11.86-4.73,17.5-5.64,5.64-6.72,12.46-1.14,14.52l15.78.86c3.6-.4,6.47-17.45,9.02-20s5.07-7.46.6-11.92-8.93-3.83-10.54-5.96c1.04,5.25,4.64,12.26.38,16.51-1.94,1.94-1.7,9.07-1.7,4.21s-7.67-15.71-7.67-15.71Z"/><path class="cls-2" d="m22.26,81.18c-2.65-.79-5.39-2.58-5.39-6.26s5.69-7.82,7.21-12.77c1.54,1.94,1.64,4.27,5.96,6.11,3.13,1.64,2.58,3.88,2.34,4.37s-2.78,8.55-2.78,8.55h-7.33Z"/><path class="cls-2" d="m32.99,73.85c1.42-6.96-.88-7.94-.41-13.95s2.68-6.56,2.26-8.67c1.46-.14,1.08,3.37,1.67,4.65s.45,4.38,3.02,4.38,5.42-6.29,4.69-9.66c1.11.97,3.23,4.86,3.23,9.03s-3.76,5.58-3.76,9.42-3.9,5.45-3.9,5.45l-6.79-.64Z"/><path class="cls-3" d="m38.5,65.41c-2.49,5.95-14.72,13.27-22.28,14.08l.65,3.05,11.25,1.93s16.73-6.75,18.5-7.62c.23-.11.48-.26.76-.44l-5.61-4.73c-2.11-1.86-1.51-6.34-3.28-6.26Z"/><path class="cls-2" d="m54.26,56.08c-2.73,1.13-4.99,5.31-6.19,7.96s-3.94,3.86-5.79,4.83c-1.85.97,1.61,4.5-.5,2.8l5.61,4.73c1.9-1.2,4.83-3.81,6.22-6.33,1.59-2.9.9-6.27,1.3-9.81s1.61-3.86,3.78-7.48c0,0-1.69,2.17-4.42,3.3Z"/><polyline class="cls-1" points="23.43 81.42 23.05 88.72 8.05 93.83 8.05 78.29 23.43 81.42"/><polygon class="cls-1" points="39.33 85.49 52.36 87.37 52.36 73.85 36.56 79.08 39.33 85.49"/><ellipse class="cls-3" cx="53.61" cy="80.63" rx="6.57" ry="6.9" transform="translate(-13.68 11.01) rotate(-10.4)"/><ellipse class="cls-2" cx="30.88" cy="85.49" rx="8.45" ry="8.66"/><ellipse class="cls-3" cx="6.69" cy="86.16" rx="7.99" ry="6.64" transform="translate(-79.35 78.06) rotate(-80.18)"/></g></svg>