<?xml version="1.0" encoding="UTF-8"?><svg id="Layer_2" xmlns="http://www.w3.org/2000/svg" viewBox="0 0 190.09 194"><defs><style>.cls-1{fill:#ef6b65;}.cls-2{fill:#fdaf54;}.cls-3{fill:#404041;}.cls-4{fill:none;stroke:#404041;stroke-linejoin:round;stroke-width:10px;}</style></defs><g id="Layer_2-2"><path class="cls-1" d="m184.29,67.87C172.11,31.34,137.63,5,97,5,46.19,5,5,46.19,5,97s41.19,92,92,92c41.55,0,76.66-27.54,88.09-65.37l-86.09-28.63,85.29-27.13Z"/><path class="cls-4" d="m184.29,67.87C172.11,31.34,137.63,5,97,5,46.19,5,5,46.19,5,97s41.19,92,92,92c41.55,0,76.66-27.54,88.09-65.37l-86.09-28.63,85.29-27.13Z"/><circle class="cls-2" cx="98.5" cy="95" r="45"/><path class="cls-3" d="m99,59c19.85,0,36,16.15,36,36s-16.15,36-36,36-36-16.15-36-36,16.15-36,36-36m0-10c-25.41,0-46,20.59-46,46s20.59,46,46,46,46-20.59,46-46-20.59-46-46-46h0Z"/><path class="cls-3" d="m68.48,97.21v-3.26l19.33-9.75v6.61l-10.38,4.77,10.38,4.73v6.65l-19.33-9.75Z"/><path class="cls-3" d="m101.33,79.43h6.86l-12.63,34.73h-6.86l12.63-34.73Z"/><path class="cls-3" d="m129.23,93.94v3.26l-19.33,9.75v-6.65l10.38-4.73-10.38-4.77v-6.61l19.33,9.75Z"/></g></svg>