<?xml version="1.0" encoding="UTF-8"?><svg id="Layer_2" xmlns="http://www.w3.org/2000/svg" viewBox="0 0 1920 741.89"><defs><style>.cls-1{fill:#c95a6b;}</style></defs><g id="Hills"><path class="cls-1" d="m0,105.67c12.56-6.4,25.12-12.81,37.68-19.21,4.42-2.26,8.95-4.59,12.28-8.26,2.01-2.21,3.56-4.9,6.04-6.58,2.44-1.66,5.47-2.14,8.39-2.54,26.76-3.62,54.04-3.48,80.77.41,6.55.96,13.27,2.13,19.73.67,7.5-1.7,2.83-16.3,10.44-17.4,26.65-3.86,52.83-19.43,76.28-37.53,0,0,19-18.59,48.13-14.7l18.68,26.54c5.78,13.09,41.24,26.42,37.63,46.72-4.15,23.34,39.42,42.46,60.11,48.18,6.25,1.73,12.75,2.97,19.22,2.42,13.56-1.14,25.06-9.79,37.16-15.98,18.96-9.7,42.07-28.39,59.82-16.64,8.7,5.76,47.11,5.97,69.31,10.24,11.15,2.14,22.59,4.59,31.98,10.93,6.39,4.32,11.64,10.32,18.57,13.72,13.4,6.57,29.29,1.95,44.23,1.7,28.91-.48,55.59,15.89,84.38,18.59,29.66,2.78,59.03-9.31,83.38-26.36,19.59-13.72,41.51-31.81,64.45-24.93,11.46-17.61,21.24-36.79,32.7-54.4,33.66,7.44,67.32,14.88,100.99,22.31,15.26,3.37,30.77,6.83,44.44,14.36,13.68,7.53,25.52,19.83,28.68,35.03,1.02,4.92,1.14,10.09,3.18,14.68,2.24,5.05,6.55,8.86,10.74,12.49,13.99,12.15,27.98,24.31,41.97,36.46,22.21,3.37,49.69,3.74,71.11-2.97,6.83-2.14,13.35-5.26,20.34-6.8,14.23-3.12,28.93.58,43.39,2.38,28.45,3.54,57.24-.33,85.65-4.21,16.97-2.31,34.69-4.91,48.6-14.84,9.66-6.89,16.77-16.95,21.12-27.94,1.59-4.02,3-8.42,6.4-11.11,3-2.38,7.02-2.98,10.82-3.49,15.96-2.16,32.78-4.22,47.72,1.77,7.88,3.16,14.82,8.44,22.88,11.13,8.39,2.8,17.69,2.69,25.69,6.46,7.6,3.58,13.22,10.29,20.33,14.76,14.83,9.32,35.09,8.32,48.34,19.76,8.54,7.37,12.64,18.74,20.79,26.54,10.77,10.33,26.69,12.82,41.52,14.82,17.64,2.37,35.28,4.75,52.93,7.12,8.49,1.14,17.13,2.28,25.59.96,8.73-1.37,16.81-5.28,25.3-7.72,29.58-8.5,61,1.42,90.15,11.26v527.4H0V105.67Z"/></g></svg>