<?xml version="1.0" encoding="UTF-8"?><svg id="Layer_2" xmlns="http://www.w3.org/2000/svg" viewBox="0 0 30 30"><defs><style>.cls-1{fill:#fff6f4;}.cls-2{fill:#231f20;}</style></defs><g id="Layer_1-2"><circle class="cls-1" cx="15" cy="15" r="15"/><polygon class="cls-2" points="7.48 9.69 14.69 3.28 15.31 3.9 8.9 11.11 7.48 9.69 7.48 9.69"/><polygon class="cls-2" points="7.48 14.29 14.65 7.83 15.35 8.54 8.9 15.71 7.48 14.29 7.48 14.29"/><polygon class="cls-2" points="7.48 19.33 14.57 12.79 15.43 13.65 8.9 20.74 7.48 19.33 7.48 19.33"/><path class="cls-2" d="m13.94,25.44c-.18-7.29.08-14.59.76-21.86,0,0,.6,0,.6,0,.68,7.26.94,14.57.76,21.86,0,0-2.12,0-2.12,0h0Z"/><polygon class="cls-2" points="21.1 11.11 14.69 3.9 15.31 3.27 22.52 9.69 21.1 11.11 21.1 11.11"/><polygon class="cls-2" points="21.1 15.71 14.61 8.58 15.39 7.8 22.52 14.29 21.1 15.71 21.1 15.71"/><polygon class="cls-2" points="21.1 20.74 14.51 13.71 15.49 12.74 22.52 19.33 21.1 20.74 21.1 20.74"/></g></svg>