<?xml version="1.0" encoding="UTF-8"?><svg id="Layer_2" xmlns="http://www.w3.org/2000/svg" viewBox="0 0 1915.96 500.48"><defs><style>.cls-1{fill:#ec505f;}.cls-2{fill:#da414a;}.cls-3{fill:#da4049;}</style></defs><g id="Layer_33"><g id="Trees_1"><path class="cls-2" d="m1026.91,378.43c-1.04-2.33-55.83-15.48-58.8-18.57-5.92-6.16-98.77-31.18-128.34-37.36-36-7.52-63.99-2.08-103.23-11.08-27.15-6.23-85.85,6.67-118.85-1.24-14.13-3.38-25.92-7.13-44.66-8.64-11.73-.95-18.14,2.12-30.97,0-12.35-2.04-19.55-6.08-27.37-9.36-15.99-6.72-28.67-7.82-54.02-10.08-19.27-1.72-30.74-.69-77.06,3.08-29.54,2.41-59.58,4.82-63.7,5.14-86.83,6.66-126.15-38.14-226.88-44.83-20.57-1.36-52.7-1.74-93.04,5.64v249.35h862.53l866.1-33.57s-314.6-41.02-304-41.82-220.01-42.24-211-43.03-142.6,35.46-140.22,33.07-46.5-36.7-46.5-36.7Z"/></g><g id="Mountains_2"><g id="Layer_12"><path class="cls-3" d="m1637.51.21c-9.5,1.67-9.86,10.65-29.24,30.18-7.52,7.58-15.48,14.39-15.48,14.39-10.48,9.13-15.4,12.06-26.96,24.27-19.99,21.11-19.53,26.76-33.01,33.95-12.05,6.43-18.44,5.14-28.29,14.15-8.71,7.96-9.15,13.92-17.92,20.75-8.57,6.67-18.1,8.71-24.52,9.43.62,2.2,2.78,10.92-1.89,19.81-2.63,5-6.32,7.96-8.49,9.43-3.41.32-8.28.7-14.15.94-6.62.27-13.42.55-20.75,0-12.95-.98-14.37-3.56-21.69-3.77-11.98-.34-21.08,6.21-28.29,11.32-17.36,12.29-35.22,23.88-52.82,35.84-32.59,22.15-49.45,33.26-69.85,30.34-10.76-1.54-13.31-5.67-25-5.43-16.74.34-25.4,9.09-40.76,17.39-22.78,12.31-43.82,14.74-66.85,17.39-24.91,2.87-28.93-.93-57.61,3.26-9.7,1.42-18.6,3.48-36.41,7.61-32.73,7.59-41,10.94-68.98,16.72-21.34,4.41-30.42,5.34-40.64,5.02-10.2-.32-13.99-2.09-32.11-5.02-6.05-.98-26.53-4.28-41.14-5.02-13.65-.68-195.2,1.98-220.87,10.73,3.64,2.32,100.13-1.14,142.04,18.78,15.14,7.19,39.63,5.37,59,7.3,9.9.98,22.1.41,51.44,3.34,14.76,1.48,20.6,6.77,42.15,8.52,22.89,1.86,20.79,5.85,37.13,5.52,5.84-.12,13.29-.77,22.58,2.51,5.36,1.9,7.96,3.91,13.05,7.02,13.6,8.32,26.26,13.02,36.85,16.95,14.94,5.54,19.35,5.4,24.62,11.29,4.34,4.85,4.08,8,8.72,12.31,3.37,3.13,8.94,6.51,22.06,7.69,24.05,2.18,27.96-7.12,50.27-5.13,10.44.93,13.43,3.31,24.11,2.56,2.23-.16,11.7-.93,23.08-5.64,12.43-5.15,20.22-12.24,21.54-13.34,25.92-21.51,214.53,36.87,284.59,53.9,56.42,13.71,101.52,15.3,191.71,18.48,101.72,3.58,186.66-3.69,247.24-11.55v-234.71c-2.62-1.07-14.46-3.99-22.3-14.53-5.74-7.72-4.77-13.38-11.62-20.34-5.11-5.19-10.64-7.1-18.4-9.69-15.93-5.3-28.23-4.44-35.84-4.84-30.05-1.57-52.97-21.42-59.08-27.12-5.63-5.26-25.71-23.99-28.09-53.27-.79-9.69.59-17.8,1.94-23.25-7.94-4.25-17.5-9.7-28.09-16.47-12.2-7.8-19.7-12.59-29.06-20.34-13.31-11.02-15.58-15.75-27.12-22.28-9.94-5.62-14.91-8.43-20.8-7.39Z"/></g><g id="Layer_13"><path class="cls-1" d="m1644.52.76c-2.52,2.44,9.96,16.79,16.65,37.66,5.86,18.28.93,23.79,6.8,39.42,5.67,15.12,12.61,16.15,23.11,31.26,13.59,19.55,16.32,38.46,20.39,66.6,3.48,24.11,7.31,50.56-4.08,57.09-9.02,5.18-19.63-6.72-29.9-1.36-10.51,5.48-13,25.02-10.87,39.42,3.95,26.72,28.01,46.36,76.12,85.63,18.31,14.95,27.47,22.42,31.25,24.87,9.07,5.86,14,7.98,13.6,10.47-1.16,7.18-42.94-6.35-67.96,14.95,0,0-4.14,3.52-25.83,43.5,74.06,1.81,148.11,3.62,222.17,5.44v-231.07c-6.1-7.71-13.09-15.86-21.08-24.19-10.75-11.21-13.6-17.26-18.31-19.94-13.06-7.41-5.23-6.87-26.85-10.45-8.67-1.43-39.41-2.28-47.04-6.13-24.46-12.31-43.91-28.21-53.37-54.97-2.36-6.67-5.44-19.32-1.32-37.38-1.2-1.69-3.22-4.3-6.16-7.04-9.43-8.79-17.2-8.55-27.71-14.95-8.58-5.23-5.47-6.65-17.15-15.83-7.18-5.65-22.06-15.54-29.36-19.85-18.51-10.93-21.56-14.64-23.1-13.16Z"/><path class="cls-1" d="m1620.51,71.68c-3.21,3.56-7.41,9.04-10.39,16.53-8.03,20.14-1.05,39.16-8.5,42.5-.62.28-.84.22-10.86-.94-5.56-.65-9.95-1.15-12.28-1.42.31,4.84.73,12.4.94,21.72.31,13.62-.18,15.26.94,20.31,1.25,5.65,2.8,7.82,10.39,23.14,3.3,6.66,5.9,12.1,7.56,15.58.61-5.46,1.23-13.46.94-23.14-.42-14.59-2.66-25.04-.94-25.5.33-.09,1.23.08,5.67,8.97,6.93,13.9,7.07,18.23,8.97,18.42,4.7.46,12.38-25.28,15.11-49.58,2.69-23.95-.18-39.86-1.42-45.8-1.8-8.66-4.18-15.73-6.14-20.78Z"/><path class="cls-1" d="m1362,231.81c6.74-.72,13.59-1.39,20.56-2.01,6.44-.57,12.8-1.07,19.06-1.5,1.06,2.97,2.66,7.49,4.51,13.04,4.75,14.21,7.42,23.93,8.53,27.58,2.83,9.38,30.65,49.7,43.64,66.89-12.18,3.36-34.13-14.81-40.33-16.8-13.12-4.23,5.86,50.93,0,49.15-8.11-2.47-59.99-72.25-54.97-88.7,1.31-2.46,4.6-9.39,3.51-18.56-1.17-9.85-6.66-16.1-8.53-18.06,1.34-3.68,2.67-7.36,4.01-11.03Z"/><path class="cls-1" d="m1223.17,271.25c1.71.78,3.15,1.8,3.15,1.8,2.89,2.03,4.68,4.47,5.74,6.24,0,0,2.85,4.81,2.8,10.94-.11,12.99-27.11,19.19-45.55,39.47-20.6,22.66-13.07,43.75-37.2,59.97-6.19,4.16-12.05,6.38-15.94,7.59.83-6,2.52-13.66,6.07-22.01,2.14-5.04,4.54-9.34,6.83-12.9-4.08-.36-10.28-.42-17.46,1.52-9.15,2.47-15.53,7-18.98,9.87,2.87-5.54,7.75-14.11,15.18-23.53,19.56-24.81,32.19-24.33,42.51-44.03,9.43-18.01,3.34-26.96,13.66-34.16,13.46-9.39,35.6-2.4,39.17-.76Z"/><path class="cls-1" d="m1094.36,297.87c-23.07,2.24-41.4,6.06-53.85,9.13-34.81,8.57-45.48,16.62-72.1,16.43-17.73-.12-31.07-3.82-31.95-.91-.83,2.75,9.9,10.03,21.91,12.78,23.58,5.41,44.64-8.36,45.64-6.39.51,1.01-4.69,5.3-26.47,18.25,6.18-.75,15.38-2.22,26.14-5.44,16.53-4.94,26.9-11.04,42.39-19.39,11.13-6,27.5-14.55,48.3-24.46Z"/></g></g></g></svg>