<?xml version="1.0" encoding="UTF-8"?><svg id="Layer_2" xmlns="http://www.w3.org/2000/svg" viewBox="0 0 1920 1226.43"><defs><style>.cls-1{fill:#db233c;}.cls-2{fill:#d95565;}</style></defs><g id="Layer_32"><g id="Trees_2"><path class="cls-2" d="m1840.06,1082.47c-12.86-12.31-45.9-43.26-96.75-58.83-41.35-12.66-57.01-3.68-107.21-22.23-31.87-11.77-33.05-18.16-64.06-27.46-40.01-11.99-49.55-4.81-83.67-14.38-43.53-12.21-72.66-36.42-83.67-45.76-37.84-32.1-34.04-50.85-69.29-87.59-26.08-27.19-50.25-39.95-92.87-62.44-58.31-30.78-72.22-25.96-154.93-57.64-110.83-42.45-100.47-55.71-171.7-73.65-43.69-11.01-67.36-11-97.67-33.62-11.84-8.84-50.11-37.41-56.04-88.06-4.09-34.92,7.5-77.61,36.83-99.27,5.62-4.15,26.16-10.24,67.25-22.42,36.72-10.88,60.59-16.89,68.85-35.22,1.09-2.42,4.72-10.49,1.39-17.2-3.21-6.48-10.7-7.21-21.38-11.16-8.54-3.15-29.99-11.07-34.19-23.07-4.64-13.26,12.14-30.44,19.27-37.02.98-.52,1.81-1.2,2.27-2.04.1-.09.21-.18.29-.25h-.17c.34-.75.39-1.61.02-2.59-1.91-5.01-3.41-9.74-4.6-14.03-.35,3.38-1.07,7.84-2.6,12.66-1.45-4.03-2.65-7.86-3.63-11.39-.35,3.38-1.07,7.85-2.6,12.67-2.38-6.61-4.34-12.88-5.94-18.67-.48,4.73-1.41,10.73-3.21,17.29-1.45-4.38-2.73-8.58-3.83-12.56-.44,4.32-1.25,9.7-2.76,15.6-1.89-5.48-3.5-10.71-4.86-15.6-.44,4.32-1.25,9.7-2.76,15.59-1.89-5.48-3.5-10.71-4.86-15.59-.42,4.1-1.17,9.15-2.54,14.7-1.26-3.86-2.36-7.57-3.34-11.1-.38,3.68-1.02,8.14-2.14,13.03h-2.69c-1.78-5.21-3.3-10.18-4.6-14.84-.42,4.13-1.18,9.24-2.57,14.84h-.29c-1.78-5.2-3.3-10.18-4.6-14.83-.42,4.12-1.18,9.22-2.56,14.8-2.05-5.84-3.76-11.41-5.2-16.59-.46,4.52-1.32,10.19-2.97,16.41-2.32-6.47-4.23-12.62-5.81-18.3-.51,5-1.51,11.43-3.54,18.44-1.77-5.18-3.28-10.13-4.57-14.76-.42,4.13-1.18,9.24-2.57,14.84h-.32c-2.35-6.55-4.29-12.77-5.89-18.51-.46,4.51-1.32,10.19-2.97,16.4-2.02-5.77-3.71-11.28-5.13-16.4-.52,5.02-1.52,11.48-3.56,18.51h-1.09c-2.35-6.55-4.29-12.77-5.89-18.51-.41,4-1.13,8.92-2.44,14.31-2.47-6.81-4.49-13.26-6.14-19.21-.56,5.5-1.72,12.73-4.18,20.56-2.46-6.78-4.47-13.22-6.11-19.15-.55,5.39-1.66,12.43-4.02,20.06-1.76-5.15-3.26-10.07-4.54-14.68-.47,4.57-1.34,10.33-3.03,16.62h-1.96c-2.64-7.19-4.78-14.01-6.52-20.26-.54,5.24-1.61,12.05-3.84,19.45-2.39-6.63-4.35-12.92-5.96-18.73-.48,4.68-1.39,10.6-3.15,17.07-2.76-7.44-4.98-14.49-6.77-20.94-.49,4.81-1.43,10.93-3.3,17.62-3.08-8.11-5.51-15.78-7.45-22.75-.57,5.58-1.75,12.94-4.28,20.88-1.94-7.18-3.44-13.97-4.61-20.18-1.06,5.58-2.89,12.91-6.17,20.71-1.18-4.85-2.16-9.49-2.98-13.84-.73,3.84-1.82,8.5-3.5,13.58l-1.36-.25c-1.48-5.82-2.68-11.35-3.64-16.48-.75,3.94-1.88,8.75-3.63,13.98-1.87-6.98-3.33-13.58-4.46-19.64-.98,5.15-2.62,11.79-5.44,18.92l-.23-.04c-1.11-4.62-2.05-9.05-2.83-13.22-.63,3.31-1.53,7.25-2.85,11.53-1.73-6.56-3.09-12.77-4.16-18.5-.86,4.5-2.22,10.15-4.43,16.27-2.21-7.91-3.88-15.37-5.15-22.15-.97,5.1-2.59,11.67-5.36,18.73-1.97-7.26-3.48-14.1-4.66-20.37-.94,4.96-2.49,11.3-5.12,18.12-1.68-6.42-3.01-12.51-4.06-18.12-.62,3.25-1.5,7.1-2.77,11.29-1.95-7.22-3.46-14.03-4.63-20.27-1.12,5.89-3.1,13.74-6.73,22.04-1.42-5.62-2.57-10.97-3.5-15.94-.74,3.89-1.85,8.62-3.56,13.78-1.68-6.43-3.01-12.51-4.06-18.13-.93,4.87-2.44,11.09-4.99,17.79-1.64-6.3-2.94-12.27-3.97-17.79-.73,3.86-1.83,8.56-3.53,13.67-1.7-6.48-3.04-12.61-4.1-18.27-.87,4.58-2.26,10.34-4.54,16.58-1.85-6.92-3.29-13.46-4.42-19.47-1.18,6.2-3.31,14.58-7.32,23.35-2.29-8.13-4.01-15.79-5.31-22.73-.79,4.18-2.02,9.34-3.96,14.95-2.15-7.75-3.78-15.05-5.03-21.7-1.06,5.57-2.89,12.89-6.15,20.67-2.34-8.25-4.09-16.02-5.4-23.05-1.31,6.89-3.8,16.46-8.73,26.29l-.24-.04c-2.23-7.96-3.91-15.46-5.18-22.27-1,5.27-2.69,12.11-5.64,19.43-.5-1.62-.99-3.26-1.48-4.95-2.42-8.47-4.22-16.43-5.56-23.63-1.1,5.79-3.03,13.46-6.54,21.59-1.67-6.4-3-12.47-4.05-18.07-.93,4.88-2.44,11.1-5,17.8-2.09-7.61-3.7-14.78-4.92-21.32-.79,4.13-2,9.24-3.9,14.77-1.73-6.56-3.09-12.77-4.16-18.49-.6,3.17-1.46,6.91-2.68,10.97-.09-.32-.19-.64-.28-.96-2.42-8.47-4.22-16.43-5.56-23.63-.65,3.44-1.6,7.54-3,12.02-2.17-7.8-3.81-15.15-5.07-21.85-.77,4.07-1.96,9.08-3.82,14.53-1.99-7.33-3.52-14.23-4.71-20.56-.75,3.94-1.89,8.76-3.64,14.01-1.85-6.92-3.3-13.47-4.42-19.48-1.13,5.92-3.12,13.83-6.79,22.17-1.12-4.65-2.06-9.1-2.85-13.29-.67,3.52-1.65,7.74-3.1,12.33-1.58-6.13-2.84-11.95-3.85-17.34-1,5.28-2.7,12.13-5.65,19.46-2.2-7.89-3.87-15.33-5.13-22.09-.85,4.47-2.19,10.06-4.38,16.12-.13-.44-.26-.87-.39-1.32-2.42-8.47-4.22-16.43-5.56-23.63-1.18,6.22-3.32,14.63-7.36,23.44-1.41-5.59-2.56-10.91-3.48-15.87-1.25,6.59-3.59,15.64-8.11,25.02-1.61-6.2-2.88-12.07-3.9-17.52-1.26,6.65-3.62,15.8-8.22,25.26l-1.31-.33c-1.32-5.32-2.41-10.39-3.3-15.12-.68,3.56-1.67,7.84-3.15,12.49-2.23-7.97-3.92-15.48-5.19-22.3-.68,3.59-1.69,7.9-3.18,12.6-.24-.8-.47-1.59-.71-2.4-2.42-8.47-4.22-16.43-5.56-23.63-1.19,6.26-3.35,14.72-7.43,23.58-1.01-4.25-1.86-8.33-2.58-12.19-.9,4.76-2.37,10.8-4.81,17.31-.06-.21-.12-.42-.19-.63-2.42-8.47-4.22-16.43-5.56-23.63-1.1,5.79-3.03,13.48-6.55,21.62l-.33-.08c-1.77-6.67-3.15-12.99-4.24-18.81-.76,3.98-1.91,8.86-3.69,14.16-2.1-7.61-3.7-14.79-4.93-21.34-.94,4.92-2.47,11.21-5.07,17.98-1.15-4.74-2.11-9.27-2.9-13.53-.79,4.15-2.01,9.27-3.93,14.84-.08-.28-.16-.54-.24-.82-2.42-8.47-4.22-16.43-5.56-23.63-1.07,5.65-2.94,13.1-6.3,21.02-1.6-6.2-2.88-12.07-3.9-17.5-.68,3.59-1.69,7.92-3.19,12.63-1.28-5.18-2.34-10.12-3.2-14.75-.81,4.26-2.07,9.55-4.08,15.28-1.79-6.73-3.19-13.1-4.28-18.97-.84,4.44-2.18,10-4.34,16.03-1.6-6.18-2.87-12.03-3.88-17.46-.7,3.68-1.74,8.14-3.31,12.99-2.16-7.79-3.81-15.13-5.06-21.81-.91,4.8-2.39,10.89-4.87,17.47-.26-.88-.52-1.76-.78-2.66-2.42-8.47-4.22-16.43-5.56-23.63-1.29,6.8-3.72,16.2-8.53,25.89-2.17-7.81-3.82-15.17-5.07-21.87-.87,4.57-2.26,10.31-4.52,16.52-.04-.15-.09-.29-.13-.44-2.42-8.47-4.22-16.43-5.56-23.63-1.36,7.13-3.97,17.14-9.26,27.33-1.63-6.27-2.92-12.21-3.95-17.71-.92,4.84-2.42,11-4.94,17.65-.75-2.37-1.5-4.81-2.22-7.34-2.42-8.47-4.22-16.43-5.56-23.63-1.4,7.35-4.13,17.76-9.76,28.28l-.79-.15c-1.29-5.2-2.35-10.16-3.21-14.8-.64,3.39-1.57,7.42-2.93,11.81-.41-1.34-.81-2.69-1.21-4.08-2.42-8.47-4.22-16.43-5.56-23.63-1.26,6.65-3.62,15.79-8.22,25.25-2.09-7.58-3.68-14.73-4.9-21.25-1.01,5.32-2.72,12.24-5.72,19.64-.94-2.88-1.87-5.87-2.76-9-2.42-8.47-4.22-16.43-5.56-23.63-1.15,6.06-3.22,14.2-7.06,22.76-.75-2.37-1.5-4.81-2.22-7.34-2.42-8.47-4.22-16.43-5.56-23.63-1.29,6.77-3.7,16.13-8.47,25.78,0,0,0-.02,0-.03-2.42-8.47-4.22-16.43-5.56-23.63-1.33,6.98-3.86,16.7-8.92,26.65-.3-1-.6-2-.89-3.02-2.42-8.47-4.22-16.43-5.56-23.63-1.22,6.43-3.47,15.2-7.78,24.33-1.11-3.33-2.2-6.83-3.25-10.5-2.42-8.47-4.22-16.43-5.56-23.63-1.48,7.76-4.43,18.92-10.72,30.03-.06.11-.12.21-.18.32-.04-.14-.08-.28-.13-.43-2.42-8.47-4.22-16.43-5.56-23.63-1.16,6.1-3.24,14.29-7.12,22.91-1.7-2.34-3.41-4.78-5.13-7.36-4.9-7.32-9.06-14.34-12.56-20.78.87,6.94,1.45,16.78-.21,27.62-1.58-2.97-3.24-7.67-3.31-14.7-.03-3.18.27-6.24.7-8.97-3.72,4.5-7.44,9-11.16,13.5-.91-7.53-1.45-14.59-1.73-21.03-2.31,6.91-6.23,16.48-12.72,25.91-.81-2.17-1.61-4.39-2.41-6.7-2.91-8.49-5.17-16.49-6.94-23.74-.89,7.02-2.78,16.78-7.04,26.97-.71-8.51-.86-16.38-.66-23.44-3.14,5.41-7.99,12.45-15.2,19.29v2.11s0,0,0,0v1118.27h1915.96c-5.57-29.44-22.04-92.41-75.9-143.96Z"/></g><g id="Mountains_3"><g id="Layer_18"><path class="cls-2" d="m1712.09,0c11.89,9.07,22.53,14.45,30.1,17.69,19.19,8.23,28.31,6.91,47.54,17.24,3.6,1.94,9.42,5.84,20.9,13.58,14.8,9.97,26.82,18.31,35,24.03.12,5.67.83,13.79,3.66,22.99,6.6,21.46,20.61,35.39,44.93,59.04,5.46,5.3,12.77,12.16,21.74,19.85v467.63c-31.8-9.33-65.84-17.54-102.04-23.97-178.53-31.7-335.43-6.93-448.34,24.41-33.7-11.37-60.08-22.64-78.3-31.05-21.2-9.78-40-19.67-71.07-29.86-13.4-4.4-23.42-7-33.78-9.68-42.77-11.09-57.09-10.74-89.31-19.21-12.23-3.22-30.59-8.64-52.67-17.63,0-43.89,7.79-100.28,47.17-135.84,36.51-32.97,61.91-13.51,116.48-47.66,72.86-45.6,103.53-127.84,116.29-162.04,9.58-25.69,14.73-47.87,17.62-63,11.57,6.15,25.71,12.61,42.29,18.13,15.65,5.21,30.05,8.44,42.43,10.47-.47,3.9-1.93,19.89,8.74,35.23,11.4,16.39,28.4,20.17,31.97,20.89,4.21-8.84,12.38-23.14,27.25-36.55,14.66-13.22,29.49-19.87,38.65-23.17,8.7,3.06,22.88,6.61,39.14,3.52,24.06-4.57,39.21-21.13,49.56-32.89,41.48-47.12,78.74-99.99,94.06-122.16Z"/></g><g id="Layer_17"><path class="cls-1" d="m1878.68,619.49c-5.91-.78-11.27-.39-15.81.44.29-2.34.59-4.68.88-7.02-3.22-2.2-6.44-4.39-9.66-6.59,12.81-6.31,21.76-6.2,27.66-4.83,3.72.87,8.06,2.67,11.41.44.7-.46,3.71-2.67,3.95-10.98.33-11.46-5.02-20.42-6.15-22.39-11.63-20.3,3.41-33.97-4.63-75.37-2.35-12.13-5.71-21.62-10.28-34.52-6.97-19.67-11.07-25.71-16.16-41.86-2.69-8.55-6.07-21.24-8.08-37.46-8.81-5.36-16.59-7.43-21.57-8.33-14.58-2.66-26.65.7-38.24,3.92-8.65,2.41-15.52,5.25-20.1,7.35,11.53-13.33,22.69-21.46,30.88-26.47,5.88-3.59,16.5-8.6,37.75-18.63,16.59-7.83,22.42-10.33,28.43-17.16,6.98-7.94,9.91-16.82,11.28-23.04-14.26-3.46-21.76-9.63-25.98-14.71-4.83-5.8-7.26-12.44-13.73-13.73-3.51-.7-6.02.61-11.28,2.94-.8.36-19.62,8.62-35.79,12.26-3.23.73-15.19,3.42-16.18.98-1.14-2.82,14.33-7.72,22.06-22.55,2.92-5.61,1.55-6.51,4.41-18.14,5.93-24.11,15.08-33.4,13.24-48.04-.22-1.78-.84-6.33-3.48-11.39-3-5.75-7-9.05-8.23-10.12-6.13-5.37-8.97-12.93-18.8-37.49-14.72-36.77-16.01-39.4-18.95-43-5-6.12-6.92-6.63-21.68-21.68-13.82-14.09-20.73-21.14-24.57-27.46-4.71-7.76-10.9-21.92-9.24-44.87-8.58,10.99-22.17,26.28-41.81,40.71-24.59,18.06-30.15,13.81-52.81,30.81-23.64,17.74-20.99,24.91-57.21,56.11-10.02,8.63-17.84,15.32-29.71,23.11-18.59,12.2-25.83,13.13-37.41,22.01-5.85,4.49-15.74,15.27-24.45,28.11.14,1.58.28,3.17.4,4.8,1.22,16.22,1.35,34.87,0,46.86-4.97,44.08-39.13,79.12-56.43,94.71.19-3.12.91-8,3.63-13.2,1.36-2.61,2.91-4.68,4.29-6.27,7.63-5.27,12.54-10.87,15.51-14.85,4.43-5.93,11.16-14.94,8.25-22.11-1.25-3.07-3.29-3.4-5.28-5.94-3.23-4.12-4.94-12.31,2.97-30.36-4.28.65-9.24,1.83-14.52,3.96-15.73,6.35-25.17,17.45-29.7,23.76,3.03-7.12,7.51-15.89,14.19-25.08,7.72-10.63,15.87-18.39,22.44-23.76-.4-1.43-.98-4.2-.33-7.59.57-2.95,1.82-5.09,2.64-6.27-3.18-.72-5.69-.49-7.59,0-5.14,1.33-6.55,4.77-11.88,6.27-2.98.84-4.91.43-7.59.33-7.9-.3-14.24,2.35-20.46,4.95-13.89,5.8-13.33,12.35-28.38,18.81-6.16,2.65-6.69,1.73-12.21,3.96-8.06,3.25-17.94,9.63-27.39,23.1,2.28-5.81,5.7-12.61,10.89-19.47,14.96-19.78,35.14-27.48,44.55-30.36.16-.3,2.07-3.82.66-5.94-1.45-2.19-6.32-2.74-10.89.66,3.08-3.13,6.48-6.35,10.23-9.57,7.33-6.31,14.52-11.41,21.12-15.51.78-1.9,1.82-5.18.33-6.93-1.52-1.78-4.91-1.07-10.89.33-9.66,2.26-14.49,3.38-18.81,4.62-9.5,2.73-11.75,2.59-18.15,4.29-21.44,5.71-33.8,17.31-34.65,16.17-.91-1.22,12.21-15.93,33-28.05,13.76-8.02,20.81-9.04,46.86-20.13,10.37-4.42,19.06-8.43,25.43-11.47-14.19-3.34-30.2-7.48-38.92-10.33-17.3-5.63-32.02-12.33-44.01-18.7-21.19,7.61-52.45,21.26-84.72,46.21-36.4,28.14-36.06,41.24-64.92,54.1-35.12,15.65-76.79,14.6-104.34,13.91-17.1-.43-28.61-1.99-48.69.77-22.27,3.07-41.94,6.06-56.42,21.64-10.79,11.61-21.26,32.98-13.91,47.14,3.25,6.27,7.98,7.25,44.83,24.73,20.04,9.51,26.8,13.09,27.05,18.55.22,4.91-4.98,8.07-18.76,18.27-26.57,19.68-22.18,19.03-32.31,25.05-14.5,8.63-26.47,11.72-47.47,17.14-32.52,8.4-35.96,4.35-49.45,11.87-6.41,3.57-31.84,19.01-31.65,42.2.15,18.4,15.29,30.63,23.08,36.92,20.08,16.22,43.62,18.28,63.7,19.79,28.74,2.15,34.17-4.04,60.37,0,19.9,3.07,33.74,9.26,40.93,12.28.99.42,1.98.82,2.97,1.22,12.12-6.3,22.7-9.56,30.9-11.37,21.15-4.69,29.67-.54,46.81-9.47,8.67-4.52,14.13-9.56,25.07-10.59,9.95-.93,19.14,1.95,21.73,2.79,6.91,2.23,8.52,4.14,15.6,7.24,11.03,4.84,15.99,4.1,25.07,6.69,15.66,4.46,16.82,11.17,35.1,21.17,8.47,4.63,7.85,2.99,34.55,12.82,37.18,13.68,46.7,19.93,50.15,22.29,11.64,7.95,27.16,18.56,26.19,30.65-.81,10.11-12.82,17.27-21.36,21.33,16.38,6.41,35.26,13.66,57.15,21.89,97.19,36.53,145.78,54.79,156.98,55.26,12.63.53,46.15.36,71.22,22.1,8.14,7.06,10.2,11.93,20.47,19.65,21.89,16.46,45.21,18.9,55.67,20.47,54.94,8.22,62.88,38.33,146.53,67.13,15.8,5.44,39.56,12.64,69.84,18.01,1.35-69.6,2.69-139.19,4.04-208.79-3.24-4.91-17.24-24.92-41.32-28.1Zm-438.87-152.34c-2.04,5.58-6.15,9.25-9.21,11.42-2.25-4.66-5.8-10.55-11.42-16.21-13.64-13.73-30.25-16.83-36.83-17.68-.43,4.6-.44,12.12,2.95,20.26,7.93,19.04,27.57,24.94,30.57,25.78-.74,3.07-1.47,6.14-2.21,9.21-3.35-1.17-9.94-2.9-17.68-1.1-2.78.65-5.12,1.61-7,2.58-6.61-4.51-18.55-11.4-34.99-14.37-13.43-2.42-24.75-1.31-32.05,0-1.38.26-12.45,2.12-20.63-5.52-4.1-3.83-5.65-8.35-6.26-10.68-.68-.87-4.41-5.52-11.05-6.26-5.49-.61-9.53,1.83-10.68,2.58-1.96-.86-3.93-1.72-5.89-2.58-1.21,3.17-3.89,8.99-9.58,14.36-5.78,5.47-11.85,7.83-15.1,8.84-3.26-7.18-6.83-17.17-8.47-29.47-1-7.5-1.07-14.24-.74-19.89,16.01-14.97,18.12-21.16,16.58-23.94-1.07-1.92-3.35-1.25-10.31-4.42-7.69-3.51-8.41-5.93-13.26-7-3.37-.74-5.91-.21-13.26,1.84-15.98,4.45-21.46,6.8-21.73,6.26-.62-1.21,25.16-17.44,58.93-33.15,23.79-11.07,44.49-18.6,59.67-23.57.37,1.6.74,3.19,1.1,4.79,6.7-1,16.96-1.6,28.73,1.47,23.38,6.11,36.61,22.53,40.89,28.36-.49,1.84-.98,3.68-1.47,5.52,25.96,10.29,39.97,25.58,46.41,33.89,7.26,9.37,19.12,24.66,14,38.68Zm67.13-203.83c.33-6.53,1.55-15.98,5.65-26.59,3.61-9.33,8.24-16.42,11.96-21.27,9.18-6.19,20.26-12.79,33.23-18.94,12.4-5.88,24.01-10.15,34.23-13.29-14.51,25.7-29.02,51.4-43.53,77.1-.32-8.31-.14-17.82,1-28.25.81-7.37,1.98-14.15,3.32-20.27-4.52,1.39-9.3,3.03-14.29,4.98-4.13,1.62-8.01,3.3-11.63,4.98-6.65,13.85-13.29,27.69-19.94,41.54Zm213.07,162.89c-4.18,10.53-8.63,20.08-13.05,28.62,1.59-6.58,3.68-17.15,4.21-30.3.28-6.97,1.99-49.79-13.89-55.56-4.28-1.55-7.01.61-14.73-2.1-7.76-2.72-9.23-6.38-13.47-7.16-9.21-1.67-19.3,12.53-23.99,19.78-15.2,23.49-17.3,41.29-24.83,62.71-4.57,12.99-12.38,30.87-26.52,50.93-4.79-23.29-1.35-39.21,2.95-49.66,3.65-8.87,10.6-20.32,11.78-38.3.82-12.34-1.94-14.82-3.37-15.57-4.55-2.41-12.19,3.89-15.57,6.73-14.52,12.21-20.24,28.26-21.47,31.57-5.2,14.11-15.72,33.33-39.14,55.14,3.8-19.21,9.1-35.09,13.89-47.14,8.74-21.99,15.38-38.7,30.3-55.98,11.41-13.21,21.06-19.11,29.88-37.04,6.46-13.13,6.34-20.23,5.89-23.99-1.65-13.92-12.03-18.58-15.57-27.36-4.22-10.45.1-29.58,41.25-67.76,2.36-2.34,2.96-5.72,1.68-8-1.69-3.02-6.72-4.2-10.52-1.26,1.33-5.99,3.66-14.3,8-23.57,10.93-23.38,28.34-39.53,30.72-37.88,2.12,1.47-10.37,15.03-10.94,36.2-.34,12.54,3.64,23.13,7.58,30.72.32,9.51-1.64,16.31-3.37,20.62-4.37,10.9-10.8,14.72-11.36,24.83-.03.46-.52,10.7,3.37,12.21,3.41,1.32,10.7-3.92,27.36-30.72.93,3.84,2.12,9.84,2.53,17.26.8,14.86-2.38,20.89-2.53,31.15-.22,16.22,7.38,28.7,12.21,36.62,9.46,15.53,16.78,16.18,29.04,33.67,6.9,9.84,11.06,18.87,13.47,24.83-2.89,10.93-6.7,22.98-11.78,35.78Z"/></g></g></g></svg>