<?xml version="1.0" encoding="UTF-8"?><svg id="Layer_2" xmlns="http://www.w3.org/2000/svg" viewBox="0 0 1921.02 1226.43"><defs><style>.cls-1{fill:#db233c;}.cls-2{fill:#d95565;}</style></defs><g id="Layer_32"><g id="Trees_2"><path class="cls-2" d="m1.02,805.39c43.69-11.01,551.59-150.89,581.9-173.52,11.84-8.84,84.93-53.4,292.79-94.76,34.48-6.86,44.7-60.31,12.97-78.26-87.41-49.46,43.15-181.13,36.01-187.71-.98-.52,93.32-9.6,93.7-10.58,1.91-5.01,3.41-9.74,4.6-14.03.35,3.38,1.07,7.84,2.6,12.66,1.45-4.03,2.65-7.86,3.63-11.39.35,3.38,1.07,7.85,2.6,12.67,2.38-6.61,4.34-12.88,5.94-18.67.48,4.73,1.41,10.73,3.21,17.29,1.45-4.38,2.73-8.58,3.83-12.56.44,4.32,1.25,9.7,2.76,15.6,1.89-5.48,3.5-10.71,4.86-15.6.44,4.32,1.25,9.7,2.76,15.59,1.89-5.48,3.5-10.71,4.86-15.59.42,4.1,1.17,9.15,2.54,14.7,1.26-3.86,2.36-7.57,3.34-11.1.38,3.68,1.02,8.14,2.14,13.03h2.69c1.78-5.21,3.3-10.18,4.6-14.84.42,4.13,1.18,9.24,2.57,14.84h.29c1.78-5.2,3.3-10.18,4.6-14.83.42,4.12,1.18,9.22,2.56,14.8,2.05-5.84,3.76-11.41,5.2-16.59.46,4.52,1.32,10.19,2.97,16.41,2.32-6.47,4.23-12.62,5.81-18.3.51,5,1.51,11.43,3.54,18.44,1.77-5.18,3.28-10.13,4.57-14.76.42,4.13,1.18,9.24,2.57,14.84h.32c2.35-6.55,4.29-12.77,5.89-18.51.46,4.51,1.32,10.19,2.97,16.4,2.02-5.77,3.71-11.28,5.13-16.4.52,5.02,1.52,11.48,3.56,18.51h1.09c2.35-6.55,4.29-12.77,5.89-18.51.41,4,1.13,8.92,2.44,14.31,2.47-6.81,4.49-13.26,6.14-19.21.56,5.5,1.72,12.73,4.18,20.56,2.46-6.78,4.47-13.22,6.11-19.15.55,5.39,1.66,12.43,4.02,20.06,1.76-5.15,3.26-10.07,4.54-14.68.47,4.57,1.34,10.33,3.03,16.62h1.96c2.64-7.19,4.78-14.01,6.52-20.26.54,5.24,1.61,12.05,3.84,19.45,2.39-6.63,4.35-12.92,5.96-18.73.48,4.68,1.39,10.6,3.15,17.07,2.76-7.44,4.98-14.49,6.77-20.94.49,4.81,1.43,10.93,3.3,17.62,3.08-8.11,5.51-15.78,7.45-22.75.57,5.58,1.75,12.94,4.28,20.88,1.94-7.18,3.44-13.97,4.61-20.18,1.06,5.58,2.89,12.91,6.17,20.71,1.18-4.85,2.16-9.49,2.98-13.84.73,3.84,1.82,8.5,3.5,13.58l1.36-.25c1.48-5.82,2.68-11.35,3.64-16.48.75,3.94,1.88,8.75,3.63,13.98,1.87-6.98,3.33-13.58,4.46-19.64.98,5.15,2.62,11.79,5.44,18.92l.23-.04c1.11-4.62,2.05-9.05,2.83-13.22.63,3.31,1.53,7.25,2.85,11.53,1.73-6.56,3.09-12.77,4.16-18.5.86,4.5,2.22,10.15,4.43,16.27,2.21-7.91,3.88-15.37,5.15-22.15.97,5.1,2.59,11.67,5.36,18.73,1.97-7.26,3.48-14.1,4.66-20.37.94,4.96,2.49,11.3,5.12,18.12,1.68-6.42,3.01-12.51,4.06-18.12.62,3.25,1.5,7.1,2.77,11.29,1.95-7.22,3.46-14.03,4.63-20.27,1.12,5.89,3.1,13.74,6.73,22.04,1.42-5.62,2.57-10.97,3.5-15.94.74,3.89,1.85,8.62,3.56,13.78,1.68-6.43,3.01-12.51,4.06-18.13.93,4.87,2.44,11.09,4.99,17.79,1.64-6.3,2.94-12.27,3.97-17.79.73,3.86,1.83,8.56,3.53,13.67,1.7-6.48,3.04-12.61,4.1-18.27.87,4.58,2.26,10.34,4.54,16.58,1.85-6.92,3.29-13.46,4.42-19.47,1.18,6.2,3.31,14.58,7.32,23.35,2.29-8.13,4.01-15.79,5.31-22.73.79,4.18,2.02,9.34,3.96,14.95,2.15-7.75,3.78-15.05,5.03-21.7,1.06,5.57,2.89,12.89,6.15,20.67,2.34-8.25,4.09-16.02,5.4-23.05,1.31,6.89,3.8,16.46,8.73,26.29l.24-.04c2.23-7.96,3.91-15.46,5.18-22.27,1,5.27,2.69,12.11,5.64,19.43.5-1.62.99-3.26,1.48-4.95,2.42-8.47,4.22-16.43,5.56-23.63,1.1,5.79,3.03,13.46,6.54,21.59,1.67-6.4,3-12.47,4.05-18.07.93,4.88,2.44,11.1,5,17.8,2.09-7.61,3.7-14.78,4.92-21.32.79,4.13,2,9.24,3.9,14.77,1.73-6.56,3.09-12.77,4.16-18.49.6,3.17,1.46,6.91,2.68,10.97.09-.32.19-.64.28-.96,2.42-8.47,4.22-16.43,5.56-23.63.65,3.44,1.6,7.54,3,12.02,2.17-7.8,3.81-15.15,5.07-21.85.77,4.07,1.96,9.08,3.82,14.53,1.99-7.33,3.52-14.23,4.71-20.56.75,3.94,1.89,8.76,3.64,14.01,1.85-6.92,3.3-13.47,4.42-19.48,1.13,5.92,3.12,13.83,6.79,22.17,1.12-4.65,2.06-9.1,2.85-13.29.67,3.52,1.65,7.74,3.1,12.33,1.58-6.13,2.84-11.95,3.85-17.34,1,5.28,2.7,12.13,5.65,19.46,2.2-7.89,3.87-15.33,5.13-22.09.85,4.47,2.19,10.06,4.38,16.12.13-.44.26-.87.39-1.32,2.42-8.47,4.22-16.43,5.56-23.63,1.18,6.22,3.32,14.63,7.36,23.44,1.41-5.59,2.56-10.91,3.48-15.87,1.25,6.59,3.59,15.64,8.11,25.02,1.61-6.2,2.88-12.07,3.9-17.52,1.26,6.65,3.62,15.8,8.22,25.26l1.31-.33c1.32-5.32,2.41-10.39,3.3-15.12.68,3.56,1.67,7.84,3.15,12.49,2.23-7.97,3.92-15.48,5.19-22.3.68,3.59,1.69,7.9,3.18,12.6.24-.8.47-1.59.71-2.4,2.42-8.47,4.22-16.43,5.56-23.63,1.19,6.26,3.35,14.72,7.43,23.58,1.01-4.25,1.86-8.33,2.58-12.19.9,4.76,2.37,10.8,4.81,17.31.06-.21.12-.42.19-.63,2.42-8.47,4.22-16.43,5.56-23.63,1.1,5.79,3.03,13.48,6.55,21.62l.33-.08c1.77-6.67,3.15-12.99,4.24-18.81.76,3.98,1.91,8.86,3.69,14.16,2.1-7.61,3.7-14.79,4.93-21.34.94,4.92,2.47,11.21,5.07,17.98,1.15-4.74,2.11-9.27,2.9-13.53.79,4.15,2.01,9.27,3.93,14.84.08-.28.16-.54.24-.82,2.42-8.47,4.22-16.43,5.56-23.63,1.07,5.65,2.94,13.1,6.3,21.02,1.6-6.2,2.88-12.07,3.9-17.5.68,3.59,1.69,7.92,3.19,12.63,1.28-5.18,2.34-10.12,3.2-14.75.81,4.26,2.07,9.55,4.08,15.28,1.79-6.73,3.19-13.1,4.28-18.97.84,4.44,2.18,10,4.34,16.03,1.6-6.18,2.87-12.03,3.88-17.46.7,3.68,1.74,8.14,3.31,12.99,2.16-7.79,3.81-15.13,5.06-21.81.91,4.8,2.39,10.89,4.87,17.47.26-.88.52-1.76.78-2.66,2.42-8.47,4.22-16.43,5.56-23.63,1.29,6.8,3.72,16.2,8.53,25.89,2.17-7.81,3.82-15.17,5.07-21.87.87,4.57,2.26,10.31,4.52,16.52.04-.15.09-.29.13-.44,2.42-8.47,4.22-16.43,5.56-23.63,1.36,7.13,3.97,17.14,9.26,27.33,1.63-6.27,2.92-12.21,3.95-17.71.92,4.84,2.42,11,4.94,17.65.75-2.37,1.5-4.81,2.22-7.34,2.42-8.47,4.22-16.43,5.56-23.63,1.4,7.35,4.13,17.76,9.76,28.28l.79-.15c1.29-5.2,2.35-10.16,3.21-14.8.64,3.39,1.57,7.42,2.93,11.81.41-1.34.81-2.69,1.21-4.08,2.42-8.47,4.22-16.43,5.56-23.63,1.26,6.65,3.62,15.79,8.22,25.25,2.09-7.58,3.68-14.73,4.9-21.25,1.01,5.32,2.72,12.24,5.72,19.64.94-2.88,1.87-5.87,2.76-9,2.42-8.47,4.22-16.43,5.56-23.63,1.15,6.06,3.22,14.2,7.06,22.76.75-2.37,1.5-4.81,2.22-7.34,2.42-8.47,4.22-16.43,5.56-23.63,1.29,6.77,3.7,16.13,8.47,25.78,0,0,0-.02,0-.03,2.42-8.47,4.22-16.43,5.56-23.63,1.33,6.98,3.86,16.7,8.92,26.65.3-1,.6-2,.89-3.02,2.42-8.47,4.22-16.43,5.56-23.63,1.22,6.43,3.47,15.2,7.78,24.33,1.11-3.33,2.2-6.83,3.25-10.5,2.42-8.47,4.22-16.43,5.56-23.63,1.48,7.76,4.43,18.92,10.72,30.03.06.11.12.21.18.32.04-.14.08-.28.13-.43,2.42-8.47,4.22-16.43,5.56-23.63,1.16,6.1,3.24,14.29,7.12,22.91,1.7-2.34,3.41-4.78,5.13-7.36,4.9-7.32,9.06-14.34,12.56-20.78-.87,6.94-1.45,16.78.21,27.62,1.58-2.97,3.24-7.67,3.31-14.7.03-3.18-.27-6.24-.7-8.97,3.72,4.5,7.44,9,11.16,13.5.91-7.53,1.45-14.59,1.73-21.03,2.31,6.91,6.23,16.48,12.72,25.91.81-2.17,1.61-4.39,2.41-6.7,2.91-8.49,5.17-16.49,6.94-23.74.89,7.02,2.78,16.78,7.04,26.97.71-8.51.86-16.38.66-23.44,3.14,5.41,7.99,12.45,15.2,19.29v2.11s0,0,0,0v1118.27c-638.65,0-1281.35-31.04-1920-31.04v-390Z"/></g><g id="Mountains_3"><g id="Layer_18"><path class="cls-2" d="m208.93,0c-11.89,9.07-22.53,14.45-30.1,17.69-19.19,8.23-28.31,6.91-47.54,17.24-3.6,1.94-9.42,5.84-20.9,13.58-14.8,9.97-26.82,18.31-35,24.03-.12,5.67-.83,13.79-3.66,22.99-6.6,21.46-20.61,35.39-44.93,59.04-5.46,5.3-16.81,14.68-25.78,22.38-.84,286.47-1.8,593,0,470.63,31.8-9.33,69.88-23.06,106.08-29.49,178.53-31.7,335.43-6.93,448.34,24.41,33.7-11.37,60.08-22.64,78.3-31.05,21.2-9.78,40-19.67,71.07-29.86,13.4-4.4,23.42-7,33.78-9.68,42.77-11.09,57.09-10.74,89.31-19.21,12.23-3.22,30.59-8.64,52.67-17.63,0-43.89-7.79-100.28-47.17-135.84-36.51-32.97-61.91-13.51-116.48-47.66-72.86-45.6-103.53-127.84-116.29-162.04-9.58-25.69-14.73-47.87-17.62-63-11.57,6.15-25.71,12.61-42.29,18.13-15.65,5.21-30.05,8.44-42.43,10.47.47,3.9,1.93,19.89-8.74,35.23-11.4,16.39-28.4,20.17-31.97,20.89-4.21-8.84-12.38-23.14-27.25-36.55-14.66-13.22-29.49-19.87-38.65-23.17-8.7,3.06-22.88,6.61-39.14,3.52-24.06-4.57-39.21-21.13-49.56-32.89C261.51,75.04,224.25,22.18,208.93,0Z"/></g><g id="Layer_17"><path class="cls-1" d="m1.02,647.59v208.79c30.28-5.37,58.08-12.57,73.88-18.01,83.65-28.79,91.59-58.91,146.53-67.13,10.45-1.56,33.77-4,55.67-20.47,10.27-7.72,12.33-12.59,20.47-19.65,25.07-21.74,58.59-21.57,71.22-22.1,11.19-.47,59.79-18.73,156.98-55.26,21.89-8.23,40.77-15.48,57.15-21.89-8.54-4.05-20.55-11.22-21.36-21.33-.97-12.09,14.55-22.69,26.19-30.65,3.45-2.36,12.97-8.6,50.15-22.29,26.69-9.82,26.08-8.18,34.55-12.82,18.28-10,19.44-16.72,35.1-21.17,9.08-2.58,14.05-1.85,25.07-6.69,7.08-3.11,8.7-5.02,15.6-7.24,2.59-.84,11.78-3.72,21.73-2.79,10.95,1.03,16.4,6.07,25.07,10.59,17.13,8.93,25.66,4.79,46.81,9.47,8.2,1.82,18.77,5.07,30.9,11.37.99-.4,1.98-.8,2.97-1.22,7.19-3.02,21.03-9.21,40.93-12.28,26.2-4.04,31.63,2.15,60.37,0,20.08-1.5,43.63-3.57,63.7-19.79,7.79-6.29,22.93-18.52,23.08-36.92.19-23.18-25.23-38.62-31.65-42.2-13.49-7.52-16.93-3.47-49.45-11.87-21-5.42-32.97-8.51-47.47-17.14-10.13-6.02-5.74-5.38-32.31-25.05-13.78-10.2-18.99-13.36-18.76-18.27.25-5.46,7.01-9.04,27.05-18.55,36.84-17.48,41.57-18.46,44.83-24.73,7.35-14.17-3.12-35.54-13.91-47.14-14.48-15.58-34.15-18.57-56.42-21.64-20.08-2.77-31.59-1.2-48.69-.77-27.55.69-69.22,1.74-104.34-13.91-28.86-12.86-28.52-25.96-64.92-54.1-32.28-24.95-63.53-38.6-84.72-46.21-11.99,6.38-26.71,13.07-44.01,18.7-8.72,2.84-24.72,6.98-38.92,10.33,6.38,3.04,15.06,7.06,25.43,11.47,26.05,11.1,33.1,12.11,46.86,20.13,20.79,12.12,33.91,26.83,33,28.05-.85,1.14-13.21-10.46-34.65-16.17-6.4-1.7-8.65-1.56-18.15-4.29-4.32-1.24-9.15-2.37-18.81-4.62-5.98-1.4-9.37-2.11-10.89-.33-1.49,1.75-.45,5.03.33,6.93,6.6,4.1,13.79,9.2,21.12,15.51,3.75,3.22,7.15,6.44,10.23,9.57-4.57-3.4-9.44-2.85-10.89-.66-1.41,2.12.5,5.64.66,5.94,9.41,2.88,29.59,10.58,44.55,30.36,5.19,6.86,8.61,13.66,10.89,19.47-9.45-13.47-19.33-19.85-27.39-23.1-5.52-2.23-6.05-1.32-12.21-3.96-15.05-6.46-14.5-13.01-28.38-18.81-6.22-2.6-12.56-5.25-20.46-4.95-2.68.1-4.61.51-7.59-.33-5.33-1.5-6.74-4.94-11.88-6.27-1.9-.49-4.41-.72-7.59,0,.82,1.18,2.07,3.32,2.64,6.27.65,3.39.07,6.16-.33,7.59,6.57,5.37,14.72,13.13,22.44,23.76,6.68,9.19,11.16,17.96,14.19,25.08-4.54-6.31-13.97-17.41-29.7-23.76-5.28-2.13-10.24-3.31-14.52-3.96,7.91,18.05,6.2,26.24,2.97,30.36-1.99,2.54-4.03,2.87-5.28,5.94-2.91,7.17,3.82,16.18,8.25,22.11,2.97,3.98,7.88,9.59,15.51,14.85,1.38,1.59,2.93,3.66,4.29,6.27,2.72,5.21,3.44,10.09,3.63,13.2-17.31-15.59-51.46-50.64-56.43-94.71-1.35-11.99-1.22-30.64,0-46.86.12-1.62.26-3.22.4-4.8-8.72-12.84-18.6-23.62-24.45-28.11-11.58-8.87-18.81-9.8-37.41-22.01-11.86-7.79-19.69-14.48-29.71-23.11-36.22-31.2-33.57-38.38-57.21-56.11-22.66-17-28.23-12.75-52.81-30.81-19.64-14.43-33.23-29.72-41.81-40.71,1.66,22.95-4.53,37.11-9.24,44.87-3.83,6.31-10.74,13.36-24.57,27.46-14.76,15.05-16.68,15.56-21.68,21.68-2.94,3.6-4.23,6.23-18.95,43-9.83,24.56-12.67,32.12-18.8,37.49-1.22,1.07-5.22,4.37-8.23,10.12-2.64,5.06-3.26,9.6-3.48,11.39-1.84,14.64,7.3,23.94,13.24,48.04,2.86,11.63,1.49,12.53,4.41,18.14,7.73,14.83,23.2,19.73,22.06,22.55-.98,2.44-12.95-.25-16.18-.98-16.16-3.64-34.98-11.9-35.79-12.26-5.26-2.33-7.77-3.64-11.28-2.94-6.46,1.29-8.9,7.92-13.73,13.73-4.23,5.08-11.72,11.24-25.98,14.71,1.37,6.22,4.29,15.11,11.28,23.04,6.01,6.83,11.84,9.33,28.43,17.16,21.25,10.03,31.87,15.04,37.75,18.63,8.19,5.01,19.36,13.14,30.88,26.47-4.58-2.1-11.45-4.95-20.1-7.35-11.59-3.22-23.66-6.58-38.24-3.92-4.98.91-12.76,2.98-21.57,8.33-2.01,16.22-5.39,28.91-8.08,37.46-5.08,16.15-9.19,22.19-16.16,41.86-4.57,12.9-7.93,22.39-10.28,34.52-8.04,41.4,7,55.07-4.63,75.37-1.13,1.97-6.48,10.93-6.15,22.39.24,8.31,3.25,10.51,3.95,10.98,3.36,2.23,7.69.43,11.41-.44,5.9-1.37,14.85-1.48,27.66,4.83-3.22,2.2-6.44,4.39-9.66,6.59.29,2.34.59,4.68.88,7.02-4.53-.83-9.9-1.22-15.81-.44-24.08,3.18-38.08,23.19-41.32,28.1Zm494.18-219.12c6.44-8.31,20.45-23.59,46.41-33.89-.49-1.84-.98-3.68-1.47-5.52,4.27-5.83,17.5-22.25,40.89-28.36,11.77-3.08,22.03-2.47,28.73-1.47.37-1.6.74-3.19,1.1-4.79,15.18,4.98,35.88,12.51,59.67,23.57,33.78,15.71,59.56,31.94,58.93,33.15-.28.54-5.75-1.81-21.73-6.26-7.35-2.05-9.89-2.58-13.26-1.84-4.85,1.07-5.57,3.49-13.26,7-6.96,3.18-9.24,2.5-10.31,4.42-1.54,2.78.56,8.97,16.58,23.94.33,5.66.26,12.39-.74,19.89-1.64,12.29-5.21,22.28-8.47,29.47-3.25-1.01-9.32-3.37-15.1-8.84-5.69-5.38-8.37-11.19-9.58-14.36-1.96.86-3.93,1.72-5.89,2.58-1.15-.75-5.19-3.19-10.68-2.58-6.64.74-10.37,5.39-11.05,6.26-.61,2.33-2.17,6.85-6.26,10.68-8.17,7.64-19.24,5.78-20.63,5.52-7.3-1.31-18.61-2.42-32.05,0-16.44,2.97-28.38,9.85-34.99,14.37-1.88-.97-4.22-1.93-7-2.58-7.74-1.8-14.33-.07-17.68,1.1-.74-3.07-1.47-6.14-2.21-9.21,3-.85,22.64-6.74,30.57-25.78,3.39-8.14,3.38-15.66,2.95-20.26-6.58.85-23.2,3.95-36.83,17.68-5.62,5.65-9.17,11.54-11.42,16.21-3.06-2.17-7.17-5.83-9.21-11.42-5.12-14.02,6.73-29.31,14-38.68Zm-101.06-206.7c-3.62-1.69-7.5-3.37-11.63-4.98-4.99-1.95-9.77-3.6-14.29-4.98,1.34,6.12,2.52,12.9,3.32,20.27,1.14,10.43,1.32,19.94,1,28.25-14.51-25.7-29.02-51.4-43.53-77.1,10.22,3.14,21.83,7.41,34.23,13.29,12.97,6.15,24.05,12.75,33.23,18.94,3.72,4.84,8.35,11.94,11.96,21.27,4.1,10.6,5.32,20.06,5.65,26.59-6.65-13.85-13.29-27.69-19.94-41.54Zm-204.92,168.66c2.4-5.96,6.57-14.99,13.47-24.83,12.27-17.49,19.58-18.15,29.04-33.67,4.83-7.92,12.43-20.4,12.21-36.62-.14-10.25-3.33-16.28-2.53-31.15.4-7.41,1.6-13.41,2.53-17.26,16.65,26.81,23.94,32.05,27.36,30.72,3.88-1.5,3.39-11.75,3.37-12.21-.57-10.11-7-13.94-11.36-24.83-1.73-4.31-3.69-11.11-3.37-20.62,3.94-7.59,7.91-18.18,7.58-30.72-.57-21.16-13.06-34.73-10.94-36.2,2.38-1.65,19.79,14.5,30.72,37.88,4.34,9.27,6.67,17.58,8,23.57-3.8-2.94-8.83-1.75-10.52,1.26-1.28,2.28-.68,5.65,1.68,8,41.15,38.18,45.46,57.32,41.25,67.76-3.54,8.78-13.92,13.44-15.57,27.36-.45,3.76-.57,10.86,5.89,23.99,8.82,17.93,18.47,23.82,29.88,37.04,14.92,17.28,21.56,33.98,30.3,55.98,4.79,12.05,10.09,27.93,13.89,47.14-23.42-21.8-33.94-41.02-39.14-55.14-1.22-3.31-6.95-19.35-21.47-31.57-3.39-2.85-11.02-9.14-15.57-6.73-1.43.76-4.18,3.23-3.37,15.57,1.19,17.98,8.14,29.43,11.78,38.3,4.3,10.46,7.73,26.37,2.95,49.66-14.13-20.06-21.95-37.94-26.52-50.93-7.53-21.43-9.63-39.22-24.83-62.71-4.69-7.25-14.78-21.46-23.99-19.78-4.24.77-5.71,4.43-13.47,7.16-7.72,2.71-10.45.55-14.73,2.1-15.88,5.77-14.17,48.58-13.89,55.56.53,13.15,2.62,23.72,4.21,30.3-4.42-8.54-8.87-18.09-13.05-28.62-5.08-12.8-8.89-24.85-11.78-35.78Z"/></g></g></g></svg>