<?xml version="1.0" encoding="UTF-8"?><svg id="Layer_2" xmlns="http://www.w3.org/2000/svg" viewBox="0 0 1920.01 1158.9"><defs><style>.cls-1{fill:#ea8d98;}.cls-2{fill:#eb8e99;}.cls-3{fill:#e3a6ab;}</style></defs><g id="Mountains"><g id="Layer_8"><path class="cls-1" d="m0,429.29c1.06-3.71,3.27-9.07,8.25-12.46,5.65-3.84,12.13-3.27,14.33-3.12,12.46.88,45.2-.48,91.59-3.12,61.83-38.31,87.88-60.17,99.07-73.52,3.22-3.84,11.93-14.99,24.3-15.58,6.77-.32,13.92,2.56,23.05,6.23,10.87,4.37,11.95,6.52,16.82,6.85,11.15.77,20.2-9.42,23.68-13.08,10.03-10.56,28.45-24.42,65.42-38.63-2.6,2.77-3.33,6.72-1.87,9.97,1.74,3.87,5.74,4.87,6.23,4.98,1.31,8.21,2.56,16.52,3.74,24.92,5.11,36.35,8.53,71.5,10.59,105.3,4.42,5.49,9.39,11.14,14.95,16.82,16,16.32,32.4,28.18,46.73,36.76,1.86-10.87-.13-17.9-2.49-22.43-1.39-2.67-3.85-6.28-7.69-14.02-2.9-5.84-4-8.82-2.66-10.92,1.44-2.27,5.02-2.37,6.13-2.4,6.52-.18,10.95,4.36,14.92,7.19,4.6,3.29,12.1,6.8,24.51,6.93.34,1.89.74,4.76.8,8.26.13,7.79-1.56,11.43-1.86,17.58-.18,3.54.07,8.62,2.13,14.92,2.7-3.84,5.44-6.52,7.46-8.26,3.76-3.24,6.3-5.43,10.12-5.86,4.09-.46,7.45,1.36,9.06,2.4.29,3.22.79,6.7,1.6,10.39,2.42,11.01,6.74,19.77,10.65,26.1-.81-5.35-1.43-11.42-1.6-18.11-.18-7.21.18-13.74.8-19.44-6.58-4.79-10.61-9.61-13.05-13.05-4.94-6.97-5.51-11.36-10.65-18.38-4.57-6.24-9.1-9.87-11.72-11.72-7.77-5.49-27.27-6.97-44.75-47.95,9.87,1.54,12.48,6.82,13.68,4.53,0,0-.26-2.04-.54-6.88-.18-3.13-1.7-6.6-3.81-11.91,5.48-6.19,14.32-15.38,26.65-24.9,10.77-8.31,12.84-8.1,22.49-15.83,15.91-12.74,17.11-18.76,30.82-30.41,12.28-10.43,13.03-7.04,30.82-19.58,18.32-12.91,21.45-19.26,43.32-37.07,14.14-11.52,11.07-7.47,29.16-21.66,28.28-22.18,32.71-29.39,49.66-36.34,9.68-3.96,12.69-3.44,19.27-8.17,11.64-8.36,11.08-16.36,23.55-25.25,3.49-2.49,10.29-7.34,19.86-8.51,12.55-1.54,16.82,4.83,26.1,3.12,6.86-1.26,11.37-6.01,22.13-21.28,20.07-28.47,19.93-34,29.23-43.85,9.67-10.24,11.91-6.48,39.62-22.69,37.28-21.81,37.75-31.27,61.54-38.08,10.96-3.14,13.78-1.97,34.23-7.31,14.74-3.85,26.55-7.92,34.23-10.77,4.06,4.24,9.71,11,14.23,20.39,9.4,19.52,3.04,27.82,8.57,54.85,5.65,27.64,15.09,32.63,12.73,52.51-1.29,10.84-4.35,11.47-9.25,26.35-3,9.12-13.09,43.06-3.24,76.27,4.95,16.7,13.37,27.88,24.04,42.07,7.17,9.53,28.15,35.55,33.74,55.93.63,2.31,2.37,8.62.46,9.71-1.89,1.08-6.42-3.56-7.86-5.08-8.37-.02-19.1.45-31.43,2.31-8.71,1.31-23.95,3.7-41.14,10.63-28.82,11.62-24.61,20.48-46.75,26.22-6.91,1.79-19.5,4.08-35.03,12.49-2.81,1.52-5.06,2.89-6.52,3.8,5.07,1.12,12.35,2.62,21.18,4.07,20.83,3.43,31.83,5.24,45.35,4.07,15.85-1.37,16.68-5.23,32.56-6.89,15.43-1.62,28.34.59,36.77,2.68.05,5.56.74,13.61,4,22.51,5.01,13.69,11.8,17.63,19.51,30.52,8.95,14.95,3.91,16.48,13.01,36.52,8.17,18,19.01,31.69,26.02,40.53,8.05,10.16,17.3,20.15,21.51,30.02.35.82,3.08,7.29,7,16.01,1.07,2.39,1.96,4.32,2.5,5.5.24,1.56,1.13,8.32-2.5,11.01-3.92,2.9-10.72-.72-15.01-3-12.98-6.91-12.33-14.44-23.52-18.51-4.74-1.73-7-1.15-12.51-4-6.12-3.17-9.71-7.18-10.51-8.01-4.86-4.98-20.46-8.71-66.54-4,9.94,12.19,12.86,22.72,13.76,29.91,1.94,15.64-4.57,24.86-3.23,46.42.53,8.6,2.09,15.5,3.23,19.78,4.58,1.75,9.15,3.5,13.73,5.25,3.58,3.74,9.36,9.54,16.95,16.15,13.09,11.39,18.74,14,25.84,21.4,0,0,5.54,11.94,17.36,29.47,32.48,48.16-2,438.83-2,438.83-363.72,0-723.9,4.23-1087.62,4.23,0,0,1.01-584.34,0-729.61Z"/><path class="cls-2" d="m1294.52,388.6c7.15-4.75,11.28-9.75,13.73-13.46,3.96-6,4.86-10.61,9.61-13.19,4.14-2.24,8.35-1.37,12.09-.82,0,0,9.53,1.4,29.94.27,18.19-1,31.98-15.6,44.23-28.57,12.24-12.97,12.13-18.47,25.55-29.67,7.65-6.39,16.2-13.53,25.55-13.46,2.25.02,5.49.46,9.07-1.37,4.74-2.43,5.18-6.35,9.34-7.14,1.8-.34,2.61.22,7.42,1.65,3.62,1.08,7.34,1.79,10.99,2.75,4.64,1.22,12.92,2.25,28.84,1.65-.68,4.53-1.7,11.23-2.94,19.34-5.64,36.76-6.08,37.99-6.73,44.98-2.24,24.06-3.36,36.09,2.1,47.5,5.12,10.68,14.56,20.3,22.28,28.16,9.98,10.17,12.65,10.36,15.55,16.39,3.91,8.15,1.86,13.68-.42,36.15-2.05,20.18-3.08,30.27-1.38,36.63,3.25,12.16,8.07,11.5,16.06,31.66,4.84,12.22,6.47,21.06,6.88,23.4,1.82,10.38,1.8,19.28,1.38,25.7-1.01-.14-2.71-.23-4.59.46-4.25,1.56-5.74,5.77-5.97,6.42-6.25-1.02-14.03-3.22-21.57-8.26-13.36-8.93-15.09-19.49-28.91-30.74-5-4.07-11.96-8.55-21.57-11.93-.38,1.31-.85,3.61-.46,6.42.58,4.13,3.05,6.64,2.75,6.88-.44.37-6.21-5.01-10.55-10.55-5.23-6.67-12.2-18.44-14.68-38.09-2.45-.31-4.89-.61-7.34-.92-1.11,4.33-2.33,8.77-3.67,13.31-2.04,6.91-4.2,13.49-6.42,19.73-1.71-4.81-4.6-12.17-9.18-20.65-7.72-14.3-10.56-13.88-13.77-22.48-6.04-16.21,1.87-23.47-5.51-33.96-.87-1.24-.32-.19-16.98-12.85-13.34-10.14-13.85-10.93-17.44-12.39-6.23-2.54-10.06-2.33-13.31-6.42-2.91-3.66-2.31-6.95-5.05-8.26-.83-.4-3.76-1.47-11.01,3.67-4.46,3.16-11.68,9.48-17.44,21.57-.66-8.39-3.18-14.11-5.51-17.9-3.09-5.02-5.39-5.89-8.26-11.01-4.09-7.31-3.46-12.78-4.59-17.44-1.61-6.68-7.7-15.33-28.14-23.16Z"/><path class="cls-2" d="m1615.88,412.07c5.86-3.92,12.75-8.15,20.66-12.33,13.33-7.05,14.12-5.8,21.99-11,8.64-5.7,11.56-9.76,20.33-13,4.57-1.69,8.6-2.36,11.33-2.67.25,1.81.67,4.48,1.33,7.66,1.06,5.06,3.55,15.32,10.66,30.33,8.58,18.08,11.19,16.3,12.66,24.99,1,5.87.49,10.68,4,17.33,3.06,5.8,5.07,5.21,6.66,9.66,2.54,7.08-1.6,11.15-1.67,21.66-.03,3.87.5,8.59,2.33,14,1.82-1.47,4.82-4.19,7.33-8.33,5.82-9.61,1.98-15.31,6-33.66,1.61-7.34,3.07-10.3,3-17-.05-4.55-.75-4.84-2-13.33-1.15-7.76-2.24-15.15-2.67-24.33-.16-3.34-.24-7.34-2.67-11.66-1.41-2.51-3.11-4.25-4.33-5.33,7-5.67,14-11.33,20.99-17-.03,3.16.14,8.24,1.33,14.33,1.76,8.99,4.93,25.12,17,35.66,4.17,3.64,10.15,7.27,9.66,12-.13,1.32-.68,1.78-2,5,0,0-1.43,3.48-3,9.66-3.75,14.79-7.82,30.81-.67,41.66,1.94,2.94,4.64,5.41,6,10.66,1.26,4.88-.28,5.8,1,9.66,1.97,5.99,6.28,5.67,10.66,12.66,2.95,4.7,1.34,5.37,4.67,12,1.27,2.52,2.72,4.85,9,12.66,3.01,3.74,7.04,8.64,12,14.33-2.39.62-5.97,1.2-10,.33-7.47-1.61-11.24-7.04-16.66-12-8.53-7.78-17.87-11.38-21.99-12.66-16.41-5.11-24.17,3.35-40.99-3.67-3.64-1.52-6-3.05-9-5-21.05-13.68-23.55-30.15-40.7-36.51-1.95-.72-3.67-1.16-6.09-2.66-7.26-4.51-8.56-11-12.93-18.64-4.75-8.29-5.88-5.27-18.26-20.54-3.85-4.74-6.87-9-12.93-17.5-5.09-7.14-9.2-13.17-12.07-17.46Z"/><path class="cls-1" d="m1207.25,440.24c4.67,11.14,7.54,20.44,9.29,26.81,3.16,11.51,3.68,17.17,7.7,28.14,1.91,5.22,4.02,9.59,8.23,18.32,8.61,17.85,14.07,29.05,23.04,41.64,7.6,10.67,8.5,9.4,13.34,16.57,6.92,10.26,13.48,25.34,14.55,47.7-4.04-2.35-10.31-6.38-16.98-12.53-9.98-9.2-11.58-14.57-20.62-23.45-10.49-10.3-13-7.64-23.45-16.98-7.47-6.68-7.05-8.82-23.45-32.75-12.14-17.72-14.31-19.38-23.04-33.15-5.77-9.11-10.15-16.78-12.94-21.83,3.55-5.72,8.75-12.8,16.17-19.81,10.3-9.73,20.74-15.42,28.14-18.7Z"/><path class="cls-1" d="m1596.5,521.82c1.15,1.64,3.06,3.98,5.98,5.98,4.32,2.96,7.78,3.07,11.61,4.22,8.16,2.46,6.28,6.13,16.88,11.96,6.61,3.63,10.88,4.14,18.99,9.85,3.05,2.14,3.73,2.97,4.22,3.87,3.66,6.69-3.05,17.82-8.79,23.21-12.89,12.12-33.33,7-35.87,6.33.12,2.47.58,6.63,2.46,11.25,6.9,16.91,26.25,23.48,61.19,34.82,14.12,4.58,24.29,7.81,39.04,9.5,13.26,1.51,24.62,1.13,33.06.35,1.36,2.15,3.58,5.12,7.03,7.74,9.45,7.17,18.4,4.32,35.17,4.92,16.27.59,35.45,4.28,57.32,4.22,2.23,0,7.05-.07,8.09-2.46,1.55-3.58-6.37-10.02-7.03-10.55-4.79-3.83-6.76-2.73-11.96-5.63-8.13-4.53-7.82-9.46-18.29-18.29-3.42-2.88-6.17-4.65-8.79-6.33-22.4-14.38-34.78-6.48-47.12-18.64-5.77-5.68-6.96-11.25-16.53-17.58-4.39-2.91-8.03-4.31-9.49-4.92-15.75-6.58-20.42-22.11-38.33-39.39-16.33-15.75-23.6-13.61-44.66-34.82-4.92-4.95-8.73-9.3-11.25-12.31-3.52,5.36-7.12,7.32-9.85,8.09-4.17,1.17-6.8-.31-11.61,1.41-1.85.66-3.91,1.75-7.39,4.92-3.32,3.03-8.77,8.73-14.07,18.29Z"/></g><g id="Layer_9"><path class="cls-3" d="m366.51,282.87c2.94-.1,7.38.23,11.11,3.02,3.12,2.33,4.42,5.39,4.81,6.25,4.27,9.49,19.5,23.12,31.95,36.04,8.49,8.8,20.19,21.95,33.5,40.4,1.22,1.82,2.69,4.48,3.67,7.91,1.54,5.41,1.09,10.06.63,12.68-1.25-1.13-3.06-2.53-5.47-3.72-3.17-1.55-6.07-2.09-8.01-2.29,1.95,5.37,5.32,13.01,11.25,21.01,6.85,9.25,13.5,16.21,20.24,19.74,13.13,6.88,18.01,7.11,24.27,15.19,5.43,7.01,6.25,12.69,13.08,21.63,4.73,6.19,7.81,10.6,11.21,13.22-.62,5.71-.98,12.24-.8,19.44.17,6.69.79,12.77,1.6,18.11-2.54-4.09-5.34-9.36-7.66-15.78-2.88-7.99-4.09-15.18-4.6-20.71-3.16-1.97-5.92-2.61-7.61-2.47-3.73.32-13.28,6.79-19.03,14.19-.73-2.3-1.75-6.07-2.11-10.83-.44-5.71.37-8.95.83-16.65.18-3.01.37-7.59.21-13.28-2.38.1-8.12,1.2-12.51.1-6.82-1.7-10.6-6.4-13.84-8.42-5.41-3.37-6.67-5.07-10.51-5.62-.72-.1-6.79-.9-8.68,2.22-.28.46-1.08,2.01.75,6.84,2.35,6.2,5.19,7.7,8.14,13.12,2.38,4.38,3.17,8.25,3.62,10.58.66,3.4,3.13,10.79,1.51,18.03-7.21-3.01-18.55-9.56-28.08-17.76-4.15-3.57-7.27-6.27-13.78-13.32-5.23-5.66-11.87-13.76-21.6-23.45-.07-4.79-.24-11.12-.65-18.56-.15-2.7-.67-11.56-2.18-25.83-.48-4.56-1.23-11.1-4.72-36.16-.32-2.3-6.04-42.61-12.32-50.73-.22-.28-.99-1.24-1.44-2.72-1.22-4.02.96-8.28,3.21-11.45Z"/><path class="cls-3" d="m790.69,235.17c-16.2,10.31-27.75,17.95-36.57,23.91-14.98,10.13-22.17,15.52-29.54,14.63-1.27-.15-6.45-.96-10.13,1.97-.53.42-2.71,2.16-2.53,4.22.29,3.43,6.88,5.33,9.85,6.19,5.23,1.51,10.26,1.63,13.22,1.69,6.3.12,8.95-.63,9.85.84.94,1.55-.85,4.28-3.09,7.31-7.36,9.94-10.97,11.42-16.32,18.29-4.72,6.06-3.86,7.41-10.13,15.47-2.91,3.74-5.55,6.61-7.31,8.44,1.48,1.37,3.77,3.71,5.91,7.03,6.59,10.23,6.73,22.02,2.67,55.54-2.11,17.43-2.12,14-3.01,23.09-2.66,27.05.27,28.38-2.95,44.77-1.81,9.21-2.46,18.7-5.17,27.69-1.51,4.99-3.47,10.36-.74,14.03,2.01,2.7,5.93,3.66,8.86,2.95,5.1-1.23,9.1-7.99,7.75-16.25,1.28,1.69,3.03,4.45,3.69,8.12,1.44,7.95-3.15,14.78-4.43,16.99-10.71,18.42,16.07,46.33,25.31,94.15,1.12,5.78,3.43,19.36,10.55,21.11,2.21.54,4.64-.11,6.24-1.44,4.59-3.81.82-14.53-.11-17.48-9.46-29.94-4.15-97.86-.34-125.13,1.18-8.47,3.41-21.59,7.93-37.57,9.65,10.16,18.34,18.7,25.51,25.51,0,0,24.01,22.79,46.19,28.96,2.07.58,4.73,1.04,6.2-.34,2.58-2.43-.18-8.93-.34-9.31-2.78-6.36-8.71-9.48-9.65-10-7.17-3.95-13.27-16.09-21.03-49.98-8.97-39.2-11.86-71.28-13.1-91.35-.61-9.78-.89-17.83-1.03-23.1-1.32-.13-3.27-.56-4.48-2.07-1.86-2.32-1.02-6.06.34-9.65,4.64-12.17,15.02-21.82,24.66-35.23,6.39-8.89,9.59-13.34,9.25-17.17-1.02-11.46-17.67-14.79-21.58-29.06-.4-1.46-1.28-5.27-4.4-7.05-3.48-1.97-7.71-.27-8.37,0-5.7,2.3-7.39,8.4-7.61,9.26Z"/><path class="cls-3" d="m1690.19,373.08c1.67.69,4.23,1.79,7.26,3.34,10.15,5.16,12.61,8.58,18.25,10.09,3.26.87,8.22,1.27,15.15-1.43,1.2.37,2.97,1.08,4.66,2.51,5.33,4.5,3.74,11,5.74,25.52,1.69,12.21,3.67,13.84,3,21.9-.31,3.67-.72,3.34-2.47,12.31-1.81,9.3-2.94,15.13-3.34,22.14-.73,13.01,1.9,15.89-.94,21.53-2.8,5.57-8.26,8.51-12.36,10.11-.46-1.39-1.1-3.58-1.51-6.33-1.03-6.94.09-12.93.79-16.55,1.25-6.43,1.57-7.45,1.1-10.99-.58-4.28-2.77-7.37-3.37-8.23-2.77-4.01-4.14-4.05-5.47-7.57-.42-1.11-.89-1.96-1.43-7.56-.42-4.35.06-5.67-.41-7.78-.65-2.9-2.82-5.25-4.17-7.93-3.3-6.54-4.57-9.65-9.5-16.86-3.98-5.81-9.41-15.96-10.98-38.19Z"/><path class="cls-3" d="m1885.72,463.83c-16.64-5.39-22.81-5.12-35.55-11.71-12-6.21-20.14-13.49-24.05-17.03-9.36-8.48-8.23-10.07-20.43-23.41-20.37-22.27-23.48-17.82-32.35-30.57-1.9-2.73-6.22-9.35-14.19-11.95-2.91-.95-5.51-1.11-7.3-1.08-.04,8.4,1.06,19.93,6.04,31.75,1.93,4.59,3.35,10.39,7.75,14.45,2.22,2.05,4.06,3.96,4.07,3.96,1.83,1.58,3.82,2.81,7.17,5.99.21.2,1.58,1.09,2.33,2.63.49,1.01.61,1.73.65,2.2.04.48-.12,1-.36,1.69-.18.53-.16.7-.51,1.47-.19.43-.54.61-.72,1.18-.31.96-1.7,4.78-1.79,5-.58,1.4-3.27,9.01-5.04,20.34-.4,2.59-.61,4.45-.74,5.68-.55,5.17-.83,7.76-.47,10.59.38,2.99,1.2,5.36,1.86,7.27.66,1.92,1.12,2.82,1.47,3.44,1.07,1.89,1.97,2.61,3.04,3.97.28.35,2.23,2.85,3.2,6.07.47,1.54.22,1.63.9,8.85.26,2.71.37,3.52.91,4.54,1,1.87,2.32,2.3,4.34,3.8.51.38,5.1,3.86,7.36,9.27.94,2.24.44,2.32,1.58,5.45,1.11,3.04,2.45,5.32,3.87,7.52,3.15,4.87,6.16,8.4,12.65,16.05,2.55,3.01,4.66,5.47,6.09,7.12-4.81.73-11.44.87-17.06-2.82-3.45-2.27-3.59-4.06-8.38-8.61-2.75-2.61-7.86-6.9-15.09-10.2-9-4.12-16.72-4.62-18.4-4.71-6.61-.35-8.64.95-13.9,1.2-12.29.58-22.1-5.55-25.81-7.85-11.55-7.17-14.12-15.48-28-28.08-5.63-5.11-8.39-6.63-10.66-7.59-3.1-1.32-5.05-1.49-8.13-3.5-3.25-2.13-5.15-4.59-6.41-6.29-3.79-5.15-3.61-8.67-7.85-14.51-1.65-2.27-3-3.55-4.74-5.3,0,0-6.43-8.25-16.54-20.54-14.99-18.22-11.54-22.52-20.66-27.49,0,0-8.48-4.57-13.81-9.89-5.56-5.55-4.01-6.18-9.32-12.28-9.39-10.79-14.77-11.45-21.18-19.48-3.31-4.16-4.01-5.77-18.64-32.19-13.37-24.14-13.11-23.38-13.55-24.57-2.52-6.78-4.3-14.09-11.01-20.76-2.79-2.77-5.57-4.57-7.49-5.66-4.54,22.27-9.97,54.33-11.46,87.82-.66,14.87-.34,25.36,6.38,34.21,5.9,7.77,12.68,8.95,24.11,22.18,5.47,6.33,8.2,9.49,10.18,14.64,2.31,5.98,2.18,10.84-1.09,33.7-2.61,18.26-4.33,23.82-1.9,32.88.9,3.34,1.5,4.01,5.47,12.4,14,29.6,7.55,23.52,18.98,53.38.94,2.45,2.88,7.46.91,12.42-2.09,5.25-7.37,7.46-8.37,7.86-6.18,2.44-12.08.09-15.61-1.37-5.88-2.44-9.44-6.08-14.39-11-15.9-15.84-16.92-21.58-26.6-27.37-3.4-2.04-8.76-4.61-16.44-5.9-.34,1.21-.68,2.99-.58,5.14.14,2.84,1,5.04,1.63,6.32-2.94-2.13-7.06-5.6-10.87-10.78-3.07-4.18-4.75-7.86-5.31-9.14-2.74-6.24-2.42-9.31-5.19-18.85-1.04-3.56-2.02-6.38-2.62-8.03-2.45-.31-4.89-.61-7.34-.92-1.83,6.03-3.81,12.18-5.93,18.46-1.53,4.5-3.08,8.91-4.65,13.21-1.09-12.77-5.38-20-9.24-24.29-3.35-3.73-6.64-5.52-10.15-11.33-1.06-1.76-3.19-5.95-2.23-14.34,1.34-11.73-1.55-16.54-4.24-24.19-5.22-14.85-26.76-22.05-27.68-22.31-7.06-1.95-4.92-3.88-10.94-7.2-3.95-2.18-7.98-2.38-9.43-4.45-2.21-3.16-3.37-6.38-5.34-7.47-2.59-1.43-5.35-.72-8.21.99-3.68,2.2-7.53,1.5-15.27,11.64-2.54,3.32-5.29,9.05-6.54,10.85.59-4.42,1.56-6.46-1.11-11.92-2.07-4.23-3.07-4.79-6.4-10.14-3.5-5.62-4.43-8.74-7.47-15.83-.89-2.08-3.26-13.56-8.92-20.03-5.87-6.71-14.75-5.5-22.51-9.89-5.42-3.07-30.86-17.47-34.88-38.73-1.79-9.44,1.82-14.06-2.71-22.85-.94-1.82-4.21-7.68-13.07-13.07-10.73-6.53-19.17-5.98-47.16-7.95-28.77-2.03-34.32-3.62-38.63-8.52-4.65-5.27-7.58-14.06-7.95-22.16-.22-4.75.47-8.69,1.14-11.36-3.36-.75-7.97-2.07-13.07-4.55-1.94-.94-14.5-7.17-21.59-17.61-8.78-12.93-1.73-21.39-6.25-47.72-2.64-15.36-7.46-26.6-10.23-32.95-9.45-21.65-15.59-21.59-26.13-43.75-9.59-20.14-5.18-21.58-14.2-36.93-10.12-17.2-15.25-14.69-27.27-34.09-9.43-15.22-9.21-21.51-18.75-31.25-7.97-8.13-16.79-12.58-23.18-15.11,14.4,16.02,18.54,29.68,19.62,39.27.75,6.65-.21,9.09.93,20.13,1.11,10.71.94,16.48,4.62,31.2,5.61,22.45,10.4,34.39,10.35,37.13-4.05,13.33-7.47,16.78-13.19,40.85-4.95,20.83-3.53,36.96-3.08,41.27,1.79,17.25,7.06,29.65,8.31,32.5,3.21,7.33,10.61,17.54,25.29,37.65,11.76,16.11,14.27,19,17.96,26.27,5.8,11.43,8.46,21.82,9.81,28.84-2.12-.62-5.34-1.48-9.32-2.14-18.14-3.03-32.52,1.1-49.49,6.18-11.62,3.48-24.39,7.31-39.31,16.28-13.44,8.08-15.29,10.23-26.39,14.52-10.59,4.1-15.47,4.85-28.66,10.56-6.56,2.84-11.64,5.83-14.9,7.91,16.21,4.27,30.16,6.19,40.65,7.11,11.51,1.01,18.84,4.06,29.38,3.01,17.4-1.74,22.37-9.13,37.28-9.4,11.48-.2,21.22,1.41,28.55,3.21-.07,4.66.35,11.43,2.84,19.02,2.28,6.93,2.51,10.26,9.3,21.17,7.07,11.34,11.04,18.39,14.24,24.8,7.29,14.59,4.44,23.52,8.43,29.29,7.43,17,23.26,30.97,33.38,42.77,3.68,4.3,5.35,9.67,9.89,17.37,4.24,7.19,4.9,5.43,11.47,18.34,3.31,6.5,2.74,9,1.84,12.95-.1.43.38,3.96-4.66,5.55-3.85,1.21-8.66-.95-11.54-4.66-12-10.77-29.69-29.37-67.46-35.28-14.96-2.34-37.34.5-47.93,1.78,13.83,19.45,17.74,33.7,16.91,44.1-.75,9.33-4.16,18.32-3.22,34.25.5,8.4,2.01,15.24,3.23,19.78,3.35.77,7.28,5.08,12.68,8.08,9.98,5.55,15.07,11.73,20.48,18.09,11.36,13.34,18.57,14.56,25.28,21.78,19.66,21.15,26.86,91.56,24.7,116.57-1.15,13.29-3.88,322.8-11.28,346.58l832.39,3.48V478.31c-13.95-7.3-25.87-11.75-34.29-14.47Zm-619.29,143.06c-9.98-9.2-11.58-14.57-20.62-23.45-10.49-10.3-13-7.64-23.45-16.98-7.47-6.68-7.05-8.82-23.45-32.75-12.14-17.72-14.31-19.38-23.04-33.15-5.77-9.11-10.15-16.78-12.94-21.83,3.55-5.72,8.75-12.8,16.17-19.81,10.3-9.73,20.74-15.42,28.14-18.7,4.67,11.14,7.54,20.44,9.29,26.81,3.16,11.51,3.68,17.17,7.7,28.14,1.91,5.22,4.02,9.59,8.23,18.32,8.61,17.85,14.07,29.05,23.04,41.64,7.6,10.67,8.5,9.4,13.34,16.57,6.92,10.26,13.48,25.34,14.55,47.7-4.04-2.35-10.31-6.38-16.98-12.53Zm586.43,50.67c-1.04,2.39-5.86,2.46-8.09,2.46-21.87.06-41.05-3.63-57.32-4.22-16.77-.61-25.71,2.25-35.17-4.92-3.45-2.62-5.68-5.59-7.03-7.74-8.44.78-19.8,1.16-33.06-.35-14.75-1.68-24.92-4.92-39.04-9.5-34.94-11.33-54.29-17.9-61.19-34.82-1.89-4.62-2.34-8.79-2.46-11.25,2.54.67,22.98,5.79,35.87-6.33,5.74-5.39,12.46-16.52,8.79-23.21-.49-.89-1.17-1.73-4.22-3.87-8.11-5.7-12.38-6.21-18.99-9.85-10.6-5.82-8.72-9.5-16.88-11.96-3.82-1.15-7.28-1.26-11.61-4.22-2.92-2-4.83-4.33-5.98-5.98,5.3-9.55,10.75-15.26,14.07-18.29,3.47-3.17,5.54-4.27,7.39-4.92,4.81-1.71,7.43-.23,11.61-1.41,2.73-.77,6.32-2.73,9.85-8.09,2.53,3.01,6.34,7.36,11.25,12.31,21.06,21.21,28.33,19.06,44.66,34.82,17.92,17.28,22.58,32.81,38.33,39.39,1.47.61,5.1,2.01,9.49,4.92,9.56,6.33,10.76,11.9,16.53,17.58,12.34,12.16,24.73,4.26,47.12,18.64,2.62,1.68,5.38,3.45,8.79,6.33,10.47,8.82,10.16,13.76,18.29,18.29,5.2,2.89,7.17,1.79,11.96,5.63.66.53,8.58,6.97,7.03,10.55Z"/></g></g></svg>