<?xml version="1.0" encoding="UTF-8"?><svg xmlns="http://www.w3.org/2000/svg" viewBox="0 0 60 60"><defs><style>.b{fill:#fff;}.c{fill:#b7b6b6;mix-blend-mode:darken;}.d{isolation:isolate;}</style></defs><g class="d"><g id="a"><polyline points="60 0 60 60 0 60 0 0"/><g><path class="c" d="M23.67,51.57h0V15.98h9.04v28.04c0,4.17-4.05,7.55-9.04,7.55Z"/><g><path class="b" d="M31.22,25.96V15.46h8.53c3.88,0,7.02-3.14,7.02-7.02H20.48c-3.88,0-7.02,3.14-7.02,7.02h10.22V51.04h0c4.17,0,7.55-3.38,7.55-7.55V25.96Z"/><path class="c" d="M39.52,17.18c3.88,0,7.02-3.14,7.02-7.02H17.25c-3.88,0-7.02,3.14-7.02,7.02h29.29Z"/><path class="b" d="M39.75,15.46c3.88,0,7.02-3.14,7.02-7.02H17.48c-3.88,0-7.02,3.14-7.02,7.02h29.29Z"/><path class="c" d="M23.84,24.78c0,4.96,3.16,8.98,7.07,8.99h9.75c0-4.97-3.17-8.99-7.08-8.99h-9.73Z"/><path class="b" d="M23.7,24.78c0,3.91,3.16,7.07,7.07,7.08h9.75c0-3.91-3.17-7.08-7.08-7.08h-9.73Z"/></g></g></g></g></svg>