<?xml version="1.0" encoding="UTF-8"?><svg id="Layer_2" xmlns="http://www.w3.org/2000/svg" viewBox="0 0 1920 756.16"><g id="Layer_31"><g id="Layer_28"><path d="m18.95,304.74c9.66,13.26,20.22,22.03,27.84,27.4,5.22,6.48,10.43,12.96,15.65,19.44-4.4.94-10.23,1.75-17.07,1.54-7.24-.22-13.29-1.5-17.77-2.81,1.55,11.76,5.4,29.66,15.9,48.94,7.79,14.32,16.8,24.89,24,32.11-7.37-.39-17.96-1.87-29.61-6.86-6.74-2.89-12.24-6.26-16.52-9.35,13.83,21.86,27.35,45.32,40.21,70.45,2.57,5.03,5.07,10.03,7.5,15.01-6.31,1.12-18.21,2.33-31.89-2.11-8.19-2.66-14.41-6.5-18.61-9.62,3.59,12.39,10,29.07,21.88,46.42,19.75,28.84,44.3,44.44,58.32,51.92-6.68,1.77-19.28,4.15-34.53,1.03-12.1-2.47-21.08-7.42-26.44-10.96,2.07,20.45,8.34,35.24,12.9,43.99,5.76,11.06,10.2,19.28,19.9,23.7,12.91,5.87,26.23.93,30.29-.76-4.18.34-9.28.41-15.02-.25-4.44-.51-8.37-1.36-11.71-2.29,5.41-2.19,12.96-5.58,21.5-10.58,25.69-15.05,43.18-34.65,42.22-35.82-.3-.37-2.2,1.47-6.5,2.48-4.71,1.1-8.73.64-11.15.16,1.94-3.81,4.42-8.08,7.59-12.54,2.73-3.83,5.48-7.13,8.05-9.91-6.47,1.55-14.66,2.87-24.16,2.94-6.38.05-12.12-.48-17.03-1.24,4.83-3.46,14.83-11.66,20.81-25.95,3.81-9.1,4.58-17.33,4.63-22.65-2.45,1.68-6.5,3.98-11.94,5.12-3.25.68-6.13.76-8.38.64-.51-2.65-1.14-7.81.66-13.86,2.26-7.61,7.03-12.16,9.09-13.93,2.43-.96,5.26-2.44,8.02-4.75,9.48-7.97,10.75-19.71,11-23.04-17.34,7.49-34.69,14.97-52.03,22.46,10.35-13.2,21.54-29.31,32.18-48.45,9.34-16.81,16.45-32.7,21.9-46.87-1.96,1.08-16.69,8.92-31.14,2.1-5.18-2.44-8.65-5.98-10.77-8.65,21.71-5.77,30.78-14.92,34.95-22.56,1.8-3.29,2.63-6.2,7.92-18.09,3.85-8.67,7.23-15.69,9.53-20.4-.02.02-.04.03-.05.05.98-1,1.96-2.02,2.94-3.08,11.12-12.02,18.88-24.14,24.3-34.47-4.86,1.27-12.26,2.58-21.21,1.77-11.63-1.05-20.35-5.19-25.19-7.95,3.21-1.36,6.46-2.82,9.72-4.42,28.67-14,50.27-33.34,66.28-52.14-3.14.6-7.23,1.01-11.93.44-11.83-1.42-19.78-8.04-22.98-11.05,14.08-3.23,42.67-12.02,65.84-37.56,7.73-8.53,13.26-17.15,17.23-24.74.03,13.73,2.05,41.73,19.44,70.26,9.2,15.08,19.89,25.7,28.28,32.7-3.48.19-8.08.03-13.26-1.33-10.99-2.87-18.03-9.41-21.21-12.81-1.39,10.02-4.15,39.83,14.14,67.61,6.8,10.33,14.69,17.6,21.21,22.54,4.13,2.23,10.16,6.14,15.89,12.59,5.01,5.64,8,11.22,9.77,15.25-8.04-1.25-20.47-4.18-33.9-11.72-14.18-7.96-23.46-17.69-28.73-24.13,4.27,16.78,14.71,47.84,41.58,76.41,14.85,15.78,30.24,26.06,42.16,32.62-6.05,2.25-15.73,5-27.84,4.96-10.7-.04-19.39-2.24-25.17-4.19,8.56,16,25.71,42.55,56.82,63.68,14.55,9.88,28.6,16.16,40.21,20.23-8.66,4.67-22.42,10.66-40.21,12.74-10.85,1.27-20.33.74-27.72-.25,9.15,11.82,21.82,25.45,38.96,37.96,6.08,4.43,12.04,8.23,17.73,11.49-1.33,2.41-2.66,4.83-4,7.24,5.11,2.97,10.28,6.05,15.48,9.24,2.44,1.5,4.86,3,7.24,4.5-3.02,1.18-6.71,2.31-10.99,3-9.57,1.53-17.62.12-22.73-1.25,1.37,2.75,5.05,9.2,12.74,13.74,6,3.55,11.7,4.31,14.74,4.5-6.24,5.33-12.49,10.66-18.73,15.98,4.08,3.16,8.16,6.33,12.24,9.49,6.76-5.04,16.52-13.62,24.86-26.8,6.26-9.89,9.72-19.22,11.71-26.23-2.23-.22-4.46-.45-6.69-.67,8.35-9.26,18.2-22.06,26.8-38.68,5.86-11.32,9.86-21.94,12.64-31.1-4.45,2.49-13.98,7.02-26.8,7.08-10.88.05-19.24-3.13-23.73-5.22,8.51-3.91,22.13-11.49,34.85-25.42,15.14-16.57,21.48-33.9,24.19-43.36-7.57,3.86-18.88,8.43-33.2,10.14-7.7.92-14.57.81-20.29.31,7.24-4.68,19.94-14.32,29.2-31.05,5.27-9.52,7.84-18.45,9.16-25.14-2.87,1.81-11.4,6.67-22.68,5.47-6.25-.67-11-2.94-13.83-4.61,9.85-3.29,31.3-12.1,45.8-33.81,4.17-6.24,6.98-12.38,8.91-17.83-3.07,1.02-6.15,2.05-9.22,3.07-.48-3.27-.76-7.73,0-12.91,1.13-7.71,4.06-13.49,6.15-16.91-2.42,2-12.81,10.1-26.44,8.3-4.64-.61-8.38-2.2-11.07-3.69,2.13-.53,12.59-3.31,13.74-9.42,2.45-1.3,5.55-3.37,8.4-6.63,7.49-8.56,7.6-18.93,7.51-22.09-1.97.64-8.22,2.38-15.02-.44-3.36-1.39-5.68-3.41-7.07-4.86,7.22-2.52,21.59-8.67,33.58-22.98,6.78-8.09,10.61-16.18,12.81-22.09-1.88,1.94-5.37,5.01-10.6,7.07-6.72,2.64-12.66,2.17-15.47,1.77,8.92-8.38,20.19-21.1,29.16-38.88,3.98-7.89,6.81-15.39,8.84-22.09-1.16.89-4.81,3.47-10.16,3.53-5.62.07-9.48-2.67-10.6-3.53,6.68-7.3,14.11-16.52,21.21-27.84,8.57-13.65,14.27-26.51,18.12-37.12,2.67,9.55,9.89,30.38,29.16,49.05,17.58,17.03,36.47,23.8,45.95,26.51-3.54,1.9-8.79,4.18-15.47,5.3-9.87,1.66-18-.02-22.54-1.33,3.95,8.54,11.93,22.94,26.95,36.23,14.68,13,29.57,19.16,38.44,22.09-2.84,1.39-6.39,2.75-10.6,3.53-13.01,2.44-23.73-2.13-28.28-4.42,4.36,7.72,13.96,22.27,31.81,33.58,13.51,8.56,26.37,11.85,34.47,13.26-1.87,2.66-5.77,7.39-12.37,10.6-11.04,5.38-21.57,2.58-24.3,1.77,3.19,6.12,13.63,24.17,35.35,32.7,8.87,3.48,17.01,4.36,22.98,4.42-1.68,2.52-6.34,8.78-15.02,12.37-9.98,4.13-18.87,2.09-21.65,1.33,2.96,6.55,8.96,17.59,20.33,27.84,11.13,10.04,22.46,14.86,29.23,17.17,5.48-4.08,12.41-10.1,19.12-18.54,6.82-8.58,11.16-16.84,13.9-23.17-2.9,2.01-10.57,6.74-21.43,6.95-12.37.24-21.02-5.54-23.75-7.53,5.04-1.99,22.41-9.55,33.02-28.96,8.58-15.7,8.06-30.59,7.53-36.49-2.87,1.77-9.03,5.01-17.38,5.21-12.31.3-20.82-6.18-23.17-8.11,9.56-7.32,23.3-19.61,35.34-38.23,11.27-17.43,16.82-33.86,19.7-45.18-2.3,3.77-14.79,23.37-39.39,28.38-14.01,2.85-25.62-.32-31.28-2.32,12.03-9.16,31.85-26.92,45.76-55.61,7.77-16.03,11.48-30.88,13.32-42.29-2.9,5-14.36,23.38-37.65,30.7-13.62,4.28-25.48,2.96-31.86,1.74,15.97-13.54,43.68-41.02,59.67-84.57,7.6-20.7,10.55-39.6,11.59-54.45,11.5,12.5,28.95,28.7,53.29,42.87,30.02,17.48,58.06,24.62,76.62,27.81-5.16,5.08-13.04,11.73-23.91,17.38-11.56,6.01-22.16,8.62-29.54,9.85,5.36,7.67,22.2,29.65,53.45,39.97,25.99,8.59,48.28,4.6,57.77,2.32-4.9,4.54-12.55,10.43-23.17,14.48-22.76,8.69-43.33,2.92-50.4.58,10.73,11.38,27.44,26.51,50.98,39.39,27.47,15.03,52.86,20.77,69.51,23.17-6.94,3.53-16.31,7.4-27.81,9.85-17.03,3.63-31.57,2.62-41.13,1.16,6.44,7.28,18.69,19.23,37.65,27.81,17.29,7.82,32.85,9.53,42.29,9.85-1.72,4.28-4.8,9.91-10.43,14.48-17.87,14.53-43.53,3.94-44.6,3.48,5.55,6.02,13.72,13.57,24.91,20.27,15.39,9.22,29.9,12.89,39.39,14.48,3.02,3.48,10.98,11.72,24.23,15.36,16.89,4.65,30.76-1.37,34.48-3.14-2.7,4.49-10.65,16.37-26.35,23.49-16.62,7.53-31.64,5.06-36.66,4.01,5.96,6.87,13.15,14.12,21.77,21.2,25.34,20.79,51.55,30.61,69.89,35.52-4.39,3.48-12.71,9.15-24.63,12.03-13.22,3.19-24.22,1.34-29.79,0,7.38,8.6,18.04,19.12,32.65,28.64,24.64,16.05,48.56,21.44,63.02,23.49-6.79,3.98-16.23,8.41-28.07,10.88-27.47,5.75-50.14-2.68-59.58-6.87.47,3.12,1.88,9.64,6.87,16.04,4.29,5.51,9.26,8.39,12.03,9.74-5.22.37-10.43.73-15.65,1.1,7.65,12.07,20.14,28.77,39.31,44.66,18.22,15.1,35.98,24.08,48.85,29.39-15.02,4.19-26.13,3.44-33.59,1.91-6.53-1.34-15.36-4.31-27.86-3.05-3.75.38-6.8,1.03-8.78,1.53,3.64,2.31,8.9,5.62,15.27,9.54,27.16,16.72,40.95,25.13,51.12,27.34,8.56,1.87,23.03,2.97,42.82-5.39-3.2.18-10.47.11-17.37-4.49-2.31-1.54-4.07-3.25-5.39-4.79,7.35-.43,15.74-1.83,24.56-5.09,36.71-13.57,52.36-48.95,56.3-58.7-5.08,2.15-11.75,4.4-19.77,5.69-11.14,1.8-20.64,1.06-27.25,0,5.73-2.98,14.38-7.51,24.86-13.18,11.88-6.42,24.72-13.54,28.15-15.57,10.57-6.24,28.3-21.07,46.12-61.39-16.23,9.95-27.91,10.56-35.72,9.12-6.46-1.19-13.53-4.39-25.19-4.03-5.86.18-10.63,1.19-13.77,2.02,2.83-4.15,7.49-10.19,14.44-16.12,10.01-8.53,16.97-10.17,25.53-16.12,6.66-4.63,15.38-12.63,22.84-27.21-4.38,1.24-10.48,2.45-17.8,2.35-9.62-.12-17.3-2.45-22.17-4.37,4.68-2.11,9.67-4.75,14.78-8.06,16.89-10.94,27.7-24.45,34.26-34.6-4.37,1.98-10.39,4.18-17.8,5.37-9.12,1.47-16.86.85-22.17,0,8.55-8.81,16.45-14.69,22.17-18.47,11.89-7.86,20.97-11.02,31.24-21.83,3.75-3.95,6.4-7.6,8.06-10.08-3.37,1.08-7.43,2.09-12.09,2.69-6.88.89-12.87.59-17.47,0,3.95-3.19,9.48-7.88,15.8-13.99,6.1-5.9,6.97-7.36,7.2-9.15,7.92-2.76,18.68-7.58,29.54-16.22,19.49-15.49,28.22-34.42,31.86-44.03-3.9,3.37-13.73,10.94-28.61,13.24-15.91,2.46-28.26-2.55-32.88-4.7,16.17-7.85,41.46-22.93,63.2-50.39,10.22-12.91,17.29-25.56,22.21-36.3-3.24,2.33-6.79,4.64-10.68,6.83-16.25,9.19-32.11,12.96-44.41,14.52,13.05-11.65,30.84-30.31,45.69-57.22,11.22-20.33,17.39-39.23,20.92-53.81,7.74,13.34,22.02,34.04,46.12,52.53,29.34,22.5,58.68,30.56,74.73,33.74-7.64,1.93-16.99,3.6-27.71,4.07-17.26.77-31.74-1.84-42.11-4.62,12.59,14.5,35.21,36.22,69.55,49.72,12.39,4.87,24.04,7.78,34.23,9.51-4.62,3.19-10.31,6.34-17.12,8.69-26.98,9.32-51.89-.74-60.31-4.62,5.78,6.72,13.72,14.75,24.18,22.55,10.57,7.88,20.64,13.22,28.8,16.84.22,4.53,6.81,7.31,7.26,7.5,8.66,5.2,21.17,11.48,37.15,15.73,15.29,4.07,28.71,4.95,38.56,4.86-2.6,3.89-6.52,8.44-12.28,12-19.89,12.28-43.57,1.56-46.27.29,5.61,7.5,19.61,24.13,44.14,34.22,24.58,10.1,46.27,8.11,55.53,6.71-5.01,6.77-10.36,11.29-14.95,14.34-31.16,20.75-71.55,3.58-76.89,1.22,6.04,7.44,13.95,15.77,24.1,23.8,22.05,17.43,44.42,25.25,59.19,28.98,4.4-3.31,10.63-8.8,16.17-17.09,5.07-7.58,7.72-14.76,9.15-19.83-2.78,3.76-6.72,8.02-12.2,11.59-19.27,12.55-41.57,6.25-46.07,4.88,7.33-2.86,15.67-7.01,24.1-13.12,27.44-19.9,38.13-47.78,42.1-60.72-4.76,3.14-10.65,6.42-17.7,9.15-16.74,6.49-31.91,6.78-41.49,6.1,4.29-6.37,11.15-15.6,21.05-25.32,11.16-10.96,17.49-14.01,24.71-21.05,8.19-7.98,17.88-21.45,22.88-45.16-3.4,3.37-8.82,7.89-16.48,11.29-12.89,5.73-24.67,4.99-30.21,4.27,6.17-9.24,12.62-14.71,17.39-18,9.73-6.71,20.31-9.78,22.27-18.61.42-1.88.33-3.51.21-4.52-2.14-2.64-4.29-5.29-6.43-7.93,2.33-2.21,5.18-5.38,7.72-9.65,3.74-6.28,5.18-12.21,5.79-16.08-2.34,2.32-9.12,8.44-19.94,10.29-11.87,2.03-21-2.37-23.8-3.86,9.65-6.57,30.12-22.54,41.17-50.81,4.9-12.54,6.59-24.04,7.08-32.8,9.19,9.39,22.73,21.2,41.17,31.52,14.36,8.04,27.77,12.97,38.59,16.08-2.95,2.06-6.81,4.23-11.58,5.79-14.35,4.7-27.16.63-32.16-1.29,4.1,5.97,11.42,14.98,23.16,22.51,17.11,10.98,33.92,12.61,41.81,12.86-4.49,1.94-11.23,4.22-19.67,4.85-11.66.87-20.94-1.83-26.17-3.79,1.56,4.32,5.19,12.37,13.27,18.96,15.69,12.8,34.94,9.31,37.92,8.72-2.4,2.02-4.8,4.05-7.21,6.07,3.52.72,8.73,1.35,14.79.38,11.46-1.83,17.94-8.09,29.96-18.2,24.88-20.93,35.03-25.98,33.4-29.89,13.61-17.28,27.23-34.56,40.84-51.83-11.39,7.75-29.12,17.76-52.62,23.56-14.77,3.65-27.97,4.69-38.48,4.71,21.78-9.71,53.61-27.38,83.25-58.9,15.28-16.24,26.44-32.42,34.56-46.34-8.6,7.08-22.21,16.47-40.84,22.78-11.3,3.82-21.56,5.54-29.84,6.28,21-14.96,50.42-40,75.39-78.54,13.85-21.38,23.02-41.8,29.18-58.9v756.16H0s0-38.19,0-491.19c2.56,9.61,7.78,24.44,18.95,39.77Z"/></g></g></svg>