<?xml version="1.0" encoding="utf-8"?>
<!-- Generator: Adobe Illustrator 28.0.0, SVG Export Plug-In . SVG Version: 6.00 Build 0)  -->
<svg version="1.1" id="Layer_2_00000067223169743665118290000014761050238881109677_"
	 xmlns="http://www.w3.org/2000/svg" xmlns:xlink="http://www.w3.org/1999/xlink" x="0px" y="0px" viewBox="0 0 1920 1273.4"
	 style="enable-background:new 0 0 1920 1273.4;" xml:space="preserve">
<style type="text/css">
	.st0{fill:#EF6B63;}
	.st1{fill:#D6453B;}
	.st2{fill:#335C64;}
	.st3{fill:#0A3542;}
</style>
<g id="Layer_31">
	<g id="Layer_29">
		<path class="st0" d="M1485.7,339.6c1.2,6.1,11.6,8.9,13.7,9.4c-2.7,1.5-6.4,3.1-11.1,3.7c-13.6,1.8-24-6.3-26.4-8.3
			c2.1,3.4,5,9.2,6.2,16.9c0.8,5.2,0.5,9.6,0,12.9c-3.1-1-6.2-2-9.2-3.1c1.9,5.5,4.7,11.6,8.9,17.8c14.5,21.7,35.9,30.5,45.8,33.8
			c-2.8,1.7-7.6,3.9-13.8,4.6c-11.3,1.2-19.8-3.6-22.7-5.5c1.3,6.7,3.9,15.6,9.2,25.1c9.3,16.7,22,26.4,29.2,31
			c-5.7,0.5-12.6,0.6-20.3-0.3c-14.3-1.7-25.6-6.3-33.2-10.1c2.7,9.5,9.1,26.8,24.2,43.4c12.7,13.9,26.3,21.5,34.8,25.4
			c-4.5,2.1-12.8,5.3-23.7,5.2c-12.8-0.1-22.3-4.6-26.8-7.1c2.8,9.2,6.8,19.8,12.6,31.1c8.6,16.6,18.4,29.4,26.8,38.7
			c-2.2,0.2-4.5,0.5-6.7,0.7c2,7,5.4,16.3,11.7,26.2c8.3,13.2,18.1,21.8,24.9,26.8c4.1-3.2,8.2-6.3,12.2-9.5
			c-6.2-5.3-12.5-10.7-18.7-16c3-0.2,8.7-1,14.7-4.5c7.7-4.5,11.4-11,12.7-13.7c-5.1,1.4-13.2,2.8-22.7,1.2c-4.3-0.7-8-1.8-11-3
			c2.4-1.5,4.8-3,7.2-4.5c5.2-3.2,10.4-6.3,15.5-9.2c-1.3-2.4-2.7-4.8-4-7.2c5.7-3.3,11.7-7,17.7-11.5c17.1-12.5,29.8-26.1,39-38
			c-7.4,1-16.9,1.5-27.7,0.2c-17.8-2.1-31.6-8.1-40.2-12.7c11.6-4.1,25.7-10.3,40.2-20.2c31.1-21.1,48.3-47.7,56.8-63.7
			c-5.8,2-14.5,4.2-25.2,4.2c-12.1,0-21.8-2.7-27.8-5c11.9-6.6,27.3-16.8,42.2-32.6c26.9-28.6,37.3-59.6,41.6-76.4
			c-5.3,6.4-14.5,16.2-28.7,24.1c-13.4,7.5-25.9,10.5-33.9,11.7c1.8-4,4.8-9.6,9.8-15.2c5.7-6.5,11.8-10.4,15.9-12.6
			c-9.9-11.6-18.2-14.2-23.9-14.4c-9.4-0.4-13.3,5.5-29.8,7.5c-8.6,1-9.7-0.3-16.6,0.8c-11.9,1.8-21,7.8-26.9,12.8
			c0.5-14.8-8.7-26.4-19.2-27.8C1497.4,321.3,1484.2,332.1,1485.7,339.6L1485.7,339.6z"/>
		<path class="st0" d="M1857.6,351.6c5.2-6.5,10.4-13,15.7-19.4c-3.3-1.5-12.6-5.1-24.2-2.7c-15,3.1-23,13.9-24.8,16.4
			c-0.9-0.8-10.7-9.3-23-6.2c-6.7,1.7-10.8,6-12.4,8c-3.3-3.1-6.6-6.2-9.9-9.3c2.3,4.7,5.7,11.7,9.5,20.4
			c5.3,11.9,6.1,14.8,7.9,18.1c4.2,7.6,13.2,16.8,34.9,22.6c-2.1,2.7-5.6,6.2-10.8,8.6c-14.4,6.8-29.2-1-31.1-2.1
			c5.4,14.2,12.6,30.1,21.9,46.9c10.6,19.1,21.8,35.2,32.2,48.5c-17.3-7.5-34.7-15-52-22.5c0.2,3.3,1.5,15.1,11,23
			c2.8,2.3,5.6,3.8,8,4.8c2.1,1.8,6.8,6.3,9.1,13.9c1.8,6,1.2,11.2,0.7,13.9c-2.2,0.1-5.1,0-8.4-0.6c-5.4-1.1-9.5-3.4-11.9-5.1
			c0.1,5.3,0.8,13.5,4.6,22.7c6,14.3,16,22.5,20.8,26c-4.9,0.8-10.7,1.3-17,1.2c-9.5-0.1-17.7-1.4-24.2-2.9c2.6,2.8,5.3,6.1,8.1,9.9
			c3.2,4.5,5.7,8.7,7.6,12.5c-2.4,0.5-6.4,0.9-11.2-0.2c-4.3-1-6.2-2.8-6.5-2.5c-1,1.2,16.5,20.8,42.2,35.8
			c8.5,5,16.1,8.4,21.5,10.6c-3.3,0.9-7.3,1.8-11.7,2.3c-5.7,0.7-10.8,0.6-15,0.2c4.1,1.7,17.4,6.6,30.3,0.8
			c9.7-4.4,14.1-12.6,19.9-23.7c4.6-8.8,10.8-23.5,12.9-44c-5.4,3.5-14.3,8.5-26.4,11c-15.2,3.1-27.8,0.7-34.5-1
			c14-7.5,38.6-23.1,58.3-51.9c11.9-17.3,18.3-34,21.9-46.4c-4.2,3.1-10.4,7-18.6,9.6c-13.7,4.4-25.6,3.2-31.9,2.1
			c2.4-5,4.9-10,7.5-15c12.9-25.1,26.4-48.6,40.2-70.5c-4.3,3.1-9.8,6.5-16.5,9.4c-11.7,5-22.2,6.5-29.6,6.9
			c7.2-7.2,16.2-17.8,24-32.1c10.5-19.3,14.3-37.2,15.9-48.9c-4.5,1.3-10.5,2.6-17.8,2.8C1867.8,353.3,1862,352.5,1857.6,351.6
			L1857.6,351.6z"/>
		<path class="st0" d="M669,359.6c-1-8,11.6-17.7,23.6-20.1c11.9-2.4,21.8,2.8,25.6,5c-0.7-8.2,2.3-12.5,3.5-13.9
			c6.6-8.3,22.8-9.8,38.2-0.6c4.3-17.1,12.6-21.8,15.6-23.2c22.3-10.2,64.6,22.5,60.2,48.1c-1.7,10.2-10.5,17.2-16.2,20.9
			c8,3.6,13.9,3.4,18,2.3c9.8-2.5,12.7-10.7,21.4-11.6c5.8-0.6,11,2.4,14.5,5.2c-1.3-3.4-2.8-9.1-0.6-14.5
			c4.7-11,21.7-12.3,27.2-12.7c32-2.4,57.8,31.2,62.6,37.6c-3,3.5-11,11.7-24.2,15.4c-16.9,4.6-30.8-1.4-34.5-3.1
			c2.7,4.5,10.7,16.4,26.3,23.5c16.6,7.5,31.6,5.1,36.7,4c-6,6.9-13.2,14.1-21.8,21.2c-25.3,20.8-51.5,30.6-69.9,35.5
			c4.4,3.5,12.7,9.1,24.6,12c13.2,3.2,24.2,1.3,29.8,0c-7.4,8.6-18,19.1-32.7,28.6c-24.6,16-48.6,21.4-63,23.5
			c6.8,4,16.2,8.4,28.1,10.9c27.5,5.8,50.1-2.7,59.6-6.9c-0.5,3.1-1.9,9.6-6.9,16c-4.3,5.5-9.3,8.4-12,9.7
			c5.2,0.4,10.4,0.7,15.7,1.1c-7.7,12.1-20.1,28.8-39.3,44.7c-18.2,15.1-36,24.1-48.8,29.4c15,4.2,26.1,3.4,33.6,1.9
			c6.5-1.3,15.4-4.3,27.9-3c3.8,0.4,6.8,1,8.8,1.5c-3.6,2.3-8.9,5.6-15.3,9.5c-27.2,16.7-41,25.1-51.1,27.3c-8.6,1.9-23,3-42.8-5.4
			c3.2,0.2,10.5,0.1,17.4-4.5c2.3-1.5,4.1-3.2,5.4-4.8c-7.3-0.4-15.7-1.8-24.6-5.1c-36.7-13.6-52.4-49-56.3-58.7
			c5.1,2.2,11.8,4.4,19.8,5.7c11.1,1.8,20.6,1.1,27.2,0c-5.7-3-14.4-7.5-24.9-13.2c-11.9-6.4-24.7-13.5-28.2-15.6
			c-10.6-6.2-28.3-21.1-46.1-61.4c16.2,10,27.9,10.6,35.7,9.1c6.5-1.2,13.5-4.4,25.2-4c5.9,0.2,10.6,1.2,13.8,2
			c-2.8-4.2-7.5-10.2-14.4-16.1c-10-8.5-17-10.2-25.5-16.1c-6.7-4.6-15.4-12.6-22.8-27.2c4.4,1.2,10.5,2.5,17.8,2.4
			c9.6-0.1,17.3-2.5,22.2-4.4c-4.7-2.1-9.7-4.8-14.8-8.1c-16.9-10.9-27.7-24.5-34.3-34.6c4.4,2,10.4,4.2,17.8,5.4
			c9.1,1.5,16.9,0.9,22.2,0c-8.5-8.8-16.5-14.7-22.2-18.5c-11.9-7.9-21-11-31.2-21.8c-3.8-4-6.4-7.6-8.1-10.1
			c3.4,1.1,7.4,2.1,12.1,2.7c6.9,0.9,12.9,0.6,17.5,0c-4-3.2-9.5-7.9-15.8-14C670,362.8,669.2,361.4,669,359.6L669,359.6z"/>
		<path class="st0" d="M290.3,273.5c2.1-2.6,4.3-5.3,6.4-7.9c2.4-1.9,10.4-8,21.9-7.7c18,0.5,27.6,16.2,28.3,17.4
			c-2.5,2.7-2.9,6.7-1,9.5c2.1,3.3,6.1,3.4,6.4,3.4c2.8-1.7,7.3-4,13.2-5.1c2.8-0.5,18-3.4,30.5,6.8c8.4,6.9,11,16,11.8,19.6
			c1.3,1,2.5,2,3.8,3c3.1-1.5,10.8-4.6,19.1-1.9c1,0.3,11.3,3.7,11,9.5c-0.2,4.5-6.8,7.3-7.3,7.5c-8.7,5.2-21.2,11.5-37.1,15.7
			c-15.3,4.1-28.7,5-38.6,4.9c2.6,3.9,6.5,8.4,12.3,12c19.9,12.3,43.6,1.6,46.3,0.3c-5.6,7.5-19.6,24.1-44.1,34.2
			c-24.6,10.1-46.3,8.1-55.5,6.7c5,6.8,10.4,11.3,15,14.3c31.2,20.8,71.6,3.6,76.9,1.2c-6,7.4-14,15.8-24.1,23.8
			c-22,17.4-44.4,25.2-59.2,29c-4.4-3.3-10.6-8.8-16.2-17.1c-5.1-7.6-7.7-14.8-9.1-19.8c2.8,3.8,6.7,8,12.2,11.6
			c19.3,12.5,41.6,6.2,46.1,4.9c-7.3-2.9-15.7-7-24.1-13.1c-27.4-19.9-38.1-47.8-42.1-60.7c4.8,3.1,10.6,6.4,17.7,9.1
			c16.7,6.5,31.9,6.8,41.5,6.1c-4.3-6.4-11.1-15.6-21-25.3c-11.2-11-17.5-14-24.7-21c-8.2-8-17.9-21.5-22.9-45.2
			c3.4,3.4,8.8,7.9,16.5,11.3c12.9,5.7,24.7,5,30.2,4.3c-6.2-9.2-12.6-14.7-17.4-18c-9.7-6.7-20.3-9.8-22.3-18.6
			C290.1,276.1,290.2,274.5,290.3,273.5L290.3,273.5z"/>
		<path class="st0" d="M101.4,237.2c1.7-3.9,13.6-2.9,17.1-2.5c6.3,0.6,11.2,2.4,14.1,3.9c3.5-1.4,11.7-3.9,21.8-2
			c13.2,2.5,21,10.9,23.3,13.6c4.5,1.9,11.2,4.2,19.7,4.9c11.7,0.9,20.9-1.8,26.2-3.8c-1.6,4.3-5.2,12.4-13.3,19
			c-15.7,12.8-34.9,9.3-37.9,8.7c2.4,2,4.8,4,7.2,6.1c-3.5,0.7-8.7,1.4-14.8,0.4c-11.5-1.8-17.9-8.1-30-18.2
			C110,246.2,99.8,241.1,101.4,237.2L101.4,237.2z"/>
	</g>
	<g id="Layer_30">
		<path class="st1" d="M783.1,305c-0.4,1.1,6.4,3.6,11.8,7.6c10.8,7.8,19.2,23.6,17.5,39.6c-1.5,13.4-11,33.6-25.8,33.2
			c-11.1-0.3-22.6-12.1-25.1-29c-0.4,3.5-0.5,7.8,0.2,12.5c2.3,14.6,11.2,24.2,15.3,28.1c-1.9,1.6-6,4.5-11.6,4.9
			c-4.5,0.3-8.4-2-21.6-13.5c-8.5-7.4-12.8-11-14.2-12.8c-3.6-4.4-10.2-14.3-11.6-31.1c-1.9-1.2-4.3-2.4-7.3-3.5
			c-3.9-1.4-7.4-1.9-10-2.1c1.6,0.5,3.8,1.4,5.9,3.3c3.8,3.4,5.2,8.2,6.2,17.3c1,10,0.2,13.4,0.3,26c0.1,14.4,1.1,19.4-1.6,20.8
			c-1.3,0.7-4.5,1.1-12.7-6.6c2,2,19.4,20.2,13.6,36.7c-1.7,4.8-5.1,8.6-12.6,13.8c-9.1,6.3-25.8,15.7-51.7,19.5
			c27.1,0.1,46.5-5.9,59.7-11.8c12.7-5.7,21.2-12,34.9-12.2c15-0.1,27.5,7.3,35.9,13.9c-1.5-3.9-4-11.8-1.5-20.6
			c4.6-16,22.2-22.3,25.8-23.5c13.7-4.9,19,0.4,29.2-4.2c7.3-3.3,15.2-10.8,20.6-27.8c-2,1.1-6,2.9-10.9,2.5
			c-7.6-0.7-14.3-6.3-17.6-14.4c8.1-6.2,10.4-12.3,11.3-15.7c5-20.2-19.6-43.2-40-49.2C791.1,305.4,783.5,303.9,783.1,305L783.1,305
			z"/>
		<path class="st1" d="M793.1,462.9c0.1-1.2,18.9,4.5,27.7-4.5c6.7-6.9,5-19.9,1.3-32.2c13.1,11.3,13.2,29.5,4.4,37.9
			C814.9,475.3,792.9,464.2,793.1,462.9L793.1,462.9z"/>
		<path class="st1" d="M859,366.5c2.2,0.7,5.9,2.2,9.3,5.5c7.6,7.4,7,17.7,6.8,20.2c-1.1,11.9-10,18.6-11.4,19.7
			c1.1-0.5,12.7-6.1,15.1-19.2c2-11.3-4.3-19.6-5.3-20.9c-1.4-1.3-4.2-3.4-8.2-4.5C862.7,366.6,860.6,366.5,859,366.5L859,366.5z"/>
		<path class="st1" d="M910.8,345c-0.5,1,9.3,4.7,17.8,13.3c18.3,18.6,25.6,55.5,10.2,68.8c-9.8,8.5-26.2,5-30,4.1
			c-13-2.8-21-10.5-23.9-13.7c2.8,4.8,6.5,12.5,8,22.6c0.7,4.9,1.4,9.6,0,14.3c-2.7,9.2-12.9,8.4-29.3,19.8
			c-8.2,5.7-16.3,11.4-15.5,17.2c1.1,8.3,19.6,11.6,20.6,11.8c-7.6-2-12.3-6.8-12.1-11.4c0.1-2.2,1.3-4.3,2.9-5.5
			c6-4.4,20.4,0.7,23.2,8.5c3.2,8.9-7.7,24.5-21,28c-20.7,5.4-34.7-21.6-60-17.7c-9.5,1.5-16.7,6.8-21.3,11c3.2-1.8,14-7.4,27.6-4.8
			c15.2,2.9,30,15.4,28.3,23.2c-1.4,6.5-15.2,12.7-67.4,12.4c5.7,3.8,14.8,9,26.6,12.2c20.9,5.7,41.4,2.8,113.3-25.4
			c33.1-13,49.8-19.6,58.5-26.2c23.4-17.6,56.4-54.5,46.3-81.9c-5.8-15.8-25.7-28.9-38.3-37.2c-5.8-3.8-10.9-6.6-14.6-8.5
			c-3.9-5.6-10.2-13.2-19.6-20.3C927.1,349.1,911.5,343.8,910.8,345L910.8,345z"/>
		<path class="st1" d="M739.7,481.2c2.8,0.1,15.6,1.1,24,11.2c9.4,11.3,9.4,29.6-1.1,44.1c1.1-4.1,3.9-16.5-1.7-30.7
			C754.9,490.6,743.2,483.2,739.7,481.2L739.7,481.2z"/>
		<path class="st1" d="M724.3,615.2c7.3,2.9,20.8,7.1,37.2,5.1c22.4-2.8,48.5-17,47.5-29.9c-0.2-2.7-1.9-8.8-16.1-15.3
			c9.2,0.4,22,2.5,30.7,11.7c12.7,13.5,5.4,30.3,15.3,37.2c15.8,10.9,46.3-22.9,61.3-13.1c10.7,7,9.2,33.5-0.7,51.8
			c-21.9,40.3-83.5,38.2-88.3,38c-29.2-1.4-76.8-15-87.6-51.1C719.7,636.3,721.8,623.8,724.3,615.2z"/>
		<path class="st1" d="M323.3,258.3c-0.3,0.6,9.1,3.2,14.5,12.4c7.1,12,1.7,25.8,3.2,26.1c1.5,0.3,9.1-12.3,4.6-23.6
			C340.6,260.7,323.7,257.5,323.3,258.3z"/>
		<path class="st1" d="M370,282.3c-0.2,0.5,3.7,1.2,8.5,4.6c6.5,4.6,14.2,14,12,22.4c-1,3.9-3.8,6.3-6.4,8.4
			c-10.3,8.4-29.2,13-35.5,4.8c-4-5.2-1.3-13.8,0.2-17.8c-1.5,1-3.7,2.6-5.4,5.2c-4.3,6.5-1,11.9-3.6,18.2
			c-2.6,6.5-10.7,12.3-18.6,11.5c-8.4-0.9-15.8-9.2-16.6-20.2c-1,0.9-2.2,2.2-3.1,4c-4.7,9.4,3.8,21.7,7,26.3
			c6.4,9.4,17.8,20,22.7,17.3c2.4-1.3,1-4.7,3.4-9.9c4.3-9.6,15.8-13.2,18.2-13.9c12.2-3.8,17.6,2.3,34.6-0.7
			c4.9-0.8,8.7-2.1,11-2.9c-3,0.5-8,0.8-13.9-0.7c-4.3-1.1-7.6-2.9-9.9-4.3c3-0.2,6.2-0.8,9.7-1.8c14.8-4.4,23.6-15.1,27.4-20.5
			c-0.9-3.2-4.4-15-16.1-23C383.7,281.2,370.4,281.3,370,282.3L370,282.3z"/>
		<path class="st1" d="M423,309.4c1.6,0.7,3.9,2,5.4,4.4c4.6,7-0.7,17.3-2.9,21.5c-1.8,3.4-5.5,9.4-13,14.7
			c6.7-2.3,20.5-8.2,27-21.1c3.1-6.2,2.3-9.4,1.9-10.5C439.7,312.9,432.4,309.4,423,309.4L423,309.4z"/>
		<path class="st1" d="M352.2,378.3c3.1,4.3,6.5,7.1,9.5,9c16.2,10,40.8,4.8,63.2-11.3c8.6,4.6,31.9,18.3,31,34.6
			c-0.3,5.8-3.8,13.3-51.6,38.8c-34.4,18.3-51.9,27.4-63.2,25.6c-32.2-5.1-50.6-43.9-54.6-68.7c-1.2-7.5-3.6-22.4,4.5-29.4
			c2.3-2,6.9-4.5,35.5-1.8C337.2,376,346,377.3,352.2,378.3L352.2,378.3z"/>
		<path class="st1" d="M116.4,234.5c0.3,0,7.4-0.1,10.7,5.2c3.1,5.1,0.3,11.4-2.5,14.6c-2.9,3.3-6.6,4.3-8.2,4.6
			c6.6,0,12.6-3.4,15.3-8.9c2.5-5.1,1.4-10,1-11.5c-1.9-0.9-4.1-1.8-6.7-2.5C122.3,235,119.1,234.6,116.4,234.5L116.4,234.5z"/>
		<path class="st1" d="M162.3,238.8c2,1.3,5.2,3.9,6.8,8.3c3,8.4-2.4,17.5-8.2,22.2c-9.4,7.4-20.9,4.1-22.1,3.8
			c2.6,1.5,7.8,4,14.6,4.2c10.5,0.4,18-4.9,20.3-6.6c0,1-0.3,3.5-2.1,5.9c-2.9,3.7-7.3,4-8,4c7.3,1,13.6-1.4,15.8-5.9
			c0.9-1.9,2.1-6.2-0.5-8.7c-1.9-1.8-5.1-2.1-8-0.7c1.2-1.2,2.4-2.4,3.8-3.5c4.7-4.1,9.4-7.3,13.7-9.7l-10.2-2.1
			c-1.3-1.8-3.5-4.5-6.8-6.8C167.8,240.7,164.5,239.4,162.3,238.8L162.3,238.8z"/>
		<path class="st1" d="M198.4,263.4c-0.7,3.1,0.3,4.8,0,6.8c-0.6,3.6-5.1,8.1-22.3,11.7c13.1,4.1,25.9-1.1,30.3-10.3
			c3.7-7.9,0.1-16.2-0.7-17.9C202.8,255.7,199.3,258.8,198.4,263.4L198.4,263.4z"/>
		<path class="st1" d="M1505.1,322.8c2.7,1.7,8,5.7,10.6,12.6c4.7,12.5-0.8,30.5-13.3,33.9c-10.2,2.8-19.8-5.7-21-6.8
			c0.8,4.2,2.7,6.6,3.9,7.9c5.7,5.8,16.8,6.3,27.4,0.8c-1.5,0.1-12.1,0.8-18.4,9.6c-5.9,8.3-5.3,20.4,1.7,29.5
			c-1.2-4.9-2-11.8,1.2-18.1c5.1-9.9,15.9-9.7,23.9-19.9c3.2-4.1,6.6-10.7,6.9-21.5c0.8-10.9-3.6-20.7-11.5-25.2
			C1512.3,323,1507.9,322.7,1505.1,322.8L1505.1,322.8z"/>
		<path class="st1" d="M1599,329.7c0.7,2.6,1.4,6.7,0.9,11.5c-1.6,14.6-13.5,23-28.3,36.5c-7.7,7.1-18.4,17.7-30.4,32.1
			c7.3-5.2,15.1-10.4,23.3-15.6c9.9-6.3,19.6-12,28.9-17.1c-3.6,3.6-8.6,9.4-13.6,17.1c-7.3,11.4-21.2,33.1-13,49.2
			c1.6,3,5.3,8.8,15.3,13c-2.1-2.9-5.4-8.6-5.9-16.2c-0.9-14.8,9.7-30.7,18-30.1c4.8,0.4,7.9,6.1,9.4,8.8
			c11.9,21.7-2.8,51.9-7.4,60.7c5.6-3.6,13.4-9.8,18.8-19.8c12.2-22.5,5.1-51.3,1.9-64.4c-5.1-20.6-12.3-30.8-6.6-40.1
			c3.8-6.1,11.2-8.5,16.6-9.5c-1.9-2.7-5.1-6.5-10-9.9C1609.8,331.2,1602.6,330,1599,329.7L1599,329.7z"/>
		<path class="st1" d="M1546.1,449c-2.9,0-13,0.3-20.6,7.8c-11.3,11.1-10.3,31.1-1.7,39.5c5.8,5.7,12.9,4,33.2,5.1
			c16.4,0.9,29.7,3,38.7,4.7c21.9,16.2,34.5,35.1,29.8,45.1c-5.7,12.1-38.2,14.3-57.8,0.8c-15.1-10.3-14.7-24.6-33.6-33.2
			c-8.8-4-16.9-4.5-25.1-5.1c-16.3-1.1-29.5,1.8-37.8,4.2c4.2-4.3,10.3-9.7,18.7-14.5c6.8-3.9,13.2-6.2,18.3-7.6
			c-2.4-2.6-6.2-7.7-7.2-14.9c-1.8-13.4,7.6-26.7,19.6-31.9C1532.1,444,1543.2,447.9,1546.1,449L1546.1,449z"/>
		<path class="st1" d="M1563.5,580.2c-3.4,2.5-14.6,10-30.6,9.3c-13.5-0.6-22.9-6.7-26.4-9.3c2,7.9,5.2,17.3,10.7,27.2
			c15.6,27.9,39.7,41.5,51.4,47.2c2.5-8.2,5.6-21.8,4.3-38.6C1571.6,600.1,1567,587.8,1563.5,580.2L1563.5,580.2z"/>
		<path class="st1" d="M1812,339.6c-4.6,0.9-5.8,12-6,14c-2.1,20.4,8.9,28.5,6.6,43.6c-0.8,4.9-3.1,12-11.1,20.1
			c14.5-4.8,19.3-11.2,21-16c3.3-9.3-3.3-16.5-3.3-32.1c0-10.1,2.8-18.3,5-23.4c-1.1-1-2.8-2.4-5-3.6
			C1816.5,340.6,1814,339.2,1812,339.6L1812,339.6z"/>
		<path class="st1" d="M1861,328.9L1861,328.9L1861,328.9c0,0,7.1,8.2,9.1,10.9c6.6,8.7,11.5,27.3,2.4,41.2
			c-8.1,12.5-23.1,14.5-26,14.9c2.3,1.7,5.6,3.5,9.6,4.5c13.7,3.3,25.2-5.4,27.1-6.9c-5.5,4-12.2,10-18.3,18.4
			c-13.8,18.7-6.5,38.4-16.6,42.2c-4.7,1.8-11.2-0.4-12.5-3.8s2.4-9,9.7-13.1c-1.5-0.4-5.1-1.2-9,0.4c-6.3,2.6-9.8,10.2-8.3,15.6
			c2.2,7.8,14.9,9.8,20.4,10.7c12.1,2,17.4-1.8,20.4,1.8c4.1,4.7,0.9,18.5-8.3,22.8c-10.4,4.9-21.6-5.7-22.5-6.6
			c-2.9-2.8-4.6-5.9-5.5-8c-0.4,3.4-0.8,10.2,2.9,17c7.5,13.7,24.9,14.5,26.6,14.6c21.6,0.7,47.1-22,42.2-43.5
			c-4.1-18.3-27.7-25.1-28.7-25.4c1-4.2,2.3-8.8,4.2-13.5c6.1-15.7,15.3-26.8,22.6-34c-5.1-2.4-10.2-4.8-15.3-7.2
			c8.5-7.6,11.8-19.6,8.3-30.5c-3.5-10.9-13.1-18.7-24.4-20"/>
		<path class="st1" d="M1849.7,546.5c7,7.2,7.5,11.3,6.6,13.6c-2.7,7.1-19.6,2.4-38.6,10.4c-3,1.3-18.3,8-27.1,22.1
			c-12.6,20.2-8.9,51.1,8.4,71.2c23.2,26.8,59.3,21.3,64.4,20.5c3.6-0.6,55.6-4.2,52.7-38c-1.5-16.9,2-38.2-2.3-53
			c-3.6-12.3-22.5-1-31.5-11.4c-6.3-7.2-2.9-14-9.4-22.8C1866.8,551,1857,547.9,1849.7,546.5L1849.7,546.5z"/>
	</g>
	<g id="Layer_28">
		<g>
			<path class="st2" d="M1901.1,304.7c-9.7,13.3-20.2,22-27.8,27.4c-5.2,6.5-10.4,13-15.7,19.4c4.4,0.9,10.2,1.8,17.1,1.5
				c7.2-0.2,13.3-1.5,17.8-2.8c-1.6,11.8-5.4,29.7-15.9,48.9c-7.8,14.3-16.8,24.9-24,32.1c7.4-0.4,18-1.9,29.6-6.9
				c6.7-2.9,12.2-6.3,16.5-9.4c-13.8,21.9-27.3,45.3-40.2,70.4c-2.6,5-5.1,10-7.5,15c6.3,1.1,18.2,2.3,31.9-2.1
				c8.2-2.7,14.4-6.5,18.6-9.6c-3.6,12.4-10,29.1-21.9,46.4c-19.8,28.8-44.3,44.4-58.3,51.9c6.7,1.8,19.3,4.2,34.5,1
				c12.1-2.5,21.1-7.4,26.4-11c-2.1,20.5-8.3,35.2-12.9,44c-5.8,11.1-10.2,19.3-19.9,23.7c-12.9,5.9-26.2,0.9-30.3-0.8
				c4.2,0.3,9.3,0.4,15-0.2c4.4-0.5,8.4-1.4,11.7-2.3c-5.4-2.2-13-5.6-21.5-10.6c-25.7-15-43.2-34.7-42.2-35.8
				c0.3-0.4,2.2,1.5,6.5,2.5c4.7,1.1,8.7,0.6,11.2,0.2c-1.9-3.8-4.4-8.1-7.6-12.5c-2.7-3.8-5.5-7.1-8.1-9.9
				c6.5,1.5,14.7,2.9,24.2,2.9c6.4,0,12.1-0.5,17-1.2c-4.8-3.5-14.8-11.7-20.8-26c-3.8-9.1-4.6-17.3-4.6-22.7
				c2.4,1.7,6.5,4,11.9,5.1c3.2,0.7,6.1,0.8,8.4,0.6c0.5-2.7,1.1-7.8-0.7-13.9c-2.3-7.6-7-12.2-9.1-13.9c-2.4-1-5.3-2.4-8-4.8
				c-9.5-8-10.8-19.7-11-23c17.3,7.5,34.7,15,52,22.5c-10.3-13.2-21.5-29.3-32.2-48.5c-9.3-16.8-16.4-32.7-21.9-46.9
				c2,1.1,16.7,8.9,31.1,2.1c5.2-2.4,8.7-6,10.8-8.6c-21.7-5.8-30.8-14.9-34.9-22.6c-1.8-3.3-2.6-6.2-7.9-18.1
				c-3.8-8.7-7.2-15.7-9.5-20.4c0,0,0,0,0.1,0c-1-1-2-2-2.9-3.1c-11.1-12-18.9-24.1-24.3-34.5c4.9,1.3,12.3,2.6,21.2,1.8
				c11.6-1,20.3-5.2,25.2-8c-3.2-1.4-6.5-2.8-9.7-4.4c-28.7-14-50.3-33.3-66.3-52.1c3.1,0.6,7.2,1,11.9,0.4c11.8-1.4,19.8-8,23-11.1
				c-14.1-3.2-42.7-12-65.8-37.6c-7.7-8.5-13.3-17.1-17.2-24.7c0,13.7-2.1,41.7-19.4,70.3c-9.2,15.1-19.9,25.7-28.3,32.7
				c3.5,0.2,8.1,0,13.3-1.3c11-2.9,18-9.4,21.2-12.8c1.4,10,4.2,39.8-14.1,67.6c-6.8,10.3-14.7,17.6-21.2,22.5
				c-4.1,2.2-10.2,6.1-15.9,12.6c-5,5.6-8,11.2-9.8,15.2c8-1.2,20.5-4.2,33.9-11.7c14.2-8,23.5-17.7,28.7-24.1
				c-4.3,16.8-14.7,47.8-41.6,76.4c-14.8,15.8-30.2,26.1-42.2,32.6c6.1,2.2,15.7,5,27.8,5c10.7,0,19.4-2.2,25.2-4.2
				c-8.6,16-25.7,42.5-56.8,63.7c-14.6,9.9-28.6,16.2-40.2,20.2c8.7,4.7,22.4,10.7,40.2,12.7c10.8,1.3,20.3,0.7,27.7-0.2
				c-9.2,11.8-21.8,25.5-39,38c-6.1,4.4-12,8.2-17.7,11.5c1.3,2.4,2.7,4.8,4,7.2c-5.1,3-10.3,6-15.5,9.2c-2.4,1.5-4.9,3-7.2,4.5
				c3,1.2,6.7,2.3,11,3c9.6,1.5,17.6,0.1,22.7-1.2c-1.4,2.8-5.1,9.2-12.7,13.7c-6,3.5-11.7,4.3-14.7,4.5c6.2,5.3,12.5,10.7,18.7,16
				c-4.1,3.2-8.2,6.3-12.2,9.5c-6.8-5-16.5-13.6-24.9-26.8c-6.3-9.9-9.7-19.2-11.7-26.2c2.2-0.2,4.5-0.5,6.7-0.7
				c-8.3-9.3-18.2-22.1-26.8-38.7c-5.9-11.3-9.9-21.9-12.6-31.1c4.4,2.5,14,7,26.8,7.1c10.9,0,19.2-3.1,23.7-5.2
				c-8.5-3.9-22.1-11.5-34.8-25.4c-15.1-16.6-21.5-33.9-24.2-43.4c7.6,3.9,18.9,8.4,33.2,10.1c7.7,0.9,14.6,0.8,20.3,0.3
				c-7.2-4.7-19.9-14.3-29.2-31c-5.3-9.5-7.8-18.5-9.2-25.1c2.9,1.8,11.4,6.7,22.7,5.5c6.2-0.7,11-2.9,13.8-4.6
				c-9.8-3.3-31.3-12.1-45.8-33.8c-4.2-6.2-7-12.4-8.9-17.8c3.1,1,6.2,2,9.2,3.1c0.5-3.3,0.8-7.7,0-12.9c-1.1-7.7-4.1-13.5-6.2-16.9
				c2.4,2,12.8,10.1,26.4,8.3c4.6-0.6,8.4-2.2,11.1-3.7c-2.1-0.5-12.6-3.3-13.7-9.4c-2.4-1.3-5.6-3.4-8.4-6.6
				c-7.5-8.6-7.6-18.9-7.5-22.1c2,0.6,8.2,2.4,15-0.4c3.4-1.4,5.7-3.4,7.1-4.9c-7.2-2.5-21.6-8.7-33.6-23
				c-6.8-8.1-10.6-16.2-12.8-22.1c1.9,1.9,5.4,5,10.6,7.1c6.7,2.6,12.7,2.2,15.5,1.8c-8.9-8.4-20.2-21.1-29.2-38.9
				c-4-7.9-6.8-15.4-8.8-22.1c1.2,0.9,4.8,3.5,10.2,3.5c5.6,0.1,9.5-2.7,10.6-3.5c-6.7-7.3-14.1-16.5-21.2-27.8
				c-8.6-13.6-14.3-26.5-18.1-37.1c-2.7,9.6-9.9,30.4-29.2,49.1c-17.6,17-36.5,23.8-45.9,26.5c3.5,1.9,8.8,4.2,15.5,5.3
				c9.9,1.7,18,0,22.5-1.3c-3.9,8.5-11.9,22.9-26.9,36.2c-14.7,13-29.6,19.2-38.4,22.1c2.8,1.4,6.4,2.8,10.6,3.5
				c13,2.4,23.7-2.1,28.3-4.4c-4.4,7.7-14,22.3-31.8,33.6c-13.5,8.6-26.4,11.9-34.5,13.3c1.9,2.7,5.8,7.4,12.4,10.6
				c11,5.4,21.6,2.6,24.3,1.8c-3.2,6.1-13.6,24.2-35.3,32.7c-8.9,3.5-17,4.4-23,4.4c1.7,2.5,6.3,8.8,15,12.4
				c10,4.1,18.9,2.1,21.7,1.3c-3,6.5-9,17.6-20.3,27.8c-11.1,10-22.5,14.9-29.2,17.2c-5.5-4.1-12.4-10.1-19.1-18.5
				c-6.8-8.6-11.2-16.8-13.9-23.2c2.9,2,10.6,6.7,21.4,7c12.4,0.2,21-5.5,23.8-7.5c-5-2-22.4-9.5-33-29c-8.6-15.7-8.1-30.6-7.5-36.5
				c2.9,1.8,9,5,17.4,5.2c12.3,0.3,20.8-6.2,23.2-8.1c-9.6-7.3-23.3-19.6-35.3-38.2c-11.3-17.4-16.8-33.9-19.7-45.2
				c2.3,3.8,14.8,23.4,39.4,28.4c14,2.9,25.6-0.3,31.3-2.3c-12-9.2-31.8-26.9-45.8-55.6c-7.8-16-11.5-30.9-13.3-42.3
				c2.9,5,14.4,23.4,37.7,30.7c13.6,4.3,25.5,3,31.9,1.7c-16-13.5-43.7-41-59.7-84.6c-7.6-20.7-10.6-39.6-11.6-54.5
				c-11.5,12.5-28.9,28.7-53.3,42.9c-30,17.5-58.1,24.6-76.6,27.8c5.2,5.1,13,11.7,23.9,17.4c11.6,6,22.2,8.6,29.5,9.9
				c-5.4,7.7-22.2,29.6-53.4,40c-26,8.6-48.3,4.6-57.8,2.3c4.9,4.5,12.6,10.4,23.2,14.5c22.8,8.7,43.3,2.9,50.4,0.6
				c-10.7,11.4-27.4,26.5-51,39.4c-27.5,15-52.9,20.8-69.5,23.2c6.9,3.5,16.3,7.4,27.8,9.9c17,3.6,31.6,2.6,41.1,1.2
				c-6.4,7.3-18.7,19.2-37.7,27.8c-17.3,7.8-32.8,9.5-42.3,9.9c1.7,4.3,4.8,9.9,10.4,14.5c17.9,14.5,43.5,3.9,44.6,3.5
				c-5.5,6-13.7,13.6-24.9,20.3c-15.4,9.2-29.9,12.9-39.4,14.5c-3,3.5-11,11.7-24.2,15.4c-16.9,4.6-30.8-1.4-34.5-3.1
				c2.7,4.5,10.7,16.4,26.3,23.5c16.6,7.5,31.6,5.1,36.7,4c-6,6.9-13.2,14.1-21.8,21.2c-25.3,20.8-51.5,30.6-69.9,35.5
				c4.4,3.5,12.7,9.1,24.6,12c13.2,3.2,24.2,1.3,29.8,0c-7.4,8.6-18,19.1-32.7,28.6c-24.6,16-48.6,21.4-63,23.5
				c6.8,4,16.2,8.4,28.1,10.9c27.5,5.8,50.1-2.7,59.6-6.9c-0.5,3.1-1.9,9.6-6.9,16c-4.3,5.5-9.3,8.4-12,9.7
				c5.2,0.4,10.4,0.7,15.7,1.1c-7.7,12.1-20.1,28.8-39.3,44.7c-18.2,15.1-36,24.1-48.8,29.4c15,4.2,26.1,3.4,33.6,1.9
				c6.5-1.3,15.4-4.3,27.9-3c3.8,0.4,6.8,1,8.8,1.5c-3.6,2.3-8.9,5.6-15.3,9.5c-27.2,16.7-41,25.1-51.1,27.3c-8.6,1.9-23,3-42.8-5.4
				c3.2,0.2,10.5,0.1,17.4-4.5c2.3-1.5,4.1-3.2,5.4-4.8c-7.3-0.4-15.7-1.8-24.6-5.1c-36.7-13.6-52.4-49-56.3-58.7
				c5.1,2.2,11.8,4.4,19.8,5.7c11.1,1.8,20.6,1.1,27.2,0c-5.7-3-14.4-7.5-24.9-13.2c-11.9-6.4-24.7-13.5-28.2-15.6
				c-10.6-6.2-28.3-21.1-46.1-61.4c16.2,10,27.9,10.6,35.7,9.1c6.5-1.2,13.5-4.4,25.2-4c5.9,0.2,10.6,1.2,13.8,2
				c-2.8-4.2-7.5-10.2-14.4-16.1c-10-8.5-17-10.2-25.5-16.1c-6.7-4.6-15.4-12.6-22.8-27.2c4.4,1.2,10.5,2.5,17.8,2.4
				c9.6-0.1,17.3-2.5,22.2-4.4c-4.7-2.1-9.7-4.8-14.8-8.1c-16.9-10.9-27.7-24.5-34.3-34.6c4.4,2,10.4,4.2,17.8,5.4
				c9.1,1.5,16.9,0.9,22.2,0c-8.5-8.8-16.5-14.7-22.2-18.5c-11.9-7.9-21-11-31.2-21.8c-3.8-4-6.4-7.6-8.1-10.1
				c3.4,1.1,7.4,2.1,12.1,2.7c6.9,0.9,12.9,0.6,17.5,0c-4-3.2-9.5-7.9-15.8-14c-6.1-5.9-7-7.4-7.2-9.1c-7.9-2.8-18.7-7.6-29.5-16.2
				c-19.5-15.5-28.2-34.4-31.9-44c3.9,3.4,13.7,10.9,28.6,13.2c15.9,2.5,28.3-2.5,32.9-4.7c-16.2-7.9-41.5-22.9-63.2-50.4
				c-10.2-12.9-17.3-25.6-22.2-36.3c3.2,2.3,6.8,4.6,10.7,6.8c16.2,9.2,32.1,13,44.4,14.5c-13-11.6-30.8-30.3-45.7-57.2
				c-11.2-20.3-17.4-39.2-20.9-53.8c-7.7,13.3-22,34-46.1,52.5c-29.3,22.5-58.7,30.6-74.7,33.7c7.6,1.9,17,3.6,27.7,4.1
				c17.3,0.8,31.7-1.8,42.1-4.6c-12.6,14.5-35.2,36.2-69.5,49.7c-12.4,4.9-24,7.8-34.2,9.5c4.6,3.2,10.3,6.3,17.1,8.7
				c27,9.3,51.9-0.7,60.3-4.6c-5.8,6.7-13.7,14.8-24.2,22.5c-10.6,7.9-20.6,13.2-28.8,16.8c-0.2,4.5-6.8,7.3-7.3,7.5
				c-8.7,5.2-21.2,11.5-37.1,15.7c-15.3,4.1-28.7,5-38.6,4.9c2.6,3.9,6.5,8.4,12.3,12c19.9,12.3,43.6,1.6,46.3,0.3
				c-5.6,7.5-19.6,24.1-44.1,34.2c-24.6,10.1-46.3,8.1-55.5,6.7c5,6.8,10.4,11.3,15,14.3c31.2,20.8,71.6,3.6,76.9,1.2
				c-6,7.4-14,15.8-24.1,23.8c-22,17.4-44.4,25.2-59.2,29c-4.4-3.3-10.6-8.8-16.2-17.1c-5.1-7.6-7.7-14.8-9.1-19.8
				c2.8,3.8,6.7,8,12.2,11.6c19.3,12.5,41.6,6.2,46.1,4.9c-7.3-2.9-15.7-7-24.1-13.1c-27.4-19.9-38.1-47.8-42.1-60.7
				c4.8,3.1,10.6,6.4,17.7,9.1c16.7,6.5,31.9,6.8,41.5,6.1c-4.3-6.4-11.1-15.6-21-25.3c-11.2-11-17.5-14-24.7-21
				c-8.2-8-17.9-21.5-22.9-45.2c3.4,3.4,8.8,7.9,16.5,11.3c12.9,5.7,24.7,5,30.2,4.3c-6.2-9.2-12.6-14.7-17.4-18
				c-9.7-6.7-20.3-9.8-22.3-18.6c-0.4-1.9-0.3-3.5-0.2-4.5c2.1-2.6,4.3-5.3,6.4-7.9c-2.3-2.2-5.2-5.4-7.7-9.6
				c-3.7-6.3-5.2-12.2-5.8-16.1c2.3,2.3,9.1,8.4,19.9,10.3c11.9,2,21-2.4,23.8-3.9c-9.6-6.6-30.1-22.5-41.2-50.8
				c-4.9-12.5-6.6-24-7.1-32.8c-9.2,9.4-22.7,21.2-41.2,31.5c-14.4,8-27.8,13-38.6,16.1c2.9,2.1,6.8,4.2,11.6,5.8
				c14.4,4.7,27.2,0.6,32.2-1.3c-4.1,6-11.4,15-23.2,22.5c-17.1,11-33.9,12.6-41.8,12.9c4.5,1.9,11.2,4.2,19.7,4.9
				c11.7,0.9,20.9-1.8,26.2-3.8c-1.6,4.3-5.2,12.4-13.3,19c-15.7,12.8-34.9,9.3-37.9,8.7c2.4,2,4.8,4,7.2,6.1
				c-3.5,0.7-8.7,1.4-14.8,0.4c-11.5-1.8-17.9-8.1-30-18.2c-24.9-20.9-35-26-33.4-29.9c-13.6-17.3-27.2-34.6-40.8-51.8
				c11.4,7.8,29.1,17.8,52.6,23.6c14.8,3.6,28,4.7,38.5,4.7c-21.8-9.7-53.6-27.4-83.2-58.9c-15.3-16.2-26.4-32.4-34.6-46.3
				c8.6,7.1,22.2,16.5,40.8,22.8c11.3,3.8,21.6,5.5,29.8,6.3c-21-15-50.4-40-75.4-78.5C15.3,37.5,6.2,17.1,0,0v1273.4h1920V265
				C1917.4,274.6,1912.2,289.4,1901.1,304.7z"/>
			<path class="st2" d="M345.9,284.6c2.1,3.3,6.1,3.4,6.4,3.4c2.8-1.7,7.3-4,13.2-5.1c2.8-0.5,18-3.4,30.5,6.8
				c4.9,4,7.8,8.7,9.5,12.7c-0.1-1.3-0.2-2.6-0.5-4c-0.3-1.7-0.9-3.8-2.3-6.1c0.8,0.8,1.8,1.6,2.8,2.3c3.5,2.4,6.9,3.3,8.8,3.7
				c-4.8-10.8-9.6-23.5-13.5-38c-2.6-9.6-4.5-18.7-5.8-27c-2.9,7.2-12,27.5-33.5,37.3c-5.2,2.4-10.3,3.8-14.8,4.5
				C344.4,277.9,344,281.8,345.9,284.6L345.9,284.6z"/>
		</g>
	</g>
	<g id="Layer_26">
		<path class="st3" d="M1673.9,165.1c0.4,8.2,2.4,18.3,8.2,28.1c20.7,35.4,70.8,33.9,73.4,33.8c-10.3-2.3-28.1-7.6-46.3-21.1
			C1689.6,191.5,1679,174.6,1673.9,165.1L1673.9,165.1z"/>
		<path class="st3" d="M1722.1,238c-2.3-0.1-5.2-0.5-8.5-1.5c-4.6-1.4-8-3.6-10.2-5.3c3.5,8.6,9.1,19,18.2,29.1
			c27.5,30.4,65.7,33.7,76.5,34.3c-12.7-5.5-28.8-13.9-45.4-27C1739.7,257.4,1729.6,247,1722.1,238L1722.1,238z"/>
		<path class="st3" d="M1682.5,221.8c1.2,7.2,2.1,17.2,0.8,28.8c-1.7,14.5-6.1,25.9-9.7,33.3c3.7-2.3,13.2-8.7,18.6-21.1
			c7.2-16.2,2.4-31,1.2-34.5C1689.8,226.1,1686.1,224,1682.5,221.8L1682.5,221.8z"/>
		<path class="st3" d="M1626.2,268.1c-0.2-0.5,8.6-2.1,18.8-9.5c13.1-9.5,19.3-21.9,21.6-26.8c6.8-14.2,7.6-27.3,7.4-34.5
			c1.5,4.9,3.5,13.4,2.2,23.8c-0.5,4.4-2.7,20.5-15.6,32.9C1646.1,267.8,1626.5,268.9,1626.2,268.1L1626.2,268.1z"/>
		<path class="st3" d="M1751.7,300.8c13.9,13.8,22.1,27.1,27.2,37.5c0.5,1,1,2.3,3.8,8.8c7.2,16.4,10.8,24.6,11.9,26.7
			c3.8,7.6,12.8,17.8,36.7,25.6c-26.4,7.3-40.4-0.5-44.8-3.4c-13.2-8.7-17.9-25.5-26.9-58.9C1755.6,322,1753.2,309.4,1751.7,300.8
			L1751.7,300.8z"/>
		<path class="st3" d="M1725.8,306.6c2.8,2.9,5.8,6.5,8.7,10.8c4.6,6.8,7.4,13.3,9.3,18.6c1.1-9.2-0.3-16.2-1.5-20.4
			c-1.4-4.6-4.1-14-9.1-14.3C1729.9,301,1702.3,272.6,1725.8,306.6L1725.8,306.6z"/>
		<path class="st3" d="M1755.8,371.4c3.5,2,7.4,4.5,11.4,7.8c6.4,5.2,11,10.6,14.2,15.1c-1.6-9.1-4.9-15.4-7.3-19.1
			c-2.7-4-8-12.2-12.9-11.1C1758,365,1723.4,345.6,1755.8,371.4L1755.8,371.4z"/>
		<path class="st3" d="M1680.8,305.6c0.6,4.2,1,11.1-1.1,19.2c-3,11.3-9.5,18.6-12.8,21.8c5.2-2.1,14-6.4,22.2-15
			c6.4-6.8,11.2-32.3,13.2-37C1695.5,292.1,1687.6,308.1,1680.8,305.6L1680.8,305.6z"/>
		<path class="st3" d="M1670,296.6c-4,9.7-10.2,21.6-19.7,33.9c-17.5,22.5-37.9,35-50.6,41.4c9.4-1.5,21.4-4.7,33.9-11.7
			c10.5-5.9,24.6-13.8,32.2-30.5C1671.8,316.4,1671,303.8,1670,296.6L1670,296.6z"/>
		<path class="st3" d="M1694.7,361.9c0.2,7.8-0.6,23.4-9.2,40.2c-11.3,21.9-29.1,32.4-36,36c24.1,3.2,35.1-3.1,40.6-8.4
			c10.6-10.2,9.6-23.5,19.7-62.8c3.3-12.8,6.4-23,8.4-29.3C1710.3,345.7,1702.5,353.8,1694.7,361.9L1694.7,361.9z"/>
		<path class="st3" d="M1760.5,401.4c-1.1-10.4-5.6-16.1-10.4-26.8c-3.1-7-5.7-9.1-7.9-23.1c-6.4-9.3-18.5-19.3-20.1-18.9
			c9.6,7.4,17.3,44.9,18.9,50.3c3.8,12.7,2.9,7.9,9.3,16.8L1760.5,401.4L1760.5,401.4z"/>
		<path class="st3" d="M1578.9,445.3c11.1-3.3,26-9.3,41.2-20.6c31-23,43.3-53.5,47.8-67c-4,29-12.4,50.6-19.2,64.5
			c-7.3,15.1-12,20.2-17.2,23.6C1611.6,458.9,1584.7,447.8,1578.9,445.3L1578.9,445.3z"/>
		<path class="st3" d="M1789.4,405.9c-1.1,7.3-1.1,13.8-0.6,19.5c4.3,43.6,44.9,69.9,54.6,75.8c-12.2-15.5-25.2-34.7-37.2-57.8
			C1799.4,430.2,1793.9,417.6,1789.4,405.9L1789.4,405.9z"/>
		<path class="st3" d="M1767.1,462.6c0.1,4,0.8,16.6,8.8,27.8c8.6,12.1,17,10.2,29.7,22.5c7.8,7.6,12.2,15.7,14.7,21.3
			c0.4-2.9,1-9.3-1.9-16.6c-2.3-5.6-5.7-9.3-7.8-11.2c-2.6-1-6-2.8-9.3-5.9c-8.6-8-9.6-18.8-9.8-21.9c-3.5-2.3-8.3-6.1-12.7-11.7
			c-5.9-7.5-8.5-14.9-9.8-19.5C1768,451.1,1766.9,456.3,1767.1,462.6L1767.1,462.6z"/>
		<path class="st3" d="M1471.6,269.4c-5.8-5.4-12.3-12.4-18.5-21.2c-10.5-14.8-16.2-29.1-19.5-39.8c-0.8,1.8-1.7,4.5-2.3,7.8
			c-2,11.9,3.2,21.5,5.6,26.1C1446.8,260.8,1466.6,267.8,1471.6,269.4L1471.6,269.4z"/>
		<path class="st3" d="M1415,143.5c4.8,10.5,10.8,22.1,18.1,34.1c7.1,11.7,14.3,21.9,21.2,30.8c-5.9-2.3-16.2-7.2-25-17.6
			C1413.1,171.6,1414.5,148.6,1415,143.5L1415,143.5z"/>
		<path class="st3" d="M1426.5,254.4c-1.6,3.9-3.5,8.1-5.8,12.3c-1,1.9-2,3.7-3,5.5c-1.2-1-2.3-2.1-3.6-3.3
			c-1.8-1.8-3.3-3.5-4.7-5.2c1.3,0.4,3.5,0.8,5.8,0c0.9-0.3,2.9-1.2,7.1-8.5c1.6-2.7,2.7-5,3.6-6.8
			C1426.1,250.4,1426.3,252.4,1426.5,254.4L1426.5,254.4z"/>
		<path class="st3" d="M1417.7,234.7c-2.9,2.7-6.5,5.6-10.9,8.5c-4.6,3-8.9,5.1-12.6,6.7c1.8-3.2,3.5-6.8,5.2-10.8
			c2.8-6.5,4.7-12.6,6-18.1c0.6,1.8,1.7,4.9,4.4,7.9C1412.7,232.3,1415.9,234,1417.7,234.7L1417.7,234.7z"/>
		<path class="st3" d="M1750.2,414.7c-3.2,5.4-7.8,12-14.5,18.6c-9.1,9.1-18.5,14.7-25.2,18c3.5-4.6,8.2-11.9,11.3-21.7
			c4.4-13.9,3.3-25.9,2.3-32.4c4,1.6,8.7,4,13.8,7.3C1743,408.1,1747.1,411.6,1750.2,414.7L1750.2,414.7z"/>
		<path class="st3" d="M1737.6,545.7c-7.9,3.2-13,6-18.2,4c-5.2-2.1-7.6-7.5-8.5-9.9c-3.3,2.4-6.6,4.8-9.8,7.2
			c-1.5-0.3-3-0.7-4.5-1.1c-0.3-1.5-0.6-3.1-1-4.6c-1,1.8-3.1,4.7-6.4,5.6c-2,0.5-4.5,0.4-12-4c-3.4-2-8-4.9-13-9
			c4.2,0.6,10.5,1,17.6-1.1c16.9-4.8,24.9-19.1,26.7-22.5c0.2,3.9,1.3,10.9,6.4,17c8.2,9.9,23.2,13.3,38,8.6
			C1749.9,538.8,1744.8,542.7,1737.6,545.7L1737.6,545.7z"/>
		<path class="st3" d="M1491.1,305.5c-6.1-2.1-16.3-6.6-26.1-15.8c-11.7-10.9-16.9-23-19.2-29.4c-0.2,1-4.7,21.1,10.2,35.6
			C1470.5,310.2,1489.9,305.8,1491.1,305.5L1491.1,305.5z"/>
		<path class="st3" d="M1499.2,348.6c-2.9-0.8-6-2-9-3.9c-16-9.6-19.6-28.7-20.3-33.6c-1.6-0.2-3.7-0.6-6-1.7
			c-4.6-2.1-7.2-5.5-8.3-7.3c-0.2,4.1-0.2,16.6,8.3,28.3C1476.3,347.5,1496.5,348.6,1499.2,348.6L1499.2,348.6z"/>
		<path class="st3" d="M1446,325.9c1.2,2.8,3.2,7,6.8,11.1c3.5,4.1,7.2,6.7,9.8,8.3c1.8,3,4.2,7.7,5.4,14c1.3,6.4,0.9,11.8,0.4,15.3
			c-3.5-2.6-7.5-6.2-11.1-11.1C1446.4,348.8,1445.8,332.6,1446,325.9L1446,325.9z"/>
		<path class="st3" d="M1512.9,423c0.4-1.1-17.5-4.4-34.6-21.6c-10.5-10.6-16.5-22.3-20.1-31.2c-1.9-0.8-4.3-2-6.8-3.8
			c-2.7-2-4.7-4-6.1-5.7c1.2,8.2,4.1,18.7,10.9,28.8C1475.4,417.8,1512.6,423.9,1512.9,423L1512.9,423z"/>
		<path class="st3" d="M1477.1,422c1.1,5.6,3.1,13.4,7.4,21.8c11.8,23,31.3,33.1,30.4,34.5c-0.9,1.4-19-5.7-34.3-21.3
			c-16.3-16.5-22.9-36-25.8-48.8C1462.2,412.8,1469.6,417.4,1477.1,422L1477.1,422z"/>
		<path class="st3" d="M1461.9,467.7c2.6,9,8.3,24.8,21.6,40.4c13.7,16.1,28.8,24.4,37.4,28.4c-10.3-2.6-33.8-9.9-55.1-31.1
			s-28.8-44.6-31.4-54.9c4.9,3.5,10.3,7.1,16.1,10.7C1454.4,463.5,1458.2,465.7,1461.9,467.7L1461.9,467.7z"/>
		<path class="st3" d="M1509.9,604.4c-9.9-3.8-24-10.7-37.4-23.6c-27.7-26.6-33.1-59.8-34.4-71.1c2.7,3.6,6.3,7.7,10.9,11.7
			c7.8,6.8,15.6,10.8,21.4,13.2c2.2,8,5.3,17.1,9.8,26.7C1489.3,580.5,1500.7,594.7,1509.9,604.4L1509.9,604.4z"/>
		<path class="st3" d="M1580,679.3c-9.9-2.9-25.1-8.8-40.2-21.2c-23.3-19-32.9-42.3-36.6-53c-4.1,0.8-9.3,1.3-15.3,0.8
			c-12.8-1.1-22.2-6.3-27.1-9.6c-5.8-3.9-11.7-7.8-17.5-11.7c4.7,13.5,12.5,30.8,26,48.1c31.8,40.8,74.1,55.3,91.9,60.2
			c-11.9-6.4-30.1-18.2-46.3-38.4c-10.7-13.4-17.4-26.5-21.6-36.6c5.1,9.3,15,24.7,32.6,38.1C1547.4,672.5,1569.1,677.5,1580,679.3
			L1580,679.3z"/>
		<path class="st3" d="M1487.6,673.7c3.1,5.2,7.9,12.4,14.6,20.1c8.4,9.7,30.4,35,64.5,42.3c44.1,9.4,80.2-17.3,86.3-21.9
			c-15,28.3-43.2,46.8-73.8,47.5c-46.7,1.1-73.1-39.6-77.7-47.1C1491.8,698.9,1488.7,683.6,1487.6,673.7L1487.6,673.7z"/>
		<path class="st3" d="M1594.9,702.1c7.2-2,15.1-4.7,23.3-8.6c30-14.3,48.3-36.3,58.1-50.7c-2.1,25.5-16.7,47.5-38.2,57
			C1618.9,708.1,1601,703.8,1594.9,702.1L1594.9,702.1z"/>
		<path class="st3" d="M1391.3,535.9c3.5,10,7.5,20.5,12.2,31.2c11.9,27.3,25.5,50.7,38.7,70.2c11.4-29.2,8.2-43,2.6-50
			c-2.7-3.4-5.6-5.2-10-10.7c-7.2-9-9.8-19.4-10.6-27.9c-3.8,0-9.2-0.4-15.3-2.5C1400.4,543.5,1394.5,538.9,1391.3,535.9
			L1391.3,535.9z"/>
		<path class="st3" d="M1458.8,716c2.2,9,5.9,19.8,12.2,31.2c15.3,27.6,37.2,42.9,49.6,50.2c-1.7-9.8-4.8-22-10.4-35.5
			c-5.8-13.8-12.5-24.8-18.3-33c-3.8,0-9.2-0.4-15.3-2.5C1468,723.6,1462.1,719,1458.8,716L1458.8,716z"/>
		<path class="st3" d="M1764.5,788.7c-29-19.4-40-51.1-44.2-63.2c-3.4-9.6-5.1-18-6.1-24.1c-1.5,5.5-3.1,13.1-3.5,22
			c-0.1-0.4-0.2-0.8-0.3-1.1c-1.9,8.9-3.7,19.9-4,32c-0.8,29.4,7,49,12,58.8c2.4-8.9,4.8-20,6.4-32.8c8.1,14.3,21.2,29,41.9,36.7
			c28.7,10.7,61.7,4,86.1-16.8C1845.5,802.3,1802,813.7,1764.5,788.7L1764.5,788.7z"/>
		<path class="st3" d="M1740.4,613.4c-7.8,4.9-17,11.8-25.8,21.4c-21.4,23.2-29.1,48.8-32.1,62.8c8.7-4.7,19.4-11.5,30.4-21
			c11.3-9.8,19.7-19.6,25.6-27.8c-1.2-3.6-2.5-8.9-2.5-15.3C1736.1,624.5,1738.6,617.5,1740.4,613.4L1740.4,613.4z"/>
		<path class="st3" d="M1753,535.9c-2.2,9-5.9,19.8-12.2,31.2c-15.3,27.6-37.2,42.9-49.6,50.2c1.7-9.8,4.8-22,10.4-35.5
			c5.8-13.8,12.5-24.8,18.3-33c3.8,0,9.2-0.4,15.3-2.5C1743.8,543.5,1749.7,538.9,1753,535.9z"/>
		<path class="st3" d="M1408.1,471.6c-0.9,4.4-2.4,15,2.5,26.9c3.4,8.2,8.4,13.7,11.6,16.5c-5.8-1.6-13.5-4.8-20.7-11.2
			c-21.4-19.1-17.8-49.6-17.4-53.3c1.6,3.3,4.8,8.9,10.8,13.9C1399.9,468.5,1404.9,470.5,1408.1,471.6L1408.1,471.6z"/>
		<path class="st3" d="M1743,490.2c-0.9,4.4-2.4,15,2.5,26.9c3.4,8.2,8.4,13.7,11.6,16.5c-5.8-1.6-13.5-4.8-20.7-11.2
			c-21.4-19.1-17.8-49.6-17.4-53.3c1.6,3.3,4.8,8.9,10.8,13.9C1734.8,487.1,1739.7,489.2,1743,490.2L1743,490.2z"/>
		<path class="st3" d="M1645,459.8c-0.6-0.2-3.2,21.4-19.7,39.8c-25.2,28.4-66.6,31-90.8,30.1c20.3,11.9,45.2,21.5,66.2,12.7
			C1638,526.8,1646.1,460.2,1645,459.8L1645,459.8z"/>
		<path class="st3" d="M1664.2,471.2c-2.1,10.9-7.2,28.6-20.2,46.5c-7.4,10.1-15.3,17.4-21.8,22.6c8.3-0.9,24.1-3.8,38.4-15.6
			c32.3-26.4,26.2-71.8,25.7-74.8c-1.6,3.5-4.8,9.4-11,14.6C1671.2,467.9,1667.2,470,1664.2,471.2L1664.2,471.2z"/>
		<path class="st3" d="M1541.5,674.7c4.6,1.1,9.7,2.1,15.2,2.9c8.5,1.2,16.4,1.7,23.3,1.7c-6.6-2-14.7-5-23.4-9.8
			c-6.8-3.8-12.4-7.8-16.9-11.4c4.1-3.2,8.1-6.5,12.2-9.7c-6.2-5.2-12.5-10.5-18.7-15.7c3.2-0.2,11.2-1.2,18.6-7.2
			c4.9-3.9,7.5-8.3,8.9-11.1c5.3-2,13.8-6,22-13.9c6.1-5.9,10-12,12.3-16.4c1.2,4.3,4.4,18-2,33c-4.2,9.8-10.7,15.8-14.3,18.8
			c6.2-2.2,13.4-5.5,20.8-10.4c19.9-13.2,30.1-30.9,34.8-40.8c0.7,5.8,6.6,59.5-30.2,89.8c-10.1,8.3-20.9,12.8-30,15.3
			c4.9,1.4,16.2,3.9,29.5,0c8.3-2.5,14.3-6.6,17.9-9.5c-7.8,17.7-18.9,25.4-24.2,28.5c-26,15-64.9,6.6-94.9-22.7l27.4-4.8
			c3.5,1.8,7.3,3.7,11.5,5.4c7.2,3,13.9,5,19.9,6.5c-4.5-4.2-9-8.4-13.4-12.5C1545.7,678.6,1543.6,676.6,1541.5,674.7L1541.5,674.7z
			"/>
		<path class="st3" d="M1756.4,650.7c-0.5,4.8-0.8,9.9-0.8,15.4c-0.1,8.6,0.6,16.4,1.5,23.3c1-6.8,2.9-15.3,6.4-24.5
			c2.8-7.2,6-13.3,9-18.3c3.8,3.6,7.6,7.2,11.3,10.8c4.3-6.9,8.7-13.8,13-20.7c0.7,3.1,2.7,10.9,9.7,17.4c4.5,4.3,9.3,6.3,12.2,7.3
			c2.7,5,7.9,12.9,16.8,19.9c6.7,5.3,13.2,8.2,17.9,10c5.8,8.3,11.6,16.6,17.4,24.9c-38.9,19-80.3,18.2-105.6-3.5
			c-5.7-4.9-13.6-13.4-19.3-27.6c-0.7,5.1-1.7,16.6,4.1,29.2c3.6,7.9,8.5,13.3,11.9,16.4c-18.6-5.3-27.7-15.2-31.5-20.1
			c-18.4-23.6-15.5-63.4,9.4-97.1c2.8,8.8,5.7,17.7,8.5,26.5c-1.3,3.7-2.6,7.8-3.7,12.2c-1.9,7.5-3,14.5-3.7,20.6
			C1746.1,665.4,1751.3,658,1756.4,650.7L1756.4,650.7z"/>
		<path class="st3" d="M1546.1,591.7c1.3,2.5,2.7,5,4.1,7.6c6.5-1,14-3,21.9-6.7c27.7-13,40.2-38,44.4-47.6
			c-6.4,7.8-15.8,17.5-28.8,26.7C1571.8,582.7,1556.8,588.5,1546.1,591.7L1546.1,591.7z"/>
		<path class="st3" d="M1581.2,604.3c1.3,2.5,2.7,5,4.1,7.6c6.5-1,14-3,21.9-6.7c27.7-13,40.2-38,44.4-47.6
			c-6.4,7.8-15.8,17.5-28.8,26.7C1607,595.2,1591.9,601.1,1581.2,604.3L1581.2,604.3z"/>
		<path class="st3" d="M1635.6,526.7c1.3,2.5,2.7,5,4.1,7.6c6.5-1,14-3,21.9-6.7c27.7-13,40.2-38,44.4-47.6
			c-6.4,7.8-15.8,17.5-28.8,26.7C1661.3,517.7,1646.3,523.5,1635.6,526.7L1635.6,526.7z"/>
		<path class="st3" d="M1666.9,431.6c-5.8,2.1-11.7,4.3-17.5,6.4c2.5,0.8,32.8,9.5,56.1-10c13-10.9,17.1-24.9,18.5-30.6
			c-5.1,6.7-14.9,17.7-30.7,25.7C1683.2,428.2,1673.8,430.5,1666.9,431.6L1666.9,431.6z"/>
		<path class="st3" d="M1638.3,648.7c-3.9,4.8-7.8,9.7-11.6,14.5c2.6-0.7,33-8.9,42.8-37.7c5.4-16,1.7-30.2-0.1-35.8
			c-0.9,8.4-3.6,22.8-12.9,37.9C1650.4,637.3,1643.6,644.2,1638.3,648.7L1638.3,648.7z"/>
		<path class="st3" d="M1680.4,720.4c0,0.1-0.1,0.3-0.1,0.4C1680.2,720.6,1680.3,720.5,1680.4,720.4c-9.9,14.4-28.2,36.4-58.2,50.7
			c-8.2,3.9-16.1,6.7-23.3,8.6c6.1,1.8,24.1,6,43.1-2.3c11.7-5.2,21.4-14,28.1-25.1c0,0,0,0,0,0c-1.4,6.2-3.8,13.9-8.1,22.1
			c-8.1,15.3-19,24.9-25.9,30c-5.5,6.9-11.1,13.8-16.6,20.7c3.7-0.9,47.1-12.7,61.1-53.8C1688.3,748.6,1682.9,728.3,1680.4,720.4
			L1680.4,720.4z"/>
		<path class="st3" d="M1857.6,351.6c7.2-0.6,19.4-2.5,32.6-9.7c16.7-9.2,25.9-22,29.9-28.5c-0.3,1.9-4.8,27.1-27.9,37.2
			C1876.1,357.5,1861.3,352.9,1857.6,351.6L1857.6,351.6z"/>
		<path class="st3" d="M1920,367.9c-4,8.8-10.7,20.8-21.7,32.6c-16.7,18-35.1,26.7-45.8,30.8c5.8,0.3,27.2,0.6,46.3-14.8
			c13.2-10.5,18.9-23.4,21.2-29.6V367.9z"/>
		<path class="st3" d="M1850.9,500.6c8.7-2.6,27.2-9.4,43.8-26.9c18.2-19.3,23.6-40.5,25.3-49.3v37.4c-2,6.1-6.1,15.5-14.8,23.7
			C1884.2,505.6,1855,501.3,1850.9,500.6z"/>
		<path class="st3" d="M1920,340.6c-0.6,1.8-2.2,5.9-6.2,9.3c-3.4,2.9-7,4-8.8,4.4c1.9,0.7,7.1,2.1,12.2-0.2c1.1-0.5,2-1.1,2.8-1.7
			V340.6z"/>
		<path class="st3" d="M1920,497.6c-5.6,12.8-16.5,33.3-37,52.8c-23.4,22.2-48,32.3-61.8,36.8c6.6,1.7,24.3,5.5,44.9-1.8
			c23.3-8.3,35.2-25.7,38.6-31.1c1.2-6.8,4-16.1,10.7-25.2c1.5-2,3.1-3.9,4.6-5.5L1920,497.6L1920,497.6z"/>
		<path class="st3" d="M1799.8,528.1c-0.2,5.1,0.1,14.7,4.9,25.2c6,13.2,15.6,20.5,19.9,23.3c-7.8-2.4-23.1-8.2-36.5-22.6
			c-20.8-22.2-22.1-49-22.2-56.1c4,4.9,9,10.3,15.1,15.8C1787.7,519.8,1794.2,524.4,1799.8,528.1L1799.8,528.1z"/>
		<path class="st3" d="M1799.9,597.5c-4.7-1.4-9.7-3.4-14.8-6.5c-22.8-13.7-30.2-38-32.3-46.6c5,5,10.1,10,15.1,15.1
			c5.3,5.4,10.6,10.7,15.7,16c3.6,3.6,7.5,8.1,11.3,13.7C1796.8,592,1798.4,594.8,1799.9,597.5L1799.9,597.5z"/>
		<path class="st3" d="M1781.4,595.2c-3.9-1.8-8.1-4-12.3-6.7c-9.9-6.2-17.6-13-23.3-19c1.9,9.4,5.1,17,8.5,22.9
			c24.3,43.6,82.1,49,91.3,49.7c-10.3-5-22.3-11.9-34.9-21.2C1798.7,612.1,1789,603.1,1781.4,595.2L1781.4,595.2z"/>
		<path class="st3" d="M1692.1,544.4c-6.6,6.6-14,15.1-20.9,25.7c-12.2,18.5-18.4,36.2-21.8,49.2c-2.5-6.7-4.9-15.3-5.4-25.6
			c-1.4-30.1,14.4-52.2,20.3-59.8c2.7,2.5,7.7,6.4,15,8.7C1684.4,544.2,1688.9,544.5,1692.1,544.4L1692.1,544.4z"/>
		<path class="st3" d="M1763.8,434.3c-2.7,4.8-5.4,10.8-7.6,17.9c-3.8,12.4-4.4,23.4-4.2,31.3c-2.5-3.3-5.3-7.9-7.2-13.5
			c-5.8-16.7-0.5-31.8,1.7-37c2.1-3.6,6.2-5.6,10.1-4.9C1761.7,429,1763.8,434.1,1763.8,434.3L1763.8,434.3z"/>
		<path class="st3" d="M1676.1,371c1.1,6.7,1.8,16.2-0.3,27.1c-3.8,20.7-14.9,34.6-20.6,40.7c-1.9-0.3-3.8-0.5-5.7-0.8
			c5.1-6.7,10.9-15.7,15.9-26.9C1672.3,395.4,1675,381.2,1676.1,371L1676.1,371z"/>
		<path class="st3" d="M1704.8,534.3c-4.3,5-9.1,11.8-12.8,20.6c-11.4,27.4-3.6,53.7-0.8,61.9c0.2-11.4,1-24.4,3.2-38.8
			C1697,561.2,1700.9,546.5,1704.8,534.3L1704.8,534.3z"/>
		<path class="st3" d="M1406.7,441.9c0.4,5.4,1.9,14.4,7.2,24.2c6.1,11.3,14.2,18,18.8,21.3c-3.7,0.1-9.7,0-16.6-2
			c-3.8-1.1-25.3-7.3-30.7-25.7c-0.9-3.1-2.2-9.2,0-17.6c0.1-0.5-1.1,10.1-5.4,18.8c-5.9,11.8-17.4,17.9-26.5,21.3
			c4-3.2,10.7-9.5,14.8-19.5c8.3-19.8,0.2-38.3-1.5-41.8c3.1,3.6,7.7,8.1,14.1,12.1C1391.2,439.3,1401,441.2,1406.7,441.9
			L1406.7,441.9z"/>
		<path class="st3" d="M1911.3,536.3c-0.1,6.3,0.3,13.8,1.7,22.1c1.7,10,4.3,18.4,7,25c-1.8-1.8-4-4.4-6-7.8c-1.8-3.1-2.9-6-3.6-8.3
			c-0.5,2.2-1.7,5.9-4.6,9.6c-3.5,4.6-7.7,6.8-9.9,7.8c2.2-2.4,5.4-6.5,7.6-12.3c1.9-5,2.4-9.5,2.4-12.5c-1.3-4.5-2.8-11.3-2.5-19.8
			c0.3-8.3,2.3-14.9,3.9-19.2c0.4,3,1,6.3,2,9.9C1910,532.7,1910.7,534.6,1911.3,536.3L1911.3,536.3z"/>
		<path class="st3" d="M1814.1,641.5c3.1,2,7.6,4.4,13.2,6.4c4.5,1.6,35.4,12.4,59.5-6.1c0,0,25.5-18.4,21.7-56l0,0c0,0,0-0.1,0-0.1
			c0-0.1,0-0.1,0-0.1c0,0,3.3,4.1,5.3,6.4c1.4,1.6,3.4,3.7,6.2,6.1c-1,7.5-3.4,18.9-9.9,31.4c-3.8,7.4-13.8,26.2-36,38.2
			c-17.7,9.6-34.3,10.4-42.5,10.2c-2.2-2-4.6-4.5-6.9-7.5c-2.5-3.2-4.4-6.3-5.9-9c2.2,1.1,4.7,2.2,7.5,3.2c3.4,1.2,6.6,1.9,9.4,2.4
			c-3.4-2.2-7.9-5.7-12.3-10.8C1818.6,650.7,1815.8,645.3,1814.1,641.5L1814.1,641.5z"/>
		<path class="st3" d="M1452.8,444.2c-3.3-4.4-6.8-9.9-9.9-16.5c-7.1-15.3-8.5-29.5-8.5-38.7c-3-2.4-6.9-5.1-11.8-7.6
			c-5.1-2.6-9.8-4.2-13.7-5.2c2.1,9.3,6.6,23.6,16.5,38.7C1434.7,429.1,1445.3,438.5,1452.8,444.2L1452.8,444.2z"/>
		<path class="st3" d="M1427.7,280.6c0.3,4,0.2,10.8-3.3,18.1c-7.4,16-24.2,20.4-26.8,21c3.3,1.1,8.8,2.4,15.6,1.8
			c4.2-0.4,19.5-1.8,24.2-13C1441.1,299.9,1437.3,288.2,1427.7,280.6L1427.7,280.6z"/>
		<path class="st3" d="M1882.4,781.9c0.3,4,0.2,10.8-3.3,18.1c-7.4,16-24.2,20.4-26.8,21c3.3,1.1,8.8,2.4,15.6,1.8
			c4.2-0.4,19.5-1.8,24.2-13C1895.8,801.2,1892,789.5,1882.4,781.9L1882.4,781.9z"/>
		<path class="st3" d="M1690.3,839.9c-3.7,1.4-10.3,3.2-18.3,2c-17.4-2.6-26.4-17.4-27.8-19.7c-0.1,3.5,0.2,9.2,2.7,15.4
			c1.6,3.9,7.3,18.2,19.4,19.5C1675.7,858.2,1685.7,851.2,1690.3,839.9z"/>
		<path class="st3" d="M1902.6,664.3c-1.6,4.1-5.4,12.2-13.7,18.7c-14.9,11.6-32.4,8.7-35.4,8.2c-6.2,1.4-12.5,2.8-18.7,4.1
			c8,13.3,21.8,21.4,36.2,20.8c12.9-0.6,21.7-8.1,24.4-10.7c-2.9,1.1-10.7,3.7-19.9,1.1c-4.5-1.3-7.9-3.5-10.1-5.1
			c3.7,0.3,12.4,0.4,21-4.9C1902.6,686.2,1902.7,665.6,1902.6,664.3L1902.6,664.3z"/>
		<path class="st3" d="M1901.3,726.6c-3.2,7.6-12.6,27.5-34.6,39.7c-40.1,22.2-83-2.9-84.9-4.1c12.2,2.6,41,7,73.6-5.5
			C1877.9,748.1,1893,735,1901.3,726.6L1901.3,726.6z"/>
		<path class="st3" d="M395.1,233.4c-1.7,5.1-3.2,11.9-3,19.8c0.7,24.8,17.8,41.1,22.3,45.2c-3.8-8-7.7-17.4-11-28
			C399.1,256.6,396.6,244.1,395.1,233.4L395.1,233.4z"/>
		<path class="st3" d="M405.5,302.4c-0.1-1.5-0.3-3.9-1.1-6.6c-2.5-7.9-7.7-10.1-11.3-17.6c-1.1-2.3-2.4-5.8-2.9-10.7
			c-1.6,4.8-3.9,7-5.7,8.1c-2.2,1.4-3.8,1.3-7.4,2.8c-3.2,1.3-5.6,2.8-7,3.9c2.9-0.3,15.9-1.2,26.5,7.9
			C401.5,294.5,404.2,299.3,405.5,302.4L405.5,302.4z"/>
		<path class="st3" d="M346.9,275.2c3,0.7,8.6,1.5,15.4-0.1c7.7-1.8,12.8-5.8,15.2-7.9c-1,2.9-2.3,4.9-3.3,6.2
			c-7.2,9.4-20.3,9.8-23.7,10c-2.2,0.1-4.1,0-5.3-0.2c-0.3-0.6-0.7-1.8-0.6-3.3C344.7,277.2,346.5,275.5,346.9,275.2L346.9,275.2z"
			/>
		<path class="st3" d="M278.7,162.6c-2.4,5.2-6,14.9-5.1,27.2c2,25,21.5,39.3,24.7,41.5c-5.8-3.2-13.3-8.2-20.5-16.1
			c-3.5-3.8-6.2-7.5-8.3-10.9c0.7,6.3,2.6,11.2,4.5,14.8c13.4,25.5,49.5,27,52.9,27.1c-8.5-6-23.6-18.4-34.9-39.3
			C282.4,189,279.6,172.5,278.7,162.6L278.7,162.6z"/>
		<path class="st3" d="M296.7,265.5c-2.5-2.4-5.9-6.1-8.7-11.4c-3-5.6-4.2-10.8-4.8-14.3c-2.3,2-3.5,4-4.1,5.7
			c-3.3,8.1,1.2,19.2,11.2,28c1.1-0.7,2.4-1.5,4-2.1c4-1.5,7.5-1.4,9.7-1.2C301.6,268.6,299.2,267.1,296.7,265.5L296.7,265.5z"/>
		<path class="st3" d="M278.3,253.9c-1,7.5-0.1,13.6,1.1,18.1c8.2,31.3,47.4,41.7,50.8,42.6c-3.4-5.2-6.8-8.8-9-11.1
			c-9.9-9.6-17.5-10.8-25.1-20.4c-3-3.8-4.8-7.4-5.7-9.6c-1.8-1.5-3.9-3.5-5.9-6.2C280.7,262.2,279.1,257.2,278.3,253.9z"/>
		<path class="st3" d="M1339.9,219c5.4,1.1,15,2.3,26.3-0.3c14.2-3.3,23.6-10.9,27.8-14.8c-1.1,3.3-5.4,14.3-16.2,19.1
			c-6.2,2.7-11.9,2.2-17.1,1.9C1351.5,224.4,1344.3,221.3,1339.9,219z"/>
		<path class="st3" d="M1312.5,281.3c6.7,0.3,15.5-0.2,25.5-3.1c21.9-6.4,35.3-20.6,40.9-27.3c-0.6,2.1-0.9,4.5-1.1,7
			c-0.7,13.9,7,24.5,10.6,28.9c-1.5,0-10.4-0.2-16.3-7.2c-2.6-3.1-3.6-6.3-4.1-8.4c-3.9,2.8-9.9,6.6-17.9,9.8
			c-4.8,1.9-9.3,3.6-15.4,4.3C1325.5,286.4,1317.7,283.8,1312.5,281.3L1312.5,281.3z"/>
		<path class="st3" d="M1285.1,327.3c0.7-1.1,7.5,3.5,14.8,5.1c10,2.2,25.1-0.2,47.7-21.1c-1.1,2.3-2.6,5.8-3.1,10.3
			c-0.7,5.8,0.4,10.5,1.2,13.2c-2-1.5-5.4-3.3-9.3-3.1c-6,0.3-7.8,5.1-14.5,8c-8.4,3.6-17,0.9-19.9,0
			C1291.7,336.5,1284.3,328.6,1285.1,327.3L1285.1,327.3z"/>
		<path class="st3" d="M1263.4,376.8c1.7,0.6,4.9,1.6,8.9,2.4c4.1,0.8,33.6,6.4,54.9-12.4c2.4-2.1,6-5.7,9.6-11.3
			c-1.5,3.2-3,7-4.2,11.6c-0.9,3.5-1.5,6.7-1.8,9.5c2.7-0.3,5.9-1,9.2-2.3c11.7-4.8,17.4-14.7,19.4-18.7
			c-2.6,12.5-8.6,19.5-11.9,22.6c-9.2,8.9-20.1,10.3-37.9,12.7c-12.1,1.6-19.3,2.5-28.1-0.8C1272.2,386.6,1266.3,380.4,1263.4,376.8
			z"/>
		<path class="st3" d="M1344.4,331.9c0,1.7,0.3,3.7,1,5.8c2.5,7.5,9,11.2,11.1,12.3c-2.1-2.3-4.4-5.1-6.7-8.5
			C1347.4,338,1345.7,334.8,1344.4,331.9L1344.4,331.9z"/>
		<path class="st3" d="M1366.1,340.8c0.1-3.5-0.7-5.4-1.5-9.1c-0.5-2.1-2.5-11.3-1-19.7c0.6-3.5,2.2-9.1,7.1-15.4
			c0.1,1.2,0.2,3,0.5,5c0.3,2.4,1.6,11.6,5.8,18.6c4.7,8,8.4,5.3,13.6,12.9c6.5,9.5,5.6,20.8,5.3,24.2c-0.5,5.7-2.1,10.2-3.3,13.1
			c0.1-3.9-0.2-10.9-3.5-18.6c-4.5-10.4-12-16.1-15.4-18.4c0.1,1.8,0,4.2-0.8,6.8c-2.2,7.2-8.1,10.8-9.8,11.9
			C1364.4,349.5,1366,345.6,1366.1,340.8L1366.1,340.8z"/>
		<path class="st3" d="M1395.9,286.1c0.3,2.5,0.4,5.5,0.2,8.9c-0.3,5-1.4,9.2-2.5,12.3c2.8-1.6,6-3.9,8.4-7.4
			c9.5-13.4,1.1-31.3,0.5-32.5c0.2,2.3,0.4,7.3-2.2,12.7C1399,282.8,1397.3,284.8,1395.9,286.1L1395.9,286.1z"/>
		<path class="st3" d="M1395.4,349c0.3,2.5,0.4,5.5,0.2,8.9c-0.3,5-1.4,9.2-2.5,12.3c2.8-1.6,6-3.9,8.4-7.4
			c9.5-13.4,1.1-31.3,0.5-32.5c0.2,2.3,0.4,7.3-2.2,12.7C1398.5,345.7,1396.8,347.7,1395.4,349L1395.4,349z"/>
		<path class="st3" d="M1394.2,249.9c-0.1,1.8,0.1,4.7,1.3,7.9c2.1,5.4,6,8.4,7.7,9.5c-0.8-2.2-1.4-5.1-1.6-8.5
			c-0.3-8.2,2.8-14.5,4.5-17.5C1402.1,244.2,1398.1,247,1394.2,249.9z"/>
		<path class="st3" d="M1408.9,186.1c-0.7,2.7-1.8,6.1-3.6,9.8c-2.9,5.6-6.5,9.6-9.2,12.1c1.6-0.2,5.4-0.8,9-3.8
			c2.4-2,3.7-4.3,4.4-5.7c0.2,2.5,0.9,6.1,2.7,9.9c3,6.4,7.5,10.1,9.9,11.9c-1.2-2.8-2.4-5.6-3.6-8.4
			C1414.8,203,1411.6,194.4,1408.9,186.1L1408.9,186.1z"/>
		<path class="st3" d="M1411.1,332.5c2.3-0.4,5.6-1.2,9.1-3c3.8-1.9,6.6-4.2,8.4-6c0.3,4,1,8.6,2.5,13.7
			c3.7,12.2,10.3,20.6,14.9,25.4c-4.3-1.7-9.3-4.1-14.6-7.9C1420.8,347.3,1414.5,338.4,1411.1,332.5L1411.1,332.5z"/>
		<path class="st3" d="M1394.6,395.3c-1.2-5.3-1.5-10.1-1.4-14.1c-1.9-0.7-4.5-1.8-7.2-3.9c-3.1-2.4-5.1-5-6.3-7
			c-0.2-0.9-0.5-1.5-0.7-1.5c-0.1,0-0.1,0-0.2,0v0v0c-1.6,0.6-4.2,15.1-17.4,26.4c-8.5,7.2-18.2,10.3-25.8,11.7
			c1.9,0.8,15.9,6.6,28.7-0.6c7.8-4.4,12-11.9,14.1-19c1.1,8.1,4.2,17.5,11.8,25.7c8.8,9.5,19.4,12.7,24.3,13.8
			C1409.3,422.4,1398.5,412,1394.6,395.3L1394.6,395.3z"/>
		<path class="st3" d="M1288.8,202c-9.9-4.3-21.2-10.3-32.9-18.9c-27.4-20.2-42.8-44.4-50.9-60.1c-0.4,6.1-0.3,14.7,2.1,24.6
			c2.2,9.1,5.5,16.4,8.4,21.4c-6.3-5.4-15.5-15-20.2-29.4c-8.3-25.3,0.7-54.7,22.4-76.7c1.4,15.9,5,37.1,14.5,60.4
			C1248.3,163.3,1273.5,188.8,1288.8,202L1288.8,202z"/>
		<path class="st3" d="M1219.3,169.6c-2.2,7.9-6.2,26.6,1.3,47.5c13.8,38.3,53.8,49.4,57.8,50.4c-10.9-8.3-28.3-23.8-42-48.5
			C1225.8,199.7,1221.3,181.8,1219.3,169.6L1219.3,169.6z"/>
		<path class="st3" d="M1207.7,241.4c-1.6,7.8-2.7,18.9,0.6,31.2c9.9,37.3,50.3,50.9,54.4,52.2c-9.8-7.6-23.8-20.4-35.9-39.5
			C1216.1,268.5,1210.6,252.7,1207.7,241.4L1207.7,241.4z"/>
		<path class="st3" d="M1087.6,133.7c7.9,3.2,19.8,6.8,34.4,7c28.1,0.5,48.7-11.8,56.9-17.4c-1.7,4.6-13.1,34.8-34.8,37.2
			c-1.8,0.2-5.6,0.4-14.1-2.1C1120.2,155.6,1104.5,149.3,1087.6,133.7L1087.6,133.7z"/>
		<path class="st3" d="M1029.8,203.2c9.7,4,25.9,9.1,46.2,8.2c36.5-1.6,61.1-21.7,69-28.7c-2,1.8-7.4,7.1-9.4,16
			c-1.7,7.7,0.2,14,1.1,16.6c-11.1,1-22.2,2-33.3,3c-6.5,2.3-17.4,5.1-30.8,3.8C1050.2,220,1035.2,208,1029.8,203.2L1029.8,203.2z"
			/>
		<path class="st3" d="M572.1,131.5c3.8,15.7,11.1,38,25.6,61.9c13.8,22.6,29.2,38.7,41,49.2c-9.9-4.2-22-10.3-34.8-19.4
			c-13.7-9.8-24-20-31.4-28.5c-0.3-6.5-0.7-13.1-1-19.6c1.7,0.8,3.8,1.9,5.9,3.5c3.4,2.5,5.7,5.2,7.2,7.3c-0.8-2.7-2.5-7.4-6.5-12
			c-3.6-4.2-7.5-6.5-10-7.7l-8.4,1.8c2.9-2.2,5.8-4.4,8.7-6.6C569.8,151.3,570.9,141.4,572.1,131.5L572.1,131.5z"/>
		<path class="st3" d="M583.6,221.2c-5-3-9.9-6.1-14.9-9.1c0.8,3.5,2.1,8.4,4.1,14c1.6,4.5,9.7,26.9,26.2,45.1
			c25.1,27.7,59.7,34.9,70,36.7c-14.6-7.4-36-20.6-56.1-43C598.8,249.1,589.6,233.4,583.6,221.2L583.6,221.2z"/>
		<path class="st3" d="M607.5,299.3c0.8,5.6,1.4,13.9,0.3,23.8c-1.5,13.1-5,18.4-7.1,27.2c-6.1,26.1,8.1,50.7,9.5,50.3
			c1.2-0.3-5.7-17.5,0.5-38.5c2.4-8.1,6.1-14.5,9.3-19c9.3,4.6,18.7,9.4,28.3,14.6c15.4,8.3,29.9,16.7,43.6,25l-22.9-20.3
			c-6.4-3.4-13.4-7.6-20.4-13.1C627.1,332.7,614.6,313.1,607.5,299.3L607.5,299.3z"/>
		<path class="st3" d="M723.9,430.4c-7.5-7.8-14.3-13-18.9-16.3c-13.2-9.2-18.5-9.1-28.1-18.1c-7.6-7.1-7-9.8-13.9-15.2
			c-8.2-6.4-17-8.9-23.1-10c4.4,7.8,10.6,16.9,19.5,25.8C682.8,420.2,710.3,427.7,723.9,430.4z"/>
		<path class="st3" d="M807.9,727.3c-7.5-7.8-14.3-13-18.9-16.3c-13.2-9.2-18.5-9.1-28.1-18.1c-7.6-7.1-7-9.8-13.9-15.2
			c-8.2-6.4-17-8.9-23.1-10c4.4,7.8,10.6,16.9,19.5,25.8C766.8,717.1,794.3,724.6,807.9,727.3z"/>
		<path class="st3" d="M732.9,467.7c-9.4-4.4-22.4-11.8-34.7-24.6c-6.1-6.3-10.8-12.5-14.3-18.1c-4.4-2-9.3-4.6-14.4-8.1
			c-8.9-6.1-15.3-12.7-19.8-18.1c4,9.6,12.1,25.6,28,40.3C699,459,722.2,465.4,732.9,467.7L732.9,467.7z"/>
		<path class="st3" d="M982.9,280.8c23,0.4,55.5-2.1,91.5-14.9c16.3-5.8,30.3-12.7,42-19.5c1.2,2.4,2.2,4.8,3.2,7.5
			c7,19.1,5.2,37.4,2.3,49.9c-2.2-10.1-4.5-20.2-6.8-30.4c-26.7,12-48.8,16.5-63.3,18.4c-12.2,1.6-19.6,1.4-23.3,1.2
			C1008.4,291.9,992.6,285.6,982.9,280.8L982.9,280.8z"/>
		<path class="st3" d="M971.9,329.5c8.1,2.6,18.9,5.1,31.6,5.4c28.5,0.5,50-10.4,60.2-16.6c-0.7,6.4-2.7,17-9.2,28.3
			c-9,15.6-21.6,23.7-27.7,27c3.8-4.8,9.9-14,10.4-26.4c0.1-2.5,0-4.8-0.3-7c-2.1,2-5.5,4.9-10.1,7.3c-2.7,1.4-22.3,11.3-39.7,1
			C977.8,342.7,973.6,333.7,971.9,329.5L971.9,329.5z"/>
		<path class="st3" d="M1005.8,365.4l8.3-13.3c2.1-0.4,4.5-1.1,7-2c2.4-0.9,4.5-1.9,6.3-2.8c-2.9,3.2-6.4,6.6-10.6,10.1
			C1012.9,360.6,1009.2,363.2,1005.8,365.4L1005.8,365.4z"/>
		<path class="st3" d="M903.9,394.4c6.2,5.1,20.4,15.2,41,18.1c30.5,4.2,53.3-10.5,59.1-14.4c-3.3,4.3-15.4,19.4-37.1,23.8
			c-6.7,1.4-18.8,2.6-32.3-2.2C916.1,412.9,906.7,398.9,903.9,394.4z"/>
		<path class="st3" d="M875.3,478.6c11.7,2.1,26.3,3.4,43,1.5c47.3-5.4,79-32.8,91.4-44.9c-2,7.1-5.3,15.2-11.1,23.2
			c-22.3,30.6-62.2,32.1-68.9,32.2c-6.5,1.5-20.5,3.7-36.2-1.9C885.5,485.9,879.4,481.9,875.3,478.6L875.3,478.6z"/>
		<path class="st3" d="M834,542.8c0.6-3,25.4,4.5,57.3-0.2c28.1-4.2,50.2-16.2,65.4-26.7c-1,3.9-3.2,9.8-7.7,15.5
			c-9.7,12.1-23.3,14.8-27.3,15.4c-9,4-22.8,8.6-39.8,8.8C856.1,555.9,833.5,545.7,834,542.8L834,542.8z"/>
		<path class="st3" d="M774.3,779.8c0.6-3,25.4,4.5,57.3-0.2c28.1-4.2,50.2-16.2,65.4-26.7c-1,3.9-3.2,9.8-7.7,15.5
			c-9.7,12.1-23.3,14.8-27.3,15.4c-9,4-22.8,8.6-39.8,8.8C796.4,792.9,773.8,782.7,774.3,779.8L774.3,779.8z"/>
		<path class="st3" d="M902.8,572.6c9.2-2.5,20.5-6.4,32.8-12.9c10.5-5.5,19.1-11.6,25.8-17c-2,3.7-15.9,28.2-41.6,31.1
			C913.3,574.6,907.6,573.8,902.8,572.6L902.8,572.6z"/>
		<path class="st3" d="M830.3,647.7c13.3-0.5,32.9-2.7,54.7-11.3c30-11.8,49.5-29.9,59.8-40.9c9.5-7.8,24.6-18.2,45.2-25.6
			c16.3-5.8,30.9-7.9,41.8-8.6c-15.4,7.9-32.5,18-50.4,31c-25.3,18.4-44.9,37.4-59.8,54c-4.4-1.2-8.8-2.5-13.2-3.7
			c-6.6,4.5-13.2,9.1-19.8,13.7c-6.7,0.1-14-0.1-22-0.9C852.4,653.9,840.2,650.9,830.3,647.7L830.3,647.7z"/>
		<path class="st3" d="M1000.2,505.7c4.6-6.3,7.3-12.1,9.6-18.1c9.2-23.5,13.2-48.9,15-66.8c4.4,11.6,10.7,33.4,4.8,58.6
			c-1.5,6.5-3.6,12.3-5.8,17.3c2.6-1.7,5.8-3.8,9.7-6.1c0,0,2.6-1.5,5.2-3c5.4-3,19-9,37.7-15.9c-9.5,8.4-20.9,17.2-34.3,25.7
			c-25.9,16.4-50.6,25.9-70.2,31.6C979.4,525.4,991,518.4,1000.2,505.7L1000.2,505.7z"/>
		<path class="st3" d="M1262.7,393.2c-7.5-1.8-38.6-9.9-58.9-40.2c-14.4-21.5-15.9-43.1-16-52.3c3.3,5,9,12.4,18.2,18.8
			c5.9,4.1,11.6,6.7,16.1,8.3c-0.4,6.5-0.2,19.4,6.7,33.3C1239.1,381.9,1257.2,390.7,1262.7,393.2L1262.7,393.2z"/>
		<path class="st3" d="M1200.5,200.7c-2.9,12.1-12.9,18.6-18.1,21.9c-6.5,4.1-12.6,5.9-16.6,6.8c1.1-5.7,2.1-15,0-26.2
			c-2-10.4-5.9-18.2-8.8-23c2.9,2.3,7.5,6.5,10.8,13.2c5.3,10.6,4.3,20.6,3.7,24.4c3.8-1.7,9.6-4.8,14.9-10.5
			c9.6-10.3,11.4-22.3,11.8-26.7C1200,184.4,1202.6,192,1200.5,200.7L1200.5,200.7z"/>
		<path class="st3" d="M1156,234.4c1.1,0.2,3,18.7-5,36.9c-7.5,17.1-20.7,27-28.9,32.1c3.2-4.5,6.4-9.5,9.5-15.2
			c8.8-16.4,12.8-32,14.7-44.1c1.1-0.2,2.7-0.6,4.4-1.8C1154.9,239.3,1155.4,234.3,1156,234.4L1156,234.4z"/>
		<path class="st3" d="M1043.5,394.7c5.9-11.4,15.8-27.2,31.6-42.9c15.2-15,30.4-24.5,41.5-30.3c4.6,6.6,10,15.9,13.8,27.7
			c7.3,22.5,5.2,42.2,3.3,52.7c-1.4-9.4-4.4-22.4-11.9-36.3c-3.8-7.1-8-13-11.9-17.8c-11.2,5.9-23.4,13.3-36.3,22.4
			C1062.2,378.6,1052.1,386.9,1043.5,394.7L1043.5,394.7z"/>
		<path class="st3" d="M1093.5,380.5c-5.7,3.7-12.7,9.3-19.2,17.5c-15.5,19.7-17.3,41.4-17.5,50.4c3.4-8,9.3-19,19.2-30.1
			c12.5-14,25.8-22,34.5-26.3c3-5.7,0.6-12.4-4.4-14.8C1102,375.3,1096.7,376.5,1093.5,380.5L1093.5,380.5z"/>
		<path class="st3" d="M1168.9,326.1c3.3,7.4,8.8,22.4,7,41.4c-2.7,29.4-20.5,47.9-25.8,53.1c2.8-7.5,5.4-16.2,7.2-26.1
			c4.8-26.3,1.8-48.8-1.7-64c1.7,0,4.4-0.1,7.5-1.2C1165.7,328.4,1167.6,327.1,1168.9,326.1L1168.9,326.1z"/>
		<path class="st3" d="M1159.9,304.2c-0.9-5.5-2.1-17.6,3.6-30.9c3.2-7.4,7.4-12.8,10.7-16.2c4.9,3,14.1,9.5,20.8,21.3
			c4.1,7.2,5.8,14,6.6,18.8c-4.8-2.1-13.2-6.6-19.8-15.7c-2.3-3.2-3.9-6.4-5.1-9.1c-2.7,2.3-5.8,5.4-8.6,9.6
			C1162.1,290.6,1160.4,299.2,1159.9,304.2L1159.9,304.2z"/>
		<path class="st3" d="M451.3,217.8c11.8,0.3,29-0.6,48.8-6.5c20.9-6.2,36.5-15.6,46.4-22.7c-4,8.6-12.1,22.2-27.2,29.1
			c-10,4.6-19.3,4.4-33.4,4.2C471.1,221.8,459.2,219.6,451.3,217.8L451.3,217.8z"/>
		<path class="st3" d="M417.3,276.5c18.3,2,47.9,2.6,80.8-9.4c13.3-4.8,24.5-10.8,33.6-16.5c-2.1,2.5-4.2,5.5-6.3,8.9
			c-4,6.5-6.3,12.8-7.8,17.8c-8,1.2-16,2.5-24,3.7c-6.4,3.1-18.6,8-34.4,8C438.5,288.9,423.5,280.4,417.3,276.5L417.3,276.5z"/>
		<path class="st3" d="M623.3,370.7c-1.3,0.5,0.5,5.6-2.4,13.8c-0.9,2.4-1.9,4.4-2.8,5.8c5.7,6.9,12,15.7,17.9,26.5
			c7.2,13.2,11.6,25.5,14.4,35.4c0.4-8.1,0.3-19.8-2.8-33.4C641.4,390.7,626.1,369.6,623.3,370.7L623.3,370.7z"/>
		<path class="st3" d="M1218.4,395.6c5.4,9.6,13,20.9,23.3,32.4c16.2,18,33.1,29.5,45.8,36.7c-10.1-0.2-30.5-2-50.9-15.1
			c-37.1-23.8-43.4-65.2-44.4-71.9c1.3,2.7,4.8,9,12.2,13.5C1210,394.6,1215.4,395.4,1218.4,395.6L1218.4,395.6z"/>
		<path class="st3" d="M1305.5,412.5c-3.4,4.1-8,8.7-14.1,13c-15.1,10.6-30.6,13-38.9,13.6c4.4,3.7,8.7,7.4,13.1,11.1
			c4.4-0.8,19.4-4,30.3-17.6C1302.1,425,1304.5,417.2,1305.5,412.5L1305.5,412.5z"/>
		<path class="st3" d="M1302.9,462c-4.1,5.7-10.9,13.6-21.2,20.5c-17.5,11.6-34.9,13.4-43.2,13.6c4.1,1.6,11.6,4.2,21.2,4.5
			c29.2,1.1,58.8-18.7,56.8-29.5C1316.1,468.6,1313.8,465,1302.9,462L1302.9,462z"/>
		<path class="st3" d="M1133.3,420.2c-2.3,1,0.1,18,10.4,31.7c6.9,9.2,15.5,14.4,21.3,17.2c0.2-3.1-0.1-7.7-2.1-12.5
			c-2.6-6.2-6.8-9.3-10.9-13C1138.2,431,1135.2,419.3,1133.3,420.2z"/>
		<path class="st3" d="M634.2,748.3c-2.3,1,0.1,18,10.4,31.7c6.9,9.2,15.5,14.4,21.3,17.2c0.2-3.1,0-7.7-2.1-12.5
			c-2.6-6.2-6.8-9.3-10.9-13C639.1,759.2,636.2,747.5,634.2,748.3z"/>
		<path class="st3" d="M1173.4,433.7c-1.7,1.5,5.7,10.6,14.6,27.1c14.3,26.5,12.9,35.5,21.8,50.5c6.8,11.4,19.3,25.8,44.2,37.5
			c-5.6-8.3-11.2-17.2-16.7-26.5c-13-22.2-23.4-43.6-31.7-63.5C1181.2,436.1,1174.7,432.6,1173.4,433.7L1173.4,433.7z"/>
		<path class="st3" d="M1186,526.5c0.3,5,1.1,12.2,3.2,20.6c2.4,9.3,9.3,36,32.5,53.7c20.4,15.5,46.6,19,46.6,19l0,0
			c-8.2-3.8-23.6-12.3-36.8-29.3c-14.4-18.4-18.6-37.1-20.1-46.1c-3.3-3.4-7.6-7.2-13-10.8C1194,530.5,1189.7,528.2,1186,526.5
			L1186,526.5z"/>
		<path class="st3" d="M1058.3,507.4c-0.9,10-1,22.1,1.5,35.7c7.3,40,31.7,65.9,43.3,76.7c-1.1-16.7-1.3-35.5,0-56.2
			c1.2-18.4,3.4-35.1,6.1-50.1c-4.4,4.3-11.2,12-15.9,23.5c-6.3,15.4-5.4,29.1-4.6,35.7c-4.3-8.3-8.6-16.9-12.9-25.8
			C1069.3,533.3,1063.5,520.1,1058.3,507.4L1058.3,507.4z"/>
		<path class="st3" d="M1109.4,480.1c1.5,7.9,4.2,17.4,9.2,27.5c12.7,25.8,32.7,40.1,43.3,46.6c3.4-3.2,6.9-7.2,9.7-12.5
			c11.7-21.7,2.6-45.5,0.5-50.4c-2.8,1.9-6.1,4.7-9.2,8.7c-7.5,9.8-8.5,20.4-8.7,25c-4.1-1.8-8.4-4.2-12.7-7.1
			C1124,506,1114.4,490.4,1109.4,480.1L1109.4,480.1z"/>
		<path class="st3" d="M1145.7,580.8c-2.8,2,16.1,28.7,31.3,68.1c7.7,20,12.2,37.2,14.7,48.8c4.1-4.5,8.7-9.2,13.8-13.8
			c17.5-15.8,35.5-26.2,50.6-33.1c-16.9,3.7-33.7,7.4-50.6,11c5.8-2.1,13.7-5.8,21.5-12.5c4-3.4,7.2-6.9,9.6-10
			c-8.6-1.8-20.7-5.1-33.8-11.8C1165.9,608.9,1148.6,578.7,1145.7,580.8L1145.7,580.8z"/>
		<path class="st3" d="M1334,494.7c-8.6,6.3-27.1,18.1-53.5,21.1c-18.4,2.1-33.5-0.9-42.9-3.5c2.5,2.1,25.1,20.5,55.2,13.5
			C1319.6,519.7,1332.1,498.2,1334,494.7L1334,494.7z"/>
		<path class="st3" d="M1204.2,567.4c7,0.9,18.9,1.5,32.3-2.9c23.8-7.8,36.2-25.8,39.9-31.7c0.8,0.4,10.6,5.6,11.7,16.4
			c0.8,7.3-2.9,12.7-3.9,14.1c-3.3,2.8-27.1,22.5-56.3,15.8C1217.1,576.7,1209.2,571.5,1204.2,567.4L1204.2,567.4z"/>
		<path class="st3" d="M1329.7,561.3c-19.6,26.8-46,36.5-55.6,39.5c7.6,0.9,20.2,1.4,34.5-3.3c24.2-7.8,37.6-25.1,42.1-31.6
			c4.2,5.5,9.1,11.3,15.1,17.1c15.4,14.9,31.4,24,43.7,29.6c-8.1-8.5-16.7-18.6-25-30.3c-17.8-25-28.7-49.2-35.5-68.7
			C1347.6,523.7,1343.4,542.5,1329.7,561.3z"/>
		<path class="st3" d="M1272.5,686.2c3.4-3.8,7.3-7.8,11.8-11.7c17.2-14.8,35.6-21.5,48.6-24.9c-2.3-3.6-5.5-7.8-9.7-12.2
			c-4.9-5-9.8-8.6-13.8-11.2c-6.5,6.1-14.5,14.9-21.9,26.7C1279.7,665.6,1275.2,677.3,1272.5,686.2L1272.5,686.2z"/>
		<path class="st3" d="M1111.3,649c8,9.2,20.1,24.9,29.9,46.8c14.4,32.2,11.4,50.1,26.7,71.8c7.4,10.5,21.1,24.8,48.4,35.3
			c-7.2-5.4-16.4-13.7-24.5-25.6c-16.6-24.4-18.8-49.3-19-60.9c-6.5-11.1-15.7-24.4-28.3-38.1C1132.8,665.7,1121.1,656.1,1111.3,649
			L1111.3,649z"/>
		<path class="st3" d="M988.6,629.1c-8.9,6.2-19.1,12.6-30.6,18.6c-23.1,12-44.8,19.3-62.7,23.7c6.7,4,12.9,6.2,18.2,7.3
			c39.3,8.4,73.5-27.6,77.7-32.1c-1.2-1.9-3-5.6-3.3-10.6C987.7,633.2,988.1,630.8,988.6,629.1L988.6,629.1z"/>
		<path class="st3" d="M1007.5,631.7c4.7-9.9,6.9-13,7.9-14.4c10.9-14.3,27.5-19.2,38.2-21.2c2.7,2.8,5.4,5.8,7.9,9.1
			c22.3,28.8,24.7,63,23.8,83.9c-1.2-9.6-4.5-25.2-14-42c-8.1-14.2-17.7-23.9-24.6-29.9c-6.6,2.1-14.9,5.6-23.4,11.7
			c-20,14.4-28,34-31,42.7C997.3,654.9,1002.9,641.4,1007.5,631.7L1007.5,631.7z"/>
		<path class="st3" d="M983.2,761.1c-8.4,7.1-11.7,8.9-13.2,9.8c-15.8,8.5-33,6-43.5,3.3c-1.3-3.7-2.5-7.5-3.4-11.5
			c-8.3-35.4,3.8-67.6,13.3-86.2c-2.9,9.3-6.5,24.8-4.8,44c1.4,16.3,6.1,29.1,9.9,37.4c6.8,0.8,15.9,1.1,26.2-0.9
			c24.2-4.8,39.7-19.2,46-25.9C1002.1,744.3,991.4,754.2,983.2,761.1L983.2,761.1z"/>
		<path class="st3" d="M1041,662.8c1.7,7.9,5,13.3,6,14.9c4.9,8.4,10,24.8,11.2,59.8c4.1-6.3,8.2-14.8,10-25.2
			c6.4-37.5-23.2-66.8-27.2-70.5C1040,646.8,1039.1,654.3,1041,662.8L1041,662.8z"/>
		<path class="st3" d="M1347,623.8c3.2,12.5,9.1,28.7,20.2,45.5c25.4,38.3,61.9,54.2,77.3,59.8c-16-11-41.2-31.6-60.2-65.4
			c-9.4-16.7-14.9-32.4-18.3-45.3c-2,1.3-4.9,2.8-8.6,4C1353.2,623.6,1349.6,623.8,1347,623.8L1347,623.8z"/>
		<path class="st3" d="M1414.7,635.5c-0.6,20.7,2.1,37.4,4.7,48.8c6.5,28.5,15.7,37.6,20.6,41.6c1.8,1.5,3.5,2.6,4.6,3.2
			c-5.2-8-12.6-21.7-16.4-40.1c-3.8-18.6-2.2-34.2-0.5-43.6C1423.3,642,1419,638.8,1414.7,635.5z"/>
		<path class="st3" d="M676.5,459.7c7.3,5.4,8.3,4.5,14.3,8.9c14.3,10.6,12.1,18,25,28.3c9,7.2,11.7,4.7,22.1,12.6
			c8.8,6.7,14.5,14.2,17.9,19.7c-2.7-0.2-6.9-0.7-11.8-2c-13.1-3.5-18.7-9.3-29-13.9c-10.7-4.8-14.9-3.2-26-5.9
			c-20.4-5.1-33.3-17.4-54.6-37.7c-8.7-8.3-19.9-20-31.4-35.5c10.7,8.7,25.1,18.6,43.4,27.1c11.4,5.2,22,8.9,31.4,11.5
			c-3.3-2.2-8.5-6.2-13-12.8c-5-7.4-6.7-14.4-7.4-18.5C661.4,446.3,667.6,453.2,676.5,459.7L676.5,459.7z"/>
		<path class="st3" d="M358.8,348c10.4,3.2,23.7,5.9,39.3,5.9c41.5,0,71.9-19.4,84.5-28.7c-5.1,6.9-12.1,15-21.7,22.8
			c-20.8,16.8-42.5,22.8-55,25.1c2.4-2.3,4.8-4.9,7.3-7.9c1.4-1.7,2.7-3.4,3.9-5c-2.6,1.4-22.4,11.4-42,1.9
			C366.7,358.1,361.5,351.9,358.8,348L358.8,348z"/>
		<path class="st3" d="M317.7,401.2c4.6,5.9,12,13.4,23,18.8c31.5,15.5,64.2-0.9,68.8-3.3c4.6-2.4,11.7-5.3,20.8-6.7
			c8.2-1.2,15.2-0.7,20.1,0c-5.3-2.2-13.7-5.1-24.3-6.5c-20.9-2.8-34.3,2.5-49.7,4.6C363.1,410,343.4,410.1,317.7,401.2L317.7,401.2
			z"/>
		<path class="st3" d="M535,269.4c-10.2,12-12.8,24.9-13.5,30.6c3.7-5.6,9.1-12.5,16.7-19.2c5.2-4.6,10.2-8,14.6-10.7
			c4.1,4.6,9.6,10.1,16.8,15.3c8.8,6.4,17.2,10.4,23.8,12.9c-6.6-4.6-14.4-10.9-22.2-19.3c-8-8.5-13.8-16.9-18-23.8
			C548.5,257.5,541.5,261.9,535,269.4L535,269.4z"/>
		<path class="st3" d="M526.5,312.1c3.9,16.4,10.6,36.8,22.8,58.5c5.6,9.9,11.5,18.6,17.2,26c-11.1-5.9-30.3-18.3-40.8-41.2
			c-1.9-4.1-3.3-8.2-4.4-12c-4.2,5.4-10.4,12.1-19.2,18c-18.6,12.5-37.5,14.2-46.5,14.4c9.5-3.2,23.4-9.1,37.4-20.5
			C512,339.9,521.8,322.2,526.5,312.1L526.5,312.1z"/>
		<path class="st3" d="M225.7,778.3c13.1,14.5,31.5,31.6,56.4,46.7c11.5,6.9,22.5,12.4,32.8,16.7c-15.3,0.4-42.8-1.4-66.7-18.7
			c-4.3-3.1-8-6.4-11.3-9.8c-1.6,7.9-4.8,18.3-11.1,29.5c-13.4,23.5-33,36.1-42.6,41.5c8.6-8.7,20.4-22.8,29.5-42.5
			C225,815,226.1,791.3,225.7,778.3L225.7,778.3z"/>
		<path class="st3" d="M564.9,669.8c3.9,16.4,10.6,36.8,22.8,58.5c5.6,9.9,11.5,18.6,17.2,26c-11.1-5.9-30.3-18.3-40.8-41.2
			c-1.9-4.1-3.3-8.2-4.4-12c-4.2,5.4-10.4,12.1-19.2,18c-18.6,12.5-37.5,14.2-46.5,14.4c9.5-3.2,23.4-9.1,37.4-20.5
			C550.4,697.6,560.2,680,564.9,669.8L564.9,669.8z"/>
		<path class="st3" d="M556.9,308.3c0.2-0.3,0.6-0.6,1-1.1c4.3-4.2,9.4-5.1,10.2-5.3c5.5-0.9,9.7,0.8,11.2,1.5
			c-1.9,5.9-3.5,12.8-4.2,20.6c-2.3,26.4,7.3,47.3,13,57.7c-7.4-8.9-17.2-22.9-24-41.9C559.9,327.9,557.8,317.1,556.9,308.3
			L556.9,308.3z"/>
		<path class="st3" d="M511.3,375.5c-6.1,5-12.6,11.1-19,18.5c-15.3,17.6-23.9,35.6-28.8,48.9c6.1-7.7,13.7-16,22.8-24.5
			c14.3-13.1,28.4-22.6,40.2-29.4C521.4,384.6,516.4,380,511.3,375.5L511.3,375.5z"/>
		<path class="st3" d="M539.5,634.1c-6.1,5-12.6,11.1-19,18.5c-15.3,17.6-23.9,35.6-28.8,48.9c6.1-7.7,13.7-16,22.8-24.5
			c14.3-13.1,28.4-22.6,40.2-29.4C549.6,643.1,544.5,638.6,539.5,634.1L539.5,634.1z"/>
		<path class="st3" d="M519.7,411.5c7,4.2,17.5,11.6,27.2,23.7c10.5,13.1,15.5,26,17.9,34.1c0.4-6.5,1.6-14.7,4.6-23.7
			c6.2-18.4,17-30.5,23.7-37c-3.4,0.2-10.3,1.2-17,6c-12.5,9.1-13.3,24.1-13.4,26.3c-1.9-4.2-7.8-16-21.3-23.5
			C532.6,412.6,524.3,411.7,519.7,411.5L519.7,411.5z"/>
		<path class="st3" d="M445,420.1c-2.7,6.4-5.6,15.3-6.9,26.1c-1.8,15.5,0.6,28.4,2.8,36.4c5.8-5.2,12.9-10.6,21.3-15.8
			c18-11.1,35.3-16.5,48.1-19.2c-9.2,11-23.5,25.5-44,38.5c-17.3,11-33.6,17.4-46,21.3c-2.2-7.5-7.4-28.6,1.4-52.9
			C428,436.7,439,425.5,445,420.1L445,420.1z"/>
		<path class="st3" d="M878.7,667.4c-4.1,5.6-8.9,13.6-12.6,23.9c-5.3,14.7-5.9,27.8-5.5,36.1c6.8-3.7,15-7.5,24.3-10.6
			c20.1-6.7,38.1-8.1,51.2-7.9c-11.5,8.6-28.7,19.5-51.5,27.5c-19.3,6.8-36.6,9.4-49.7,10.3c-0.5-7.8-0.7-29.6,13.3-51.2
			C858.4,679.7,871.7,671.2,878.7,667.4L878.7,667.4z"/>
		<path class="st3" d="M523.2,451.4c0.2,9.1,1.5,21.4,6.4,35c10,27.7,28.6,44.2,37.9,51.3c1.9-8.1,4.8-17.4,9.3-27.4
			c9-19.7,20.7-33.9,29.7-43.2c-5.8,1.8-17,6.2-27.4,16.3c-9.6,9.4-14.2,19.4-16.3,25.1c-6.5-7.6-13.2-16.2-19.8-25.7
			C535.2,471.9,528.7,461.3,523.2,451.4L523.2,451.4z"/>
		<path class="st3" d="M624.3,666.3c3.8,8.3,10,19,19.9,29.5c20.2,21.4,43.9,29,55.3,31.8c-1.5-8.2-2.6-17.9-2.5-28.8
			c0.3-21.7,5.3-39.4,9.9-51.5c-4.6,4-13.1,12.5-18.6,26c-5.1,12.5-5.2,23.5-4.9,29.5c-9-4.4-18.5-9.5-28.5-15.5
			C643.5,680.2,633.3,673.1,624.3,666.3L624.3,666.3z"/>
		<path class="st3" d="M780.2,612.2c-0.6,1.3-19.5-4.7-38.2-12.8c-29.6-12.8-51-22-68.1-43.1c-6.9-8.5-17.6-24.7-22.5-50.2
			c4.1,1.6,8.5,3.5,13.1,5.9c6.4,3.3,11.8,6.8,16.4,10.1c6.3,15.7,13.7,27.4,19.5,35.3c5.2,7.2,10.4,14.1,19.1,20.9
			c7,5.5,11.2,6.9,24.4,13.5C756.8,598,780.9,610.6,780.2,612.2L780.2,612.2z"/>
		<path class="st3" d="M814,670.3c-6.2,1.1-16.3,2.2-28.4,0.2c-29.2-5-42.5-24.3-78.3-48.1c-9.2-6.1-23.6-14.9-42.6-23.7
			c10.9-0.5,23.9-0.3,38.4,1.6c11.3,1.5,21.4,3.8,30.1,6.2c3.4,8.6,12.5,28.1,33.2,43.9C785.5,665,804.8,669,814,670.3L814,670.3z"
			/>
		<path class="st3" d="M595.9,531.7c1.2,7,4.6,21.3,16.1,34.8c17.6,20.7,41.4,24.1,47.3,24.8c-5.5-4.2-11.7-9.9-17.5-17.5
			c-17.4-23-19-48.2-19-59.3c-2.7,3.2-7.1,7.6-13.3,11.3C604.3,528.9,599.5,530.6,595.9,531.7L595.9,531.7z"/>
		<path class="st3" d="M1253.5,651c-7.7,11.5-10.7,21.4-12.1,27.8c-5,22.9,3.2,37.2,6.2,73.5c1,12.6,1,22.7,0.9,28.6
			c2.9-5.7,7.7-14,15.2-22.7c17.3-19.9,31.6-21.8,42.7-37.5c5.2-7.4,10.7-19.3,10.7-38.5c-1.9,6.9-6.7,20.5-18.8,33.4
			c-12.7,13.5-26.9,19.1-33.7,21.3c-4.6-9-10.7-23.6-13-42.4C1249.1,676.1,1251.3,660.8,1253.5,651L1253.5,651z"/>
		<path class="st3" d="M1302.7,673.6c11.5,6.1,31.1,18.4,47.4,41.1c24.5,34.1,25.9,69.6,25.8,82.7c3.2-11.2,7.9-33,2.6-59.5
			c-6.7-33.8-25.5-55.3-33.7-63.7C1330.8,673.9,1316.8,673.7,1302.7,673.6L1302.7,673.6z"/>
		<path class="st3" d="M352.1,390.5c-14.1-13.7-26.9-22.6-35.9-28.2c-9.9-6.1-12.5-6.5-36.6-20.3c-18-10.3-23.6-14.1-29.1-18.4
			c-9.9-7.9-17.1-15.7-21.7-21.3c4.9,3.1,10.4,6.2,16.4,9.2c9.8,4.8,19,8.4,27.2,10.9c-2.4-2.5-5.1-5.8-7.4-10
			c-6.3-11.2-6.6-22.3-6.3-28c3.3,3,7.3,7.1,11.1,12.5c3.3,4.8,5.6,9.2,7.2,13c2.1-3.7,4.3-7.4,6.4-11c1,6.9,3.3,17.4,10,27.9
			c8.5,13.4,18,17.6,31.3,29.9C332.1,363.6,342.3,374.3,352.1,390.5L352.1,390.5z"/>
		<path class="st3" d="M252.3,296.5c-1.1-2.1-2.8-5.8-3.1-10.8c-0.4-7.3,2.4-12.6,3.7-14.8c3.7,2,9.3,5.6,14.5,11.9
			c4.1,5,6.4,9.9,7.7,13.4c0.1-11.5-3.2-17.1-6.5-20.2c-4.2-3.8-9.6-4.7-14.6-11.2c-1.9-2.5-3.1-5-3.7-6.7c-0.2,2.2-0.6,5.5-1.9,9.3
			c-1.9,5.6-3.9,7.4-4.7,10.3C242.7,281.5,243.5,287.3,252.3,296.5L252.3,296.5z"/>
		<path class="st3" d="M199,210.2c5.4,1.4,15.2,3.1,27.2,0.7c14.3-2.8,24-9.9,28.4-13.7c-0.9,3.5-3.7,12.1-11.8,17.4
			c-9.8,6.4-20.9,4-27.2,2.6C207.9,215.6,202.3,212.4,199,210.2L199,210.2z"/>
		<path class="st3" d="M177.7,250.1c9.1,3.8,17,4.7,22,5c15.8,0.8,29.1-5.8,37.1-9.6c1.8-0.8,3.2-1.6,4.2-2.1
			c-0.5-1.6-0.9-3.4-1.2-5.4c-0.1-1-0.3-1.9-0.3-2.8c-2.8,3-6.3,6-10.5,8.6C208.5,256.8,185.2,252,177.7,250.1L177.7,250.1z"/>
		<path class="st3" d="M264.3,199.4c2.3,3.1,4.6,6.3,6.9,9.4"/>
		<path class="st3" d="M172.4,278.8c4.9,1.6,13.5,3.6,24.2,2.7c10.8-1,18.9-4.5,23.5-7c-1.1,1.9-2.2,3.7-3.3,5.6
			c-4.3,2.1-11,4.7-19.6,5.6c-7.2,0.8-13.3,0-17.6-0.8C177.2,282.9,174.8,280.9,172.4,278.8L172.4,278.8z"/>
		<path class="st3" d="M357.5,448.5c-17.8-3.2-30.2-10-37.9-15.2c-12.9-8.8-20.5-18.8-31.2-33.1c-3.9-5.2-6.5-9.3-9.2-13.4
			c-9.4-14.5-16.1-27-20.6-36.1c5.6,2.4,12.7,6,20,11.5c6,4.5,10.8,9.1,14.3,13.2c2.8,9.6,8.7,25.2,21.6,40.9
			C330.1,435,347.9,444.3,357.5,448.5L357.5,448.5z"/>
		<path class="st3" d="M302.1,380.6c-0.1,1.4-0.2,3.3-0.2,5.5c0.3,10.2,4,17.1,3.5,17.4c-0.5,0.2-3.5-5.1-6.9-12.9
			c-2.7-6.3-4.5-11.7-5.7-15.3C296,377.1,299.1,378.9,302.1,380.6L302.1,380.6z"/>
		<path class="st3" d="M258.3,209.3c-2.7,4.4-2.8,7-5.4,10.9c-3,4.4-7,7.1-10.3,8.8c1.1,2.3,2.2,4.5,3.3,6.8
			c2.4-2.2,5.1-5.1,7.8-8.9c2.8-3.9,4.6-7.7,5.8-10.7c0.6,4.5,1.1,11.9-1.2,20.4c-1.5,5.6-3.7,10.1-5.6,13.2
			c9.2-7.5,11.9-14.3,12.4-19.2c0.8-6.5-1.8-11.4-0.2-21.2c0.7-4.4,2-7.8,2.9-10.1C263,202.7,260.1,206.3,258.3,209.3L258.3,209.3z"
			/>
		<path class="st3" d="M230,275.5c-2.7-1-6.3,8-14.5,14c-6.1,4.4-16.2,8.1-33.7,5c3.7,1.5,9.8,3.5,17.6,4c5.8,0.4,23.7,1.4,30-9
			C232.8,284,232.2,276.4,230,275.5L230,275.5z"/>
		<path class="st3" d="M0,0v32.8C3.4,44,8.6,56.8,16.9,70c27.3,43.4,69.4,61.1,87.7,67.4c-17.5-13.7-39.3-33.6-60.3-61
			C22.5,48.1,8.8,20.9,0,0z"/>
		<path class="st3" d="M34.6,109.6c-2.9-0.2-9.2-1.1-15.5-5.4C11,98.7,8,91,7.1,88.4c5.3,16,14.8,37.4,32,58.5
			c39.7,48.7,93.1,62.6,112.6,66.7c-19.7-8.7-48.2-24.3-75.8-51.4C56.8,143.6,43.5,124.7,34.6,109.6L34.6,109.6z"/>
		<path class="st3" d="M60.6,185.3c-0.9,2.3-2.3,5.6-4.9,9c-5.9,7.9-11.1,8-12.4,11.3c-2.9,7.3,15.4,26.9,58.1,51.9
			c17.6,10.3,42.9,23.6,75.4,35.8c-24.1-11.9-41.4-25.1-52.9-35.2c-14.5-12.8-25.1-25.3-38.2-40.9C75,204.6,66.6,193.5,60.6,185.3
			L60.6,185.3z"/>
		<path class="st3" d="M80.6,286.4c4.5,12,10.8,24.3,19.5,36.2c46.8,64.4,130.1,71.6,151.1,72.8c-20.6-12.2-37.7-21.7-49.3-28
			c-34-18.6-48.1-24.8-66.5-40.3c-13.1-11-22.3-21.7-28.1-29C98.4,294.2,89.5,290.3,80.6,286.4L80.6,286.4z"/>
		<path class="st3" d="M175,304.8c-4.4,2.7-10.9,5.8-19.1,7.4c-18.7,3.5-33.7-3.8-39-6.6c5.9,5.2,12.2,10.4,18.9,15.7
			c11.3,8.9,22.3,16.8,32.9,23.8c0.7-4.6,2.2-10.8,5.4-17.4c5.8-11.9,14.3-19,19.1-22.6C187.1,304.9,181.1,304.8,175,304.8
			L175,304.8z"/>
		<path class="st3" d="M169,408.4c5.4,12.6,11.9,22.6,18.2,30.4c46.6,57.1,129.8,53,145.3,52c-14.1-0.7-44.9-4.1-76.8-24.3
			c-31.3-19.9-47.4-45.6-54.2-58L169,408.4L169,408.4z"/>
		<path class="st3" d="M114.8,352.6c0.3,0.7,0.8,1.7,1.4,3c6.6,14.2,11.8,26.8,15.7,36.8c2.9,7.4,6.3,16.3,9.9,26.5
			c-11.9-6-25.3-13.9-39.2-24.3c-23.4-17.5-40.3-36.1-52-51.4c2.8,10.7,14.9,52.6,56.4,79.6c27.7,18,55.1,20.6,68,21
			c-5.6-11.8-12.3-24.5-20.4-37.6C141.5,384.9,127.6,367.1,114.8,352.6L114.8,352.6z"/>
		<path class="st3" d="M9.6,250.5c3.9,9,11,22.2,23.4,35.3c12.9,13.7,26.4,21.7,35.3,26.1c-6.3-9.2-12.9-20.3-19-33.1
			C39.5,258,34,238.9,30.8,223.3c-1.7-0.1-9.2-0.1-15.2,5.4C9.8,234.1,7.6,242.4,9.6,250.5L9.6,250.5z"/>
		<path class="st3" d="M12.2,139.8c-0.8,4.8-2.3,11-5.4,17.8c-2.2,4.8-4.6,8.8-6.9,12v-16.9c1.4-3.8,2.8-8.1,4-12.8
			c1.7-7.1,2.5-13.5,2.9-19C8.7,127.1,10.5,133.5,12.2,139.8L12.2,139.8z"/>
		<path class="st3" d="M61.2,403.7c19.2,26.3,40.9,42.2,54.9,50.9c-7.9,2.5-18.2,4.5-30,4c-39.1-1.8-64.2-30.2-70.2-37.3
			c9.1,7.5,23.6,17.5,43.6,23.2c7.8,2.2,15.1,3.4,21.4,4c-8.2-5-18.5-12.7-27.7-24.4c-25.1-32-22.6-69.5-21.5-80.3
			C36.1,358.6,44.5,380.7,61.2,403.7L61.2,403.7z"/>
		<path class="st3" d="M231.2,323.4c2.4,6,4.7,12.1,7,18.4c5.4,14.9,9.9,29.3,13.6,43c-4.6-5.6-9.6-12.4-14.3-20.6
			c-5.9-10.1-9.8-19.6-12.5-27.6c-3.2,0.8-6.8,2-10.7,3.7c-8.4,3.7-14.6,8.6-18.8,12.5c-0.1-1.5-1-14.1,8.8-23.2
			C215.6,319.3,230.4,323.2,231.2,323.4L231.2,323.4z"/>
		<path class="st3" d="M270.3,419c1.8,4.8,4.5,10.4,8.7,16c12.4,16.9,29.7,23.3,37.4,25.6c-7.2-5.5-15.9-13.4-24.2-24.1
			c-11.4-14.6-17.8-28.9-21.4-39.2c-0.9,4.3-2.8,10.8-7.1,17.8c-4.9,7.8-10.8,12.7-14.5,15.4c3.1-0.5,7.6-1.7,12.5-4.5
			C265.6,423.6,268.4,421,270.3,419L270.3,419z"/>
		<path class="st3" d="M268.1,438.5c-0.6,3.4-2.2,9.3-6.5,15.4c-3.5,4.9-7.4,8-10.1,9.9c2.3,1.6,4.8,3.2,7.5,4.8
			c3,1.8,5.9,3.4,8.6,4.8c2-4,6.9-14.6,3.7-26.8C270.6,443.4,269.4,440.7,268.1,438.5L268.1,438.5z"/>
		<path class="st3" d="M233.3,516c7.3,11.4,18.4,25.5,34.8,38c45.9,34.8,98.8,30.8,114.4,29c-18.9-3.5-59.2-13.9-91.7-48.5
			c-10.3-11-17.8-22.2-23.2-32.1C256.1,506.9,244.7,511.5,233.3,516z"/>
		<path class="st3" d="M145.3,487c6.1,9.5,14.8,20.6,26.9,31.1c32.8,28.5,69.9,34.7,87,36.4c-10.2-5.7-23.7-14.8-36.4-29
			c-6.4-7.2-11.4-14.2-15.3-20.5c-7.3-2.1-16.4-4.8-23.7-6.9C170.9,494.4,158.1,490.7,145.3,487L145.3,487z"/>
		<path class="st3" d="M272.3,590.9c7.8,17,23.3,44.9,52.7,69.6c18.2,15.3,36.3,24.8,50.1,30.6c-9.5,1.7-24.5,3.1-41.6-1
			c-35.6-8.6-50.3-34.3-89.1-65c-13.7-10.9-34.9-26-64.3-40.4c16.7,2.2,29.5,6.1,38.2,9.2c7.8,2.8,10.6,4.5,16.1,5.5
			C249.3,602.2,263,596.4,272.3,590.9L272.3,590.9z"/>
		<path class="st3" d="M89.8,482.9c2,3.8,20.6,40.2,2.7,70.4c-4.3,7.3-10,12.8-15.4,16.8c-6.6-5.8-15-14.5-22.2-26.8
			C42.6,522.7,40,502.9,39.4,492c-3.1,9.3-5.5,21.2-4.5,35c3.3,49,46.8,77.8,53.6,82.2c4.8-5.4,24.6-28.6,24.5-64
			C112.9,511.1,94.7,488.6,89.8,482.9L89.8,482.9z"/>
		<path class="st3" d="M99.6,667.8c2.5,10.6,9.8,35.3,31.8,57.3c24.7,24.7,53.1,31.3,63.6,33.2c0.2-4,0-12.4-4.6-21.3
			c-3-5.8-6.9-9.7-9.6-12.1c9.2,7.3,22.5,16.2,40.1,22.4c38.4,13.5,72.4,5.9,86.7,1.8c-4.1-4.8-11.4-12.8-21.3-21.7
			c-23.4-20.9-37.7-25.3-58.6-44.4c-6.4-5.8-15.9-15.3-25.9-29.1c9,20.1,20.1,31.8,28.4,38.7c12.6,10.5,24.4,14.5,38.4,30.2
			c6.6,7.4,10.9,14.3,13.5,18.8c-13.1,0.7-31.6,0-52.6-6c-35.6-10.3-59-30.5-70.3-41.9c0.7,5.1,1.8,10.7,3.6,16.7
			c3.5,12.1,8.3,22,12.8,29.5c-9.6-4.8-20.9-11.4-32.3-20.6C120.9,701.5,107.4,681.8,99.6,667.8L99.6,667.8z"/>
		<path class="st3" d="M44.4,685.4c6.7,20.4,17.3,46.3,34.7,73.8c20.7,32.8,43.7,56.3,61.6,72c-13.1,0.4-33.5-0.9-55.6-10.4
			c-48-20.7-67.4-64.3-72-75.5c9.3,13,25.4,31.8,50.3,47.7c16.8,10.7,32.7,17,45.1,20.8c-9.8-7.7-20.9-18.1-31.2-32.1
			C49.9,744.3,45.3,704.7,44.4,685.4L44.4,685.4z"/>
		<path class="st3" d="M358.6,718.1c6.2,14.4,16.7,33,35,53.5c21.7,24.5,46.8,43.2,66.5,55.9c-15.4-1.5-39-5.1-64.1-14.3
			c-54.4-20.1-73.9-51.5-78.4-59.6c9.9,9.8,27.2,24.4,55.2,38.3c18.8,9.3,36.9,15.6,51.1,19.8c-10.8-6.4-23.1-14.8-34-25.4
			C360.5,757.8,358.1,731,358.6,718.1L358.6,718.1z"/>
		<path class="st3" d="M275,504.3c9.5,5.5,22.8,11,38.8,11.9c55.1,3,90.7-51.9,93-55.5c-15.5,7.1-32.4,14.2-50.7,20.7
			C327,491.8,299.7,499.1,275,504.3L275,504.3z"/>
		<path class="st3" d="M288.2,523.4c7,0.8,15.2,1.1,24.2,0.5c17.2-1.2,31.4-5.4,41.6-9.4c-0.4,3.9-1.5,9.8-5.3,15.7
			c-9.5,14.8-27.1,16.7-29.8,17c-5.5-2-13.5-5.7-21.3-12.8C293.5,530.6,290.5,526.7,288.2,523.4L288.2,523.4z"/>
		<path class="st3" d="M463.5,516.8c16.2-13.3,25.7-28.2,31.1-38.4c3.5,6.8,7.4,13.7,11.5,20.6c17.5,29.5,36.8,54,55.6,74.2
			c-7.8-0.8-20.2-3.3-33.2-11c-23.3-13.8-32.6-35.3-35.5-42.8c-10.9,8-31.9,21.2-61.4,25.9c-18.1,2.9-33.7,1.6-44.7-0.3
			C399.5,544.6,433.1,541.7,463.5,516.8L463.5,516.8z"/>
		<path class="st3" d="M320.4,593c12.8-2.5,24.9-4.3,36.1-5.5c3.8,0.1,9.2,0,15.6-0.7c10.5-1.1,16.3-3,16.6-2.3
			c0.5,1.4-18.7,8.7-32.6,15.3c-18.1,8.5-36,17.1-53.7,25.7c-3.2-1.9-8-5.4-12.4-11.1c-3.7-4.8-5.7-9.4-6.8-12.7
			C294.7,598.6,307.1,595.6,320.4,593L320.4,593z"/>
		<path class="st3" d="M459.6,549.8c5.9,6.8,13.8,17.6,18.8,32.7c9.9,29.7,2.2,55.6-1.1,64.8c4.9-5.1,20.7-22.9,23.3-51
			c2.5-27.2-8.9-47.1-12.8-53.2c-3.3,1.9-8.2,4.2-14.4,5.5C467.9,550,463.1,550.1,459.6,549.8L459.6,549.8z"/>
		<path class="st3" d="M377.5,587.4c1,0.2,2.1,0.3,3.5,0.2c3.8-0.2,6.6-2.1,7.8-3.1c-3,6.3-6.4,15.5-7.8,27
			c-2.1,17,1.2,30.8,3.8,38.7c5.1-1,12.1-2.9,19.6-7.2c13.1-7.6,20.2-18.1,23.3-23.6c-1.5,2.1-10.2,14.5-6.6,30.1
			c2,8.6,6.8,14.3,9.4,17c4.5-3.4,11-9.2,16.8-17.8c5.1-7.8,7.8-15.1,9.2-20.3c2,5.1,3.6,11.6,3,19.1c-2.2,27.4-32.2,41.4-34.2,42.3
			c-3.3-3.4-8.3-9.5-11.8-18.4c-3-7.6-3.7-14.4-3.8-18.9c-3.2,2.3-7.1,4.6-11.6,6.7c-13.1,6.1-25.4,7-33.5,6.8
			c-1-7.1-1.6-15.3-1.2-24.4C364.5,618.2,371.6,599.5,377.5,587.4L377.5,587.4z"/>
		<path class="st3" d="M416.6,579.5c3.1,8.8,6.4,12,7.8,21.1c1,6.2,0.4,10.7,1.3,10.8c1.3,0.2,2.1-9.3,7.3-18.3
			c4.3-7.6,10.4-12.6,15.5-15.9c-3.5,0.3-11.5,0.5-20.4-3.7c-8.6-4.2-13.4-10.4-15.3-13.2C413.3,568.7,415.1,575.1,416.6,579.5
			L416.6,579.5z"/>
		<path class="st3" d="M542.7,598c-2,3.2,13.5,13.5,30.3,33c18.2,21.3,28.2,42.3,33.7,56.4c-0.5-7.9-0.5-16.9,0.7-26.8
			c3.2-26.7,13.4-47.1,21.3-59.9c-3.4,1-13,4.2-20.6,13.8c-8,10-8.8,20.6-9,24.1c-3.4-6.9-9.5-16.8-20-25.5
			C564.3,600.8,544.8,594.6,542.7,598L542.7,598z"/>
	</g>
</g>
</svg>
