<?xml version="1.0" encoding="utf-8"?>
<!-- Generator: Adobe Illustrator 28.0.0, SVG Export Plug-In . SVG Version: 6.00 Build 0)  -->
<svg version="1.1" id="Layer_2_00000052097642205521622190000017018058290421481359_"
	 xmlns="http://www.w3.org/2000/svg" xmlns:xlink="http://www.w3.org/1999/xlink" x="0px" y="0px" viewBox="0 0 610.8 1085.2"
	 style="enable-background:new 0 0 610.8 1085.2;" xml:space="preserve">
<style type="text/css">
	.st0{fill:#EF6B63;}
	.st1{fill:#D6453B;}
	.st2{fill:#0A3542;}
	.st3{fill:#335C64;}
</style>
<g id="Tree">
	<g id="Layer_2-2">
		<path class="st0" d="M178.1,279.9c-2.1-2.1-11.1-10.8-25.6-11.7c-14.2-0.9-24.1,6.2-26.5,8c-2.5-2.2-17.8-15.2-40-12.9
			c-24.3,2.5-36.9,21.2-38.5,23.7c-3.8,0.4-21.9,2.8-34.8,18.8C0.1,321.4,1.2,338.9,1.6,344.3c2,25.3,20.5,40,23.7,42.5
			c-0.8,3.2-4.1,18.3,4.8,32.1c9.1,14.1,27.2,21.1,45.6,17.4c-0.5,0.5-11,12.1-7,22.5c3.8,9.9,18.3,11.8,23.1,12.4
			c9.3,1.3,12.2-1.6,20.6,0c8.4,1.6,14.6,6.1,18.5,9.7c2.2,7.7,6.2,18.7,13.6,30.6c5.4,8.7,24,37.9,60.7,50.8
			c1.7,0.6,38,12.8,75.1,0.5c10.8-3.6,17.5-7.8,33.1-10.5c19.9-3.3,24.1,1,35.9-4.4c13.5-6.2,14.9-15.2,28.1-18.8
			c8.3-2.2,15.9-0.9,21,0.5c-5.1-8.7-14.2-21.7-29.4-33.3c-10.7-8.2-21-13.1-28.9-16.2c18-0.9,36-1.7,54-2.5
			c-2.1,6.5-6.6,23.1,0.1,41.1c5.4,14.6,15.3,22.8,22.3,28.5c26.5,21.4,71.1,34.6,104.7,22.1c6.3-2.3,17.1-7.4,34-9.9
			c11.2-1.7,20.5-1.5,26.5-1.2c4-2.2,9.8-6.7,18-7.2c4.8-0.3,10,1.6,10.6,1.6V17.2c-7.8-2.2-27-6.3-45.9,1.9
			c-5.6,2.4-25.4,10.9-26.7,26.2c-0.4,4.2,0.8,7.9,1.9,10.5c-5.7,2.9-12,6.7-18.5,11.6c-4.1,3-7.7,6.1-10.9,9
			c-1.3-0.1-3.4-0.1-5.8,0.7c-2.3,0.7-3.9,1.9-4.9,2.6c-3.8-5.1-11.2-13.7-23.4-20.4c-13.8-7.5-26.7-8.7-33.2-8.8
			c0.4-1.4,0.6-3.2-0.2-4.9c-3.6-8-26.2-7-41.8-1.3c-6.3,2.3-17.9,7.7-28.7,21.1c-9.7,2.1-29.6,7.9-44.6,25.6
			c-4.5,5.3-20.6,24.3-14.7,40.4c0.7,2,1.7,3.6,2.4,4.6c-5.7,1.1-14.5,3.4-23.7,9.2c-7,4.4-12,9.3-15.4,13.1
			c-2.3-1.4-5.9-3.1-10.5-3.8c-6.8-1.1-12.7,0.5-22,4.3c-12.3,5.2-19.9,8.4-29.6,15.8c-14.5,11.2-25.4,19.6-26.6,32
			c-1.8,19.1,21.1,20.2,29,25.3c18.9,12.3,39.8,27.8,44.5,28c12.5,0.6,13.9-2.2,25.7-0.4c15.5,2.4,18.1,6.1,31.7,6.3
			c6.9,0.1,3.4-1,21.5-3c19.9-2.2,25.8,0.9,28.8,3.1c3.5,2.5,5.1,5.6,9.3,6c3.7,0.3,5.4-1.9,9.7-2.2c4.3-0.4,8,1.3,10.8,3
			c-5.6,2.9-12.2,6.9-19,12.3c-5.8,4.6-10.5,9.3-14.2,13.4c-4.5-5.5-18.4-20.9-42.1-26.8c-30.1-7.5-54.1,5.6-59.3,8.6
			c-7.3-12.5-14.7-16.4-20.1-17.5c-10.2-2.1-15.5,4.8-26.5,1.9c-10.4-2.8-12-10.8-18.6-10.8C193.7,253.7,186.6,258.5,178.1,279.9
			L178.1,279.9z"/>
		<path class="st0" d="M335.4,42.5c-1.3,0.2-1.5,0.6-3.9,1c-2.7,0.5-3.3,0.1-4.2,0.7c-1.5,1.1-1.6,3.5-1.7,5.1
			c-0.1,3.6,1.2,4.2,1.6,8.2c0.4,4-0.8,4.3,0,6.7c0.5,1.6,1.2,1.7,4.9,6c3.2,3.7,3.1,4,4.2,4.7c2.3,1.3,5.8,1.7,8.5,0.2
			c2.5-1.4,1.9-3.2,5.7-7.3c2.3-2.5,2.8-2.1,3.4-3.4c1.6-3.6-1.8-8.4-5.1-12.9c-3.4-4.7-6.1-6.4-7.1-7
			C340.1,43.5,338,42.2,335.4,42.5L335.4,42.5z"/>
		<path class="st0" d="M144.7,241.9c-1,0.4-1.9,0.7-2.4,1.6c-1.1,1.8,0.5,4-0.8,5.4c-0.5,0.6-1,0.5-1.3,1.2
			c-0.4,0.9,0.1,1.8,0.3,2.5c1.1,3.1-0.6,4.8,0.4,6c1,1.2,3.4,0.6,6.1,0c3-0.7,5.1-1.2,6.8-2.8c3.8-3.6,3-9.5,2.9-10.3
			c-1.4-1.2-3.4-2.5-5.9-3.3C149.2,241.7,147.1,241,144.7,241.9L144.7,241.9z"/>
		<path class="st0" d="M178.6,224.8c-1-2.4-5.5-0.8-8.3-3.6c-1.4-1.4-0.6-2.1-2.5-4.8c-0.4-0.6-1.8-2.4-3.9-3.9
			c-4.1-2.8-6.3-1-8.7-3.3c-2.8-2.7-2.4-7.6-2.4-8.1c0.2-2.5,1.1-2.9,0.8-5c-0.4-2.4-1.7-3.3-1.3-5.2c0.3-1.2,0.9-1.5,0.8-2.6
			c-0.1-1.1-1.1-2.2-2.2-2.6c-1.9-0.6-4.2,0.9-4.6,2.4c-0.4,1.6,1.4,2.4,1.1,3.9c-0.5,1.8-4,3.2-5.8,2.1c-1.5-0.9-0.6-2.8-2.1-4.9
			c-1.7-2.4-5.2-3-7.6-2.8c-2.4,0.2-1.8,0.9-9.9,5.6c0,0-1.1,0.5-1.6,1.2c-0.3,0.4-0.3,1.3-0.8,1.7c-0.8,0.7-2.5,0.9-2.7,1.1
			c-1.9,1.2-1.9,1.2-2.2,2.1c-0.6,2.1,1.3,3.2,0.6,5.2c-0.5,1.4-1.6,1.2-2.1,2.6c-0.9,2.4,1.6,4.3,0.5,6.1c-0.7,1.2-1.9,0.8-2.2,1.8
			c-0.6,1.8,3.8,3.5,3.6,6.1c-0.2,1.7-2.1,1.8-2.4,3.5c-0.5,2.6,3,6.7,6.2,6.6c3.2-0.1,3.7-4.6,8.4-5.4c1.7-0.3,4-0.1,4.6,1
			c0.4,0.8-0.4,1.4-0.1,2.7c0.3,1.6,2.6,4.2,4.9,4.1c2-0.1,6,0.8,8.9,2.1c0.6,0.2,3.9-3.2,4.7-2.1c0.5,0.7,0.9,1.4,1.2,2.1
			c1.2,0,2.6-0.1,4.2-0.3c2.5-0.4,4.6-1,6.3-1.6c0.4,0.3,1.1,0.8,2,1.1c1.6,0.5,3.1,0.2,3.6,0c0.5,0.2,2,0.8,3.8,0.2
			c2.8-0.9,3.7-3.9,3.7-4.1c1.6,2.1,2.4,1.9,2.6,1.8c1-0.4,1-3.1,1-4.9C178.7,225.6,178.7,225.1,178.6,224.8L178.6,224.8z
			 M124.7,209.3c-0.4,0.1-3.3,0.5-4.2-1.1c-0.2-0.4-0.3-0.8-0.3-1.2c-0.5-0.1-0.8-0.5-0.8-1c0-0.5,0.4-0.9,0.7-1
			c0.1,0,0.2,0,0.5,0.1c0.9,0.5,1.1,0.6,1.3,0.7c0.5,0.1,0.7-0.4,1.2-0.7c1.2-0.8,3-0.5,4.2,0.4c0.3,0.2,1.1,0.9,1,1.6
			C128.2,208.4,125.9,209.1,124.7,209.3L124.7,209.3z M136.1,199.5c-0.5,0.2-1.4-1.4-2.5-1.2c-0.3,0.1-0.6,0.3-0.7,0.6
			c-0.3,0.7,0.7,1.4,0.5,1.7c-0.4,0.8-6.4,0.5-7.1-2.7c-0.3-1.3,0.3-3,1.5-3.6c1.5-0.8,2.6,1,6.4,1.7c0.2,0,0.8,0.1,1.2,0.5
			C136.5,197.4,136.6,199.2,136.1,199.5L136.1,199.5z"/>
		<path class="st0" d="M398.5,27.6c-0.3-0.6-3.8-6.9-9.3-7.3c-1.4-0.1-1.1,0.3-9.3,2.2c-1.6,0.4-3.2,0.7-5,0.1
			c-1.8-0.6-1.8-1.4-3.4-2.2c-2.9-1.4-4.5,0.5-9.3-0.2c-1.9-0.2-5.4-0.2-6.2-1.8c-0.7-1.3,1.6-2.6,2.2-5.5c0.1-0.6,1.5-6.9-1.8-10.9
			c-0.5-0.6-1.5-1.7-2.9-2c-2.7-0.6-5.2,1.8-6.8,3.4c-1.3,1.2-2.3,2.2-2.8,3.9c-0.6,2.2,0.4,3.3-0.5,4.2c-1,1.1-3.3,0.6-6.9-0.2
			c-2.7-0.6-4.5-1.2-5.1-0.5c-0.1,0.1-0.1,0.2-0.2,1.5c-0.1,2.2-0.1,3.3,0.5,3.7c0.2,0.1,0.4,0.2,0.9,0.1c0.1,0.4,0.1,0.9,0,1.4
			c-0.1,0.8-0.3,1.5-0.5,1.9c0.1,0,0.8,0.1,1.4-0.5c0.5-0.5,0.5-1.1,0.5-1.2c0.1,0.5,0.2,1.3,0,2.1c0,0.2-0.1,0.4-0.2,0.6
			c0.4-0.3,0.7-0.7,0.9-1.3c0.5-1.5-0.7-2.9-0.4-3.2c0.1-0.1,0.6,0,1.8,1c0.1,0.4,0.4,1.4,0.1,2.6c0,0.1-0.5,2-2.1,2.9
			c-2.2,1.2-5-0.4-5-0.3s2.8,1.9,6.5,1.8c2.6-0.1,4.7-1.1,5.8-1.9c0.8,0.1,1.7,0.2,2.5,0.3c-0.2,0.7-0.2,1.5-0.1,2.4
			c0.5,3.8,4.5,5.8,5,6l-0.5,2c0.9,0.4,2.1,1.2,3.3,2.4c1,1.1,1.7,2.1,2.1,2.9c-0.8,0.5-1.9,1.4-2.9,2.8c-0.5,0.7-1.9,2.8-1.8,5.1
			c0.3,3.7,4.8,7.1,8.7,7c4-0.1,4.9-3.6,8.7-3.3c3.1,0.3,3.5,2.9,6.8,3.1c0.8,0.1,1.9,0,7.3-2.9c5.4-2.9,4.9-3.2,7.5-4.3
			c5.1-2.2,6.7-1,9.1-3.2c2.6-2.4,3-5.8,3.1-7C400.6,31.6,399,28.6,398.5,27.6L398.5,27.6z M341.5,14.3c-0.6,0.5-0.6,0.8-1.2,1.3
			c-0.6,0.5-1.4,0.8-1.5,0.6c-0.1-0.1,0.3-0.3,0.4-0.9c0.2-0.8-0.2-1.2,0-1.6c0.1-0.2,0.6-0.4,1.9-0.2c1.4-0.3,1.8-0.3,1.8-0.2
			C343,13.4,342.3,13.6,341.5,14.3L341.5,14.3z M351.7,23.1c-1.2,0.8-1.9,1.3-2.3,1.1c-1-0.5,0-4.6,0.5-4.6c0.2,0,0,1.2,0.9,1.9
			c0.7,0.6,1.6,0.4,1.6,0.8C352.5,22.4,352.4,22.6,351.7,23.1L351.7,23.1z M354.1,9.7c-0.1,1.8-1.3,2.1-1.2,3.8
			c0,1.4,0.8,2.5,0.5,2.7c-0.2,0.1-0.7-0.8-1.2-0.7c-0.8,0.2-0.4,3.1-1.2,3.4c-0.5,0.1-1.2-0.5-1.5-1.2c-0.5-1.5,1.5-2.1,2-4.7
			c0.5-2.5-0.2-4.7-0.2-4.7c-0.3-0.8-0.7-1.7-0.3-2.2c0.2-0.3,0.8-0.4,1.2-0.4C353.3,5.9,354.2,7.9,354.1,9.7L354.1,9.7z"/>
	</g>
	<g id="Layer_3">
		<path class="st1" d="M528.9,105.5c0,0,1.7,6.4,3.4,9c0,0-6,21.1-9,21.6s-15.4-0.6-17.3-1.7s-6.6-11.4-7.9-18.5s-0.4-19.2-0.4-19.2
			s-6.6,19.7-1.5,27.2c-9.3-4.8-12.4-0.2-12.4-0.2s4.9,42.9-43.2,34.2c-2.9-0.9-2.2,2.1,0,4.4s17.7,4.8,17.7,4.8s-8.7,9.8-17.3,10.6
			c-2.9,1-10.3,3.9-13.6,3.9c7.5,1.1,19.9,3.7,27.8-3.2s10.3-10.9,12.6-10.1s2.7,3.7,6.5-0.5s20.4-17.3,20.6-23.2
			c6.5,4,13.4,9.2,22.7,5c0-0.6-5.5-8.9-11.9-13.4c0,0.1,3.3,0.2,10.1,4.9c2.7,0.7,12.4,3.3,19.5,4.9s10.8,1.4,11.8-3
			s8.9-20.6,23.2-14.4c0,0,3.6,0.6,4,1.9s-7.9,16.9-10.8,17.4c9.6-3.4,10.7-5.9,14-10.2s11.6-22.7,22-24.5s10.9-8,10.9-8V97
			c0,0-10.3-8.5-19.9-3.4s-9.2,5.9-16.9,6.5s-16.2,10.7-20.5,7.4s-6.1-11.1,2.1-16.1s14.8-10.6,26.5-10.5s28.3-5.8,28.8-7.1V62.6
			c0,0-3.2,8.2-23.8,7.1c0,0.2,9.2-17.7,17.1-19.1c3.8-0.1,6.7-7.6,6.7-7.6V20.5c0,0-8,21-19,26.2c-15.5,6.5-27.4,9.9-30.5,14.8
			c-0.3,0.1,19.8-5.9,22.5-5.1s-12.5,10.6-21,12.8s-26.2,8.2-32.8,19S516,109,519.7,125C522.8,120.6,525.4,106.7,528.9,105.5
			L528.9,105.5z"/>
		<path class="st1" d="M517.7,149.6c0,0-4.2,9.9-20.7,13.9c-3.6,1,0.7,7.7,4.4,7.4c3.6-0.3,15.2-2.2,19.9-4.2
			c-0.2,5,3.2,23.1,12.7,23.7s19.5-0.1,28.2-11.3c-3.8,12.1-14.1,29.1-33.3,29.1c-4.9,0-9.9-5.8-17.8-5.8s-25.9,2.4-34.7,17.9
			c-1.2,2,8.1-4.7,17.5-3.9s9.7,6.1,3.3,11.7c-6.4,5.6-8.8,11.4-16.5,11.5c-7.6,0.1-16.8,5.7-16.4,3c0.4-2.6,3.3-7.2,3.1-11.6
			c0-2.6-5.4,7.9-10.4,11.7s-10.8,6-15.1,6.2c-2.3,0-1,3.2-4.1,3.4s-30.2,7-40-24.6c-2.8-10.6,7.4-27.8,20-32.8
			c0.3-0.1-11-5.8-24.1,17.4c-0.4-2.6-1.5-5,0-9.9c0.9-2.2-5.2-0.8-7,7.2s4.4,16.3,0,18.5c-4.4,2.2-5.9,1.9-8.5-0.3
			s-11.6-11.9-11.6-11.9s0.4,11.4,4,17.7c-3.4,0.6-6.9-0.1-6.9-0.1l-1,15.7c0,0,17.3,12.7,16.8-10.7c0.2,8.2,14.4,8.5,14.8,1.5
			c7.3,18,45.6,30.8,75.4,8.3c0,0,41.5-9.6,52.1-3.5s25.3,19.7,25.3,19.7s0-15.9-20.7-26.4c6.2-6.5,8.9-12.6,19.9-12.9
			c5.5,0,12.4,9.8,25.8,9.8c7.5,0,11.8-10.2,9.2-18.4c-2.3-4.6-4.4-5.5-4.4-5.5s4.3,17-5.9,17s-6.7-10.6-6.7-10.6s4-9.2,11.7-9.2
			s34.3,13,34.3,13v-27.3l0,0c-11.1,1-21.8-4.4-27-13.8c-6.8-12.1-1.2-24.4-0.6-25.6l-31.4,4.4L517.7,149.6L517.7,149.6z"/>
		<path class="st1" d="M59.2,323.5c0.6,0.2,1.1-20.5,15.4-30.4c9.6-6.6,21.6-5.8,30-4.2c-3.5-3.1-8.7-16-27.4-9.9
			C52.5,287,58.4,323.3,59.2,323.5L59.2,323.5z"/>
		<path class="st1" d="M560.5,465.5c5.3-8.5,13.8-8.9,28.5-15.8c5.2-2.4,12.7-6.4,21.4-12.7c0.9-2.5,0.5-3.6,0-4.2
			c-2.4-2.8-10.9,4.2-23.8,5.5c-3.2,0.3-11,1-18.8-2.7c-10.3-4.9-14.7-14.6-17-19.7c-2-4.3-11.6-25.7,0-44.1
			c6.2-9.8,18.7-19.3,29.4-17.3c4.1,0.8,5.3,2.8,15.1,6.9c6.2,2.6,11.5,4.2,15,5.2v-26.6c-3.1-1.3-23.8-10.8-30.8-34.1
			c-5.7-18.9-0.1-39.8,14.3-54.4c0.3-0.5,0.7-1.1,0.5-1.4c-0.3-0.4-2.2,0.7-2.8,1c-5,2.9-15.5,18.5-20.9,24.5
			c-1,1.2-10.1,10.9-23.3,12.6c-14,1.8-25.1-6.4-28.5-9.2c-0.5,0.1-1.5,0.3-1.9,1c-0.1,0.2-0.4,1.1,1.2,3.1c6.6,8.1,14.3,11,14.3,11
			c15.3,5.9,23,3.3,24.1,6.6c1.7,4.8-12.3,16.1-27.7,19.6c-5.2,1.2-14.7,3.4-24.8-1.6c-10-5-14.2-14-15.6-17.2
			c-5.6-12.6-4.9-30.4,4.3-37.1c1-0.8,2-1.2,2.7-1.6c0.2-0.5,0.5-1.4,0.1-1.8c-0.7-0.8-2.9,0.1-3.6,0.3c-4.2,1.7-14.1,15.1-13,32.6
			c0.7,10.5,5,18.6,8.5,23.7c-6.1-1.7-10.4-1.1-13.2-0.2c-5,1.5-7.9,4.5-13.9,4.7c-2.4,0.1-4.3-0.3-5.5-0.6
			c-10.2-2.8-17.6-6.6-22.3-9.5c-10.1-6.1-12.3-10.3-20.5-12.9c-9.6-2.9-18.3-0.7-22,0.3c-13.6,3.7-14.1,10.6-30.6,19.9
			c-14.1,7.9-30.4,12.1-31.8,9.5c-0.6-1.2,4.7-4.3,4-5.8c-0.7-1.5-6.1-0.2-9.8,0.6c-6.6,1.5-7.6,2.6-13.3,3.9
			c-6,1.4-9.3,2.1-12.8,0.6c-4.2-1.8-6.2-5.8-7.2-7.8c-4.8-9.6-0.8-20,0.3-22.6c0.1-0.1,1.1-1,0.9-2c-0.2-1-1.4-1.5-2.1-1.5
			c-0.7,0-2.3,0.4-4.7,6.1c-1.8,4.2-3.9,9.1-3.7,16.2c0.2,8.5,3.6,14.7,5.5,17.6c-2.1,0.4-6.7,1.1-11.8-1.1
			c-1.3-0.6-3.4-1.5-5.4-3.5c-4.9-5.2-3.8-12.9-3.7-13.6c0.7-4.3,2.5-4.6,8.2-13.9c4.6-7.5,4.1-8.4,6.9-11.8
			c4.8-5.9,10.7-8.5,13.9-9.9c18.4-8.2,42.5,2.3,44.6,3.2c-0.9-1.4-2.8-3.8-6-5.6c-2.9-1.8-5.7-2.4-7.3-2.6c1.2-0.1,2.3-0.3,3.5-0.4
			c-4.8-2.5-11.6-5.3-20.2-6.2c-21.4-2.4-37.6,8.4-42.5,12c-0.1,0.9-0.3,2.2-0.7,3.8c-1.2,4.8-3.3,7.9-4.7,10.2
			c-1.8,2.9-4.2,7.1-6.8,12.8c1.6-7.1,1.8-12.9,1.6-17c-0.2-4.7-0.5-13.3-4.3-14.5c-0.7-0.2-1.4-0.1-1.9,0
			c-0.6,2.6-1.8,6.4-4.5,10.2c-1.2,1.8-3.3,4.5-9.7,9.2c-9.3,6.9-10.4,5.4-18.9,11.8c-4.7,3.5-6.6,5.6-11.1,6.9
			c-1.7,0.5-5.5,1.6-9.7,0.7c-8.6-1.9-12.8-11.2-14.5-15c-3.9-8.6-3.2-16.7-2.5-20.8c-2.9,2-4.4,4.2-5.1,6.2
			c-1.8,5.2,1.7,9.4-0.7,13.1c-1.3,2.1-3.6,2.7-5.1,3.2c-15.2,5.2-22.5,22.5-31.1,19.8c-1.7-0.5-2.9-1.8-5.3-4.4
			c-2.7-2.8-5.9-6.3-6-10.8c0-3.5,1.8-6,5.1-10.4c2.5-3.3,5-5.7,6.7-7.1c-1.1,0.3-14.1,3.5-17.8,14.5c-3.9,11.7,5.6,23.2,13.1,28.1
			c5.1,3.4,9.8,3.9,17.5,4.8c13,1.6,17.3-1,36.6-0.7c12.2,0.2,18.5,1.3,20.1,5.1c0.8,2,0.1,4,0,4.1c-3.4,8.6-31.5,5.2-36,4.6
			c19.4,5.5,27.1,4.9,30.2,2.8c0.7-0.5,3.8-2.7,8.1-3c1.9-0.1,3.6,0.2,4.6,0.5c-1.9,1.4-4.6,3.7-6.9,7.1c-3.4,5.2-4.3,10.2-4.6,12.9
			c1.7-3.1,4.4-7.3,8.8-11.5c3-2.9,8.6-8.2,15.9-9.9c10.3-2.4,19.4,3.6,27.9,9.1c5.7,3.8,15,10.9,23,23.6c-2.9,1.5-7.3,4.1-12.3,7.9
			c-6.7,5.1-7.1,6.8-10.7,8.8c-6.8,3.8-10.8,0.6-24.4,0.8c-12.4,0.2-13.4,2.9-26.5,3.5c-9.4,0.4-17.1-0.7-22-1.6
			c4.1-1.8,9.6-4.9,15.3-9.9c6.9-6.2,10.9-12.8,13.1-17.1c-2,2.9-6.9,9.1-15.5,12.9c-1.8,0.8-10.9,4.5-22,2.1
			c-10.3-2.2-13.6-7.9-28.1-18.2c-5.1-3.6-12.7-8.6-22.8-13.7c3.9-1,9.1-1.9,15.3-1.9c5,0,9.4,0.6,12.9,1.3
			c-3.8-5.4-7.4-7.2-10.2-7.8c-5.2-1.1-7.6,1.8-14.2,0.3c-4.2-1-4.8-2.6-8.3-2.7c-4.6-0.1-8.2,2.6-9.6,3.8
			c-7.9,5.9-26.7,15.1-40.1,11.5c-1.7-0.5-2.1-0.8-14.4-9.4c-9.1-6.4-16.5-11.5-21.1-14.7c2.2,4.8,5.5,10.6,10.3,16.6
			c7.2,9,15,14.9,20.7,18.5c-2.7,1.6-7.8,4.4-14.8,4.8c-10.7,0.7-18.4-4.4-21-6.1c-12.5-8.5-15.4-22.3-16.5-27.1
			c-1.9-9.2-0.8-16.9,0.2-21.3c-1.8,0.8-4.2,2.1-6,4.4c-11.1,13.8,4.7,49,26,63c11,7.2,27.2,1.3,31.5,9.7c0.9,1.8,2.7,6.6,7.3,12.1
			c1.5,1.8,2.8,3.1,3.8,4c-0.9-2.4-2.2-7-0.9-12.3c2.9-12.7,17.2-17,17.8-17.1c-3.8,5.5-4.3,12.5-1.4,18.4c4.2,8.4,13.3,9.7,14,9.8
			c-4.9,1.9-19.7,7.5-34,8.7c-7.9,0.6-12.6-0.3-16.4-2.7c-2.2-1.4-2-2-4.6-3.5c-6.4-3.9-9.8-1.6-14.2-5.1c-0.5-0.4-5.3-4.3-4.2-8.8
			c0.7-3.1,3.7-4.7,4.6-5.1c-2.7,0.6-7.6,2.2-8.5,5.6c-0.4,1.8,0.5,3.3,1.9,6.1c3.8,7.8,2.2,8,4.7,12.4c1.3,2.2,6.5,10.3,14.6,11.3
			c3.1,0.4,3.2-0.7,7.6-0.3c5.1,0.4,6.9,2.1,11.7,3.2c4.8,1.1,8.2,0.7,11.5,0.5c7-0.4,23.1-1.2,32,2.5c8.3,3.5,13.3,16.4,23.1,42.2
			c6.6,17.2,6.7,26.6,15.5,36.9c0,0,5.8,6.1,13.3,12.2c23.8,19.3,95.4,15.3,95.9,9.1c0.1-2-10.5-2.4-20.9-10.8
			c-5.1-4.2-8.7-8.6-11.3-12.2c8.4,7.9,17.4,12.9,23.6,14.5c9.2,2.3,14.4,0.2,16.5-0.2c8.9-1.7,17.6-8.8,19.4-10.7
			c4.1-4.5,3.8-8.3,4.7-11c1.2,1.6,1.3,3.3,3.4,6.6c3.2,5,4.4,7.3,6.1,8.9c3.5,3.3,9.4,3.6,13.7,3.7c34.6,0.8,36.1,0.5,41-0.4
			c8.1-1.6,8.9-2.8,17.2-4.1c0,0,11.7-1.4,22.7-1.1l-0.1-1.9l0,0c-0.5-1.2-0.5-1.9-2.6-4.2c-1.6-1.8-4.5-4.3-5.9-5
			c-6.8-3.2-15.1-13.6-20.5-19.2c-4.1-4.2-10.9-9.4-22.4-12.7c3.7-2.1,9.3-4.6,16.2-4.7c5-0.1,8.4,1.1,11.4,2c6,1.6,15,2.8,27.6,0.5
			c2.8-3.4,11.9-13.2,27.2-16.5c16.5-3.5,29.3,2.9,34,5.4c6.1,3.2,27.1,14,27.9,35.1c0.6,14.5-8.6,28.6-22.9,36.3
			c4.4-3.9,11.4-11.5,13.8-22.5c0.8-3.8,1.6-8.1-0.4-12.6c-3.8-8.5-14.2-10.5-15.7-10.7c1.6,1.2,8.1,6.2,8.4,13.8
			c0.1,2.4-0.4,5.1-2.7,9.2c-1.6,2.9-11.5,20.9-30.2,22.2c-7.2,0.5-12.7-1.7-16-3.1c-16.7-6.8-24.5-22.1-27.1-27.9
			c0.7,6.3,2.8,17.9,11.1,28.7c0,0,3,8.2,10.4,13.2c16.1,11,40,7.6,104.1,2.3c22.2-1.8,39.8-3.2,54.3-16.7c4.2-3.9,7-7.8,8.8-10.6
			c3.8,7.4,11.7,19.9,25.3,23.5c1,0.3,2,0.5,3.1,0.7c0.3-12.5,0.6-24.9,0.9-37.4c-2.6,1.7-10.9,6.9-18.5,3.7
			c-0.4-0.2-1.3-0.6-2.4-1.3c-6.4-4.4-5.2-11.3-10.6-19.6c-1-1.6-2.7-3.9-5.5-6.4c1.3,2.4,3.6,7.6,3.3,14.3c0,0-0.3,6.6-4.2,13.2
			c-7.4,12.6-31.5,26.7-53.5,17.2c-18.1-7.8-23.5-26.9-24.2-29.7c3.7,2.7,11,7.2,21.1,9c8.8,1.6,16.1,0.5,20.5-0.4
			c-1.7-1.5-4.4-3.7-8-5.7c-6.9-3.8-12.4-4.4-15.8-5.1c-10.5-2.5-16.9-12-23.6-22.1c-7.4-11.1-14.9-22.3-12.1-36
			c1.8-8.9,8.1-19.7,19.1-23.6c9.8-3.5,18.9,0,22.1,1.2c10,3.8,12.1,9.7,25.1,19.4c6.8,5.1,12.9,8.4,16.7,10.3
			c-2.6,3.2-8,10.6-9.4,21.5c-2.2,17.4,7.4,31.2,8.2,30.9c0.6-0.2-3.6-8.7-2.1-21.2C557,474.7,557.6,470,560.5,465.5L560.5,465.5z
			 M127.5,407.7c-9.7,2.6-14.6,4.5-21.4,2.9c-1.4-0.3-13.3-3.3-15.5-11.9c-2.6-9.9,9.8-19.4,12.4-21.5c9-7,19-7.8,23.1-7.9
			c2.5,0.8,6.2,2.3,9.8,5.5c5.3,4.8,5.9,9.4,11,16.2c2,2.7,5.2,6.4,10.2,10.2C144.6,403.3,134.5,405.8,127.5,407.7L127.5,407.7z
			 M262.8,509.9c-6.4,0.1-11.6-3.4-13.5-4.7c-5.5-3.7-8.2-8.5-9.4-10.9c-0.2,2.2-0.3,7.1,2.3,12.5c3.2,6.6,8.5,9.6,10.4,10.6
			c-26.1-2.5-46.2-19.5-49.6-40c-2.5-15.2,4.9-27.8,7.8-32.2c-2,1.3-4.7,3.4-7.3,6.5c-11.2,13.5-7.7,32.1-6.8,36.9
			c4.3,22.5,22.3,34.7,26.5,37.4c-8.5,0.4-15.3-0.4-20-1.3c-11.2-2.1-17-5.5-28.1-5.5c-4.8,0-8.8,0.7-11.4,1.3
			c-17.4-19.2-23.3-44.8-14.3-64.4c10.2-22.4,36.5-29.9,42.6-31.7c4.6-1.3,11.6-2,25.4-3.4c8.2-0.8,12.6-1,17.1,1.6
			c4.4,2.5,6.7,6.2,8.6,9.4c5,8.4,1.8,12.4,6,18.4c5.6,8,11.3,8.1,21.8,17.9c8,7.4,13.3,12.4,13.5,19.5
			C284.9,498.3,274,509.7,262.8,509.9L262.8,509.9z M304.1,512.5c-1.5-1.3-8.9-7.9-11.3-18.3c-1.7-7.5,0.3-11.9-2.6-19.4
			c-2.1-5.5-5.6-9.4-8.2-11.7c12.8,4.5,21.7,10.4,27.2,14.8c10.5,8.3,17.3,17.6,24.6,27.6c3.9,5.3,6.9,9.9,9,13.2
			C340.7,519.4,318.7,525.4,304.1,512.5z M343.6,486c4.4,0.5,4.7,4.8,11.7,10.3c6.2,4.9,8.8,3.7,13,8.5c0.7,0.8,6.5,7.3,4.5,11.2
			c-1.9,3.8-10.2,3.4-15.2,2.2c-14.2-3.3-26.6-18.7-23.3-26.8C335.6,488.1,340,485.6,343.6,486L343.6,486z M406.3,440.5
			c-6.5,3.4-12.5,5.6-17.5,7.1c1.2-2.3,2.7-5.5,3.6-9.6c1-4.2,1.1-7.9,0.9-10.5c2.7,1.6,8.5,4.5,16.4,4.6c5.8,0.1,10.4-1.4,13.1-2.5
			C418.7,432.9,413.2,436.9,406.3,440.5L406.3,440.5z M459.8,451.9c-9.1-3.4-17.4-4.3-23.1-4.4c1.3-1.6,8.9-10.8,19.9-10.3
			c5.4,0.2,13.3,2.8,14.4,7.4c0.4,1.7-0.4,2.5-0.3,5.5c0.1,3.8,1.5,6.8,2.8,8.8C470,456.5,465.4,454,459.8,451.9L459.8,451.9z
			 M524.2,372.1c-1.4,13.5-10,29-22.5,31.9c-5,1.2-6.7-0.6-15-1.6c-17.7-2.2-32.4,3-40.8,6c-18.7,6.6-22.2,14.4-36.1,13.6
			c-4.4-0.2-9.8-0.5-15.5-3.9c-8.4-5-8.8-11.6-16.5-16.1c-3.4-2-9-4-17.9-2.9c2,0.3,11.7,1.8,18.1,10.4c6,8.1,6,18.3,3.3,25.5
			c-5.7,14.7-24.1,19.7-36.9,18.5c-13.3-1.2-21.9-9.1-25.7-12.6c-2.4-2.2-13.7-13-15.9-30.4c-0.5-4.2-0.4-7.8-0.2-10.2
			c-1,0.5-2.4,1.3-3.7,2.6c-6,6.7-1.3,19.7,1.2,26.7c2.2,6.2,6.9,16.2,16.9,26.5c-1.7,0.6-25.7,8.8-45.1-6.3
			c-9.7-7.6-20.8-23.2-16.3-39.1c5.9-21,33.8-25.3,35.8-25.6c6.4-0.9,12.7-0.3,13.2-0.2c12.3,1.3,16.6,6.1,26.3,5.8
			c3.1-0.1,7.9-0.8,13.6-3.7c-2.7,0.5-27.5,4.5-33.9-6.5c-0.8-1.4-1.1-2.6-1.1-3.2c-1.5-11.4,21.9-27.8,39-23.5c4,1,7.2,3,8.3,3.7
			c7.2,4.7,8.3,9.9,13.9,15.5c2.9,2.9,7.6,6.4,15.2,8.8c0.5-1.1,0.9-2.2,1.4-3.2c1.5,1,7.2,4.4,14.8,3.5c5.7-0.7,9.5-3.5,11.1-4.9
			c-26.8,4.4-48.4-15.3-48.3-34.6c0.1-18.2,19.5-34,36-33.9c5.7,0,13.4,1.9,19.8,6.4c6.8,4.8,9,10.2,18.3,16
			c3.8,2.3,7.2,3.7,9.3,4.5c-1.5,2.8-3.5,7.3-4.2,13c-0.3,2.8-2,20.3,10.7,29.9c8.1,6.1,17.4,5.6,20.6,5.3
			c-11.8-2.2-20.3-10.7-21.1-20.1c-0.9-11.2,9.7-18.8,10.5-19.4c3-2.1,5.5-2.7,26.9-4.8c16.1-1.6,17.5-1.5,19.4-0.6
			C521.8,343.4,525.4,360.2,524.2,372.1L524.2,372.1z"/>
		<path class="st1" d="M188.6,202.9c1.2,1.5,3.3,3.6,6.5,5.1c13.7,6.4,32.1-6.7,36.7-10.1c8.4-6.1,7-7.8,18.7-16.6
			c6.7-5,18.6-14.1,22.9-10.9c1.5,1.1,2,3.8,1.2,5.5c-1.6,3.5-7.6,0.9-12.8,4.7c-2.6,1.9-4,5.7-6.9,13.2c-2.5,6.5-2.1,7.9-4.5,11.6
			c-2,3-3.6,3.9-3.9,6.3c-0.5,3.4,1.8,6.6,3.9,8.9c2.3-0.7,5.3-1.9,7.5-4.7c3.1-3.9,1.4-6.9,4.3-11.6c0.6-0.9,4-6.6,10.5-7.5
			c5.2-0.7,9.3,2.1,10.5,3c-0.9-5-3-19.6,4.5-35.5c8-17.1,21.9-24.8,26.2-27l9.7,0.2c-3.3,2.3-9,7.1-12.8,15.2
			c-7,14.7-2.1,28.8-1,31.8c-1.4-1.2-3.6-3.3-5.3-6.5c-1.1-2.2-1.7-4.2-2-5.7c-3.1,0.8-8.2,2.6-12.2,7.1
			c-9.2,10.2-7.6,28.4,1.4,39.1c4.9,5.8,11,8.3,14.6,9.5c3.3-2,8-5.3,12.6-10.5c10.7-12.1,10.2-23,16.4-38.3
			c5.3-13.1,12.1-20.9,24.5-35.1c11.8-13.6,24-23.9,34.7-31.6c0-1.8-0.1-3.7-0.1-5.5c-2.4,2-6.1,4.8-11.1,7.1
			c-7.6,3.4-11.9,2.9-18.9,5.9c-3.4,1.5-8.2,4.2-13.1,9.4c1-7.1,2.5-12.6,3.8-16.4c1.9-5.5,2-4.1,8.5-18.8c2.8-6.3,3.2-7.6,5-9.4
			c3-3,5.6-3.4,10.8-7.5c2.2-1.8,3.9-3.5,5-4.6c-0.1,1.4-0.3,3.8-1.3,6.3c-2.5,6.3-7.1,7.5-9.6,12.9c-1,2.1-1.9,5.4-1,10.6
			c2.1-1,4.7-2.4,7.7-4.2c4.5-2.7,7.1-4.4,10-7.1c6-5.7,6.3-10.1,10.8-10.9c1.4-0.3,2.7,0.1,5.4,0.8c7.2,1.8,11.8,5.8,13,6.9
			c3,2.7,5,5.5,6.3,7.9c-0.9,1.5-2.3,3.7-4,6.3c-2.2,3.4-4.7,7.3-5.8,8.8c-2.1,3.1-6.6,9.8-12.5,15.2c-7.8,7.1-11.2,5.4-18.8,11.7
			c-4.2,3.5-8.5,8.4-12.1,15.6c2.2-1.9,5.9-4.8,10.8-7.5c7.9-4.4,12.8-4.9,20.5-8.2c6.8-2.9,12.1-5.3,17.5-10.2
			c7.8-7,12.8-16.1,14-18.4c2.8-5.3,4.3-10,9-11.9c0.7-0.3,0.9-0.2,7.1-0.6c8.7-0.5,9.4-0.7,10.2-1.3c3-2.5,2.9-8.5,2.1-11.7
			c-0.4-1.9-1.3-4-1.5-7.7c-0.1-1.2,0-2.2,0-2.9c-2.3,0.6-5.8,1.1-10,0.4c-8.6-1.4-13.8-6.9-15.5-8.8c3.2,0.4,7.2,0.7,11.7,0.2
			c5.4-0.6,8.6-0.9,12.3-2.9c2.7-1.4,3.8-2.8,6.5-3.1c2.2-0.2,3.9,0.5,6.3,1.5c6.7,2.9,10.5,5,15.7,7.9c4.2,2.3,5.8,3.1,7.3,5.2
			c1.7,2.3,2.3,4.7,2.5,6.3c1.3-0.8,3.1-1.6,5.3-2.2c3.4-0.9,6.3-0.7,8.2-0.5c-2.7,3.7-6.5,8.8-11.4,14.6
			c-8.8,10.6-13.2,15.8-19,20.2c-14.9,11.3-30.1,15.8-30.1,15.8c-3.5,1-9,2.3-12.1,7.1c-2,3-1.5,5-3.8,8.3c-2.9,4.1-5.5,3.8-9.6,7
			c-7.4,5.7-4.6,11.1-12.6,18.5c-1.5,1.4-5,4.6-10.3,6.4c-7.6,2.6-11.5-0.2-18.5,0.7c-1.6,0.2-6.1,0.9-18.1,10.3
			c-16.6,12.9-26.6,26-29.2,29.5c-3.9,5.2-8.9,12.6-13.9,22.1c-2.9-0.3-4.4-1.4-5.3-2.3c-0.6-0.6-0.9-1.4-1.8-1.6
			c-1.4-0.4-3.1,2.8-3.5,3.1c-3.3,2.2-10.7,0.8-14.2,1.2c-3.6,0.4-9.3-2.3-20.6-7.6c-8.5-4-10.7-5.6-14.5-4.9
			c-4.1,0.7-4.4,6.4-10.3,9.1c-3.6,1.6-9.5,0.9-15.3-0.8c-6.9-1.9-7.9-2.5-16-4.5c-1.7-0.4-3.9-3.8-7.3-2.1
			c-3.4,1.7-8.5,6.8-11.8,8.2c-3.6,1.6-4-0.9-6.9-3.6c-4.1-3.8-8.4-9.3-9.7-16.4C185.3,209.2,187.7,204.4,188.6,202.9L188.6,202.9z"
			/>
		<path class="st1" d="M142.9,248.4c-0.1,0.5-0.3,1.8,0.3,3.2c0.5,1.3,1.4,2.1,1.8,2.4c0-0.2,0-1.2,0.7-2.1c0.4-0.5,1.3-1.2,2.1-0.9
			c1.4,0.4,1.5,3.5,1.5,3.7c0,1.8-0.7,2.2-0.3,3.1c0.6,1.4,2.9,2.4,4.8,1.6c0.7-0.3,1.8-1.1,1.9-2.2c0.1-1.2-1.4-1.5-2.1-3.4
			c-0.6-1.5,0.1-1.9-0.6-3c-0.7-1.2-1.6-1-2.6-2.4c-0.6-0.9-0.6-1.4-1.1-1.6c-0.7-0.3-1.4,0.4-2.6,0.9
			C145.9,248.1,144.7,248.4,142.9,248.4L142.9,248.4z"/>
		<path class="st1" d="M131.9,227c-0.3,0.4-0.9,1-1,1.8c-0.4,2.9,2.9,6.7,6.2,6.4c1.8-0.2,3.1-1.6,3.6-2.2c1.3,1.9,2.8,3,3.7,3.5
			c1.2,0.7,4,2.4,5.8,1.2c0.8-0.5,1.1-1.4,1.3-2c0.2-0.5,0.4-1.4,0.2-2.4c-0.4-2.6-3.2-4.6-3.6-4.8c0.2,2.1-0.6,5-3.4,5.2
			c-3.4,0.3-4.5-5.4-4.7-6c-0.7,2.8-2.3,4.6-3.8,4.6c-0.8,0-1.4-0.5-2-0.9C132.4,229.9,132.1,228,131.9,227L131.9,227z"/>
		<path class="st1" d="M155.3,231.5c0.9,1.3,1.7,1.6,1.6,2.2c0,0.5-0.4,0.7-0.3,0.9c0.2,0.2,1,0.1,1.4-0.3c0.4-0.3,0.4-0.7,0.6-2.5
			c0.2-2,0.2-2.4,0-2.4c-0.3-0.1-0.5,0.7-1.3,1c-1.1,0.5-2.3-0.4-2.6-0.1C154.7,230.6,155,231,155.3,231.5L155.3,231.5z"/>
		<path class="st1" d="M178.5,230c0.3,0.3-0.1,1.9-1.2,2.8c-1.1,0.9-1.7,0.2-3.5,1.2c-0.6,0.3-1.1,0.7-1.6,0.6
			c-0.4-0.1-0.6-0.4-0.8-0.7c2.8-1.7,3.4-3,3.4-3.8c0-0.2,0-0.7,0.2-0.8c0.3-0.1,0.7,1,1.6,1.2C177.5,230.7,178.2,229.7,178.5,230
			L178.5,230z"/>
		<path class="st1" d="M174,235c-0.1,0.1-0.5,0.7-0.4,1.5c0,0,0.1,0.5,1.2,2l0,0c1.2-0.1,1.5-0.3,1.5-0.3c0.3-0.2,0.4-0.6,0.4-0.9
			c0.4-2.2,1.1-2.6,0.7-3C176.9,233.7,174.8,233.8,174,235L174,235z"/>
		<path class="st1" d="M176.2,223.4c-0.5-0.2-0.7-0.5-0.9-0.8c-0.9-1.4,0.7-3.1-0.1-5.2c-0.1-0.3-0.4-1-1-1.1
			c-1.1-0.2-1.9,3.2-2.8,3.1c-0.4-0.1-0.6-0.7-0.8-1.5c-0.5-1.8-0.1-2.4-0.3-3.6c-0.3-1.9-2-3.5-3.8-4.1c-1.3-0.4-2.5-0.2-3.1-0.1
			c0-1,0-2.7-0.1-4.8c-0.1-2.4-0.1-3.6-0.9-4.4c-0.1-0.1-1-1-1.9-0.8c-0.9,0.2-1,1.3-2.4,2.1c-0.4,0.2-1.1,0.6-1.5,0.3
			c-0.8-0.4-0.4-2.4-0.3-3.2c0.2-1.9-0.4-4.8-3.9-8.9c-0.3,0.2-0.7,0.5-1,0.9c-0.5,0.8-1,0.6-1.3,1c-0.3,0.4-0.9,0-2.7-0.4
			c-0.4,0.4-0.8,1.4-2,2c0.6,0,3.1,0.2,4.7,1.5c0.5,0.4,1.8,1.5,1.9,3.1c0.1,1.5-0.6,3.8-2.2,4c-1.2,0.1-2.5-0.8-3.1-2.3
			c0.2,0.4,0.5,1.3,0.3,2.3c-0.2,1.1-1,1.8-1.6,2.3c-1.3,1.1-2,0.9-3.1,1.8c-0.6,0.4-1.3,1.2-1.8,2.5c4.1-0.1,7.2,0.6,9.2,1.2
			c1.8,0.6,2.9,1.1,3.5,2.2c0.8,1.4,0.5,3,0.3,3.6c0.3,0.1,0.7,0.3,1.1,0.7c0.7,0.6,1,1.3,1.1,1.7c0.2-0.3,0.4-0.6,0.9-1
			c1.2-1,2.6-1.1,4-1.2c1.3-0.1,3.2-0.3,5.5-0.7c0.2,1.7-0.2,2.8-0.5,3.4c-1.1,2-3.4,1.9-6,4.3c-1,0.9-1.6,1.7-2,2.3
			c1.3-1,2.5-1.5,3.3-1.7c2.8-0.7,4.4,0.5,7.1-0.7c1-0.4,1-0.6,1.8-0.8c1.4-0.2,2.2,0.4,4.4,0.8
			C175.1,223.4,175.8,223.4,176.2,223.4L176.2,223.4z"/>
		<path class="st1" d="M141.7,194.1c-0.9-1.2-0.7-2.3-0.8-3c-0.1-1-0.1-2.3-1-2.8c-0.6-0.3-1.9-0.9-2.3-0.8c0.6,0.3,0.7,1,2,1.9
			c0.4,0.3-0.1,2,0.4,3.6C140.3,193.5,141.6,194,141.7,194.1L141.7,194.1z"/>
		<path class="st1" d="M134.6,186.6c-1.3,1.7-3,0.6-3.7,1.3c-0.8,0.9-0.4,2.2-0.1,3.3c0.1,0.5,0.5,1.9,1.8,3c1,0.9,2.1,1.2,2.6,1.3
			c-0.5,0.3-1.4,0.7-2.5,0.8c-2.4,0.2-4.2-1.3-5-0.6c-0.3,0.3-0.4,0.9-0.3,1.2c0.2,1,1.6,1.3,3.3,2c2.3,1,3.7,1.6,4.3,2.8
			c0.9,1.8-0.2,4-1.1,5.6c-0.6,1.2-2.2,4.3-4.4,4.4c-1.1,0.1-2.1-0.7-2.7-0.1c-0.5,0.5-0.1,1.4-0.7,1.7c-0.5,0.3-1-0.2-1.3,0
			c-0.7,0.5,0.8,2.6-0.1,3.9c-0.3,0.5-0.9,0.7-1.6,0.9c-1.2,0.4-3,0.4-3.5-0.4c-0.3-0.5,0.1-1.1-0.2-1.4c-0.4-0.4-1.3,0.2-1.6-0.1
			c-0.4-0.4,0.5-1.5,1.2-3.5c0.1-0.3,0.5-1.6,0.7-3.3c0.2-1.4-0.3-2.3,0.1-2.5c0.3-0.2,0.7,0.2,1.7,0.6c0.1,0,1.5,0.6,3,0.6
			c1,0,2.9-0.3,3-1.1c0.1-0.5-0.6-1.2-1.2-1.3c-0.4-0.1-0.6,0.2-1.2,0.2c-0.8,0-0.9-0.4-1.6-0.4c-0.8,0-0.9,0.5-1.5,0.6
			c-0.9,0-1.7-1.2-1.8-1.4c-1-1.7-0.5-3.7-0.3-4.2c0.4-1.4,1-1.6,0.8-2.4c-0.2-0.9-1.1-1.6-1.9-1.9c-0.8-0.3-1.6-0.2-1.9-0.1
			c0.3-0.2,0.8-0.6,1.5-0.8c0.4-0.2,0.6-0.2,0.9-0.4c0.4-0.2,0.8-0.7,1.1-1.6c0,0.4,0.1,1,0.6,1.6c0.5,0.7,1.1,0.7,1.4,1.4
			c0.4,0.8-0.1,1.3,0.3,1.8c0.4,0.5,1.5,0.6,2.2,0.2c0.7-0.4,0.8-1.3,0.9-2.3c0.1-1.2,0.3-2.8-0.8-3.7c-1.2-0.9-2.9-0.3-3.1-0.2
			c0.1-1.1,0.6-1.7,0.9-2.1c0.9-0.9,1.8-0.7,3.1-1.8c0.6-0.6,0.4-0.6,1.1-1.3c0.5-0.5,2.1-2,4-1.7
			C132.8,185.4,134.4,186.3,134.6,186.6L134.6,186.6z"/>
		<path class="st1" d="M114.9,198c-0.1,0.1-0.5,1.6-0.4,2.7c0.1,1,0.9,1.6,1,1.7c0.4-0.1,0.8-0.2,1.4-0.1c0.3,0,0.7,0.1,0.9,0.1
			c-0.2-0.5-0.4-1.1-0.9-1.7C116.4,199.8,115.4,198.4,114.9,198L114.9,198z"/>
		<path class="st1" d="M125.6,223.5c-0.6,1.7-1.9,2.6-2.4,3.3c-0.5,0.7-1.3,0.9-1.6,0.9c-1,0.2-1.4-0.2-2.2,0
			c-0.6,0.1-1.3,0.6-2.1,2.2c0.5,0.1,1.2,0.4,2,0.9c0.8,0.6,0.9,0.8,1.3,1.1c1.2,0.7,3.5,0.4,4.6-1.1c1.1-1.4,1.5-3.6,1.3-4.3
			C125.9,224.6,126.1,223.8,125.6,223.5L125.6,223.5z"/>
		<path class="st1" d="M145.9,218.9c0.8,0.5,1.2,1.4,1.1,2.3c-0.1,1-0.8,1.8-1.8,2c0.7-0.1,1.6-0.1,2.6-0.1c1,0.1,1.9,0.2,2.6,0.4
			c-0.4-0.4-1-0.9-1.4-1.8c-0.5-1.2-0.2-2.1-0.8-2.6C148,218.8,147.3,218.5,145.9,218.9L145.9,218.9z"/>
		<path class="st1" d="M132.5,217.5c-0.1,0.5-0.1,1.2,0.3,1.7c0.6,0.7,1.5,0.2,2.3,0.9c0.9,0.8,0.5,1.9,1.4,2.3
			c0.8,0.4,1.7-0.1,1.9-0.2c1.3-0.6,1-1.8,2.1-2.6c1.4-1,3.1-0.4,3.3-1.1c0.1-0.4-0.2-0.8-0.6-1.2c-0.3,0.1-0.8,0.3-1.4,0.5
			c-1.5,0.5-1.6,0.4-1.8,0.6c-0.9,0.6-0.5,1.4-1.4,2.1c-0.4,0.4-1.2,0.8-1.8,0.5c-0.6-0.3-0.4-1-1.2-1.6c-0.6-0.5-1-0.3-1.8-0.8
			C133.1,218.4,132.7,217.9,132.5,217.5L132.5,217.5z"/>
		<path class="st1" d="M133.2,212.4c-0.2,0.1-0.8,0.4-1.1,1.2c-0.4,0.8-0.2,1.4-0.1,1.6c0.2-0.1,0.6-0.1,1.1,0
			c0.4,0.1,0.7,0.3,0.8,0.4c-0.5-0.7-0.6-1.2-0.5-1.5c0.1-0.4,0.3-0.7,0.2-1.2C133.4,212.7,133.3,212.5,133.2,212.4L133.2,212.4z"/>
		<path class="st1" d="M350.6,6c0.8,0.1,1.4,1,1.5,1.2c0.4,0.6,1,2.1-1.1,7.5c-1.6,4-2.6,6.4-5,7.4c-0.5,0.2-2.3,1-3.5,0.1
			c-1.3-0.9-1.1-2.9-1.1-3c0.2-2,1.8-2.2,3.4-4.9c1.5-2.4,0.9-3.3,2.8-5.9C348.2,7.4,349.3,5.9,350.6,6L350.6,6z"/>
		<path class="st1" d="M356.9,1.1C356,0.8,353.3,0,353.1,0c-0.1,0,0.5,1,0.3,1.6c-0.2,0.7,1.3,1.1,2.4,2.8c0.3,0.4,1.2,1.8,1.1,3.4
			c-0.1,1.8-1.3,1.8-1.6,3.9c-0.3,2,0.6,3.4-0.2,4.2c-0.4,0.4-0.8,0.3-1,0.6c-0.5,0.8,0.6,2.5,1.7,3.8c-0.6-1.6-0.2-2.6-0.1-2.9
			c0.2-0.5,0.5-0.8,1.2-1.4c1-0.9,1.5-1.1,1.9-1.6c1-0.9,1.2-2.1,1.5-3.4c0.1-0.6,0.8-4-1.1-7.4C358.3,1.8,357.2,1.3,356.9,1.1
			L356.9,1.1z"/>
		<path class="st1" d="M357.8,30.2L357.8,30.2c-0.2-0.7-0.6-1.8-0.5-3.1c0.3-4.3,4.8-8.2,9-8c2.6,0.1,5.1,1.9,5.3,2.1
			c0.5,0.3,0.8,0.6,1,0.9c-0.3,0.6-0.6,1.5-0.8,2.6c0,0.3,0,0.6,0,0.9c-0.4-0.5-1.4-1.9-3.1-2.4c-2.2-0.6-4.4,0.5-5.7,1.7
			c-1,1-0.9,1.6-3.1,5.4c-0.4,0.6-0.6,1-0.8,1.3L357.8,30.2L357.8,30.2z"/>
		<path class="st1" d="M354.1,24c-0.8,0.5-2.9,1.8-3.3,4c-0.4,2.5,1.5,4.5,4.1,7.2c0.4,0.5,4.9,5,6.4,4c0.5-0.3,0.6-1,0.6-1.7
			c-0.6-0.2-1.5-0.6-2.5-1.2c-3.5-2.2-4.7-5.7-4.9-6.4C353.6,27.4,353.9,25.2,354.1,24L354.1,24z"/>
		<path class="st1" d="M392.9,21.7c-2.8-1.5-4.1-1.5-4.8-1.5c-1.2,0-3.6,0.4-4,1.7c-0.4,1.5,1.9,3.9,4.3,4.8c1.7,0.5,3,0.2,3.3,1
			c0.2,0.4,0.1,0.9-1.1,2.5c-1.9,2.7-2.8,4-4,4.2c-2.3,0.4-4.4-1.7-5.2-3.1c-0.3-0.5-0.7-1.2-0.4-2c0.2-0.6,0.8-0.8,1.1-0.9
			c-1.8-0.6-2.5-0.3-2.8,0c-0.2,0.2-0.1,0.4-0.4,1.2c-0.3,1-0.5,1-0.7,1.6c-0.2,0.8-0.1,1.7,0.3,2.4c0.6,1.1,1.5,0.9,1.7,1.7
			c0.3,0.9-0.7,2.4-1.7,2.5c-1,0.1-1.3-1-3-1.8c-1.3-0.6-1.5-0.1-4-0.5c-2.6-0.4-3.1-1-5.5-1.1c-1,0-1.8,0-2.3,0.1
			c0,0.7,0.2,1.7,0.9,2.6c1.5,1.8,3.6,1,7.2,2.2c3.1,1.1,2.3,2,7.2,4.3c2.2,1.1,4.1,1.7,4,2.6c0,0.7-1.2,1.2-1.4,1.3
			c-1.8,0.8-2.9-0.7-4.8-0.2c-1.6,0.4-1.4,1.7-3.2,2.3c-1.8,0.7-4.4,0.3-5-0.9c-0.5-1.1,1.1-2.1,1.7-5.1c0.3-1.3,0.2-2.5,0.1-3.3
			c-0.8,0.1-2,0.4-3.1,1.3c-1.9,1.5-1.4,3.2-3.4,5.8c-0.7,0.9-1.7,2.3-3.6,3.2c-0.6,0.2-2.9,1.3-5.6,0.4c-3.4-1.2-4.6-4.4-4.8-4.9
			c-0.2,1-0.5,3,0.3,5.2c1.4,4.1,5.1,5.7,6,6.1c1.2,0.5,3.4,1.4,4.9,0.4c1-0.6,0.9-1.5,2.2-2.6c0.5-0.4,1.5-1.2,2.7-1.3
			c2.1-0.1,2.3,2.2,4.7,3.1c2.4,0.9,3.4-1,9.6-1.7c1.8-0.2,1.8,0,2.8-0.3c3.2-0.7,4.5-2.4,6.7-3.5c1.5-0.8,3.9-1.5,7.5-1.2
			c0.4-0.8,1-2,2.2-3.2c0.8-0.8,1.6-1.4,2.2-1.8c-0.3-0.2-1.5-0.8-1.9-2.2c-0.5-1.7,0.5-3.2,0.7-3.5c0.5-0.7,1-1,1.4-1.3
			c0.3-1.2,0.7-3.7,0-6.7c-0.2-0.8-0.9-3.3-3-5.8C397.5,24.1,395.7,23.2,392.9,21.7L392.9,21.7z"/>
		<path class="st1" d="M340,43.8c0.2,0.7,0.5,1.4,1,2.3c0.8,1.4,1.8,2.4,2.6,3c-0.9,0.1-2,0.1-2.8-0.6c-0.5-0.4-0.6-1-0.8-1
			c-0.3,0.1,0,2.3,0.1,2.6c0.3,2,0.5,3,0.9,3.5c1.1,1.4,2.5,0.9,4.5,2.6c0.7,0.6,1.1,1.1,1.4,1.5c-1.3,0.5-2.2,0.3-2.7,0.2
			c-1.5-0.5-2-2-3.7-2.3c-0.5-0.1-1,0-1.3,0c0.3,0.5,0.7,1.3,0.7,2.3c0,0.9-0.4,1.1-0.4,1.8c0.1,1.7,3,3.5,4.8,2.9
			c1-0.3,1.1-1.2,2.3-1.5c0.1,0,1.4-0.3,2,0.4c1,1,0.4,3.6-1,4.4c-0.9,0.6-1.7,0-2.9,0.7c-0.6,0.3-0.9,0.7-1.5,1.4
			c-1.7,2.1-3,3.6-4.5,4.5c-0.6,0.4-1.6,0.8-2.9,1c0.4,0.5,1,1.1,1.9,1.6c2.5,1.3,5.9,1,7.9-0.7c1.1-1,2.1-2.7,2.9-4.1
			c0.7-1.2,1-2,1.8-2.2c1.1-0.3,1.7,0.8,2.9,0.6c1.4-0.2,2.4-2.1,2.6-3.6c0.6-3-1.6-5.7-3-7.5c-2.4-3.1-3.6-2.7-4.8-5.1
			c-1.4-2.8-0.4-4.3-1.8-6.2C345.2,45,343.4,43.9,340,43.8L340,43.8z"/>
		<path class="st1" d="M327.7,54.8c-0.1,0.6-0.3,1.9,0.2,3.2c0.8,2.2,3.2,4.2,5,3.6c1-0.4,1.9-1.7,1.6-2.6c-0.3-1-1.6-1.1-4.1-2.4
			C329.2,55.9,328.2,55.3,327.7,54.8z"/>
		<path class="st1" d="M337.2,65.2c-1-0.1-1.5,0.5-2.7,0.9c-1.1,0.3-2.6,0.5-4.8-0.2c0.2,0.8,0.8,2.2,1.9,3.5c0.9,1,2.5,2.8,4.5,2.6
			c1.8-0.2,3.9-1.9,3.7-3.9C339.7,66.7,338.5,65.4,337.2,65.2L337.2,65.2z"/>
	</g>
	<g id="Layer_4">
		<path class="st1" d="M503.3,83.8c-2.5,4.2-6,11.4-7.3,20.9c-1.2,8.6-0.2,15.8,0.8,20.3c-2-1.2-4.9-2.4-8.4-2.2
			c-3.2,0.2-4.1,1.4-8,2.1c-4.6,0.9-6.2-0.4-10.3-0.3c-6.3,0.2-12,4.2-12,4.2c-2.4,0.1-6.8,0.5-11.4,3c-2.7,1.5-4.7,3.2-6,4.6
			c0.1,0,2-0.6,2.8,0.4c0.8,0.9,0.1,2.4-0.2,3.2c-1.5,3.5-5.9,4.4-9,5.8c-10.5,4.8-14.4,19.1-15.9,24.8c-0.9,3.3-1.3,6.1-1.4,7.9
			c1,2.5,2,4.9,3,7.4c-2.1,0.4-5.1,0.6-8.3-0.6c-3.8-1.4-5.6-4.1-7.4-5.7c-2.9-2.8-8.4-5.4-19.7-4c-0.8-1-1.6-2-2.3-3
			c4.1-5,9-10.1,11.4-8.9c0.4,0.2,0.5,0.4,1.2,1.4c1.1,1.6,4.3,6.1,7,6c1.4-0.1,2.3-1.4,4-3.8c3.1-4.3,2.7-7.1,5.5-8.6
			c1.2-0.6,1.5-0.2,3-0.9c3-1.4,4.4-4.4,4.8-5.2c1.4-2.6,5.3-6.5,16.7-12.1c-0.4-2.7-0.3-4.9,0.5-6.4c2.4-3.9,13-8.7,25.9-13.8
			c-0.6-0.1-4.9-0.9-5.8-3.8c-0.7-2.3,1.1-4.6,3.8-7.8c2.4-2.9,3.9-4.7,6.2-5c2.5-0.3,3,1.4,7.4,2.6c2.1,0.6,5.4,1.5,8,0.2
			c3.1-1.5,3.6-5.4,4.6-8.2C487.9,94.3,491.9,88.7,503.3,83.8L503.3,83.8z"/>
		<path class="st1" d="M556.9,85.5c0.3,0.2,0.6,0.8,0.2,2.8c-3,3.3-7.2,8.7-10,16.3c-4.5,11.8-3.3,22.2-2.4,27.1c-1,0-2.4,0.1-3.6,1
			c-2,1.4-1.4,3.4-3,4.4c-1.8,1.1-3.5-0.6-6.8-0.2c-2.2,0.2-4,1.2-5,2c2.1-2.7,5-6.8,7.4-12.2c2.9-6.6,2.6-9.6,4.2-15.1
			C542.3,96.1,554.8,84.3,556.9,85.5L556.9,85.5z"/>
		<path class="st1" d="M569.1,128.6c0.2,0.9-6.7,1.4-12.4,6.7c-5.2,4.9-10.3,14.9-5.9,21.9c3.3,5.4,10.3,6.3,12.1,6.5
			c0.7,4.8,2.2,6.4,3.6,7c1.2,0.5,2,0,3.1,0.8c1.7,1.3,0.6,3.3,2.1,4.9c1.6,1.7,3.9,0.3,5.9,2.1c1.3,1.1,1.3,2.5,1.8,3.9
			c0.8,2.2,3.1,4.8,9.6,6.7c-3.2,1.2-5.2,0.9-6.5,0.3c-2.9-1.4-3.1-4.8-6.5-5.7c-1.5-0.4-1.7,0.2-3.1-0.3c-2.9-0.9-4-3.9-5.2-5.7
			c-1.5-2.4-4.7-5.1-11.9-6.5c0.1,0.9,0.2,1.9,0.3,2.8c-2.3-1.9-5.9-4.1-10.6-4.9c-1-0.2-1.6-0.2-8-0.3c-8.8-0.1-10.6-0.1-12.1-1.6
			c-1.4-1.4-2.5-4.1-1.3-5.9c1-1.6,3.6-2.3,6.2-1.3c-0.4-1.5-1.3-3.6-3.1-5.4c-3.2-3.3-6.6-2.9-10.6-5.7c-1.8-1.2-4-3.3-5.9-7.2
			c-1.7,0.4-3.6-0.2-4.6-1.6c-1.2-1.5-1.5-3.8-0.5-4.6c1.1-1,3.5,0.8,7.8,2.6c6.6,2.7,6.9,0.9,14.5,3.6c5.3,1.9,7,3.4,11.4,3.6
			c2.4,0.1,4.4-0.2,5.7-0.5c0.9-2.9,3.5-10.2,10.6-14.2C561.7,127.2,568.9,127.6,569.1,128.6L569.1,128.6z"/>
		<path class="st1" d="M362.2,183.2c0.9,0.5,0.5,2.8,0,4.9c-1.3,0.9-10.2,7.9-10.9,20.3c-0.6,11.3,6.2,18.8,7.4,20
			c-2,5.6-2.5,10.3-2.6,13.7c-0.1,3,0.2,6.6-0.9,6.9c-0.9,0.2-1.5-2.1-4-3.4c-2.6-1.3-4.2,0-7.1-0.6c-2.9-0.6-4.7-2.5-7.1-5.1
			c-1.3-1.4-4.7-5.1-6-11.2c-0.9-4.2-0.5-7.9,0-10c2.5-5.9,5.3-10.3,7.4-13.2c2.3-3.1,2.9-3.2,12.6-12.9
			C358.3,185.5,361,182.5,362.2,183.2L362.2,183.2z"/>
		<path class="st1" d="M362.8,249c0.1,5.6,0.6,9.3,0.8,14.9c1.6-0.2,9.7,7.1,13.3,7.9s7-1.1,11.3-1.5c2.4-0.2,6.6,2.1,8.3,1.9
			c6.5-1.2,14.2-2.1,22.8-2.1c16.3,0,29.9,3.3,39.5,6.6c4-5.4,7.7-9.9,10.7-13.5c14.6-17.3,18.7-17.6,20.9-18.2
			c3.6-0.9,6.3-1.2,12.9-2.1c1.4-0.2,6.6-0.4,11.8,0s8-8.3,14-12c9.9-6.1,13.5-6.3,22.9-5.6c10.8,0.7,10.1-12.9,20.6-16.4
			c2.9-1,7.9-0.1,11.7,1c1.8,0.6,6.6,2.7,10.8,10.6c2.3,4.3,5.2,5.6,8.5,6.6c2.7,0.8,5.1,0.6,6.8,0.3V207c-3.9,0-8.2-0.2-12.8-0.6
			c-10.3-1-11.7-2.6-16.6-2.8c-13.1-0.7-14.8,9-31.5,11.7c-9.6,1.5-11.2-1.4-19.6,0.9c-9,2.4-16.1,9.4-19.9,12.7
			c-5.9,5.3-6.2,7.1-10.8,9.7c-5.6,3.1-9.1,2.6-16,4.1c-9.5,2.1-10.4,4.9-22,9.7c-9.8,4-17.4,7.2-27.6,7.1
			c-5.7,0-18.3-1.2-29.6-10.1c-4.9-3.9-8-8.1-9.9-11c-0.5,2.5-1.8,3.4-2.2,3.7c-2.5,1.6-7.1,0.4-10.4-3.9c-0.8-0.2-2-0.4-2.6,0.2
			c-1,0.9,0.2,2.9,0,5.4c-0.2,2.8-2.3,5.4-4.5,6.7C371.2,252.1,366.1,251.7,362.8,249L362.8,249z"/>
		<path class="st1" d="M221,223.6c-6.5-1.2-11.7,2.5-12.1,2.8c-4.2,3.1-8.4,7.7-8.8,9.1c1.9,1.5,7.3,3.5,9.3,7
			c2.3,4,2.1,6.4,4.2,7.4c2.9,1.3,5.4-2,9.9-2.5c3-0.4,7.5,0.4,13.6,6.2c3.7,1.9,9.3,4.3,16.4,5.7c8.6,1.6,12,0.2,20.9,0.3
			c4.3,0.1,3.6,0.4,33.4,6.2c13.9,2.7,19,3.6,24.6,1.1c1.9-0.8,4.4-2.3,8.5-2.8c5.1-0.7,9.5,0.5,12.4,1.7c-1.1-1.5-2.9-3.7-5.6-5.6
			c-5.2-3.7-9.1-3.1-13.3-5.6c-2.8-1.7-6.2-4.9-8.5-12.1c-0.3,0.1-3.1,1.3-5.7-0.3c-1.8-1-2.5-2.6-2.7-3.2c1,0.5,2.3,1.1,3.9,1.5
			c0.8,0.2,1.8-0.1,2.5-0.1c-0.1-0.9-0.5-1.7-0.5-2.7c-1.1-0.4-2.3-0.6-3.6-1.4c-1.9-1.2-2.2-2.4-3.5-2.7c-1.7-0.4-3.2,0.9-4.7,1.9
			c-3.3,2.2-6.8,2.2-10.8,2.3c-5.8,0.1-7.9-3.6-15.3-7.4c-3.6-1.9-11.4-5.8-19.6-5.1c-11.7,1.1-14.4,10.7-23.5,9
			c-3.3-0.6-6.6-2.6-12.2-5.9C225.1,225.5,224.1,224.3,221,223.6L221,223.6z"/>
		<path class="st1" d="M464.4,324.3c4.4-1.5,11.5-3.5,20.2-4c8.6-0.4,15.4,0.8,28.2,3.2c12.4,2.3,16.4,3.9,25.5,4
			c5.8,0,10.5-0.5,13.7-1.1l4.9,4.3c7.9,0.6,13.8,2.2,17.7,3.5c9.4,3.2,13.6,7,24.5,10.4c4.8,1.4,8.8,2.1,11.2,2.5v13.9
			c-1.5-1.3-4-3.2-7.4-4.3c-3.6-1.2-5.8-0.7-10.1-1.3c-5.6-0.7-7.3-2.2-11.1-3c-6.7-1.5-10.4,1-20.5,3.5
			c-13.5,3.5-20.2,5.2-26.8,2.8c-9.3-3.4-6.7-10.6-18.9-18.9c-10.2-6.9-21.3-8.3-26-8.8c-6.5-0.8-12-0.5-15.9,0
			c2.1-0.7,5.2-1.7,9.2-2.5c1.8-0.4,2.2-0.4,2.2-0.5c0-0.5-11.5-1.9-22.7,2.8c-1,0.4-1.9,0.9-2.5,1.1c1.6-1.6,3.7-3.4,6.6-5
			c7.5-4,14.8-3.5,18-3.1c-2.4-0.6-5.6-1.3-9.5-1.2C470.6,322.7,466.9,323.5,464.4,324.3L464.4,324.3z"/>
		<path class="st1" d="M202.6,318.7c-2.8-0.1-6.8-0.1-11.3,1.2c-4,1.1-5.6,2.3-9.2,3.7c-5.3,2.1-9.5,2.6-16.8,3.3
			c-6.2,0.6-12.3,2.5-18.6,2.9c-0.6,0-2.2,0.1-2.7,1.2c-0.7,1.3,0.8,3.3,1,3.5c2.4,3.2,7.6,3.3,9.8,3.3c9.8,0,16.8-1.4,22.3-2
			c8.7-0.9,25-2.6,32.3,5.5c1.5,1.7,3.8,5,8.2,6.5c2.1,0.7,3.7,0.6,6.8,0.6c2.4,0,9.7-0.1,13.3,0.4c9.3,1.2,15.9,9,19.8,13.5
			c4.9,5.8,4,7.5,8.4,11.3c6.6,5.9,14.4,7.2,16.2,7.4c12.4,1.8,22.9-4.8,31.7-10.4c7.4-4.7,7.6-6.4,14.8-10.4
			c7.9-4.3,15.1-6.3,20.1-7.3c-7.5,0.3-13.8-0.1-18.4-0.5c-6.6-0.7-10-1-14.1-2.7c-3.9-1.6-11.3-4.5-13.5-8.5
			c-0.3-0.5-1.1-2.2-2.7-2.5c-0.7-0.1-1.6-0.1-2.1,0.5c-0.8,1,0.1,2.8,0.7,4.1c0.6,1.2,1.6,3,3.7,4.8c-7-2.9-12.8-4-16.9-4.5
			c-3.2-0.4-9.7-0.8-18.2-2.5c-1.6-0.3-2.9-0.6-4.5-1.2c-2-0.8-9.1-3.7-10.2-9.6c-0.2-1-0.4-3.5,1.4-6.8c-0.6-1.4-1.3-2.7-2-4.1
			c-0.9,0.3-2.2,0.9-3.6,2c-1.8,1.4-2,2.3-3,3c-2.5,1.7-7.4,0.6-9.6-2c-2.9-3.3-2.3-10.3,3.2-15.1c-1.6,0.2-4,0.6-6.2,2.1
			c-3.1,2.1-3.4,4.3-6.1,6.2c-2,1.4-3.9,1.6-8.6,2C212.5,318.2,207.3,318.5,202.6,318.7L202.6,318.7z"/>
		<path class="st1" d="M76.2,424.2c1.6,1,4.1,3,4.3,5.6c0.2,2.3-1.4,4-3.3,6.2c-1.8,2.2-6.4,7.9-8,12.9c-1.4,4.5-1,10.3,2,14.9
			c4.4,6.9,12.4,8,13.9,8.2c5.1,0.7,5.7-1.2,12.9-1.5c4.8-0.2,10.9-0.4,16.9,2.8c2.4,1.3,7.2,4.3,14.2,7.7c0.9,0.4,2.1,1,3.1,0.5
			c2.4-1.2,0.4-6.8,3.1-12.6c1.1-2.5,2.8-4.2,3.8-5.1c-0.6-1.2-1.2-3.1-1-5.2c0.4-3,2.2-4.7,5.2-8.2c3.9-4.6,3.3-4.7,6.2-8
			c3-3.4,12.7-14.5,28.3-18.5c1.1-0.3,4.8,0.7,8-1.3c1.2-0.8,2-1.6,2.5-2.3c7-2.6,12.9-3.7,16.9-4.3c5.1-0.7,10.9-0.9,22.4-1.1
			c9.8-0.2,11.9-0.1,15.2-1.5c5.9-2.5,9.4-7.2,11.4-10.5c-9.3,4.1-16.4,4.1-21.2,3.4c-3.6-0.6-4.1-1.3-7.9-1.7
			c-7.9-0.7-12.5,2-19.5,3.8c-7.5,1.8-11.1-1.5-19.3,0.9c-1.6,0.5-3.8,2.6-4.7,3l-0.2,3.8c-4.4,1.2-8.5,3.4-8.5,3.4
			c-8.8,1.6-15.6,0.2-19.6,0.1c-17.9-0.8-19,1-21,1.8c-2.3,0.9-11.3,4.8-12.8,5.4c-1.3,0.5-2.3,1-3,1.3c0,1.5-0.2,3.1-1.3,4.1
			c-1.3,1.3-2.7,0.5-4.3,1.9c-1.7,1.5-1.2,3.2-2.6,3.9c-1.5,0.7-3.4-0.3-4.1-0.8c-3.4-1.9-3.3-4.9-6-5.8c-0.8-0.3-2-0.4-3.8,0.2
			c2,1.4,3.2,2.8,2.8,3.6c-0.4,0.9-2.9,0.6-3.8,0.6c-1.2-0.1-4.2-0.5-6.6-2.8c-2.7-2.7-1.5-5.1-3.8-7.1
			C82.2,424.8,80.2,423.8,76.2,424.2L76.2,424.2z"/>
		<path class="st1" d="M154.6,525.8c3.4,5.1,15.8,16.7,24.3,23.7c17.9,14.7,37.9,17.2,46.6,18.7c21.5,3.6,39-0.4,47.8-2.4
			c18.9-4.5,20.5-9.2,38.8-11.5c17.4-2.2,19.8-0.1,30-3.1c16.5-4.9,17-9.8,25.8-15c3.4-2,7.3-2.7,7.7-2.8c7-2.3,13-3.5,17.5-4.3
			c-0.1-2.2,0.1-5.2,0-7.4c-3.1-0.3-5.9-0.5-11.6-0.1c-8.9,0.6-11.4,1.7-19.6,3.2c-4.6,0.8-14,3-25,3c-27.8-0.1-34.4-1.2-36.5-2.7
			c-3-2.1-5.8-7.9-12.5-17c-0.9,2.3-2,5.8-4.7,9.1c-7.1,8.7-16,10.9-19.2,11.7c-20,4.8-37.6-11.5-40.6-13.2
			c1.7,3.4,6.2,10.5,12.4,15.5c7.4,6,15,8,18.8,8.7c-4.9,1.1-11.5,2.3-19.4,2.9c-7.7,0.6-28.2,1.5-53.1-6.1
			C177,535,162.2,529.4,154.6,525.8L154.6,525.8z"/>
		<path class="st1" d="M408.2,542.3c1.2,2.4,3.3,6.2,7.1,9.8c4.8,4.6,9.8,6.5,13,7.7c34.9,12.8,53.4,13.5,53.4,13.5
			c19.9,0.8,42.3-2.9,58.2-8.8c3-1.1,10.2-4,20.3-5.5c9-1.3,16.6-1,21.8-0.6c2.5-1.8,7.3-4.8,14.1-6c6.2-1.1,11.2-0.3,14.1,0.4v-7.7
			c-2.9,0.1-8-1.4-14.3-5.1c-10.4-6.2-14-15.7-14.5-17.8c-1.3,2.2-3.5,5.4-7,8.5c-6.6,5.8-13.9,7.8-22.9,10.2c-9,2.3-8.3,1-16.2,3.2
			c-13.1,3.6-13.7,6.8-20.7,6.8c-10.6,0-18-7.5-19.2-8.6c-5.6-5.7-7.2-12.2-7.7-14.8c-0.4,2.2-1.3,5.8-3.8,9.2
			c-3.7,5.3-8.8,7.3-13,9c-6.9,2.8-13.3,3.2-17.9,3c0.2-0.6,0.8-2.6-0.1-4.8c-0.2-0.6-1-2.4-2.9-3.4c-0.8-0.4-2-1.1-3-0.7
			c-1.5,0.5-1.3,2.3-2.9,4c-0.4,0.4-1.4,1.3-4.1,1.9c-8.7,2.2-19.3,0.3-19.3,0.3C417.8,545.2,413.4,544.2,408.2,542.3L408.2,542.3z"
			/>
		<path class="st1" d="M152.2,242.4c0,0.1,1.5,1,2.9,3.1c0.8,1.1,1.5,2.2,1.1,3.3c-0.4,1.1-2.2,1.8-3.1,2c0,0.5,0,1.4,0.2,2.3
			c0.3,1.1,0.8,1.4,0.9,2.2c0.3,1.1,0.1,3-1.3,3.8c-1.5,0.8-3.7-0.2-3.9-1.3c-0.1-0.5,0.2-0.8,0.3-2c0.1-0.7,0.1-1.3,0-1.7
			c-0.9,0.3-1.5,0.8-1.9,1.1c-0.5,0.4-0.6,0.7-1.8,2.3c-0.8,1.1-0.9,1.5-1.4,1.6c-0.3,0.1-1.2,0.2-2.8-1.5c-0.1,0.5-0.3,1.8,0.4,2.8
			c1.2,1.8,4.5,1.9,5.8,0.6c0.4-0.4,0.5-0.9,1.1-1c0.2,0,0.6,0,1.6,1c1.3,1.3,1.1,1.8,1.7,2c1,0.5,2.5-0.5,4.1-1.6
			c0.5-0.3,1.5-1,2.2-1.8c2.3-2.5,3-7.2,1.4-10.9C157.7,244,152.3,242.3,152.2,242.4L152.2,242.4z"/>
	</g>
	<g id="Layer_5">
		<path class="st2" d="M329.3,215.3c-2.9,3.9-4.5,7.4-5.5,9.9c-0.9,2.4-1.7,4.3-1.8,6.9c-0.2,3.6,1,6.5,1.8,8.2
			c-0.8,0.1-2.2,0.1-3.8-0.6c-1-0.4-2.3-0.9-2.8-1.4c0.3,1.2,0.6,2.1,1,2.5c1.5,1.6,3.1,1.4,5.6,2.9c1,0.6,2.6,0.5,2.8,1.6
			c0.9,3.9,3.5,5.8,5,8.1c2.5,3.8,6.3,2.2,13.2,5.8c0.9,0.4,6.4,3.3,9.7,7.8c6.2,8.3,3.4,19.7,2.5,22.8c1.9,1.8,3.5,3.8,5.5,5.5
			c0.6,0.5,2.4,2.6,3,3.1c0.7-4.1,0.7-12,0.5-19.5c-0.3-9.3-1.9-13.7-2.6-22.2c-0.5-5.6-0.6-13.6,1.1-23.7c-2-2.1-3.6-2.5-5.6-4.6
			c-0.4,1.6-2.1,8-2.4,11.1c-0.7,7.7-0.1,5.9-0.3,8.4c0,0.9-0.9-0.5-2.5-1.2c-2.7-1.2-2.7-2.4-4.5-2.4c-1.4,0-2.4,0.7-3.8,0.7
			c-1.6,0-2.8-0.6-5.1-2.1c-1-0.6-1.8-1.9-2.4-2.8c-1.9-2.6-3.5-3.8-4.5-7.1c-0.3-0.9-2.7-4.3-2.5-10.1c0.1-2.9,0.5-5.4,0.9-7
			C330.9,215.6,330.1,215.4,329.3,215.3L329.3,215.3z"/>
		<path class="st2" d="M217.5,236.7c0.6,1.2,1.7,3.1,3.6,4.8c2,1.8,4,2.8,5.3,3.3c1.4-0.1,2.9-0.1,4.3-0.1c-1.5-0.8-3.2-1.9-5-3.3
			c-2.1-1.7-3.7-3.5-4.8-5C219.8,236.4,218.6,236.6,217.5,236.7L217.5,236.7z"/>
		<path class="st2" d="M235.7,245.3c-0.2,0.6-0.6,1.6-0.6,2.8c-0.1,1.4,0.3,2.6,0.5,3.3c0.8,0.9,1.6,2.2,2.3,3.7
			c1.3,2.8,1,5.7,1,7.4c0.8-0.2,2.9-0.2,4.6,0.1c1.5,0.3,2.5,0.6,3.2,0.9c-0.7-1.5-1.6-3.5-2.2-5.3c-1.1-2.8-0.9-3.6-1.9-5
			c-1.1-1.7-2-1.8-3.9-3.7C237.3,247.8,236.3,246.3,235.7,245.3L235.7,245.3z"/>
		<path class="st2" d="M553.9,335.7c8.8-7.3,16-12.3,21.2-15.6c3.2-2.1,6.4-4,11.2-7.5c4.1-3,8.7-6.7,11.4-8.9
			c1.9-1.5,3.5-2.8,4.6-3.7c-2.2,0.6-6.5,3.5-9.3,5.1c-4.5,2.6-5.7,3.5-7.9,5.5c1.8-1.6,3.6-5,5-9.1c1-3,1.3-5.6,1.5-7.7
			c-1.1,2.4-2.7,5.9-4.8,10.2c-2.1,4.4-3.3,6.7-5.8,8.7c-1.5,1.2-2.6,1.6-3.9,2.3c-4,2-5.8,3.9-12,9.3c-2.8,2.5-7,6.1-12.4,10.5
			C552.9,335,553.4,335.3,553.9,335.7L553.9,335.7z"/>
		<path class="st2" d="M361.8,174.8c0,4.7,0.1,9.4,0.1,14.1c0.7-0.9,1.9-2.2,3.7-3.2c0.8-0.4,1.5-0.8,2.2-1c0-0.5,0-1.3,0.2-2.2
			c0.6-1.9,2.1-2.9,2.9-3.5c1.5-1.1,3.4-2.8,5.4-5.6c0.5-0.8,0.4-1.9-0.4-2.6c-0.8-0.7-2-0.6-2.7,0.1c-1.1,1.7-2.3,3.3-3.4,5
			c-1.2,1.8-2.5,3.5-3.7,5.2c0-1.9-0.1-3.9-0.1-5.9c-0.2-1.3-1.4-2.2-2.4-2.1C362.8,173.2,362.1,173.9,361.8,174.8L361.8,174.8z"/>
		<path class="st2" d="M483.6,32.2c-1.1,3.7-2.2,8.4-2.7,13.8c-0.7,7.4,0,13.7,0.8,18.5c1.2,0.9,2.5,1.8,3.7,2.7
			c-0.3-3.1-0.6-6.2-0.8-9.4c-0.2-2.3-0.4-4.6-0.6-6.8c0.6-1,1.5-2.4,2.5-4.2c3.4-6.1,5.2-11.6,6.2-15.4c0.5-2.1,1.2-4.8,1.6-8.1
			c-1.4,2.8-2.7,5.7-4,8.8c-2,4.6-3.8,9-5.5,13.4c-0.3-1.4-0.5-3-0.7-4.8c-0.2-3.2,0.1-6,0.5-8.2C484.4,32.3,484,32.2,483.6,32.2
			L483.6,32.2z"/>
		<path class="st2" d="M110.1,415.8c-0.5,0.9-1.5,2.2-3.1,3.4c-3.2,2.3-6.7,2.1-7.7,2c0.4,0.1,1.7,0.6,2.5,2.1c0.6,1,0.6,2,0.6,2.4
			c6.2,0,13.4-0.6,21.1-2c3.4-0.6,6.6-1.3,9.6-2.1c0.1-0.1,0.9-0.5,1.8-0.3c0.7,0.2,1.2,0.8,1.4,1.3c0.4,1.1-0.6,2.4-1.4,3.3
			c-2.6,3-4.5,4.4-7.1,7c-2.2,2.1-3.3,3.5-4,5.5c-0.3,0.9-0.5,1.7-0.6,2.3c0.5-1,1.3-2.3,2.6-3.7c2.5-2.8,4.6-3.4,8.2-6.5
			c2-1.7,1.4-1.6,3.4-3.4c1.6-1.4,5.5-4.9,10.4-6.2c3.1-0.9,5.3-0.5,8.4-0.2c4.2,0.3,10.5,0.5,18.5-0.6c0.9-0.9,2.3-2,4.2-2.9
			c1-0.5,2-0.8,2.9-1l0.2-3.8c-3.6-0.6-6.5-0.9-8.4-1.1c-6.6-0.7-10-0.6-18.2-1.2c-3.5-0.3-4.3-0.7-6.6-0.6c-4,0.2-6.4,1.4-9.8,2.5
			c-4.2,1.4-7.4,1.9-13.8,2.9C121.4,415.1,116.3,415.7,110.1,415.8L110.1,415.8z"/>
		<path class="st2" d="M591.1,463.6c2.2-0.6,5.4-1.3,9.4-1.2c4.3,0.2,7.7,1.2,9.8,2.1v-9.6c-2.6,1.4-4.9,2.5-6.7,3.4
			c-2.8,1.3-6.6,3.1-11.3,4.9C591.8,463.4,591.3,463.5,591.1,463.6z"/>
		<path class="st2" d="M340.1,479.6c10.6,3.1,18.8,8.3,22.5,12.1c3.1,3.2,6.1,8.4,12.4,14.4c1.4,1.3,3.1,2.6,5.4,4
			c3.8,2.2,5.1,4.9,7.8,9.7c1.4,2.5,2,2.6,4,8.6c1.2,3.6,4.4,7.6,7.4,12.5c2.8,4.7,4.5,5.5,7.5,9.3c3.4,4.4,3.6,6.6,10.9,29.2
			c2.9,9.1,3.6,10.9,3.6,14.5c0,3,0,9.8-4.4,16.3c-5.2,7.7-13.2,10-15.5,10.6c-1.3-1.6-3.5-4.8-3.9-9.3c-0.2-2.3,0.2-4.1,0.3-4.5
			c0.8-3.1,2.4-5.2,3.4-6.3c-1.1,0.5-2.7,1.4-4.2,2.9c-0.8,0.8-1.4,1.5-1.8,2.2c-0.5-1.2-1.4-2.8-2.9-4.2c-4.7-4.4-11.4-3.2-12.4-3
			c0.7,0.2,1.7,0.5,2.8,1.1c6.2,3,8.8,9,9.6,10.8c0.9,2.1,4.4,10.2,1,17.1c-1.8,3.5-3.5,3-9.5,8.5c-4.8,4.4-9.9,9.1-11.6,15.9
			c-0.6,2.3-0.2,5.9,0.6,12.9c1.1,10.6,2.5,13,1.7,18.2c-0.7,4.5-3.6,8.8-5.5,11.6c0,5.9-3.7,10.6,3.1,21.3c2.6,4,1.7,10.5,0.7,12.5
			c0,0,8.6-6.2,8.5-13.9c2-7.8,2.9-11,4.3-15.9c0.8-2.8,0.6-6.6,14.8-18.6c16-13.5,18-11.9,25.5-20.5c5-5.6,4.5-6.8,12.8-16.7
			c7.3-8.8,8.8-9.2,12-13.8c7-10.1,8.5-20.5,9-24.7c2.4-17.7-3.9-31.5-6.6-36.9c-3.5-0.5-8-2.2-12.6-3.6c-6.9-2.1-11.4-3.8-12.9-4.6
			c-5.9-3.2-12.3-5.2-19.4-16.8c-3.1-4.9-8.8-14-10.5-17.7c-1.2-2.6-4-9.6-4.2-11c-1.3-7.7-4.2-19.1,1.7-36c0,0-16.2,1-22.9,0.1
			c-3.3-0.4-8.4-2.8-16.8-2.8C349.8,474.9,340.6,479,340.1,479.6L340.1,479.6z"/>
		<path class="st2" d="M222,567.6c2.6,2.2,6.2,5.7,9.1,10.8c4.9,8.5,5.3,16.6,5.8,29.4c1.1,28.2,0.6,26.9,1,30.4
			c0.4,3.4,4,33,24.5,47.7c18.2,13,37.4,5.5,53.9,24.3c2.1,2.4,3.5,4.5,4.5,5.9c-3.4,1-7.5,2.8-11.5,5.9c-0.8,0.7-1.6,1.3-2.3,2
			c1.9,0.6,4.2,1.6,4.9,3.6c1.1,2.9-1.6,6.1-3.8,9.4c-1.8,2.6-10.6,15.8-8.6,27.4c0.7,4.3,2.2,4.1,3.5,10.6
			c1.3,6.5,0.2,8.8,1.8,12.4c2.2,5.1,7.5,7.4,11.1,8.9c32.9,13,75.4,21.2,75.4,21.2c44.9,8.7,61.3,17.6,66.1,20.3
			c15.1,8.6,25.1,17.9,27.2,19.9c10.3,9.9,8.3,11.6,15.8,16.6c5.8,3.8,8.9,4.1,11.8,8.5c3.2,4.9,3.5,11,3.7,15.8
			c0.2,4.5-0.3,5.8-0.4,9.3c-0.3,12.3,5.3,16.8,5.7,25.2c0.4,8.8-5.2,15.6-10.5,21.9c-10.8,12.8-28.6,25-82.7,41.2
			c-20.6,6.2-21.8,5.5-44,12.2c-25.5,7.6-46,15.1-59.6,20.3c0.8,3.8,2.5,9.3,6.8,14.2c13.4,15.7,39.6,12.2,44.7,11.5
			c12.4-1.7,13.7-5.2,29.1-7.4c10.5-1.5,19.3-1.2,25.1-0.7c2.2,3.7,5.2,8,9.5,12.2c1.7,1.7,15.7,15,33.2,16.3
			c21.6,1.5,24.9-17.1,54.2-20.3c5.3-0.6,24.4-2.7,30.5,6.8c3.5,5.4,1.1,12.3,6.8,18.3c3.8,4.1,8.6,5.1,10.2,5.4
			c8.8,1.8,12.5-8,24.4-10.2c4.7-0.8,8.7-0.3,11.5,0.3V552.9c-2.9-0.7-8-1.5-14.1-0.4c-6.8,1.2-11.6,4.2-14.1,6
			c1,7.9,1.2,14.6,1.2,19.4c-0.1,21.1-4.5,21.5-7.5,45.7c-0.4,3-1.2,10.4-4.4,11.2c-0.9,0.2-2-0.1-2.8-0.7c-1.9-1.6-1.1-5.3-0.9-6.5
			c0.9-5.4-0.8-10.3-3.5-17.9c-3.3-9.5-7.6-10.4-11-21.7c-1-3.2-0.6-3.2-1.4-5.1c-3.2-7.6-9.2-9.3-9.8-15.4c-0.1-1-0.1-2.3,0.3-3.8
			c-3.7,1.5-7.8,2.8-12.3,4.1c-8.4,2.3-16.1,3.4-22.6,3.9c5.3,4.8,9,9.5,11.3,12.9c4.4,6.5,9.2,13.5,8.7,22.7
			c-0.1,1.9-0.4,3.5-0.7,4.5c1.4,1.9,3.4,4.7,5.1,8.4c2.2,4.6,3.5,9.2,4.8,17.3c1,6.2,1.9,14.6,2.1,24.8c-4,4.1-7.9,8.2-11.8,12.3
			c0.2,1.8,0.3,3.5,0.5,5.3c-7.1,3.9-11.4,8.4-13.8,11.3c-16.4,20-10.9,49-6.8,57.4c2.2,4.7,3.3,10,6.6,14c0.8,1,2.4,2.8,2.2,5
			c-0.2,3-3.2,5-3.9,5.4c-4.6,3-7.8,0.5-14,1.5c-10.8,1.8-22.9,13.3-24.2,14.5c-0.6,0.6-2.1,2.1-3.9,1.9c-2.4-0.3-3.4-3.3-5.2-5.8
			c-2.8-3.6-6.5-4.6-11.9-6.3c-15.1-4.9-14.9-7-37.4-14.1c-5.1-1.6-9.8-3-15.7-4.2c-5.9-1.2-25.5-36.3-36.3-55.3
			c-4.1-7.1-11.3-17-24.7-26.4c-2.3-4.1-3.1-7.7-3.5-10.4c-0.5-3.7,0-6.1,1.2-14.9c0.6-4.6,1.1-8.4,1.4-11c-0.9,1-1.8,2.3-2.6,3.9
			c-2.2,4-2.7,7.9-2.8,10.4c-1.2-1-2.5-2.1-3.8-3.4c-2.8-2.8-4.8-5.7-6.1-8c0.4,1.8,1.2,5,3.5,8.2c1.9,2.6,4,4.3,5.4,5.3
			c-0.4,2.5-0.7,5.7-0.4,9.3c0.2,3.2,0.8,6,1.4,8.3c-16.5,0.5-27.6-4-33.8-7.3c-25.6-13.5-43.7-47-43.8-68.3
			c0-3.2,0.4-13.2-5.6-22.7c-2.7-4.2-5.8-7.1-7.8-8.7c-3.4-0.1-7.2-0.3-11.1-0.8C227.2,568.4,224.5,568,222,567.6L222,567.6z"/>
		<path class="st2" d="M139.7,232.8c-0.5,0.5,1.1,3.1,2.8,5.7c0.9,1.4,1.7,2.6,2.3,3.4c1.6-0.2,4.9-0.5,8.4,1.2
			c1,0.5,6.3,3.1,6.4,7.5c0,1.6-0.6,2.8-1.1,3.6c-0.4,1.8-0.7,4.9,0.6,8.3c0.7,1.9,1.7,3.2,2.8,4.4c4.8,5.5,13.6,11.4,16.4,13
			c0.8-1.3,1.7-3.5,2.4-5.2c0.9-2,1.1-3.1,1.9-4.6c-2.6-1.5-7.9-4.6-11-9.4c-4.4-6.5-4.9-13-5-15.9c-0.3-4.8,0.5-8.6,1.2-11.1
			c-0.6,0.2-2,0.5-3.6,0c-0.9-0.3-1.6-0.7-2-1.1c-0.1,1.4-0.4,3.5-0.8,5.9c-0.7,4.3-1.1,4.8-1.6,4.9c-0.9,0.2-1.7-1.5-4-4
			c-1.6-1.8-3.1-3.1-4.1-3.8c-0.2,0.3-0.7,0.8-1.4,1.1C146.2,238.4,140.5,232,139.7,232.8L139.7,232.8z"/>
		<path class="st2" d="M344.4,55.5c0.2-0.7-4.6-1.5-6.2-4.5c-1-1.9-0.9-5.1,3.3-11.1c2.1,1.8,4.3,3.6,6.5,5.5c0.3,0.3,0.7,0.5,1,0.8
			c-0.1-0.5-0.1-1.7,0.5-3c0.4-1,1.1-1.7,1.5-2c-0.6-0.6-1.4-1.4-2-2.5c-1.8-3.4-0.5-7-0.2-7.7c-0.6-0.3-1.4-0.8-2.2-1.5
			c-1.1-0.9-1.7-1.9-2.1-2.6c0.2,3.4,0.4,6.8,0.5,10.3c-0.9-0.3-1.9-0.8-3-1.5c-1-0.6-1.9-1.2-2.5-1.8l-1.4,1.5
			c0.8,0.5,1.7,1.2,1.6,2c-0.1,1-1.6,1.2-2.7,2.1c-1.8,1.5-1.8,3.8-2.1,10c-0.1,1.8-0.3,4.6-0.5,8.1c0.4-0.5,0.9-1.2,1.2-2.2
			c0.4-1.1,0.4-2.1,0.4-2.7c0.2,1.2,0.4,2.9,0.1,4.8c-0.1,0.7-0.3,1.3-0.5,1.8c0.5-0.4,1.2-1.1,1.7-2.2c0.9-1.9,0.5-3.6,0.4-4.2
			c0.4,0.6,1.4,1.7,3,2.4C342.2,55.7,344.2,55.9,344.4,55.5z"/>
		<path class="st2" d="M333.6,14.6c-0.2,0.5,1,1.9,2.6,2.3c0.4,0.1,0.8,0.1,1,0.1c-0.1-0.4-0.1-0.8-0.2-1.1
			c-0.7-0.5-1.4-1.1-2.1-1.6C333.9,14.3,333.6,14.4,333.6,14.6L333.6,14.6z"/>
		<path class="st2" d="M341.3,22.1c0.1,0.6,0.3,1.5,0.9,2.4c0.8,1.4,2.1,2.4,2.3,2.3c0.1-0.1-0.5-0.8-0.8-1.9c-0.2-1,0-1.8,0.1-2.4
			C343,22.3,342.1,22.2,341.3,22.1z"/>
		<path class="st2" d="M349.3,17c-0.3,0-0.2,0.9-1.1,2.2c-1,1.5-1.9,1.7-2.3,3c-0.2,0.7-0.1,1.4,0,1.8c0.3-0.1,1.2-0.4,2.3,0
			c0.9,0.3,1.4,0.9,1.5,1.2c0.1-0.7,0.2-1.8,0.2-3.1C350,19.9,349.8,17,349.3,17L349.3,17z"/>
		<path class="st2" d="M356.4,57.6c0.3,0.2,2,1,4,0.3c1.7-0.6,2.5-2,2.7-2.3c1.7,1.6,3.5,3.4,5.3,5.6c1.3,1.5,2.5,3.1,3.5,4.5
			c-2.3,0.6-4.7,1.2-7,1.8c-0.6-1.3-2.7-3.2-4-4.9C358.9,59.9,358,58.6,356.4,57.6L356.4,57.6z"/>
	</g>
	<g id="Layer_6">
		<path class="st3" d="M440.7,564.5c1.6,2.5,3.8,6.3,5.2,11.5c3.4,12.2,1.2,27.5-7.2,38.1c-7.5,9.4-14.7,8.8-24.4,20.6
			c-2.6,3.2-6.2,8.2-7,15.2c-0.2,2.1-0.1,3.8,0,4.9c2.7,1,6.4,1.8,9.9,0.3c2.9-1.3,3.9-3.5,6.7-6.5c2.1-2.4,5.5-5.4,10.7-8
			c-1.2,5.2-3.6,12.5-9.3,19c-3.8,4.4-5.7,4.5-13.8,10.4c-12,8.7-21.3,15.4-26,26.5c-2.7,6.3-4.1,9.5-4.5,13.8
			c-0.5,4.6,0.1,9.3-3.2,12.5c-1,1-2.2,1.6-3,1.9c-0.3-3.4-1-6-1.5-7.7c-2.3-7.7-6.1-11.5-4.3-14.8c0.6-1.2,1.8-1.9,2-3.8
			c0.1-1.4-0.4-2.7-0.8-3.5c-1.2-1.9-3.2-4.4-6.3-6c-3.1-1.6-5.6-1.5-8.1-1.8c-8.9-0.9-15.8-5.5-19.5-8.1c-6.9-4.7-5.2-6.6-11.3-9.8
			c-7.6-4-15.1-4.2-15.1-4.2c-5-0.1-7.9,1-11.1-1.1c-2.2-1.4-1.8-2.5-4.5-4.3c-3.3-2.1-5.5-1.6-6.8-3.8c-0.9-1.5-0.1-2.3-0.9-4.2
			c-1.2-2.7-4.1-3.7-5.1-4.2c-4.8-2.1-7.7-9.8-10.2-18.1c-4.2-14.1-5.4-24.4-7.3-34.3c-1.3-6.8-3.7-16.8-8.2-28.9
			c-1.1-0.7-4.5-2.5-9-2.1c-3.1,0.3-5.3,1.5-6.5,2.3c0.8,3.8,2.2,9.2,5,15.5c1.9,4.4,3.1,5.8,4,9c2.3,7.8,0.1,14.4-0.6,17.6
			c-2.7,11.8,4.2,23.6,12.1,37.2c6.7,11.5,18.2,31.2,36.5,35.2c5.3,1.2,10.7,0.9,18.3,4.9c6.8,3.6,8.5,7.1,14.4,9.1
			c6.1,2.2,12.5,1.3,18.3-0.7c2.2,1.2,5.8,3.6,8.1,7.8c1.1,2,1.6,3.9,2,5.5c0.8,3.7,1.8,10.2,1.6,19.6c-2.3,6.9,6.5,11.8,5.6,15.9
			c-1.3,5.3-2,5-2,12.5c0,4.7-2.1,5.5-1.3,9.5c0.8,4.3,3.9,7,5.5,8.5c5.4,4.8-6.7,9.9-4,10c-7.2,3.5,17.5-1.7,18.4,0.4
			c1.4,3.3,5.5,5,7.8,3.9c2.1-1,1.6-3.7,3.3-4.6c3-1.5,8.8,4.7,11.4,7.2c11,10.5,18.1,4.7,45.2,16.6c11.8,5.2,12.8,7.3,19.2,7.8
			c1.1,0.1,18.3,1,27.7-12.2c3.8-5.3,4.9-10.9,5.2-14c1.9,0.9,4.9,1.9,8.5,2.2c5.1,0.5,9.1-0.7,11.4-1.5c-0.9,3.1-4.3,15.6-5.5,23.9
			c-0.2,1.3-0.3,2.6,0.3,4c1.9,4,8.1,2.7,9.8,6.4c1,2.3-0.9,3.6,0.3,6.1c1.1,2.3,4,3.7,6.4,3.7c3.8,0,6.9,6.8,9.8,18.3
			c3.9,15.4,12.3,25.5,16.8,30.2c-2.9-14.6-4.2-26.9-4.9-35.7c-1.7-23.2-0.2-40.8-7.9-43.9c-1.9-0.8-3.8-0.4-5.2,0
			c0.1-3.8,0.4-9.7,1.8-16.8c6.1-30,24.9-43.9,18.9-58.2c-2.2-5.2-5.4-5.3-7.1-11.8c-1.5-5.8,0.2-9,0-20.1c-0.1-4.6-0.4-6.4-0.7-10
			c-0.5-6.7-0.4-16.4,2.1-29.1c-3.3,11.9-8.2,19.4-12.3,24.1c-2.8,3.3-5.8,5.9-10,11.5c-4.1,5.5-6.7,10.5-8.4,13.9
			c-0.7-1-2,12-4.8,17.1c-5,9.9,2.7,6.5,3.5,11.6c2.1,13.7-7.8,18-9.2,31.1c-0.4,3.5-1.5,5.8-3.2,7.3c-3.5,3.3-9,2.5-11,2.4
			c-6.1-0.5-15.5,2.1-29.6,15.7c-2.4,0.1-5.9-0.2-8.3-2.4c-2.9-2.7-1.7-5.6-4.6-7.9c-2.8-2.3-5.3-0.5-10.2-2.3
			c-4.2-1.5-6.6-4.3-7.6-5.3c-3.7-3.6-31.5-8.8-34.4-21.5c-3.9-7.7,11.8-14.8,12.7-20.1c0.7-4.1-1.7-5.4-5.1-14.2
			c-1.5-4-3.9-10.1-4.5-17.6c-0.4-5.2-1-12.1,2.8-18.5c2.9-5.1,5.1-3.9,11.5-10.8c5.8-6.3,9-12.7,10.9-16.7c3.2-6.7,2.2-6.9,5-12.6
			c4.3-8.5,7.8-10.4,12.1-17.2c5.8-9.1,7.3-17.9,7.8-21.2c2.5-15.4-2.5-28.4-5.8-35.1C449.4,566.6,445,565.5,440.7,564.5
			L440.7,564.5z"/>
		<path class="st3" d="M531.2,567.2c-1.1,0.8,4.9,7.6,9.8,19.9c1,2.6,11.8,29.8,6.7,42.5c-0.5,1.1-2.2,4.9-0.7,8.3
			c0.6,1.4,1.2,1.5,3.8,4.2c4.1,4.4,4.3,1.1,6.3,1.7c3.3,1,2-8.1,7.9-9.1c12.4,3.4,4-10.4,2-19.9c-1.8-8.5-5.2-8.4-8.3-14.8
			c-5-10.2-6.4-18.5-10.4-23.1C543.8,571.9,532.3,566.4,531.2,567.2L531.2,567.2z"/>
		<path class="st3" d="M610.3,552.8c-1.4,3.7-3.2,9.2-4.2,16.2c-1.8,13,0.6,22.1,1.6,28.7c2.2,14.8-2.9,29.7-13.1,59.5
			c-3.1,9.2-7.9,21.7-14.8,36.2c2.1,2.6,4.6,6.7,5.4,12c1.1,7.1-2.1,9.5-2.9,16.3c-1.5,12.8,8.2,16.5,10.1,34
			c0.6,5.8,0.1,10-0.6,15.5c-2.5,19.1-9.3,22.4-7.5,34.4c0.9,5.9,3,8.1,3.3,16.2c0.1,3.5,0.3,7.8-1.2,12.8c-2.7,8.7-7.2,9-9.5,17.4
			c-0.7,2.6-2.1,7.6,0,12.8c3.1,7.8,11.8,10.4,13.3,10.8c0.3,1.6,0.6,4.1,0,7c-1.3,6.5-5.3,7.7-8.3,14.1c-3.7,8-1.4,14.6-4.2,15.3
			c-2.5,0.7-4.4-4.6-7.9-4.2c-4.4,0.5-6.4,9.7-6.6,10.8c-1.3,6.4,0.3,12,1.7,15.3c-2-1.5-5.2-4.2-7.5-8.7
			c-4.5-8.8-1.9-17.5-1.2-19.5c-0.5-0.2-4.9-2.5-7.9-0.4c-2.2,1.5-2.4,4.5-2.5,7.9c-0.1,3,0.2,8,2.9,14.2c-1.8-2.2-4.3-5.5-7.1-9.8
			c-7.5-11.6-10.8-21.6-11.7-24.2c-3.3-9.3-11.8-23.5-34.2-44.7c5.7,8.5,9.8,16.2,12.7,22c6.3,12.8,7.2,18.4,7.6,21.2
			c0.7,6-0.2,8.2-0.2,14.2c-0.1,13.3,4.1,22.7,5.6,27.3c3.2,9.8,3.6,26.9-10.5,58.4c2.9,5.3,5.3,5.9,6.4,6c4.9,0.2,11.4-10.9,17.9-6
			c0.8,0.6,3.5,2.6,6.4,1.8c2.9-0.8,4.9,1.5,7.2,8c2.5,7.1,9.1,18.1,15.7,17.1c1.2-0.2,3.8-1,6.4-5.5c3.5,2.1,8.3,5.5,11.6,11.1
			c5.4,9.1,2.9,16.5,5.3,25.2c1.9,6.9,7.2,15.9,22.4,24.3L610.3,552.8L610.3,552.8z"/>
		<path class="st3" d="M506.7,967.4c-8.5,13.2-21.4,29.9-40.6,45.4c-39.1,31.7-81,39.5-101.2,41.9c-4.3-3.9-8-4.9-10.6-5.2
			c-3.3-0.3-6.1,0.7-9.3-1c-1.9-1-3.1-2.5-3.9-3.5c17.1-7.1,31.8-11.9,42.9-15.1c25-7.4,27.6-5.7,36.4-11.6
			c14-9.4,16.6-19.9,33.8-28.7c6.5-3.3,12.4-5,16.1-5.8c1.3,1.2,3.4,2.8,6.1,2.9c4.9,0.3,8.4-4.4,13.2-8.7
			C493,974.9,498.5,970.8,506.7,967.4L506.7,967.4z"/>
		<path class="st3" d="M517.7,1018c-4.6,5.2-9.2,8.1-13.1,10.3c-13.3,7.7-27.4,13.8-34.7,16.8c2.1,1.6,6.4,4.4,12.6,5.4
			c8,1.3,14.2-1.3,16.6-2.4c-5.3,1.9-13.8,5.8-21.4,13.8c-3.4,3.5-5.8,7.1-7.6,10.2c1.5,0.2,10.8,2,13.7,9.1c0.3,0.8,0.6,1.8,0.7,3
			c7.5-2.5,18.2-7.1,29-15.7c16.1-12.8,24.2-27.7,27.9-36c-2.4,2.1-6.5,5.1-12.4,7.2c-5.6,2-10.5,2.3-13.7,2.2c2.6-3,7.5-9.5,9.4-19
			c1.4-6.7,0.8-12.3,0.2-15.9C523.5,1009.8,521.3,1013.9,517.7,1018L517.7,1018z"/>
	</g>
</g>
</svg>
