<?xml version="1.0" encoding="UTF-8"?><svg id="Layer_2" xmlns="http://www.w3.org/2000/svg" viewBox="0 0 610.82 1085.2"><defs><style>.cls-1{fill:#9e0931;}.cls-2{fill:#bb1a22;}.cls-3{fill:#bb1920;}.cls-4{fill:#bb1720;}.cls-5{fill:#bc1920;}.cls-6{fill:#8f0d1c;}.cls-7{fill:#ba1922;}.cls-8{fill:#ba1721;}.cls-9{fill:#dd2439;}.cls-10{fill:#dd243a;}.cls-11{fill:#e24d5e;}</style></defs><g id="Tree"><g id="Layer_2-2"><path class="cls-11" d="m178.14,279.92c-2.1-2.13-11.07-10.76-25.57-11.7-14.19-.92-24.06,6.16-26.49,8.01-2.48-2.19-17.77-15.25-40.04-12.94-24.29,2.52-36.9,21.25-38.5,23.72-3.77.42-21.86,2.83-34.81,18.79C.1,321.36,1.22,338.91,1.65,344.3c2.02,25.33,20.49,40.02,23.72,42.51-.78,3.16-4.13,18.27,4.76,32.08,9.08,14.09,27.23,21.12,45.58,17.38-.46.5-10.98,12.13-6.98,22.45,3.82,9.85,18.29,11.8,23.06,12.44,9.35,1.26,12.22-1.6,20.63,0,8.38,1.59,14.58,6.13,18.51,9.71,2.24,7.67,6.24,18.71,13.61,30.64,5.37,8.69,24.04,37.93,60.72,50.78,1.69.59,38.03,12.81,75.07.55,10.81-3.58,17.49-7.85,33.12-10.49,19.88-3.35,24.12,1.03,35.88-4.42,13.47-6.24,14.85-15.22,28.15-18.77,8.27-2.2,15.87-.89,20.97.55-5.08-8.68-14.2-21.71-29.35-33.34-10.68-8.19-21.02-13.14-28.91-16.16,18-.85,35.99-1.7,53.99-2.55-2.14,6.53-6.57,23.06.08,41.13,5.38,14.62,15.3,22.85,22.32,28.53,26.47,21.41,71.06,34.62,104.69,22.14,6.28-2.33,17.14-7.39,34.01-9.88,11.21-1.66,20.54-1.51,26.45-1.16,3.96-2.19,9.75-6.65,17.98-7.18,4.8-.31,9.97,1.64,10.59,1.6V17.17c-7.78-2.25-26.99-6.29-45.89,1.85-5.63,2.43-25.36,10.93-26.71,26.23-.37,4.25.76,7.91,1.91,10.49-5.65,2.9-11.99,6.66-18.55,11.56-4.08,3.04-7.68,6.1-10.85,9.04-1.27-.1-3.37-.1-5.79.68-2.28.73-3.92,1.86-4.88,2.64-3.79-5.11-11.21-13.74-23.37-20.37-13.83-7.55-26.71-8.66-33.25-8.78.38-1.39.59-3.18-.16-4.86-3.58-8-26.25-7.01-41.83-1.31-6.29,2.3-17.89,7.74-28.67,21.14-9.66,2.07-29.64,7.91-44.63,25.6-4.52,5.34-20.61,24.31-14.67,40.41.74,2.01,1.68,3.57,2.39,4.6-5.69,1.06-14.45,3.43-23.7,9.21-7.02,4.39-12.03,9.31-15.35,13.13-2.29-1.35-5.87-3.08-10.47-3.83-6.81-1.11-12.73.46-21.96,4.34-12.26,5.16-19.95,8.39-29.61,15.83-14.51,11.17-25.43,19.57-26.61,31.96-1.83,19.15,21.11,20.24,28.97,25.33,18.91,12.26,39.81,27.76,44.47,27.98,12.5.58,13.88-2.19,25.72-.37,15.48,2.38,18.1,6.07,31.69,6.33,6.9.13,3.43-1.03,21.55-3.05,19.86-2.22,25.76.92,28.77,3.06,3.48,2.46,5.08,5.61,9.32,5.96,3.71.31,5.37-1.85,9.69-2.24,4.29-.38,8.04,1.26,10.81,2.98-5.58,2.88-12.17,6.85-19.01,12.3-5.79,4.61-10.46,9.26-14.17,13.42-4.55-5.54-18.37-20.91-42.13-26.84-30.09-7.51-54.11,5.6-59.27,8.57-7.32-12.55-14.68-16.38-20.13-17.52-10.2-2.13-15.48,4.83-26.47,1.86-10.45-2.82-12.02-10.83-18.64-10.81-5.11.02-12.2,4.83-20.69,26.21Z"/><path class="cls-11" d="m335.44,42.54c-1.31.16-1.54.57-3.88.98-2.71.48-3.32.08-4.23.71-1.55,1.06-1.62,3.46-1.67,5.07-.11,3.62,1.22,4.19,1.6,8.21.38,3.98-.84,4.31,0,6.73.55,1.61,1.17,1.69,4.87,5.96,3.19,3.67,3.08,4.01,4.24,4.66,2.3,1.29,5.83,1.72,8.48.21,2.48-1.41,1.9-3.22,5.72-7.31,2.33-2.49,2.83-2.13,3.39-3.39,1.61-3.64-1.83-8.41-5.09-12.93-3.4-4.71-6.06-6.39-7.1-6.99-1.71-1-3.8-2.21-6.34-1.9Z"/><path class="cls-11" d="m144.74,241.85c-.96.35-1.88.69-2.42,1.59-1.08,1.8.51,3.96-.77,5.4-.5.56-.97.5-1.27,1.16-.39.86.06,1.76.33,2.54,1.1,3.14-.64,4.78.44,6.01,1.02,1.16,3.38.62,6.06,0,2.99-.69,5.06-1.17,6.83-2.81,3.84-3.56,3.01-9.49,2.89-10.27-1.4-1.19-3.35-2.47-5.87-3.26-1.72-.54-3.89-1.22-6.23-.36Z"/><path class="cls-11" d="m178.62,224.84c-.98-2.4-5.51-.81-8.28-3.57-1.38-1.37-.59-2.1-2.51-4.79-.43-.61-1.8-2.42-3.95-3.88-4.13-2.78-6.33-.96-8.74-3.27-2.78-2.67-2.4-7.58-2.36-8.13.22-2.49,1.15-2.88.84-5.01-.35-2.38-1.72-3.27-1.29-5.24.27-1.24.95-1.53.84-2.58-.13-1.14-1.08-2.21-2.2-2.58-1.95-.65-4.2.89-4.56,2.43-.37,1.6,1.44,2.43,1.06,3.88-.47,1.8-3.98,3.16-5.77,2.05-1.5-.92-.64-2.84-2.13-4.86-1.72-2.36-5.25-3-7.6-2.81-2.37.19-1.78.86-9.9,5.65-.04.02-1.09.48-1.59,1.19-.29.42-.3,1.31-.78,1.69-.85.69-2.46.95-2.74,1.13-1.94,1.24-1.89,1.19-2.16,2.12-.61,2.07,1.31,3.21.61,5.24-.5,1.45-1.57,1.16-2.13,2.58-.92,2.36,1.57,4.33.53,6.15-.66,1.16-1.91.81-2.2,1.75-.56,1.78,3.81,3.52,3.57,6.08-.16,1.66-2.09,1.77-2.43,3.49-.51,2.61,3.03,6.74,6.23,6.61,3.24-.14,3.73-4.56,8.36-5.39,1.7-.31,3.98-.14,4.56.99.41.79-.37,1.41-.15,2.66.27,1.55,2.65,4.17,4.87,4.06,2.01-.1,6,.77,8.93,2.09.55.25,3.94-3.21,4.73-2.05.49.72.89,1.41,1.22,2.05,1.25,0,2.65-.08,4.18-.3,2.5-.36,4.62-1,6.31-1.64.41.34,1.07.79,1.97,1.08,1.64.53,3.07.18,3.65,0,.48.2,2.03.75,3.81.18,2.84-.92,3.66-3.88,3.72-4.1,1.65,2.06,2.4,1.89,2.58,1.82.98-.35.98-3.11.99-4.94,0-1.06.02-1.59-.08-1.82Zm-53.93-15.52c-.37.06-3.33.47-4.25-1.14-.24-.41-.27-.84-.26-1.16-.49-.13-.83-.54-.84-.99-.01-.47.36-.93.73-.98.14-.02.24.03.47.14.94.46,1.07.63,1.34.67.47.06.7-.38,1.22-.72,1.17-.75,3.04-.53,4.17.38.29.23,1.07.86,1.01,1.64-.1,1.27-2.38,1.97-3.58,2.15Zm11.46-9.84c-.5.25-1.4-1.43-2.48-1.16-.28.07-.59.28-.71.58-.28.7.67,1.37.5,1.71-.37.77-6.36.51-7.05-2.68-.28-1.31.35-3.03,1.52-3.61,1.5-.75,2.61,1.01,6.36,1.67.23.04.77.13,1.24.54,1.02.89,1.08,2.71.62,2.94Z"/><path class="cls-11" d="m398.49,27.64c-.33-.61-3.82-6.94-9.31-7.3-1.42-.09-1.06.34-9.31,2.19-1.56.35-3.18.69-5.02.09-1.79-.59-1.77-1.41-3.38-2.19-2.86-1.39-4.48.45-9.31-.18-1.92-.25-5.38-.25-6.16-1.8-.67-1.33,1.58-2.61,2.24-5.5.14-.63,1.51-6.95-1.82-10.86-.54-.63-1.45-1.7-2.92-2.01-2.69-.57-5.21,1.82-6.84,3.38-1.26,1.2-2.33,2.22-2.83,3.92-.64,2.21.35,3.29-.46,4.2-.97,1.08-3.32.58-6.93-.18-2.74-.58-4.46-1.25-5.11-.46-.07.08-.15.21-.18,1.46-.06,2.17-.07,3.27.55,3.65.16.1.44.21.93.11.06.37.1.86.04,1.43-.09.81-.33,1.45-.54,1.86.09,0,.82.06,1.36-.5.48-.49.47-1.1.47-1.22.12.51.22,1.26.04,2.11-.05.22-.11.42-.18.61.35-.28.74-.7.93-1.29.47-1.47-.72-2.9-.38-3.18.15-.13.6,0,1.79.96.14.43.41,1.44.1,2.65-.03.13-.54,2.01-2.15,2.86-2.21,1.17-4.99-.4-5.03-.27-.04.13,2.76,1.94,6.46,1.8,2.64-.1,4.66-1.14,5.79-1.85.83.09,1.67.19,2.5.28-.17.71-.25,1.53-.13,2.42.54,3.84,4.52,5.77,5.04,6.01l-.55,1.96c.86.43,2.1,1.17,3.31,2.4,1.05,1.07,1.71,2.14,2.13,2.94-.76.51-1.89,1.4-2.86,2.81-.48.7-1.94,2.84-1.75,5.14.3,3.66,4.76,7.06,8.69,6.99,3.97-.08,4.91-3.64,8.67-3.28,3.14.3,3.45,2.87,6.75,3.1.8.06,1.91-.02,7.3-2.92,5.4-2.91,4.92-3.18,7.48-4.29,5.1-2.2,6.72-.99,9.12-3.19,2.59-2.38,2.97-5.85,3.1-7.03.43-3.9-1.09-6.83-1.64-7.85Zm-56.99-13.35c-.63.54-.58.8-1.21,1.28-.62.48-1.36.77-1.47.62-.08-.11.29-.34.44-.88.22-.76-.25-1.21-.04-1.58.14-.25.6-.44,1.94-.22,1.44-.28,1.77-.26,1.8-.18.03.12-.68.28-1.47.95Zm10.16,8.77c-1.18.8-1.9,1.29-2.33,1.07-1-.52.05-4.61.52-4.59.25.01.05,1.22.94,1.94.7.57,1.58.41,1.65.78.02.12-.05.31-.78.81Zm2.41-13.36c-.14,1.82-1.29,2.07-1.24,3.85.04,1.4.78,2.54.52,2.69-.22.13-.73-.79-1.2-.68-.81.19-.44,3.14-1.24,3.37-.46.13-1.25-.48-1.49-1.24-.45-1.46,1.51-2.14,2.05-4.74.52-2.49-.24-4.74-.24-4.74-.28-.82-.72-1.68-.32-2.21.25-.34.79-.45,1.2-.36,1.19.25,2.11,2.27,1.97,4.06Z"/></g><g id="Layer_3"><path class="cls-9" d="m528.92,105.51s1.71,6.4,3.41,8.96c0,0-5.98,21.13-8.96,21.56s-15.37-.64-17.29-1.71-6.64-11.39-7.92-18.49-.41-19.15-.41-19.15c0,0-6.64,19.72-1.51,27.19-9.33-4.78-12.36-.21-12.36-.21,0,0,4.89,42.89-43.19,34.2-2.9-.87-2.2,2.06,0,4.35s17.73,4.84,17.73,4.84c0,0-8.66,9.8-17.31,10.57-2.93,1.02-10.31,3.95-13.62,3.95,7.51,1.15,19.86,3.69,27.75-3.18s10.31-10.95,12.6-10.06,2.67,3.69,6.49-.51,20.35-17.3,20.65-23.24c6.53,4.01,13.35,9.2,22.7,5.04,0-.59-5.47-8.9-11.87-13.35,0,.15,3.27.19,10.1,4.94,2.67.74,12.37,3.28,19.49,4.91s10.77,1.42,11.81-3.03,8.9-20.62,23.15-14.39c0,0,3.56.59,4.01,1.93s-7.86,16.91-10.83,17.36c9.64-3.41,10.68-5.86,13.95-10.16s11.57-22.7,21.96-24.48,10.87-8.01,10.87-8.01v-8.31s-10.27-8.46-19.92-3.41-9.2,5.93-16.91,6.53-16.17,10.68-20.47,7.42-6.06-11.05,2.08-16.12,14.76-10.63,26.45-10.51,28.27-5.78,28.78-7.08v-11.22s-3.16,8.15-23.82,7.08c0,.24,9.21-17.71,17.12-19.13,3.78-.12,6.7-7.56,6.7-7.56v-22.55s-8,21.01-18.98,26.21c-15.47,6.49-27.39,9.92-30.46,14.76-.35.12,19.83-5.9,22.55-5.08s-12.51,10.63-21.01,12.75-26.21,8.15-32.82,19.01-13.66,20.91-9.92,36.83c3.07-4.37,5.66-18.22,9.26-19.44Z"/><path class="cls-9" d="m517.68,149.61s-4.25,9.85-20.69,13.87c-3.64,1.04.74,7.66,4.39,7.36,3.64-.3,15.17-2.16,19.93-4.17-.22,4.98,3.18,23.09,12.72,23.67s19.52-.14,28.2-11.28c-3.76,12.15-14.12,29.07-33.31,29.07-4.87,0-9.94-5.78-17.75-5.78s-25.87,2.35-34.72,17.85c-1.21,2.01,8.07-4.74,17.54-3.88s9.68,6.09,3.3,11.69c-6.38,5.59-8.83,11.38-16.49,11.48-7.65.1-16.78,5.69-16.39,3.04.39-2.65,3.34-7.16,3.14-11.58,0-2.65-5.4,7.85-10.4,11.68s-10.75,6.04-15.13,6.17c-2.32,0-1.03,3.23-4.13,3.36-3.1.13-30.2,6.97-40.01-24.65-2.84-10.58,7.36-27.75,20-32.78.26-.13-10.97-5.81-24.13,17.42-.39-2.58-1.55-5.03,0-9.94.9-2.19-5.16-.77-6.97,7.23-1.81,8,4.39,16.26,0,18.46-4.39,2.19-5.94,1.94-8.52-.26s-11.62-11.87-11.62-11.87c0,0,.39,11.36,4,17.68-3.36.65-6.87-.13-6.87-.13l-1.02,15.7s17.3,12.7,16.8-10.68c.18,8.24,14.4,8.46,14.81,1.51,7.26,17.96,45.58,30.85,75.41,8.28,0,0,41.46-9.56,52.09-3.5,10.63,6.06,25.31,19.65,25.31,19.65,0,0,0-15.88-20.73-26.38,6.19-6.46,8.88-12.65,19.92-12.92,5.52,0,12.38,9.83,25.84,9.83,7.54,0,11.85-10.23,9.15-18.44-2.29-4.58-4.44-5.52-4.44-5.52,0,0,4.31,16.96-5.92,16.96s-6.73-10.63-6.73-10.63c0,0,4.05-9.16,11.71-9.16s34.29,13.01,34.29,13.01v-27.26h0c-11.14.99-21.76-4.42-27.04-13.77-6.83-12.08-1.18-24.45-.62-25.62l-31.39,4.37-33.56-9.13Z"/><path class="cls-9" d="m59.24,323.53c.63.16,1.12-20.53,15.41-30.4,9.58-6.62,21.63-5.8,29.98-4.22-3.51-3.1-8.71-16.01-27.45-9.92-24.7,8.02-18.81,44.34-17.95,44.55Z"/><path class="cls-9" d="m560.45,465.5c5.29-8.45,13.84-8.91,28.47-15.75,5.17-2.41,12.73-6.38,21.37-12.72.86-2.5.51-3.65,0-4.24-2.42-2.77-10.93,4.24-23.79,5.45-3.15.3-11.02.95-18.78-2.73-10.27-4.87-14.68-14.64-16.96-19.69-1.95-4.32-11.6-25.69,0-44.07,6.16-9.75,18.72-19.33,29.38-17.28,4.1.79,5.27,2.79,15.12,6.91,6.21,2.6,11.51,4.22,15.03,5.18v-26.64c-3.08-1.34-23.81-10.79-30.77-34.11-5.65-18.93-.08-39.81,14.33-54.37.34-.5.7-1.13.51-1.36-.34-.41-2.22.66-2.84,1.01-5.04,2.85-15.47,18.45-20.9,24.47-1.05,1.16-10.06,10.89-23.28,12.57-13.98,1.78-25.09-6.4-28.55-9.18-.52.08-1.53.29-1.87,1.02-.09.19-.44,1.08,1.19,3.06,6.64,8.08,14.27,11.04,14.27,11.04,15.3,5.93,22.98,3.32,24.13,6.63,1.66,4.77-12.26,16.11-27.71,19.64-5.18,1.18-14.72,3.36-24.75-1.61-10.04-4.98-14.17-13.96-15.61-17.22-5.58-12.65-4.92-30.42,4.3-37.13,1.03-.75,2-1.24,2.73-1.56.19-.49.45-1.35.06-1.81-.68-.8-2.85.06-3.57.34-4.25,1.67-14.09,15.09-12.98,32.58.66,10.45,5,18.59,8.55,23.71-6.07-1.66-10.41-1.06-13.25-.21-4.98,1.48-7.91,4.5-13.89,4.7-2.38.08-4.33-.32-5.55-.64-10.23-2.82-17.59-6.62-22.33-9.48-10.11-6.11-12.26-10.33-20.49-12.85-9.62-2.94-18.29-.7-22.02.31-13.58,3.67-14.06,10.65-30.59,19.88-14.08,7.87-30.38,12.12-31.81,9.48-.63-1.17,4.72-4.28,3.98-5.81-.7-1.45-6.13-.22-9.79.61-6.56,1.49-7.62,2.61-13.31,3.92-6.04,1.39-9.34,2.11-12.83.61-4.2-1.81-6.17-5.76-7.18-7.79-4.78-9.62-.78-20,.31-22.6.07-.06,1.12-.95.92-1.99-.19-.96-1.37-1.51-2.14-1.53-.74-.02-2.33.43-4.73,6.11-1.79,4.22-3.87,9.15-3.67,16.19.25,8.45,3.65,14.67,5.5,17.56-2.11.43-6.74,1.06-11.76-1.07-1.31-.56-3.44-1.48-5.35-3.51-4.93-5.25-3.78-12.93-3.67-13.59.71-4.27,2.5-4.56,8.25-13.9,4.62-7.52,4.11-8.39,6.87-11.76,4.82-5.9,10.7-8.51,13.9-9.93,18.36-8.16,42.55,2.29,44.6,3.21-.94-1.39-2.81-3.75-5.96-5.65-2.94-1.78-5.7-2.37-7.33-2.6,1.17-.14,2.34-.27,3.51-.41-4.76-2.5-11.61-5.28-20.17-6.24-21.4-2.39-37.6,8.43-42.45,11.95-.11.91-.33,2.25-.74,3.84-1.24,4.75-3.29,7.86-4.72,10.18-1.79,2.89-4.19,7.11-6.79,12.84,1.62-7.07,1.78-12.92,1.62-16.97-.18-4.69-.52-13.27-4.28-14.46-.73-.23-1.43-.13-1.92,0-.62,2.61-1.84,6.38-4.46,10.25-1.21,1.79-3.29,4.45-9.68,9.22-9.26,6.91-10.35,5.39-18.9,11.76-4.67,3.47-6.56,5.57-11.06,6.92-1.71.51-5.49,1.63-9.68.69-8.61-1.93-12.79-11.17-14.52-14.98-3.91-8.63-3.2-16.74-2.54-20.75-2.92,2.01-4.39,4.18-5.07,6.22-1.75,5.23,1.68,9.38-.69,13.14-1.32,2.09-3.6,2.73-5.07,3.23-15.19,5.17-22.54,22.53-31.12,19.82-1.67-.53-2.88-1.81-5.3-4.38-2.65-2.81-5.94-6.29-5.99-10.83-.04-3.48,1.83-6,5.07-10.37,2.47-3.32,4.96-5.67,6.68-7.15-1.12.26-14.06,3.51-17.75,14.52-3.93,11.72,5.63,23.23,13.14,28.12,5.15,3.35,9.83,3.92,17.52,4.84,13,1.56,17.26-.98,36.65-.69,12.24.18,18.48,1.31,20.05,5.07.82,1.97.08,3.96,0,4.15-3.37,8.62-31.48,5.19-35.96,4.61,19.41,5.55,27.06,4.86,30.2,2.77.69-.46,3.75-2.72,8.07-3,1.93-.13,3.55.18,4.61.46-1.91,1.38-4.58,3.66-6.92,7.15-3.45,5.16-4.34,10.23-4.61,12.91,1.67-3.07,4.41-7.34,8.76-11.53,3.01-2.89,8.56-8.23,15.9-9.91,10.34-2.37,19.45,3.6,27.9,9.12,5.74,3.75,14.98,10.94,22.95,23.58-2.9,1.55-7.34,4.13-12.33,7.93-6.7,5.1-7.08,6.83-10.71,8.84-6.84,3.78-10.84.59-24.37.8-12.39.19-13.45,2.93-26.51,3.48-9.42.39-17.1-.68-21.96-1.61,4.07-1.82,9.65-4.86,15.27-9.91,6.89-6.19,10.91-12.77,13.12-17.14-1.98,2.87-6.85,9.1-15.53,12.85-1.8.78-10.89,4.53-21.96,2.14-10.33-2.23-13.57-7.9-28.12-18.21-5.08-3.6-12.71-8.59-22.76-13.66,3.94-.98,9.14-1.88,15.27-1.87,5.02,0,9.37.61,12.85,1.34-3.77-5.39-7.45-7.17-10.18-7.77-5.17-1.13-7.65,1.8-14.19.27-4.23-.99-4.82-2.6-8.3-2.68-4.64-.11-8.15,2.65-9.64,3.75-7.95,5.87-26.69,15.06-40.14,11.52-1.74-.46-2.09-.79-14.4-9.39-9.13-6.38-16.49-11.48-21.1-14.67,2.24,4.8,5.51,10.62,10.29,16.62,7.2,9.05,14.98,14.93,20.7,18.55-2.65,1.64-7.81,4.35-14.77,4.81-10.7.71-18.41-4.36-21-6.11-12.52-8.49-15.44-22.33-16.45-27.11-1.94-9.18-.81-16.9.17-21.29-1.82.77-4.16,2.08-6.02,4.4-11.13,13.83,4.75,49.02,25.95,63.01,10.97,7.24,27.18,1.31,31.51,9.73.9,1.75,2.67,6.6,7.26,12.12,1.47,1.77,2.82,3.11,3.75,3.99-.9-2.42-2.16-7-.94-12.32,2.93-12.73,17.22-16.96,17.83-17.13-3.76,5.46-4.29,12.51-1.36,18.35,4.22,8.41,13.3,9.67,14,9.75-4.88,1.92-19.71,7.49-34,8.66-7.9.65-12.62-.29-16.41-2.71-2.22-1.42-1.99-1.98-4.57-3.55-6.42-3.91-9.83-1.59-14.21-5.07-.45-.36-5.26-4.3-4.23-8.8.71-3.07,3.74-4.67,4.57-5.07-2.7.65-7.63,2.2-8.46,5.58-.44,1.81.5,3.3,1.86,6.09,3.79,7.8,2.17,8.02,4.74,12.35,1.29,2.17,6.53,10.26,14.55,11.33,3.14.42,3.2-.71,7.61-.34,5.09.43,6.92,2.1,11.67,3.21,4.76,1.12,8.24.69,11.5.51,6.96-.38,23.09-1.23,32.05,2.49,8.35,3.47,13.28,16.39,23.14,42.24,6.57,17.24,6.71,26.57,15.46,36.86,0,0,5.82,6.1,13.32,12.2,23.77,19.33,95.38,15.34,95.85,9.09.15-1.98-10.53-2.36-20.91-10.83-5.09-4.15-8.73-8.56-11.28-12.22,8.45,7.87,17.4,12.92,23.63,14.49,9.16,2.31,14.4.24,16.47-.16,8.89-1.72,17.6-8.75,19.38-10.7,4.08-4.45,3.78-8.27,4.71-11.03,1.21,1.62,1.31,3.33,3.4,6.56,3.23,5,4.4,7.26,6.15,8.89,3.55,3.33,9.38,3.62,13.73,3.73,34.57.84,36.12.53,40.98-.43,8.1-1.6,8.85-2.78,17.23-4.14,0,0,11.7-1.43,22.69-1.08,0,0-.14-1.92-.14-1.92h0c-.49-1.22-.52-1.88-2.62-4.23-1.58-1.77-4.54-4.34-5.93-5-6.81-3.25-15.07-13.62-20.45-19.21-4.09-4.25-10.86-9.41-22.4-12.66,3.72-2.14,9.34-4.62,16.23-4.71,4.97-.06,8.4,1.15,11.36,1.95,6.04,1.62,15.04,2.81,27.59.49,2.83-3.36,11.88-13.22,27.23-16.47,16.46-3.49,29.33,2.93,34,5.35,6.1,3.16,27.07,14.02,27.89,35.15.56,14.52-8.59,28.58-22.92,36.29,4.41-3.91,11.44-11.46,13.75-22.54.79-3.78,1.62-8.07-.38-12.61-3.75-8.5-14.2-10.45-15.66-10.7,1.62,1.18,8.09,6.17,8.4,13.75.1,2.42-.43,5.09-2.67,9.17-1.58,2.87-11.46,20.86-30.18,22.16-7.19.5-12.68-1.68-16.05-3.06-16.71-6.85-24.54-22.13-27.12-27.89.67,6.35,2.82,17.86,11.08,28.65,0,0,2.98,8.15,10.43,13.25,16.14,11.05,40.02,7.56,104.1,2.32,22.22-1.82,39.85-3.22,54.35-16.73,4.21-3.92,7.04-7.82,8.8-10.56,3.75,7.37,11.66,19.86,25.3,23.54.98.27,2.01.49,3.08.66.31-12.47.63-24.93.94-37.4-2.58,1.74-10.91,6.89-18.54,3.74-.38-.16-1.31-.56-2.42-1.32-6.44-4.4-5.23-11.34-10.56-19.58-1.01-1.56-2.72-3.9-5.5-6.38,1.3,2.43,3.62,7.59,3.3,14.3,0,0-.31,6.61-4.18,13.2-7.37,12.57-31.54,26.66-53.46,17.16-18.08-7.83-23.45-26.87-24.2-29.7,3.74,2.71,10.95,7.18,21.12,9.02,8.82,1.59,16.14.53,20.46-.44-1.69-1.52-4.36-3.69-7.97-5.69-6.87-3.79-12.44-4.35-15.75-5.15-10.49-2.53-16.85-12.01-23.62-22.11-7.42-11.07-14.94-22.27-12.12-36.04,1.83-8.92,8.14-19.69,19.08-23.62,9.8-3.53,18.95,0,22.11,1.21,9.98,3.84,12.08,9.69,25.14,19.38,6.82,5.06,12.88,8.39,16.66,10.3-2.63,3.2-7.99,10.63-9.39,21.5-2.24,17.39,7.36,31.16,8.18,30.89.63-.2-3.62-8.72-2.12-21.2.52-4.37,1.09-9.08,3.94-13.63Zm-432.93-57.83c-9.68,2.62-14.6,4.49-21.45,2.86-1.43-.34-13.28-3.32-15.49-11.92-2.55-9.91,9.75-19.4,12.39-21.45,9.04-6.99,18.95-7.78,23.12-7.86,2.49.8,6.24,2.34,9.77,5.48,5.34,4.75,5.9,9.36,10.96,16.2,1.98,2.68,5.19,6.44,10.25,10.25-12.52,2.1-22.53,4.53-29.55,6.43Zm135.26,102.25c-6.43.15-11.6-3.37-13.5-4.67-5.47-3.74-8.19-8.52-9.35-10.91-.18,2.22-.28,7.13,2.34,12.46,3.21,6.55,8.49,9.65,10.39,10.65-26.15-2.54-46.18-19.54-49.6-39.99-2.54-15.23,4.88-27.8,7.79-32.2-1.96,1.29-4.69,3.37-7.27,6.49-11.21,13.55-7.66,32.15-6.75,36.88,4.31,22.51,22.33,34.72,26.49,37.4-8.51.41-15.3-.43-20-1.3-11.2-2.07-16.98-5.52-28.05-5.45-4.84.03-8.81.71-11.43,1.3-17.39-19.22-23.26-44.76-14.28-64.4,10.24-22.4,36.48-29.93,42.59-31.68,4.62-1.33,11.57-2.01,25.45-3.38,8.18-.81,12.61-.97,17.14,1.56,4.4,2.46,6.72,6.24,8.57,9.35,4.98,8.36,1.8,12.44,5.97,18.44,5.57,8.01,11.33,8.15,21.81,17.92,7.98,7.44,13.3,12.4,13.5,19.48.3,10.43-10.59,21.8-21.81,22.07Zm41.35,2.61c-1.51-1.33-8.93-7.87-11.32-18.26-1.71-7.45.32-11.88-2.56-19.35-2.13-5.54-5.65-9.36-8.22-11.69,12.81,4.46,21.7,10.43,27.21,14.79,10.47,8.29,17.3,17.57,24.65,27.57,3.92,5.33,6.93,9.93,8.95,13.15-2.12.62-24.1,6.66-38.71-6.21Zm39.47-26.52c4.39.46,4.67,4.78,11.66,10.32,6.19,4.9,8.77,3.73,13.01,8.52.68.76,6.47,7.31,4.49,11.21-1.91,3.77-10.22,3.41-15.25,2.24-14.25-3.3-26.6-18.71-23.33-26.77,1.4-3.44,5.8-5.91,9.42-5.53Zm62.72-45.52c-6.47,3.4-12.48,5.61-17.47,7.08,1.24-2.3,2.68-5.54,3.62-9.6.97-4.22,1.07-7.88.94-10.54,2.72,1.59,8.53,4.47,16.37,4.56,5.78.07,10.35-1.4,13.06-2.52-4.17,3.45-9.66,7.41-16.52,11.02Zm53.43,11.39c-9.15-3.44-17.36-4.29-23.1-4.4,1.27-1.58,8.9-10.75,19.94-10.31,5.42.21,13.3,2.81,14.44,7.43.42,1.71-.37,2.52-.28,5.5.12,3.76,1.53,6.78,2.75,8.8-3.55-2.35-8.14-4.91-13.75-7.01Zm64.41-79.75c-1.43,13.54-10.02,28.96-22.47,31.92-5.02,1.19-6.71-.58-14.98-1.63-17.69-2.24-32.42,3-40.77,5.97-18.69,6.65-22.18,14.35-36.13,13.59-4.39-.24-9.84-.54-15.49-3.87-8.39-4.95-8.8-11.6-16.51-16.11-3.42-2-9-4-17.94-2.85,2.01.27,11.72,1.78,18.14,10.4,6.05,8.12,6.04,18.31,3.26,25.48-5.69,14.69-24.11,19.7-36.9,18.55-13.26-1.19-21.9-9.15-25.69-12.64-2.38-2.19-13.67-13.02-15.9-30.38-.54-4.22-.42-7.77-.2-10.19-1.02.46-2.43,1.26-3.67,2.65-6.04,6.74-1.32,19.7,1.22,26.71,2.25,6.19,6.9,16.24,16.92,26.5-1.73.62-25.74,8.84-45.06-6.32-9.71-7.62-20.81-23.16-16.31-39.14,5.9-20.97,33.77-25.34,35.79-25.63,6.41-.91,12.73-.28,13.16-.23,12.3,1.3,16.57,6.09,26.32,5.77,3.15-.1,7.87-.77,13.62-3.69-2.74.48-27.45,4.52-33.94-6.47-.84-1.43-1.07-2.59-1.15-3.23-1.45-11.38,21.86-27.84,39.02-23.55,3.97.99,7.23,3,8.31,3.69,7.21,4.66,8.33,9.94,13.85,15.47,2.88,2.88,7.56,6.43,15.24,8.77.46-1.08.92-2.16,1.39-3.23,1.55,1.01,7.19,4.44,14.78,3.46,5.66-.73,9.5-3.53,11.08-4.85-26.84,4.39-48.4-15.32-48.26-34.64.13-18.22,19.55-33.99,36.02-33.94,5.66.02,13.35,1.9,19.76,6.38,6.81,4.76,9.01,10.23,18.33,15.95,3.78,2.32,7.16,3.71,9.29,4.49-1.53,2.82-3.51,7.28-4.18,13.01-.33,2.83-2.04,20.29,10.69,29.89,8.09,6.1,17.44,5.58,20.6,5.27-11.82-2.18-20.34-10.72-21.06-20.13-.86-11.19,9.68-18.76,10.53-19.36,3.01-2.1,5.47-2.74,26.89-4.8,16.15-1.56,17.45-1.45,19.36-.59,10.71,4.84,14.29,21.66,13.03,33.55Z"/><path class="cls-9" d="m188.55,202.91c1.22,1.47,3.34,3.64,6.51,5.13,13.69,6.45,32.07-6.74,36.7-10.06,8.44-6.05,7.04-7.76,18.74-16.57,6.66-5.01,18.65-14.05,22.89-10.85,1.51,1.14,2,3.8,1.18,5.52-1.65,3.5-7.6.9-12.82,4.74-2.6,1.91-4.04,5.68-6.91,13.22-2.48,6.52-2.05,7.94-4.54,11.64-2.04,3.03-3.57,3.93-3.95,6.31-.54,3.42,1.82,6.65,3.95,8.88,2.26-.66,5.31-1.95,7.5-4.74,3.08-3.9,1.41-6.85,4.34-11.64.57-.92,4.03-6.59,10.46-7.5,5.24-.74,9.34,2.12,10.46,2.96-.93-4.99-2.98-19.55,4.54-35.51,8.03-17.05,21.85-24.79,26.24-27.03l9.67.2c-3.28,2.34-9.01,7.14-12.82,15.19-6.95,14.68-2.1,28.75-.99,31.77-1.44-1.17-3.64-3.27-5.33-6.51-1.14-2.18-1.69-4.21-1.97-5.72-3.11.8-8.2,2.63-12.23,7.1-9.22,10.22-7.6,28.36,1.38,39.07,4.87,5.8,10.99,8.34,14.6,9.47,3.26-1.96,8.05-5.28,12.63-10.46,10.72-12.13,10.2-23.04,16.38-38.28,5.3-13.08,12.11-20.91,24.46-35.12,11.84-13.62,24.04-23.91,34.74-31.55-.03-1.84-.07-3.68-.1-5.52-2.35,2-6.07,4.79-11.14,7.08-7.64,3.45-11.9,2.86-18.85,5.94-3.43,1.52-8.16,4.22-13.12,9.37.96-7.06,2.55-12.63,3.84-16.44,1.87-5.52,2.02-4.12,8.45-18.81,2.76-6.32,3.18-7.58,4.99-9.41,2.97-2.99,5.64-3.4,10.75-7.49,2.24-1.79,3.92-3.47,4.99-4.61-.06,1.44-.3,3.76-1.34,6.33-2.53,6.27-7.15,7.52-9.6,12.86-.96,2.09-1.88,5.45-.96,10.56,2.09-1.02,4.72-2.41,7.68-4.22,4.45-2.73,7.14-4.39,9.98-7.1,5.97-5.7,6.29-10.08,10.75-10.94,1.37-.27,2.71.08,5.37.77,7.18,1.85,11.78,5.77,13.05,6.91,2.97,2.65,4.98,5.48,6.33,7.87-.94,1.5-2.33,3.69-4.03,6.33-2.22,3.45-4.71,7.27-5.76,8.83-2.06,3.07-6.62,9.85-12.48,15.16-7.8,7.08-11.2,5.45-18.81,11.71-4.23,3.48-8.55,8.4-12.09,15.55,2.23-1.91,5.86-4.76,10.75-7.49,7.87-4.38,12.75-4.95,20.54-8.25,6.82-2.89,12.07-5.31,17.47-10.17,7.82-6.96,12.81-16.13,14.01-18.43,2.8-5.33,4.33-9.96,9.02-11.9.71-.29.92-.2,7.1-.58,8.72-.53,9.39-.69,10.17-1.34,3-2.53,2.86-8.47,2.11-11.71-.44-1.89-1.33-3.97-1.54-7.68-.07-1.21-.04-2.22,0-2.88-2.33.55-5.84,1.06-9.98.38-8.57-1.4-13.84-6.88-15.55-8.83,3.2.43,7.19.66,11.71.19,5.39-.55,8.6-.88,12.29-2.88,2.66-1.44,3.82-2.81,6.53-3.07,2.23-.21,3.92.47,6.33,1.54,6.7,2.94,10.49,5.03,15.74,7.87,4.2,2.27,5.77,3.09,7.29,5.18,1.66,2.28,2.26,4.69,2.5,6.33,1.29-.75,3.06-1.6,5.28-2.18,3.41-.88,6.34-.72,8.19-.46-2.66,3.67-6.51,8.78-11.41,14.64-8.82,10.55-13.24,15.82-19.01,20.22-14.86,11.32-30.13,15.77-30.13,15.77-3.45,1.01-8.96,2.32-12.13,7.08-1.99,2.98-1.49,4.96-3.84,8.29-2.87,4.07-5.5,3.81-9.6,6.98-7.4,5.73-4.62,11.05-12.57,18.51-1.55,1.45-4.99,4.62-10.28,6.4-7.56,2.55-11.51-.22-18.51.69-1.56.2-6.06.95-18.06,10.28-16.56,12.9-26.57,25.96-29.25,29.54-3.87,5.17-8.93,12.58-13.92,22.15-2.94-.34-4.44-1.38-5.26-2.3-.56-.64-.93-1.35-1.81-1.63-1.38-.43-3.14,2.83-3.52,3.08-3.34,2.24-10.73.83-14.24,1.2-3.63.39-9.29-2.27-20.6-7.59-8.5-3.99-10.68-5.56-14.49-4.9-4.08.7-4.4,6.41-10.27,9.06-3.58,1.61-9.5.88-15.31-.77-6.89-1.95-7.95-2.54-15.97-4.53-1.73-.43-3.87-3.83-7.33-2.12-3.37,1.67-8.54,6.76-11.76,8.23-3.55,1.62-4.04-.91-6.94-3.6-4.11-3.81-8.4-9.33-9.67-16.42-1.07-6.01,1.34-10.77,2.22-12.31Z"/><path class="cls-9" d="m142.95,248.43c-.1.49-.31,1.79.28,3.25.52,1.3,1.4,2.06,1.81,2.37-.01-.22-.03-1.24.72-2.09.42-.47,1.32-1.16,2.13-.92,1.45.42,1.52,3.54,1.53,3.69.03,1.8-.69,2.21-.32,3.13.56,1.4,2.95,2.37,4.78,1.57.74-.32,1.84-1.14,1.89-2.21.05-1.24-1.39-1.46-2.13-3.45-.56-1.52.1-1.87-.56-2.97-.72-1.19-1.6-.96-2.61-2.45-.62-.91-.56-1.39-1.08-1.61-.72-.29-1.43.38-2.61.92-.85.39-2.1.78-3.81.76Z"/><path class="cls-9" d="m131.89,226.98c-.27.38-.93.98-1.03,1.76-.39,2.93,2.85,6.73,6.2,6.4,1.84-.18,3.08-1.55,3.56-2.16,1.29,1.92,2.75,2.97,3.68,3.53,1.16.69,3.96,2.37,5.81,1.17.79-.51,1.15-1.38,1.33-2.04.18-.54.38-1.39.24-2.4-.36-2.57-3.23-4.55-3.57-4.75.16,2.13-.59,4.96-3.41,5.2-3.4.29-4.54-5.41-4.7-6-.72,2.76-2.26,4.57-3.79,4.57-.78,0-1.4-.48-1.96-.91-1.8-1.4-2.13-3.37-2.36-4.37Z"/><path class="cls-9" d="m155.27,231.51c.85,1.31,1.66,1.55,1.64,2.25,0,.5-.42.74-.28.94.17.24.96.15,1.45-.28.35-.31.44-.7.61-2.53.19-2.01.17-2.38,0-2.44-.26-.1-.46.69-1.27,1.03-1.14.48-2.32-.42-2.58-.05-.14.21.13.62.42,1.08Z"/><path class="cls-9" d="m178.53,229.99c.32.26-.07,1.86-1.22,2.79-1.1.88-1.72.22-3.46,1.25-.55.33-1.05.73-1.63.58-.39-.1-.65-.42-.81-.66,2.79-1.74,3.41-2.98,3.41-3.81,0-.18-.03-.73.19-.82.33-.12.7.99,1.59,1.2.94.22,1.65-.77,1.94-.53Z"/><path class="cls-9" d="m173.98,235.04c-.06.09-.52.74-.4,1.54,0,0,.07.47,1.21,1.98h0c1.22-.1,1.46-.28,1.46-.28.29-.23.35-.59.4-.89.42-2.2,1.05-2.6.73-3.04-.5-.67-2.55-.5-3.4.69Z"/><path class="cls-10" d="m176.25,223.44c-.47-.24-.74-.53-.9-.79-.92-1.45.71-3.15-.15-5.17-.13-.31-.43-1.01-.98-1.12-1.09-.21-1.89,3.21-2.78,3.07-.38-.06-.58-.73-.78-1.46-.49-1.75-.14-2.45-.34-3.56-.34-1.86-1.99-3.5-3.81-4.1-1.29-.43-2.46-.24-3.07-.1-.02-.97-.04-2.66-.1-4.83-.06-2.37-.1-3.57-.93-4.39-.12-.12-.97-.96-1.85-.78-.92.19-.99,1.28-2.39,2.05-.41.22-1.07.58-1.51.34-.77-.42-.42-2.36-.34-3.17.19-1.92-.38-4.8-3.87-8.86-.28.17-.67.46-.97.93-.51.83-1,.61-1.34.99-.31.36-.86-.02-2.68-.41-.41.41-.83,1.39-2,1.96.6,0,3.11.18,4.68,1.48.51.42,1.77,1.46,1.92,3.15.14,1.51-.6,3.75-2.21,3.96-1.16.15-2.47-.77-3.09-2.27.18.4.52,1.29.29,2.33-.25,1.13-1.02,1.8-1.57,2.27-1.27,1.08-1.99.85-3.15,1.75-.56.44-1.27,1.18-1.81,2.51,4.15-.14,7.25.56,9.18,1.16,1.76.55,2.86,1.11,3.51,2.23.81,1.4.51,2.98.33,3.65.3.11.72.3,1.14.66.7.6.98,1.31,1.09,1.66.17-.27.44-.64.85-1,1.2-1.03,2.62-1.08,3.98-1.19,1.33-.1,3.17-.3,5.5-.71.23,1.71-.17,2.76-.52,3.37-1.15,1.99-3.37,1.92-5.98,4.26-.98.88-1.62,1.74-1.98,2.28,1.3-1.03,2.47-1.47,3.3-1.68,2.78-.71,4.38.47,7.14-.66.98-.4,1.03-.65,1.8-.78,1.4-.23,2.24.43,4.38.78.85.14,1.56.17,1.99.18Z"/><path class="cls-10" d="m141.69,194.14c-.88-1.21-.71-2.34-.75-2.97-.07-1.01-.15-2.33-1.04-2.78-.62-.31-1.94-.94-2.27-.79.62.26.7.97,2.03,1.93.37.26-.13,2.03.45,3.62.15.4,1.48.81,1.6.99Z"/><path class="cls-10" d="m134.58,186.59c-1.3,1.66-3.03.55-3.7,1.32-.78.89-.44,2.19-.15,3.27.13.5.52,1.89,1.83,3.02,1.03.89,2.1,1.18,2.63,1.29-.52.31-1.38.74-2.48.84-2.44.23-4.16-1.32-5.01-.55-.35.32-.38.88-.3,1.24.23.98,1.56,1.26,3.32,2.03,2.27,1,3.69,1.62,4.31,2.83.91,1.75-.24,4-1.09,5.65-.64,1.25-2.19,4.26-4.41,4.36-1.14.05-2.1-.69-2.68-.15-.51.47-.13,1.39-.69,1.73-.48.3-.98-.25-1.34,0-.66.46.78,2.57-.1,3.92-.35.54-.93.73-1.59.94-1.23.4-3,.38-3.47-.45-.3-.52.11-1.05-.25-1.39-.44-.42-1.27.18-1.59-.15-.38-.38.5-1.47,1.19-3.52.1-.29.52-1.58.69-3.27.15-1.42-.34-2.28.05-2.53.31-.19.72.23,1.73.64.09.04,1.47.58,3.02.55.96-.02,2.87-.29,3.02-1.09.1-.52-.55-1.24-1.19-1.34-.45-.07-.55.22-1.19.25-.76.03-.9-.37-1.59-.35-.76.03-.89.53-1.49.55-.95.03-1.7-1.21-1.83-1.44-1-1.66-.5-3.68-.35-4.21.39-1.37.96-1.59.79-2.43-.18-.95-1.1-1.64-1.88-1.93-.82-.3-1.56-.18-1.88-.1.33-.23.83-.55,1.49-.84.45-.2.63-.23.89-.4.37-.23.82-.67,1.14-1.59.03.42.14,1.03.55,1.59.53.74,1.08.69,1.44,1.39.42.81-.08,1.32.35,1.83.45.54,1.54.64,2.23.2.71-.45.79-1.32.89-2.28.13-1.25.29-2.81-.79-3.67-1.18-.93-2.91-.31-3.07-.25.14-1.1.55-1.72.89-2.08.88-.92,1.85-.71,3.12-1.83.64-.56.44-.65,1.09-1.29.49-.48,2.09-2.04,4.01-1.73,1.7.27,3.22,1.09,3.4,1.41Z"/><path class="cls-10" d="m114.9,198.04c-.12.15-.5,1.63-.36,2.69.12,1,.86,1.59,1.02,1.72.38-.1.8-.18,1.41-.15.35.02.66.06.92.12-.17-.48-.44-1.07-.86-1.69-.66-.97-1.59-2.32-2.12-2.69Z"/><path class="cls-10" d="m125.61,223.5c-.58,1.72-1.88,2.55-2.45,3.34-.47.67-1.32.86-1.57.92-1,.23-1.43-.17-2.16-.03-.59.12-1.35.6-2.06,2.22.5.15,1.23.43,2,.95.81.55.88.83,1.35,1.11,1.21.7,3.47.4,4.59-1.08,1.1-1.45,1.5-3.62,1.29-4.28-.65-2.04-.54-2.9-1-3.16Z"/><path class="cls-10" d="m145.88,218.88c.78.49,1.21,1.38,1.1,2.27-.12.97-.84,1.78-1.82,2.01.74-.09,1.63-.14,2.65-.08,1.03.07,1.93.23,2.65.42-.44-.36-1.04-.95-1.4-1.82-.51-1.22-.18-2.06-.76-2.62-.32-.31-.97-.57-2.43-.19Z"/><path class="cls-10" d="m132.47,217.54c-.08.49-.12,1.21.3,1.71.59.71,1.47.25,2.3.94.92.76.5,1.85,1.36,2.3.75.4,1.72-.09,1.89-.18,1.28-.65.96-1.75,2.13-2.6,1.38-1,3.05-.35,3.31-1.06.13-.35-.17-.81-.59-1.24-.3.11-.78.28-1.36.47-1.49.5-1.57.45-1.83.65-.85.63-.48,1.38-1.36,2.13-.42.36-1.22.79-1.83.53-.64-.27-.4-1.01-1.18-1.65-.59-.49-1-.28-1.83-.77-.64-.37-1.05-.87-1.3-1.24Z"/><path class="cls-10" d="m133.18,212.42c-.18.09-.78.43-1.11,1.16-.35.76-.2,1.45-.15,1.65.19-.05.59-.13,1.07,0,.41.11.68.31.82.44-.52-.67-.58-1.16-.53-1.5.06-.41.31-.74.19-1.21-.06-.24-.19-.42-.29-.53Z"/><path class="cls-10" d="m350.59,6.04c.84.12,1.36.97,1.49,1.2.36.6,1.05,2.15-1.12,7.47-1.65,4.05-2.64,6.37-5.04,7.43-.48.21-2.28,1-3.54.13-1.27-.88-1.14-2.87-1.13-3,.16-2.02,1.75-2.22,3.44-4.93,1.52-2.44.89-3.31,2.76-5.9.75-1.03,1.89-2.57,3.14-2.39Z"/><path class="cls-10" d="m356.85,1.12c-.82-.37-3.52-1.14-3.72-1.12-.11,0,.46.96.29,1.62-.18.69,1.28,1.09,2.43,2.81.28.42,1.2,1.78,1.12,3.43-.09,1.83-1.3,1.84-1.62,3.87-.31,1.99.63,3.38-.25,4.24-.4.39-.76.27-1,.62-.53.8.62,2.49,1.68,3.81-.62-1.62-.21-2.62-.06-2.93.22-.46.54-.76,1.19-1.37.96-.91,1.46-1.13,1.93-1.56.97-.88,1.21-2.05,1.5-3.43.12-.59.78-4.04-1.06-7.42-1.01-1.85-2.06-2.39-2.43-2.56Z"/><path class="cls-10" d="m357.75,30.18h0c-.25-.66-.57-1.76-.46-3.09.33-4.26,4.8-8.23,8.96-8.03,2.65.13,5.13,1.93,5.3,2.06.45.33.8.65,1.03.88-.32.64-.65,1.51-.77,2.57-.04.33-.05.64-.05.93-.35-.54-1.35-1.88-3.09-2.37-2.2-.61-4.44.47-5.66,1.7-1,1-.87,1.64-3.09,5.35-.35.58-.64,1.05-.82,1.34l-1.34-1.34Z"/><path class="cls-10" d="m354.09,24.01c-.79.45-2.9,1.78-3.3,4.02-.44,2.49,1.53,4.53,4.07,7.16.44.46,4.85,5.02,6.44,4.02.47-.3.57-1.02.57-1.65-.64-.22-1.52-.58-2.47-1.18-3.53-2.24-4.73-5.73-4.94-6.38-.84-2.57-.58-4.81-.36-5.97Z"/><path class="cls-10" d="m392.93,21.73c-2.84-1.47-4.06-1.55-4.77-1.53-1.23.03-3.58.44-3.96,1.71-.44,1.48,1.85,3.94,4.32,4.77,1.67.55,2.98.22,3.33.99.17.37.07.89-1.08,2.52-1.88,2.67-2.82,4-4.05,4.23-2.34.44-4.44-1.65-5.22-3.06-.26-.46-.69-1.25-.36-1.98.25-.56.83-.81,1.08-.9-1.84-.56-2.51-.32-2.79,0-.19.23-.12.41-.36,1.17-.31.95-.55,1.02-.72,1.62-.22.78-.12,1.72.27,2.43.6,1.08,1.49.93,1.71,1.71.26.94-.68,2.38-1.71,2.52-.99.13-1.32-1.03-2.97-1.8-1.27-.59-1.5-.1-4.05-.45-2.61-.36-3.12-.98-5.49-1.08-1-.04-1.81.03-2.34.09.04.71.21,1.73.9,2.61,1.45,1.84,3.56.99,7.19,2.25,3.13,1.09,2.32,1.99,7.19,4.32,2.22,1.06,4.09,1.69,4.05,2.61-.03.7-1.16,1.18-1.35,1.26-1.81.77-2.91-.65-4.77-.18-1.63.41-1.43,1.66-3.24,2.34-1.84.69-4.4.3-4.95-.9-.52-1.13,1.13-2.14,1.71-5.13.26-1.33.2-2.5.09-3.33-.82.12-2,.41-3.06,1.26-1.86,1.49-1.44,3.19-3.42,5.85-.69.93-1.74,2.31-3.6,3.15-.56.25-2.88,1.26-5.58.36-3.43-1.15-4.62-4.44-4.77-4.86-.22,1.03-.48,2.99.27,5.22,1.38,4.12,5.06,5.74,5.96,6.1,1.21.49,3.42,1.37,4.93.38.95-.63.85-1.49,2.25-2.61.46-.37,1.5-1.2,2.7-1.26,2.06-.1,2.33,2.2,4.68,3.06,2.38.87,3.42-1.01,9.62-1.71,1.81-.2,1.75-.05,2.79-.27,3.2-.69,4.5-2.36,6.74-3.51,1.51-.77,3.87-1.53,7.46-1.17.39-.83,1.05-2,2.16-3.15.8-.82,1.6-1.4,2.25-1.8-.29-.16-1.46-.84-1.89-2.25-.52-1.74.51-3.2.72-3.51.46-.65,1-1.05,1.35-1.26.3-1.22.73-3.69,0-6.66-.18-.75-.87-3.27-2.97-5.76-1.72-2.04-3.46-2.94-6.3-4.41Z"/><path class="cls-10" d="m340.02,43.75c.22.66.54,1.44,1.03,2.27.84,1.41,1.82,2.39,2.57,3.01-.92.12-2.04.1-2.79-.59-.48-.44-.64-1-.81-.95-.32.09.03,2.29.07,2.57.32,1.98.49,2.97.92,3.54,1.07,1.41,2.5.9,4.51,2.62.67.57,1.12,1.14,1.39,1.54-1.28.46-2.16.34-2.71.15-1.51-.51-1.97-1.95-3.67-2.27-.55-.11-1.03-.05-1.32,0,.33.54.69,1.33.66,2.27-.03.93-.41,1.14-.37,1.76.1,1.65,3.01,3.52,4.84,2.86.97-.35,1.07-1.2,2.27-1.47.14-.03,1.38-.29,2.05.37.99.96.42,3.56-.95,4.4-.91.56-1.66.02-2.93.73-.62.35-.92.74-1.47,1.39-1.74,2.09-2.98,3.57-4.47,4.47-.62.37-1.57.82-2.93,1.03.39.48,1,1.12,1.91,1.61,2.47,1.35,5.89.97,7.85-.73,1.13-.98,2.06-2.67,2.86-4.11.66-1.18.96-1.96,1.76-2.2,1.09-.33,1.74.76,2.86.59,1.36-.21,2.36-2.12,2.64-3.59.57-3.01-1.58-5.74-3.01-7.55-2.43-3.09-3.59-2.68-4.84-5.13-1.42-2.8-.41-4.32-1.83-6.16-.93-1.21-2.67-2.27-6.09-2.42Z"/><path class="cls-10" d="m327.7,54.83c-.13.63-.29,1.87.22,3.23.82,2.16,3.22,4.24,4.99,3.59,1.03-.38,1.88-1.69,1.61-2.64-.28-.99-1.63-1.07-4.11-2.42-1.23-.67-2.16-1.34-2.71-1.76Z"/><path class="cls-10" d="m337.23,65.24c-.98-.14-1.48.47-2.71.88-1.06.35-2.63.53-4.84-.22.24.85.76,2.21,1.91,3.52.91,1.03,2.46,2.8,4.55,2.57,1.81-.2,3.85-1.9,3.67-3.89-.13-1.39-1.32-2.68-2.57-2.86Z"/></g><g id="Layer_4"><path class="cls-4" d="m503.32,83.78c-2.45,4.17-5.95,11.36-7.29,20.95-1.21,8.61-.2,15.76.8,20.29-1.97-1.15-4.88-2.43-8.35-2.25-3.2.16-4.14,1.41-7.96,2.12-4.61.86-6.18-.42-10.34-.27-6.3.24-12.04,4.21-12.04,4.21-2.43.05-6.8.48-11.44,3.01-2.71,1.48-4.68,3.22-6.02,4.61.13-.04,1.99-.55,2.81.4.77.89.11,2.45-.2,3.21-1.46,3.51-5.93,4.4-9.03,5.82-10.5,4.8-14.35,19.13-15.87,24.8-.9,3.34-1.26,6.15-1.43,7.91.99,2.46,1.99,4.93,2.98,7.39-2.08.35-5.12.55-8.3-.65-3.82-1.44-5.65-4.07-7.39-5.71-2.94-2.76-8.44-5.35-19.71-4.02-.78-.99-1.56-1.99-2.33-2.98,4.15-5.04,9.03-10.11,11.41-8.95.41.2.47.45,1.17,1.43,1.15,1.63,4.31,6.08,7,5.97,1.41-.06,2.33-1.36,4.02-3.76,3.06-4.33,2.69-7.11,5.45-8.56,1.23-.65,1.46-.18,2.98-.91,3.03-1.45,4.38-4.39,4.8-5.19,1.36-2.61,5.27-6.51,16.73-12.06-.35-2.68-.33-4.93.52-6.35,2.35-3.92,12.96-8.73,25.93-13.76-.56-.1-4.87-.92-5.78-3.79-.73-2.3,1.14-4.56,3.79-7.78,2.41-2.92,3.87-4.69,6.18-4.99,2.45-.31,2.99,1.41,7.38,2.59,2.08.56,5.4,1.46,7.98.2,3.1-1.51,3.61-5.4,4.59-8.18,1.5-4.27,5.51-9.87,16.98-14.76Z"/><path class="cls-4" d="m556.91,85.49c.34.19.59.84.2,2.81-2.99,3.26-7.17,8.65-10.04,16.27-4.46,11.79-3.29,22.23-2.41,27.12-1.01-.02-2.42.12-3.62,1-1.96,1.44-1.37,3.39-3.01,4.42-1.78,1.12-3.48-.56-6.83-.2-2.24.24-3.97,1.25-5.02,2.01,2.13-2.67,5.03-6.77,7.43-12.25,2.88-6.57,2.62-9.59,4.22-15.07,4.51-15.47,17.01-27.29,19.09-26.12Z"/><path class="cls-4" d="m569.14,128.58c.21.93-6.73,1.35-12.4,6.71-5.18,4.9-10.3,14.87-5.94,21.95,3.31,5.37,10.35,6.28,12.14,6.46.73,4.8,2.25,6.44,3.62,6.97,1.2.46,2.05,0,3.1.77,1.69,1.27.56,3.33,2.07,4.91,1.63,1.7,3.9.29,5.94,2.07,1.29,1.13,1.28,2.49,1.81,3.87.83,2.19,3.12,4.82,9.56,6.71-3.25,1.24-5.23.86-6.46.26-2.86-1.4-3.14-4.77-6.46-5.68-1.46-.4-1.69.17-3.1-.26-2.89-.88-4.05-3.92-5.17-5.68-1.53-2.42-4.7-5.14-11.88-6.46.09.95.17,1.89.26,2.84-2.32-1.85-5.88-4.13-10.59-4.91-.95-.16-1.57-.19-8.01-.26-8.82-.09-10.64-.06-12.14-1.55-1.41-1.41-2.48-4.1-1.29-5.94,1.04-1.62,3.63-2.29,6.2-1.29-.44-1.47-1.3-3.57-3.1-5.42-3.21-3.31-6.6-2.92-10.59-5.68-1.76-1.22-4.05-3.34-5.94-7.23-1.73.45-3.56-.16-4.65-1.55-1.16-1.48-1.47-3.83-.52-4.65,1.15-.98,3.48.81,7.75,2.58,6.56,2.73,6.87.92,14.46,3.62,5.3,1.88,6.95,3.41,11.36,3.62,2.4.11,4.38-.22,5.68-.52.86-2.87,3.49-10.24,10.59-14.2,6.21-3.46,13.47-3,13.69-2.07Z"/><path class="cls-4" d="m362.24,183.19c.88.52.53,2.78,0,4.86-1.27.95-10.24,7.94-10.87,20.31-.58,11.31,6.23,18.75,7.44,20.03-1.98,5.62-2.51,10.3-2.57,13.73-.06,2.99.21,6.57-.86,6.87-.89.25-1.46-2.15-4.01-3.43-2.56-1.29-4.16.03-7.15-.57-2.91-.58-4.69-2.5-7.15-5.15-1.31-1.41-4.68-5.13-6.01-11.16-.94-4.25-.47-7.85,0-10.01,2.45-5.94,5.29-10.29,7.44-13.16,2.3-3.08,2.86-3.19,12.59-12.87,7.18-7.14,9.96-10.15,11.16-9.44Z"/><path class="cls-7" d="m362.78,249.01c.14,5.62.62,9.27.76,14.89,1.56-.25,9.71,7.14,13.26,7.85s6.96-1.11,11.33-1.51c2.39-.22,6.61,2.15,8.33,1.86,6.5-1.2,14.2-2.08,22.84-2.06,16.34.05,29.89,3.34,39.51,6.58,4.02-5.41,7.68-9.93,10.67-13.47,14.6-17.32,18.7-17.64,20.93-18.2,3.65-.91,6.33-1.19,12.91-2.1,1.4-.19,6.64-.43,11.78-.01s7.98-8.3,14-12.01c9.93-6.11,13.48-6.26,22.91-5.65,10.75.69,10.12-12.93,20.57-16.39,2.93-.97,7.88-.1,11.65,1.04,1.81.55,6.58,2.68,10.78,10.65,2.29,4.33,5.16,5.58,8.47,6.59,2.67.82,5.13.62,6.82.31v-20.4c-3.91,0-8.19-.17-12.78-.63-10.35-1.04-11.69-2.55-16.63-2.82-13.07-.74-14.85,9.03-31.5,11.67-9.6,1.53-11.24-1.36-19.64.86-9.02,2.39-16.11,9.37-19.85,12.73-5.9,5.3-6.16,7.14-10.79,9.71-5.61,3.11-9.14,2.57-15.97,4.1-9.54,2.13-10.42,4.92-22.01,9.71-9.75,4.03-17.44,7.21-27.62,7.12-5.69-.05-18.29-1.17-29.56-10.14-4.86-3.87-8.02-8.05-9.93-11-.49,2.51-1.78,3.43-2.16,3.67-2.49,1.59-7.06.35-10.36-3.88-.83-.22-1.95-.38-2.59.22-1.01.95.22,2.9,0,5.39-.25,2.8-2.26,5.43-4.53,6.69-3.18,1.76-8.26,1.3-11.61-1.37Z"/><path class="cls-5" d="m221.02,223.65c-6.48-1.23-11.74,2.53-12.15,2.83-4.23,3.12-8.4,7.74-8.76,9.1,1.94,1.5,7.32,3.51,9.33,7.01,2.29,3.97,2.12,6.36,4.24,7.35,2.86,1.34,5.4-2,9.89-2.54,2.97-.36,7.46.42,13.56,6.22,3.68,1.9,9.27,4.34,16.39,5.65,8.61,1.58,12.04.16,20.91.28,4.29.06,3.56.4,33.35,6.22,13.92,2.72,18.96,3.6,24.59,1.13,1.87-.82,4.43-2.29,8.48-2.83,5.06-.67,9.45.53,12.43,1.7-1.11-1.54-2.92-3.72-5.65-5.65-5.23-3.7-9.07-3.15-13.28-5.65-2.79-1.66-6.21-4.95-8.48-12.15-.33.14-3.09,1.26-5.74-.28-1.76-1.02-2.47-2.63-2.68-3.17,1.01.54,2.3,1.1,3.87,1.49.78.2,1.82-.14,2.49-.07-.07-.93-.48-1.73-.55-2.66-1.06-.39-2.28-.61-3.62-1.44-1.94-1.19-2.21-2.36-3.47-2.68-1.72-.43-3.25.95-4.68,1.88-3.34,2.16-6.83,2.24-10.79,2.34-5.84.14-7.9-3.59-15.34-7.41-3.62-1.86-11.35-5.83-19.63-5.07-11.74,1.07-14.43,10.69-23.53,8.97-3.3-.62-6.63-2.58-12.22-5.85-4.87-2.85-5.85-4.11-8.93-4.7Z"/><path class="cls-2" d="m464.39,324.3c4.43-1.54,11.45-3.53,20.2-3.96,8.62-.43,15.41.83,28.25,3.2,12.44,2.3,16.44,3.9,25.48,3.97,5.78.05,10.55-.55,13.73-1.08l4.88,4.34c7.86.56,13.81,2.21,17.67,3.53,9.4,3.24,13.57,7.05,24.49,10.35,4.76,1.44,8.75,2.15,11.22,2.52v13.88c-1.51-1.33-3.99-3.18-7.43-4.29-3.62-1.17-5.82-.73-10.1-1.26-5.64-.7-7.34-2.16-11.11-3.03-6.7-1.54-10.44.97-20.45,3.53-13.47,3.45-20.2,5.17-26.76,2.78-9.28-3.38-6.67-10.59-18.93-18.93-10.2-6.94-21.31-8.27-26-8.84-6.46-.78-11.95-.47-15.9,0,2.12-.73,5.25-1.7,9.22-2.52,1.83-.38,2.21-.39,2.2-.48-.02-.47-11.49-1.92-22.69,2.78-1.05.44-1.9.85-2.49,1.15,1.57-1.6,3.74-3.43,6.6-4.98,7.47-4.03,14.82-3.5,18-3.06-2.36-.64-5.6-1.26-9.48-1.24-4.43.02-8.07.85-10.59,1.65Z"/><path class="cls-8" d="m202.63,318.72c-2.75-.14-6.76-.06-11.34,1.17-4.02,1.08-5.58,2.27-9.19,3.71-5.33,2.13-9.52,2.56-16.81,3.32-6.23.65-12.32,2.47-18.57,2.93-.56.04-2.2.15-2.74,1.17-.69,1.3.8,3.29.98,3.52,2.42,3.23,7.64,3.32,9.78,3.32,9.77.04,16.78-1.38,22.29-1.96,8.7-.91,24.96-2.6,32.26,5.47,1.52,1.68,3.76,5.01,8.21,6.45,2.12.69,3.69.6,6.84.59,2.41-.01,9.74-.07,13.3.39,9.27,1.21,15.9,8.98,19.75,13.49,4.94,5.79,4.03,7.45,8.41,11.34,6.61,5.87,14.39,7.17,16.23,7.43,12.39,1.79,22.85-4.8,31.67-10.36,7.4-4.66,7.59-6.43,14.76-10.35,7.85-4.3,15.11-6.29,20.14-7.31-7.53.32-13.79-.07-18.35-.53-6.62-.68-10.01-1.05-14.08-2.67-3.94-1.57-11.32-4.5-13.54-8.55-.26-.47-1.11-2.16-2.67-2.49-.69-.15-1.65-.06-2.14.53-.79.97.09,2.81.71,4.1.57,1.18,1.65,3,3.74,4.81-7.01-2.9-12.83-4-16.93-4.45-3.25-.36-9.74-.8-18.18-2.49-1.57-.32-2.85-.6-4.45-1.25-2.02-.81-9.15-3.67-10.16-9.62-.17-1.02-.4-3.53,1.43-6.77-.65-1.37-1.31-2.73-1.96-4.1-.87.32-2.2.9-3.56,1.96-1.79,1.39-2.01,2.32-3.03,3.03-2.46,1.71-7.38.6-9.62-1.96-2.93-3.34-2.28-10.3,3.21-15.15-1.62.16-3.98.62-6.24,2.14-3.07,2.07-3.35,4.33-6.06,6.24-1.99,1.4-3.85,1.61-8.55,1.96-5.66.43-10.86.72-15.51.93Z"/><path class="cls-3" d="m76.23,424.22c1.64,1.04,4.06,2.95,4.26,5.57.18,2.3-1.43,3.96-3.28,6.23-1.76,2.16-6.43,7.92-8.03,12.94-1.42,4.47-1.01,10.27,1.97,14.91,4.41,6.89,12.4,7.98,13.92,8.19,5.11.7,5.67-1.23,12.94-1.47,4.76-.16,10.86-.36,16.87,2.78,2.43,1.27,7.16,4.29,14.25,7.7.89.43,2.1.99,3.11.49,2.42-1.19.44-6.81,3.11-12.61,1.15-2.49,2.75-4.16,3.77-5.08-.57-1.18-1.25-3.06-.98-5.24.36-2.96,2.24-4.68,5.24-8.19,3.94-4.6,3.32-4.7,6.23-8.03,2.96-3.4,12.68-14.54,28.34-18.51,1.14-.29,4.83.72,8.03-1.31,1.18-.75,1.97-1.65,2.46-2.29,7.01-2.58,12.86-3.7,16.87-4.26,5.05-.7,10.91-.86,22.44-1.15,9.84-.25,11.93-.13,15.22-1.52,5.85-2.48,9.43-7.17,11.45-10.51-9.32,4.07-16.38,4.15-21.21,3.38-3.65-.58-4.15-1.34-7.88-1.69-7.91-.74-12.48,2.04-19.52,3.75-7.5,1.83-11.13-1.45-19.33.94-1.6.47-3.84,2.65-4.7,3l-.25,3.84c-4.4,1.18-8.51,3.36-8.51,3.36-8.84,1.58-15.58.23-19.57.06-17.89-.75-19.02.97-21.03,1.75-2.3.89-11.29,4.8-12.76,5.44-1.27.55-2.31,1.01-3,1.31.04,1.54-.24,3.11-1.31,4.13-1.34,1.27-2.72.53-4.32,1.88-1.72,1.45-1.16,3.21-2.63,3.94-1.46.73-3.37-.33-4.13-.75-3.36-1.86-3.27-4.88-6.01-5.82-.76-.26-1.97-.44-3.75.19,1.99,1.39,3.15,2.8,2.82,3.57-.4.93-2.93.65-3.75.56-1.17-.13-4.24-.47-6.57-2.82-2.67-2.68-1.48-5.09-3.75-7.13-1.06-.95-3.03-1.98-7.01-1.53Z"/><path class="cls-3" d="m154.62,525.8c3.36,5.14,15.78,16.65,24.31,23.68,17.85,14.72,37.91,17.22,46.55,18.66,21.49,3.58,38.98-.36,47.84-2.44,18.88-4.45,20.47-9.24,38.76-11.52,17.43-2.17,19.75-.1,30.03-3.14,16.5-4.88,17-9.85,25.84-15.01,3.36-1.96,7.33-2.68,7.68-2.79,6.98-2.27,13.02-3.53,17.45-4.27-.06-2.19.06-5.19,0-7.38-3.06-.31-5.94-.49-11.56-.09-8.88.63-11.37,1.71-19.6,3.17-4.65.82-14.03,3.04-24.96,2.99-27.78-.13-34.44-1.21-36.52-2.67-2.95-2.07-5.8-7.93-12.55-17-.87,2.28-2.03,5.78-4.71,9.08-7.1,8.74-15.97,10.94-19.24,11.72-20.02,4.76-37.64-11.46-40.55-13.15,1.72,3.37,6.25,10.51,12.43,15.47,7.41,5.96,14.97,7.95,18.84,8.7-4.87,1.08-11.49,2.29-19.42,2.9-7.7.59-28.19,1.53-53.05-6.09-5.22-1.6-19.96-7.22-27.58-10.8Z"/><path class="cls-7" d="m408.25,542.32c1.16,2.37,3.34,6.17,7.14,9.77,4.8,4.56,9.82,6.55,12.97,7.7,34.91,12.82,53.36,13.53,53.37,13.53,19.88.77,42.31-2.89,58.25-8.83,3.01-1.12,10.16-3.96,20.29-5.45,9.02-1.33,16.64-1.04,21.8-.56,2.49-1.8,7.3-4.78,14.09-6.01,6.15-1.12,11.23-.31,14.14.38v-7.7c-2.89.06-8.03-1.42-14.29-5.13-10.37-6.15-14.02-15.68-14.5-17.79-1.29,2.18-3.49,5.38-6.95,8.46-6.58,5.85-13.86,7.81-22.92,10.15-9,2.32-8.32,1.04-16.16,3.19-13.06,3.59-13.72,6.79-20.67,6.76-10.56-.04-18.02-7.47-19.17-8.64-5.57-5.71-7.19-12.17-7.7-14.84-.39,2.25-1.31,5.75-3.76,9.21-3.74,5.29-8.82,7.35-12.97,9.02-6.88,2.78-13.27,3.2-17.85,3.01.2-.56.82-2.57-.06-4.82-.24-.61-1.02-2.36-2.91-3.4-.81-.44-1.95-1.07-3.05-.69-1.48.51-1.3,2.31-2.91,3.95-.43.44-1.38,1.27-4.09,1.94-8.69,2.16-19.33.26-19.33.26-3.21-.57-7.62-1.58-12.74-3.44Z"/><path class="cls-5" d="m152.22,242.43c-.04.06,1.53,1,2.94,3.1.76,1.14,1.5,2.24,1.13,3.26-.39,1.05-2.23,1.76-3.13,2.04-.04.54-.03,1.37.24,2.31.33,1.15.75,1.36.95,2.19.27,1.13.05,3.04-1.32,3.77-1.51.81-3.67-.2-3.95-1.26-.13-.48.18-.76.32-1.99.08-.7.05-1.28.02-1.67-.92.33-1.52.76-1.89,1.09-.47.42-.65.71-1.77,2.29-.76,1.07-.94,1.46-1.41,1.61-.28.09-1.19.25-2.81-1.53-.12.53-.33,1.78.36,2.81,1.23,1.83,4.54,1.86,5.75.64.41-.41.54-.93,1.05-1.01.17-.03.61-.04,1.61.97,1.26,1.26,1.07,1.77,1.69,2.05,1.04.48,2.5-.52,4.14-1.65.5-.34,1.46-1,2.17-1.76,2.28-2.45,3.01-7.16,1.41-10.87-2.07-4.8-7.41-6.49-7.48-6.39Z"/></g><g id="Layer_5"><path class="cls-6" d="m329.34,215.28c-2.87,3.91-4.54,7.45-5.53,9.95-.94,2.39-1.66,4.26-1.77,6.86-.16,3.64.97,6.54,1.77,8.18-.81.06-2.22.06-3.8-.55-1.01-.39-2.29-.93-2.81-1.35.26,1.22.6,2.06,1,2.47,1.53,1.58,3.07,1.37,5.59,2.88.95.57,2.58.5,2.84,1.61.92,3.86,3.45,5.76,5.01,8.14,2.47,3.77,6.28,2.25,13.19,5.76.88.44,6.36,3.29,9.73,7.81,6.17,8.29,3.35,19.7,2.47,22.8,1.94,1.79,3.45,3.75,5.45,5.54.56.5,2.43,2.57,2.99,3.06.71-4.07.66-12,.45-19.52-.26-9.32-1.88-13.67-2.59-22.21-.47-5.58-.61-13.65,1.11-23.69-1.97-2.1-3.65-2.53-5.63-4.63-.44,1.64-2.15,8-2.44,11.08-.71,7.72-.15,5.93-.27,8.35-.04.95-.92-.48-2.49-1.16-2.69-1.17-2.67-2.39-4.49-2.38-1.36.01-2.41.69-3.81.69-1.59,0-2.81-.63-5.14-2.15-.98-.64-1.76-1.87-2.41-2.77-1.86-2.57-3.48-3.76-4.54-7.15-.27-.86-2.7-4.27-2.5-10.07.1-2.93.54-5.35.93-7.03-.78-.18-1.56-.36-2.34-.54Z"/><path class="cls-6" d="m217.53,236.68c.6,1.21,1.71,3.06,3.63,4.82,1.98,1.82,3.99,2.77,5.26,3.26,1.43-.05,2.87-.1,4.3-.15-1.48-.78-3.23-1.85-5.04-3.34-2.12-1.73-3.69-3.5-4.82-4.97-1.11.12-2.22.25-3.34.37Z"/><path class="cls-6" d="m235.69,245.27c-.25.63-.55,1.6-.59,2.82-.05,1.44.27,2.58.52,3.26.75.93,1.58,2.16,2.3,3.71,1.31,2.84.99,5.71,1.03,7.38.83-.21,2.85-.22,4.58.14,1.48.3,2.48.57,3.24.88-.73-1.55-1.55-3.53-2.25-5.29-1.11-2.77-.88-3.58-1.85-5.04-1.11-1.67-1.98-1.79-3.85-3.71-1.54-1.58-2.53-3.12-3.11-4.15Z"/><path class="cls-6" d="m553.89,335.67c8.78-7.29,16.03-12.28,21.16-15.56,3.25-2.07,6.44-3.97,11.2-7.47,4.12-3.02,8.69-6.72,11.41-8.92,1.9-1.53,3.46-2.82,4.56-3.73-2.19.61-6.52,3.48-9.31,5.09-4.49,2.58-5.7,3.47-7.91,5.49,1.8-1.65,3.59-4.96,4.98-9.13.99-2.97,1.34-5.64,1.45-7.68-1.08,2.36-2.71,5.86-4.77,10.16-2.11,4.4-3.26,6.68-5.81,8.71-1.48,1.18-2.6,1.62-3.94,2.28-4.03,1.99-5.84,3.9-12.03,9.33-2.83,2.48-7.01,6.08-12.43,10.48.48.31.96.62,1.44.93Z"/><path class="cls-6" d="m361.81,174.76c.04,4.68.08,9.37.12,14.05.72-.92,1.9-2.17,3.67-3.18.79-.45,1.54-.76,2.2-.98-.04-.54-.03-1.33.24-2.2.6-1.87,2.07-2.88,2.93-3.54,1.46-1.11,3.35-2.84,5.38-5.62.53-.84.37-1.94-.37-2.57-.77-.66-1.95-.61-2.69.12-1.12,1.66-2.26,3.33-3.42,5.01-1.22,1.77-2.45,3.52-3.67,5.25-.04-1.95-.08-3.91-.12-5.86-.21-1.32-1.35-2.19-2.44-2.08-.82.09-1.54.72-1.83,1.59Z"/><path class="cls-6" d="m483.59,32.21c-1.13,3.74-2.18,8.39-2.67,13.79-.66,7.4-.02,13.73.84,18.46,1.25.88,2.5,1.76,3.74,2.65-.29-3.11-.57-6.23-.84-9.36-.2-2.29-.39-4.57-.58-6.84.65-1,1.54-2.43,2.52-4.2,3.37-6.11,5.19-11.63,6.19-15.38.55-2.07,1.18-4.82,1.64-8.1-1.36,2.81-2.72,5.73-4.05,8.75-2.02,4.58-3.84,9.04-5.47,13.35-.3-1.41-.55-3.02-.66-4.81-.2-3.23.12-6.02.55-8.21-.41-.03-.81-.07-1.22-.1Z"/><path class="cls-6" d="m110.05,415.77c-.54.91-1.5,2.25-3.09,3.37-3.2,2.26-6.65,2.07-7.73,1.97.37.13,1.72.65,2.53,2.11.55,1,.58,1.95.56,2.39,6.25-.05,13.36-.58,21.08-1.97,3.38-.61,6.57-1.32,9.56-2.11.12-.08.86-.54,1.76-.28.72.2,1.24.77,1.41,1.32.36,1.13-.65,2.38-1.41,3.27-2.57,3-4.51,4.44-7.09,6.97-2.19,2.14-3.29,3.54-4.01,5.46-.35.93-.51,1.74-.6,2.3.51-.95,1.32-2.28,2.56-3.67,2.54-2.83,4.6-3.35,8.18-6.48,1.99-1.73,1.44-1.65,3.41-3.41,1.57-1.4,5.46-4.88,10.4-6.22,3.12-.85,5.34-.49,8.43-.25,4.25.33,10.47.46,18.47-.62.93-.88,2.32-1.98,4.21-2.85,1.04-.48,2.01-.79,2.85-.99l.25-3.84c-3.61-.58-6.53-.92-8.43-1.12-6.63-.68-9.96-.56-18.22-1.24-3.47-.28-4.34-.72-6.57-.62-4.03.18-6.43,1.35-9.79,2.48-4.16,1.4-7.36,1.88-13.76,2.85-3.65.55-8.75,1.13-14.97,1.19Z"/><path class="cls-6" d="m591.06,463.63c2.16-.63,5.41-1.32,9.38-1.17,4.28.16,7.68,1.22,9.85,2.09v-9.65c-2.58,1.38-4.86,2.5-6.72,3.39-2.77,1.32-6.63,3.06-11.31,4.88-.5.19-.92.35-1.2.46Z"/><path class="cls-6" d="m340.1,479.57c10.58,3.07,18.81,8.34,22.49,12.15,3.1,3.21,6.09,8.39,12.44,14.37,1.4,1.32,3.11,2.63,5.4,3.98,3.78,2.23,5.06,4.94,7.79,9.65,1.43,2.48,2.01,2.64,3.95,8.6,1.16,3.56,4.43,7.61,7.39,12.5,2.84,4.69,4.53,5.48,7.5,9.3,3.43,4.43,3.62,6.6,10.86,29.21,2.91,9.09,3.57,10.87,3.62,14.47.04,3.01.05,9.75-4.39,16.28-5.24,7.7-13.18,10.01-15.51,10.6-1.27-1.57-3.52-4.83-3.88-9.3-.19-2.33.21-4.09.32-4.54.75-3.13,2.42-5.25,3.37-6.29-1.15.54-2.7,1.44-4.19,2.92-.77.76-1.36,1.51-1.82,2.19-.53-1.24-1.41-2.8-2.92-4.19-4.74-4.39-11.43-3.2-12.4-3.01.7.2,1.7.54,2.83,1.09,6.18,3.04,8.77,8.99,9.57,10.85.92,2.12,4.42,10.15.95,17.07-1.78,3.55-3.51,3.03-9.48,8.53-4.8,4.42-9.9,9.12-11.57,15.93-.57,2.34-.19,5.86.57,12.9,1.14,10.57,2.53,12.99,1.71,18.2-.71,4.5-3.58,8.77-5.54,11.58-.02,5.91-3.72,10.58,3.09,21.32,2.56,4.03,1.73,10.5.7,12.48,0,0,8.63-6.18,8.53-13.94,2.03-7.78,2.92-10.98,4.3-15.91.77-2.78.58-6.59,14.82-18.61,15.95-13.46,18.02-11.93,25.5-20.45,4.95-5.64,4.45-6.77,12.75-16.73,7.3-8.76,8.77-9.18,11.95-13.81,6.95-10.11,8.46-20.5,9.03-24.7,2.38-17.68-3.85-31.53-6.64-36.92-3.54-.46-8.03-2.21-12.56-3.61-6.85-2.12-11.39-3.77-12.93-4.63-5.88-3.25-12.34-5.16-19.4-16.78-3.11-4.93-8.75-13.97-10.5-17.71-1.21-2.6-4.01-9.62-4.23-10.95-1.31-7.74-4.25-19.1,1.66-36.04,0,0-16.17.97-22.89.09-3.28-.43-8.35-2.78-16.83-2.78-5.66,0-14.89,4.07-15.36,4.64Z"/><path class="cls-6" d="m222.01,567.58c2.57,2.16,6.16,5.68,9.13,10.81,4.93,8.52,5.34,16.63,5.82,29.38,1.08,28.24.63,26.86,1.01,30.39.37,3.44,3.97,33.04,24.55,47.71,18.21,12.99,37.42,5.49,53.88,24.28,2.07,2.36,3.54,4.5,4.45,5.93-3.41,1.03-7.53,2.8-11.53,5.93-.83.65-1.6,1.31-2.31,1.98,1.86.56,4.17,1.59,4.94,3.62,1.1,2.89-1.56,6.06-3.79,9.39-1.75,2.61-10.58,15.81-8.61,27.36.73,4.32,2.25,4.11,3.55,10.64,1.3,6.52.21,8.84,1.77,12.41,2.23,5.08,7.53,7.44,11.15,8.87,32.93,13,75.44,21.19,75.44,21.19,44.94,8.66,61.34,17.57,66.13,20.28,15.15,8.57,25.08,17.87,27.18,19.88,10.33,9.91,8.3,11.64,15.82,16.63,5.78,3.84,8.91,4.09,11.76,8.52,3.19,4.94,3.45,11.05,3.65,15.82.19,4.47-.31,5.84-.41,9.33-.34,12.35,5.29,16.76,5.68,25.15.41,8.76-5.19,15.57-10.55,21.91-10.84,12.82-28.65,25-82.68,41.2-20.58,6.17-21.77,5.53-44.05,12.2-25.5,7.63-46.01,15.09-59.64,20.33.81,3.78,2.55,9.26,6.78,14.23,13.37,15.72,39.64,12.2,44.73,11.52,12.35-1.65,13.74-5.25,29.14-7.45,10.48-1.5,19.27-1.18,25.08-.68,2.18,3.74,5.23,8.03,9.49,12.2,1.73,1.69,15.7,15.03,33.21,16.27,21.63,1.53,24.93-17.1,54.22-20.33,5.33-.59,24.41-2.7,30.5,6.78,3.5,5.45,1.13,12.27,6.78,18.3,3.81,4.06,8.63,5.1,10.17,5.42,8.75,1.83,12.53-8,24.4-10.17,4.67-.85,8.73-.32,11.46.28v-522.24c-2.91-.69-7.99-1.49-14.14-.38-6.79,1.23-11.61,4.22-14.09,6.01.98,7.92,1.18,14.57,1.15,19.42-.11,21.1-4.54,21.47-7.45,45.65-.36,3.01-1.18,10.38-4.42,11.18-.9.22-2.04-.06-2.79-.7-1.87-1.6-1.14-5.28-.93-6.52.89-5.4-.83-10.31-3.49-17.93-3.33-9.53-7.64-10.38-10.95-21.66-.95-3.24-.61-3.22-1.4-5.12-3.15-7.61-9.16-9.34-9.78-15.37-.1-1.01-.07-2.29.35-3.81-3.7,1.45-7.8,2.84-12.29,4.06-8.38,2.28-16.06,3.39-22.63,3.87,5.35,4.84,8.99,9.52,11.34,12.94,4.43,6.45,9.16,13.55,8.67,22.67-.1,1.93-.42,3.51-.67,4.53,1.43,1.89,3.37,4.7,5.14,8.37,2.22,4.59,3.54,9.15,4.82,17.34.97,6.21,1.94,14.64,2.12,24.85-3.95,4.11-7.89,8.23-11.84,12.34.17,1.76.34,3.53.5,5.29-7.09,3.89-11.41,8.36-13.85,11.33-16.41,19.99-10.87,49.01-6.8,57.43,2.25,4.65,3.33,10.03,6.62,14.02.81.98,2.39,2.75,2.23,5.03-.2,2.97-3.25,4.96-3.91,5.4-4.58,3.01-7.81.46-13.96,1.49-10.76,1.8-22.89,13.28-24.19,14.52-.64.6-2.14,2.07-3.91,1.86-2.38-.28-3.38-3.35-5.21-5.77-2.76-3.63-6.5-4.57-11.91-6.33-15.14-4.92-14.9-7.02-37.39-14.13-5.1-1.61-9.78-2.98-15.74-4.18-5.86-1.18-9.73-1.55-10.82-1.72-6.72-1.07-14.64-34.56-25.52-53.6-4.06-7.11-11.27-16.95-24.74-26.36-2.29-4.13-3.15-7.74-3.49-10.37-.48-3.72,0-6.13,1.16-14.93.61-4.59,1.07-8.39,1.38-11.01-.88,1.05-1.81,2.35-2.65,3.92-2.17,4.05-2.66,7.92-2.75,10.37-1.22-.95-2.51-2.07-3.81-3.39-2.78-2.81-4.75-5.65-6.14-8.05.36,1.84,1.23,4.95,3.49,8.15,1.86,2.63,3.96,4.31,5.4,5.29-.39,2.48-.66,5.66-.42,9.32.21,3.24.77,6.03,1.38,8.26-16.55.48-27.65-4-33.81-7.26-25.61-13.53-43.7-46.98-43.77-68.27-.01-3.23.37-13.21-5.57-22.68-2.67-4.25-5.78-7.07-7.76-8.66-3.44-.08-7.18-.32-11.15-.79-2.77-.33-5.4-.74-7.87-1.2Z"/><path class="cls-6" d="m139.67,232.77c-.5.48,1.13,3.07,2.8,5.72.9,1.43,1.71,2.58,2.27,3.35,1.65-.25,4.95-.49,8.37,1.18,1.02.5,6.29,3.07,6.4,7.49.04,1.55-.57,2.83-1.08,3.65-.35,1.78-.7,4.92.59,8.28.72,1.87,1.71,3.22,2.76,4.43,4.78,5.53,13.62,11.41,16.36,13.05.76-1.26,1.7-3.51,2.42-5.17.86-1.99,1.12-3.12,1.91-4.61-2.64-1.53-7.86-4.64-11.04-9.38-4.4-6.54-4.86-13.02-5.02-15.86-.28-4.76.5-8.64,1.18-11.13-.58.18-2,.53-3.65,0-.9-.29-1.56-.74-1.97-1.08-.14,1.42-.38,3.46-.79,5.91-.72,4.27-1.14,4.82-1.58,4.93-.89.21-1.7-1.47-4.04-4.04-1.62-1.78-3.13-3.05-4.14-3.84-.24.3-.69.78-1.38,1.08-3.84,1.67-9.54-4.77-10.39-3.95Z"/><path class="cls-6" d="m344.38,55.46c.22-.67-4.63-1.47-6.17-4.54-.96-1.9-.89-5.14,3.27-11.08,2.15,1.82,4.33,3.64,6.54,5.45.33.27.67.54,1,.82-.06-.54-.11-1.71.45-3,.44-1,1.06-1.65,1.45-2-.64-.56-1.41-1.39-2-2.54-1.75-3.43-.48-6.95-.18-7.72-.61-.3-1.39-.75-2.18-1.45-1.06-.94-1.71-1.94-2.09-2.63.18,3.42.36,6.84.54,10.26-.88-.34-1.91-.8-3-1.45-1.02-.61-1.86-1.24-2.54-1.82l-1.36,1.45c.77.48,1.7,1.21,1.63,2-.08.95-1.57,1.15-2.72,2.09-1.78,1.45-1.75,3.81-2.09,9.99-.1,1.79-.27,4.58-.54,8.08.36-.45.85-1.18,1.18-2.18.38-1.13.4-2.12.36-2.72.25,1.2.42,2.88.09,4.81-.12.67-.28,1.28-.45,1.82.46-.37,1.21-1.07,1.73-2.18.87-1.87.51-3.62.36-4.18.41.56,1.36,1.69,3,2.36,1.57.64,3.58.79,3.72.36Z"/><path class="cls-6" d="m333.56,14.61c-.25.52,1.04,1.93,2.59,2.34.41.11.78.13,1.04.13-.06-.38-.11-.75-.17-1.13-.71-.53-1.42-1.06-2.13-1.59-.95-.09-1.25.07-1.34.25Z"/><path class="cls-6" d="m341.32,22.14c.11.6.34,1.46.87,2.37.84,1.43,2.11,2.4,2.27,2.26.13-.1-.52-.76-.77-1.93-.2-.95-.05-1.81.13-2.42-.83-.09-1.67-.19-2.5-.28Z"/><path class="cls-6" d="m349.3,16.95c-.28-.02-.24.9-1.09,2.21-.96,1.5-1.92,1.71-2.3,2.96-.21.7-.13,1.35-.04,1.75.28-.09,1.22-.36,2.3.04.86.33,1.35.91,1.55,1.17.11-.73.23-1.81.25-3.13.04-2.1-.18-4.97-.67-5.01Z"/><path class="cls-6" d="m356.44,57.59c.29.15,2,.99,4,.26,1.72-.63,2.51-2,2.7-2.35,1.7,1.58,3.5,3.42,5.31,5.57,1.3,1.54,2.45,3.05,3.45,4.49-2.34.61-4.69,1.22-7.03,1.83-.58-1.33-2.68-3.23-3.99-4.92-1.96-2.53-2.89-3.89-4.44-4.87Z"/></g><g id="Layer_6"><path class="cls-1" d="m440.66,564.49c1.61,2.45,3.8,6.33,5.22,11.45,3.39,12.24,1.18,27.45-7.25,38.11-7.45,9.42-14.66,8.84-24.35,20.58-2.6,3.15-6.24,8.24-6.96,15.22-.21,2.06-.12,3.78,0,4.93,2.72.99,6.44,1.8,9.85.29,2.91-1.29,3.93-3.52,6.67-6.52,2.15-2.36,5.51-5.36,10.72-7.97-1.18,5.25-3.62,12.51-9.29,19-3.84,4.39-5.7,4.49-13.82,10.37-11.97,8.66-21.26,15.38-26.01,26.49-2.72,6.35-4.08,9.53-4.51,13.8-.47,4.58.06,9.3-3.18,12.47-1.04,1.02-2.17,1.59-2.98,1.91-.3-3.39-.95-6-1.45-7.67-2.28-7.65-6.09-11.46-4.34-14.79.65-1.22,1.8-1.92,2-3.78.15-1.42-.35-2.65-.78-3.45-1.2-1.88-3.19-4.37-6.34-6.01-3.09-1.61-5.62-1.54-8.12-1.78-8.94-.86-15.83-5.55-19.5-8.06-6.94-4.73-5.25-6.61-11.32-9.77-7.62-3.96-15.1-4.15-15.1-4.15-5-.13-7.9,1.03-11.14-1.13-2.16-1.44-1.75-2.55-4.53-4.34-3.31-2.13-5.53-1.63-6.79-3.77-.9-1.52-.11-2.31-.94-4.15-1.22-2.69-4.15-3.74-5.1-4.15-4.77-2.11-7.71-9.76-10.19-18.12-4.2-14.12-5.36-24.36-7.32-34.3-1.33-6.75-3.7-16.77-8.16-28.86-1.15-.7-4.51-2.53-8.99-2.09-3.09.3-5.34,1.55-6.48,2.3.8,3.75,2.25,9.21,5.02,15.48,1.93,4.37,3.05,5.84,3.97,8.99,2.28,7.75.09,14.4-.63,17.57-2.66,11.8,4.22,23.63,12.13,37.23,6.7,11.52,18.16,31.22,36.52,35.21,5.34,1.16,10.72.87,18.26,4.89,6.76,3.6,8.47,7.06,14.35,9.13,6.15,2.17,12.54,1.29,18.26-.65,2.22,1.19,5.81,3.56,8.15,7.82,1.13,2.05,1.59,3.86,1.96,5.54.79,3.68,1.83,10.15,1.63,19.56,1.7,1.13,3.67,2.88,3.91,5.22.36,3.38-3.26,4.36-4.24,8.48-1.27,5.32,3.93,7.18,3.91,14.67-.01,4.72-2.09,5.45-1.3,9.45.84,4.3,3.93,7.04,5.54,8.48,5.36,4.75,11.73,5.42,14.35,5.54-.25.69-.89,2.75,0,4.89,1.35,3.26,5.5,4.99,7.82,3.91,2.1-.97,1.56-3.7,3.26-4.56,2.98-1.52,8.82,4.72,11.41,7.17,11.01,10.45,18.12,4.68,45.2,16.58,11.82,5.19,12.81,7.32,19.18,7.75,1.14.08,18.27.95,27.67-12.17,3.83-5.35,4.85-10.89,5.16-14.02,1.94.87,4.85,1.89,8.48,2.21,5.07.46,9.14-.65,11.44-1.48-.87,3.1-4.33,15.6-5.55,23.87-.19,1.3-.35,2.62.3,3.96,1.91,3.95,8.1,2.7,9.75,6.4,1.01,2.26-.91,3.6.3,6.09,1.13,2.33,4.02,3.67,6.4,3.66,3.85-.02,7.66-3.6,8.53-8.84-.93,5.89-1.68,15.66,1.22,27.12,3.91,15.43,12.34,25.53,16.76,30.16-2.91-14.64-4.22-26.86-4.88-35.65-1.72-23.17-.2-40.83-7.92-43.88-1.9-.75-3.83-.41-5.18,0,.06-3.84.4-9.74,1.83-16.76,6.12-30.01,24.92-43.91,18.9-58.19-2.17-5.15-5.43-5.28-7.09-11.81-1.47-5.79.23-9.05,0-20.08-.09-4.61-.44-6.39-.7-10.04-.47-6.66-.41-16.36,2.1-29.1-3.28,11.9-8.25,19.4-12.32,24.12-2.81,3.26-5.81,5.91-9.96,11.54-4.06,5.5-6.74,10.48-8.39,13.89-.66-1.01-2.44-3.4-5.51-4.19-4.34-1.12-9.52,1.44-12.32,6.55-5.02,9.87-5.25,17.4-4.46,22.55,2.11,13.7,13.19,21.84,11.8,34.87-.38,3.55-1.51,5.83-3.15,7.34-3.54,3.27-9.02,2.51-11.01,2.36-6.13-.46-15.51,2.11-29.62,15.73-2.44.1-5.87-.17-8.32-2.43-2.87-2.66-1.74-5.61-4.61-7.91-2.82-2.26-5.29-.53-10.22-2.31-4.21-1.52-6.57-4.31-7.58-5.27-3.73-3.58-15.59-7.91-51.21-11.22.11-.96.09-2.34-.64-3.61-.83-1.45-1.87-1.5-2.34-2.34-1.27-2.28,2.59-8.81,8.71-11.47,5.46-2.37,7.48.61,13.17-1.49,4.73-1.74,9.77-6.16,10.62-11.47.66-4.07-1.68-5.41-5.1-14.23-1.53-3.96-3.87-10.11-4.46-17.63-.41-5.23-.95-12.1,2.76-18.48,2.94-5.06,5.1-3.88,11.47-10.83,5.81-6.34,8.95-12.71,10.86-16.67,3.23-6.67,2.19-6.91,5.05-12.63,4.28-8.54,7.78-10.39,12.12-17.18,5.82-9.1,7.29-17.93,7.83-21.22,2.55-15.38-2.51-28.4-5.81-35.11-4.36-1.04-8.73-2.07-13.09-3.11Z"/><path class="cls-1" d="m531.16,567.23c-1.1.85,4.88,7.61,9.84,19.91,1.03,2.57,11.82,29.85,6.71,42.5-.46,1.14-2.15,4.88-.67,8.28.62,1.42,1.23,1.49,3.8,4.25,4.13,4.43,4.27,6.08,6.26,6.71,3.29,1.04,7.02-2.14,7.38-2.46,8.86-7.77.76-32.89-5.82-46.3-5.02-10.24-10.73-16.86-14.76-21.47-4.46-5.1-11.58-12.3-12.75-11.41Z"/><path class="cls-1" d="m610.3,552.85c-1.41,3.68-3.22,9.25-4.18,16.21-1.81,13.05.58,22.12,1.56,28.66,2.2,14.75-2.9,29.68-13.11,59.55-3.14,9.2-7.89,21.73-14.85,36.22,2.07,2.61,4.64,6.66,5.43,11.95,1.07,7.09-2.09,9.5-2.9,16.3-1.52,12.79,8.2,16.48,10.14,34.05.64,5.79.1,10.02-.61,15.5-2.46,19.11-9.29,22.4-7.46,34.41.9,5.91,3,8.07,3.32,16.17.14,3.55.3,7.83-1.24,12.85-2.68,8.71-7.23,9-9.54,17.41-.72,2.61-2.09,7.63,0,12.85,3.14,7.84,11.79,10.37,13.27,10.78.3,1.62.57,4.14,0,7.05-1.27,6.52-5.29,7.68-8.29,14.1-3.72,7.97-1.42,14.56-4.15,15.34-2.45.7-4.42-4.58-7.88-4.15-4.38.55-6.4,9.7-6.63,10.78-1.35,6.37.26,11.95,1.66,15.34-2.01-1.47-5.2-4.23-7.46-8.71-4.46-8.81-1.9-17.45-1.24-19.49-.46-.24-4.89-2.46-7.88-.41-2.21,1.51-2.36,4.5-2.49,7.88-.11,2.99.17,8.05,2.93,14.16-1.78-2.19-4.34-5.51-7.08-9.76-7.49-11.62-10.8-21.6-11.72-24.17-3.34-9.35-11.84-23.47-34.18-44.67,5.72,8.55,9.83,16.15,12.69,21.97,6.29,12.79,7.23,18.38,7.57,21.24.71,5.95-.19,8.17-.24,14.16-.13,13.31,4.09,22.69,5.61,27.34,3.21,9.83,3.57,26.88-10.46,58.39,2.85,5.33,5.31,5.93,6.44,5.98,4.86.2,10.12-8.91,13.34-23-.17.99-1.94,12.12,4.6,17.02.83.62,3.48,2.6,6.44,1.84,2.9-.75,5.11-3.87,5.54-7.9-.43,3.6-.61,9.43,1.66,15.9,2.51,7.14,9.07,18.06,15.66,17.09,1.2-.18,3.78-.95,6.41-5.46,3.55,2.07,8.28,5.52,11.63,11.15,5.39,9.06,2.92,16.5,5.32,25.22,1.91,6.94,7.24,15.87,22.37,24.31v-521.45Z"/><path class="cls-1" d="m506.66,967.38c-8.47,13.2-21.43,29.92-40.6,45.43-39.13,31.66-80.95,39.52-101.17,41.88-4.34-3.9-8.03-4.94-10.63-5.16-3.33-.27-6.1.71-9.34-.97-1.93-1-3.15-2.48-3.87-3.54,17.12-7.05,31.81-11.88,42.85-15.14,25.03-7.4,27.64-5.71,36.41-11.6,14.03-9.42,16.56-19.93,33.83-28.67,6.53-3.31,12.38-4.95,16.11-5.8,1.3,1.2,3.42,2.75,6.12,2.9,4.94.27,8.39-4.37,13.21-8.7,3.44-3.09,8.88-7.18,17.08-10.63Z"/><path class="cls-1" d="m517.69,1018.03c-4.57,5.2-9.23,8.09-13.11,10.34-13.33,7.74-27.39,13.8-34.73,16.81,2.11,1.59,6.42,4.38,12.56,5.36,7.98,1.27,14.24-1.28,16.62-2.4-5.29,1.9-13.78,5.8-21.43,13.85-3.36,3.54-5.8,7.08-7.57,10.16,1.49.25,10.82,1.98,13.67,9.05.33.83.61,1.81.74,2.96,7.49-2.51,18.17-7.11,29-15.7,16.07-12.75,24.16-27.7,27.89-36.02-2.4,2.08-6.52,5.13-12.38,7.2-5.62,1.99-10.54,2.28-13.67,2.22,2.63-3.04,7.46-9.5,9.42-19.03,1.37-6.66.83-12.31.18-15.88-1.34,2.88-3.57,6.94-7.2,11.08Z"/></g></g></svg>