<?xml version="1.0" encoding="UTF-8"?><svg id="Layer_2" xmlns="http://www.w3.org/2000/svg" viewBox="0 0 1920 1273.39"><defs><style>.cls-1{fill:#ee6671;}.cls-2{fill:#cd2e2c;}.cls-3{fill:#db233c;}.cls-4{fill:#a51e26;}</style></defs><g id="Layer_31"><g id="Layer_29"><path class="cls-1" d="m1485.69,339.65c1.15,6.11,11.61,8.89,13.74,9.42-2.69,1.49-6.43,3.08-11.07,3.69-13.63,1.8-24.01-6.3-26.44-8.3,2.09,3.42,5.02,9.2,6.15,16.91.76,5.18.48,9.64,0,12.91-3.07-1.02-6.15-2.05-9.22-3.07,1.93,5.45,4.74,11.59,8.91,17.83,14.5,21.71,35.95,30.52,45.8,33.81-2.83,1.67-7.58,3.94-13.83,4.61-11.29,1.21-19.81-3.65-22.68-5.47,1.32,6.69,3.88,15.62,9.16,25.14,9.26,16.72,21.96,26.37,29.2,31.05-5.71.51-12.59.61-20.29-.31-14.31-1.71-25.63-6.29-33.2-10.14,2.71,9.46,9.06,26.78,24.19,43.36,12.72,13.93,26.34,21.51,34.85,25.42-4.49,2.1-12.85,5.28-23.73,5.22-12.82-.06-22.35-4.59-26.8-7.08,2.78,9.15,6.78,19.78,12.64,31.1,8.6,16.62,18.45,29.42,26.8,38.68-2.23.22-4.46.45-6.69.67,1.99,7.01,5.45,16.34,11.71,26.23,8.34,13.18,18.1,21.76,24.86,26.8,4.08-3.16,8.16-6.33,12.24-9.49-6.24-5.33-12.49-10.66-18.73-15.98,3.03-.19,8.73-.95,14.74-4.5,7.68-4.54,11.36-10.98,12.74-13.74-5.1,1.37-13.16,2.78-22.73,1.25-4.28-.69-7.97-1.82-10.99-3,2.39-1.5,4.8-3,7.24-4.5,5.21-3.19,10.37-6.27,15.48-9.24-1.33-2.41-2.66-4.83-4-7.24,5.69-3.26,11.65-7.05,17.73-11.49,17.14-12.51,29.81-26.14,38.96-37.96-7.4.99-16.87,1.52-27.72.25-17.78-2.08-31.55-8.07-40.21-12.74,11.61-4.07,25.66-10.35,40.21-20.23,31.11-21.13,48.26-47.68,56.82-63.68-5.78,1.96-14.46,4.16-25.17,4.19-12.11.04-21.78-2.71-27.84-4.96,11.92-6.56,27.32-16.83,42.16-32.62,26.87-28.57,37.31-59.62,41.58-76.41-5.27,6.44-14.54,16.16-28.73,24.13-13.43,7.54-25.86,10.47-33.9,11.72,1.77-4.03,4.77-9.61,9.77-15.25,5.73-6.46,11.76-10.36,15.89-12.59-9.93-11.65-18.25-14.17-23.91-14.4-9.42-.39-13.3,5.5-29.83,7.5-8.56,1.03-9.73-.28-16.55.77-11.93,1.83-20.97,7.78-26.92,12.77.49-14.84-8.71-26.41-19.17-27.81-11.5-1.54-24.67,9.21-23.25,16.77Z"/><path class="cls-1" d="m1857.56,351.57c5.22-6.48,10.43-12.96,15.65-19.44-3.35-1.5-12.64-5.1-24.24-2.73-15.02,3.07-23.04,13.91-24.8,16.43-.91-.81-10.73-9.32-22.98-6.19-6.68,1.71-10.76,6.03-12.37,7.95-3.31-3.11-6.62-6.23-9.93-9.34,2.31,4.71,5.68,11.73,9.53,20.4,5.29,11.89,6.12,14.8,7.92,18.09,4.18,7.64,13.24,16.79,34.95,22.56-2.12,2.67-5.59,6.21-10.77,8.65-14.45,6.82-29.19-1.02-31.14-2.1,5.44,14.17,12.55,30.06,21.9,46.87,10.64,19.14,21.83,35.25,32.18,48.45-17.34-7.49-34.69-14.97-52.03-22.46.24,3.32,1.51,15.07,11,23.04,2.76,2.32,5.59,3.79,8.02,4.75,2.07,1.76,6.84,6.32,9.09,13.93,1.8,6.05,1.17,11.22.66,13.86-2.25.12-5.13.04-8.38-.64-5.44-1.13-9.48-3.43-11.94-5.12.05,5.33.82,13.55,4.63,22.65,5.98,14.29,15.98,22.48,20.81,25.95-4.92.76-10.65,1.29-17.03,1.24-9.5-.07-17.69-1.4-24.16-2.94,2.58,2.78,5.33,6.08,8.05,9.91,3.17,4.46,5.65,8.73,7.59,12.54-2.42.48-6.44.94-11.15-.16-4.3-1-6.2-2.85-6.5-2.48-.96,1.17,16.53,20.78,42.22,35.82,8.54,5,16.09,8.39,21.5,10.58-3.34.93-7.27,1.78-11.71,2.29-5.74.66-10.84.59-15.02.25,4.06,1.69,17.37,6.64,30.29.76,9.7-4.41,14.13-12.64,19.9-23.7,4.56-8.75,10.82-23.54,12.9-43.99-5.37,3.54-14.34,8.49-26.44,10.96-15.25,3.11-27.85.74-34.53-1.03,14.02-7.47,38.57-23.07,58.32-51.92,11.88-17.35,18.29-34.04,21.88-46.42-4.2,3.12-10.42,6.96-18.61,9.62-13.67,4.44-25.58,3.23-31.89,2.11,2.43-4.98,4.93-9.98,7.5-15.01,12.86-25.13,26.38-48.59,40.21-70.45-4.28,3.09-9.78,6.47-16.52,9.35-11.65,4.99-22.25,6.47-29.61,6.86,7.21-7.22,16.21-17.79,24-32.11,10.49-19.28,14.34-37.18,15.9-48.94-4.47,1.3-10.53,2.59-17.77,2.81-6.84.21-12.67-.6-17.07-1.54Z"/><path class="cls-1" d="m668.95,359.59c-1.02-8.03,11.64-17.72,23.6-20.1,11.89-2.36,21.8,2.76,25.63,5.04-.65-8.16,2.34-12.48,3.48-13.9,6.61-8.32,22.76-9.76,38.23-.58,4.35-17.07,12.59-21.78,15.64-23.17,22.35-10.16,64.57,22.53,60.24,48.08-1.73,10.21-10.53,17.2-16.22,20.85,8.02,3.58,13.9,3.36,17.96,2.32,9.75-2.5,12.69-10.73,21.43-11.59,5.82-.57,10.95,2.44,14.48,5.21-1.33-3.44-2.84-9.12-.58-14.48,4.65-11.03,21.66-12.32,27.23-12.74,31.95-2.42,57.8,31.25,62.56,37.65-3.02,3.48-10.98,11.72-24.23,15.36-16.89,4.65-30.76-1.37-34.48-3.14,2.7,4.49,10.65,16.37,26.35,23.49,16.62,7.53,31.64,5.06,36.66,4.01-5.96,6.87-13.15,14.12-21.77,21.2-25.34,20.79-51.55,30.61-69.89,35.52,4.39,3.48,12.71,9.15,24.63,12.03,13.22,3.19,24.22,1.34,29.79,0-7.38,8.6-18.04,19.12-32.65,28.64-24.64,16.05-48.56,21.44-63.02,23.49,6.79,3.98,16.23,8.41,28.07,10.88,27.47,5.75,50.14-2.68,59.58-6.87-.47,3.12-1.88,9.64-6.87,16.04-4.29,5.51-9.26,8.39-12.03,9.74,5.22.37,10.43.73,15.65,1.1-7.65,12.07-20.14,28.77-39.31,44.66-18.22,15.1-35.98,24.08-48.85,29.39,15.02,4.19,26.13,3.44,33.59,1.91,6.53-1.34,15.36-4.31,27.86-3.05,3.75.38,6.8,1.03,8.78,1.53-3.64,2.31-8.9,5.62-15.27,9.54-27.16,16.72-40.95,25.13-51.12,27.34-8.56,1.87-23.03,2.97-42.82-5.39,3.2.18,10.47.11,17.37-4.49,2.31-1.54,4.07-3.25,5.39-4.79-7.35-.43-15.74-1.83-24.56-5.09-36.71-13.57-52.36-48.95-56.3-58.7,5.08,2.15,11.75,4.4,19.77,5.69,11.14,1.8,20.64,1.06,27.25,0-5.73-2.98-14.38-7.51-24.86-13.18-11.88-6.42-24.72-13.54-28.15-15.57-10.57-6.24-28.3-21.07-46.12-61.39,16.23,9.95,27.91,10.56,35.72,9.12,6.46-1.19,13.53-4.39,25.19-4.03,5.86.18,10.63,1.19,13.77,2.02-2.83-4.15-7.49-10.19-14.44-16.12-10.01-8.53-16.97-10.17-25.53-16.12-6.66-4.63-15.38-12.63-22.84-27.21,4.38,1.24,10.48,2.45,17.8,2.35,9.62-.12,17.3-2.45,22.17-4.37-4.68-2.11-9.67-4.75-14.78-8.06-16.89-10.94-27.7-24.45-34.26-34.6,4.37,1.98,10.39,4.18,17.8,5.37,9.12,1.47,16.86.85,22.17,0-8.55-8.81-16.45-14.69-22.17-18.47-11.89-7.86-20.97-11.02-31.24-21.83-3.75-3.95-6.4-7.6-8.06-10.08,3.37,1.08,7.43,2.09,12.09,2.69,6.88.89,12.87.59,17.47,0-3.95-3.19-9.48-7.88-15.8-13.99-6.1-5.9-6.97-7.36-7.2-9.15Z"/><path class="cls-1" d="m290.29,273.45c2.14-2.64,4.29-5.29,6.43-7.93,2.35-1.93,10.41-8.02,21.87-7.72,17.95.48,27.64,16.24,28.3,17.37-2.47,2.74-2.85,6.66-1.05,9.46,2.1,3.28,6.12,3.38,6.44,3.39,2.76-1.67,7.27-3.96,13.21-5.08,2.82-.53,18.05-3.4,30.49,6.77,8.42,6.89,11,16.03,11.81,19.62,1.27,1,2.54,1.99,3.8,2.99,3.08-1.47,10.78-4.57,19.1-1.85,1.03.34,11.33,3.69,11.05,9.46-.22,4.53-6.81,7.31-7.26,7.5-8.66,5.2-21.17,11.48-37.15,15.73-15.29,4.07-28.71,4.95-38.56,4.86,2.6,3.89,6.52,8.44,12.28,12,19.89,12.28,43.57,1.56,46.27.29-5.61,7.5-19.61,24.13-44.14,34.22-24.58,10.1-46.27,8.11-55.53,6.71,5.01,6.77,10.36,11.29,14.95,14.34,31.16,20.75,71.55,3.58,76.89,1.22-6.04,7.44-13.95,15.77-24.1,23.8-22.05,17.43-44.42,25.25-59.19,28.98-4.4-3.31-10.63-8.8-16.17-17.09-5.07-7.58-7.72-14.76-9.15-19.83,2.78,3.76,6.72,8.02,12.2,11.59,19.27,12.55,41.57,6.25,46.07,4.88-7.33-2.86-15.67-7.01-24.1-13.12-27.44-19.9-38.13-47.78-42.1-60.72,4.76,3.14,10.65,6.42,17.7,9.15,16.74,6.49,31.91,6.78,41.49,6.1-4.29-6.37-11.15-15.6-21.05-25.32-11.16-10.96-17.49-14.01-24.71-21.05-8.19-7.98-17.88-21.45-22.88-45.16,3.4,3.37,8.82,7.89,16.48,11.29,12.89,5.73,24.67,4.99,30.21,4.27-6.17-9.24-12.62-14.71-17.39-18-9.73-6.71-20.31-9.78-22.27-18.61-.42-1.88-.33-3.51-.21-4.52Z"/><path class="cls-1" d="m101.43,237.18c1.65-3.94,13.63-2.85,17.12-2.53,6.28.57,11.16,2.45,14.15,3.86,3.53-1.36,11.66-3.92,21.75-2.03,13.22,2.47,21,10.94,23.27,13.61,4.49,1.94,11.23,4.22,19.67,4.85,11.66.87,20.94-1.83,26.17-3.79-1.56,4.32-5.19,12.37-13.27,18.96-15.69,12.8-34.94,9.31-37.92,8.72,2.4,2.02,4.8,4.05,7.21,6.07-3.52.72-8.73,1.35-14.79.38-11.46-1.83-17.94-8.09-29.96-18.2-24.88-20.93-35.03-25.98-33.4-29.89Z"/></g><g id="Layer_30"><path class="cls-3" d="m783.12,305.04c-.4,1.12,6.41,3.63,11.81,7.56,10.77,7.83,19.24,23.65,17.47,39.6-1.49,13.44-10.98,33.61-25.77,33.2-11.1-.31-22.56-12.15-25.07-29.02-.41,3.51-.52,7.78.23,12.54,2.31,14.65,11.23,24.22,15.32,28.09-1.94,1.62-6.01,4.48-11.61,4.88-4.49.31-8.37-2.02-21.59-13.46-8.49-7.35-12.75-11.02-14.16-12.77-3.58-4.44-10.23-14.32-11.56-31.13-1.91-1.16-4.35-2.41-7.29-3.45-3.87-1.37-7.36-1.92-10.03-2.13,1.6.5,3.83,1.42,5.91,3.26,3.85,3.4,5.25,8.2,6.17,17.3,1.01,10.04.23,13.36.29,25.95.07,14.37,1.13,19.37-1.59,20.79-1.26.66-4.47,1.15-12.74-6.6,2.01,2.05,19.41,20.25,13.61,36.69-1.7,4.8-5.07,8.61-12.57,13.8-9.06,6.27-25.76,15.69-51.68,19.47,27.1.07,46.53-5.93,59.65-11.81,12.74-5.7,21.18-12.02,34.89-12.16,15.05-.14,27.5,7.26,35.93,13.88-1.55-3.89-4-11.81-1.49-20.57,4.6-16.04,22.21-22.28,25.77-23.54,13.7-4.85,19.03.4,29.24-4.21,7.34-3.31,15.17-10.81,20.57-27.75-2.04,1.13-5.98,2.9-10.9,2.48-7.59-.66-14.34-6.28-17.59-14.37,8.09-6.16,10.44-12.26,11.28-15.68,4.96-20.25-19.61-43.18-40.02-49.19-4.49-1.32-12.06-2.8-12.48-1.65Z"/><path class="cls-3" d="m793.08,462.86c.14-1.23,18.93,4.55,27.66-4.5,6.68-6.92,4.98-19.94,1.29-32.16,13.07,11.31,13.15,29.53,4.44,37.92-11.56,11.16-33.55.08-33.39-1.26Z"/><path class="cls-3" d="m858.96,366.54c2.22.68,5.94,2.16,9.32,5.47,7.57,7.39,7.02,17.66,6.8,20.16-1.06,11.93-9.98,18.63-11.41,19.67,1.09-.5,12.68-6.07,15.06-19.18,2.04-11.27-4.27-19.6-5.28-20.89-1.44-1.3-4.19-3.43-8.22-4.53-2.49-.68-4.68-.76-6.26-.68Z"/><path class="cls-3" d="m910.82,345.03c-.52.98,9.32,4.7,17.79,13.34,18.26,18.63,25.62,55.54,10.19,68.81-9.84,8.46-26.21,4.95-29.95,4.14-12.95-2.78-20.96-10.54-23.89-13.7,2.78,4.77,6.5,12.5,7.96,22.62.71,4.89,1.39,9.63,0,14.34-2.72,9.2-12.93,8.36-29.31,19.75-8.24,5.73-16.33,11.36-15.54,17.18,1.12,8.31,19.56,11.6,20.6,11.77-7.57-1.99-12.31-6.84-12.14-11.4.08-2.17,1.26-4.28,2.94-5.52,6-4.43,20.41.68,23.18,8.46,3.16,8.89-7.7,24.46-20.97,27.96-20.65,5.44-34.66-21.62-59.97-17.66-9.52,1.49-16.71,6.76-21.34,11.04,3.15-1.8,13.95-7.42,27.59-4.78,15.25,2.95,30.02,15.44,28.33,23.18-1.42,6.5-15.15,12.74-67.38,12.4,5.74,3.85,14.76,9.01,26.59,12.23,20.86,5.67,41.42,2.83,113.26-25.38,33.09-13,49.81-19.63,58.52-26.2,23.36-17.64,56.44-54.46,46.27-81.9-5.84-15.75-25.72-28.91-38.29-37.23-5.81-3.84-10.93-6.65-14.64-8.55-3.93-5.56-10.22-13.22-19.61-20.29-13.95-10.51-29.56-15.82-30.21-14.6Z"/><path class="cls-3" d="m739.65,481.19c2.8.14,15.63,1.06,24.01,11.17,9.4,11.34,9.38,29.65-1.12,44.11,1.1-4.09,3.9-16.53-1.68-30.71-5.98-15.21-17.68-22.53-21.22-24.57Z"/><path class="cls-3" d="m724.34,615.16c7.27,2.9,20.77,7.14,37.23,5.11,22.43-2.77,48.55-16.98,47.45-29.93-.23-2.71-1.94-8.81-16.06-15.33,9.19.38,21.98,2.46,30.66,11.68,12.7,13.49,5.38,30.34,15.33,37.23,15.76,10.92,46.35-22.92,61.32-13.14,10.71,7,9.19,33.55-.73,51.83-21.88,40.33-83.48,38.19-88.33,37.96-29.19-1.41-76.81-15.03-87.6-51.1-3.95-13.21-1.84-25.68.73-34.31Z"/><path class="cls-3" d="m323.3,258.29c-.33.61,9.09,3.24,14.49,12.38,7.09,12,1.66,25.78,3.19,26.08,1.49.29,9.07-12.31,4.6-23.56-4.98-12.53-21.84-15.69-22.28-14.9Z"/><path class="cls-3" d="m370.04,282.31c-.16.55,3.74,1.18,8.52,4.57,6.5,4.61,14.17,13.98,11.98,22.41-1.02,3.92-3.83,6.27-6.37,8.35-10.34,8.43-29.25,13-35.49,4.83-3.99-5.24-1.32-13.78.22-17.75-1.52.95-3.68,2.57-5.39,5.17-4.28,6.48-1.03,11.87-3.59,18.19-2.63,6.5-10.73,12.33-18.64,11.46-8.36-.92-15.8-9.24-16.62-20.22-.98.87-2.22,2.19-3.14,4.04-4.67,9.35,3.8,21.67,6.96,26.28,6.43,9.35,17.84,19.98,22.69,17.3,2.39-1.33,1.05-4.71,3.37-9.88,4.32-9.64,15.84-13.2,18.19-13.93,12.17-3.76,17.6,2.28,34.59-.67,4.85-.84,8.68-2.08,11.01-2.92-3.03.47-8.05.83-13.93-.67-4.3-1.1-7.63-2.85-9.88-4.27,2.95-.24,6.21-.77,9.66-1.8,14.76-4.4,23.58-15.06,27.43-20.48-.85-3.19-4.38-14.96-16.15-23.03-11.72-8.04-25.11-7.97-25.4-6.98Z"/><path class="cls-3" d="m423.04,309.41c1.64.72,3.87,2.02,5.43,4.38,4.62,7-.71,17.29-2.87,21.46-1.76,3.4-5.5,9.39-12.99,14.66,6.73-2.31,20.51-8.17,27.05-21.15,3.11-6.18,2.26-9.38,1.89-10.45-1.84-5.4-9.14-8.88-18.5-8.89Z"/><path class="cls-3" d="m352.25,378.31c3.13,4.29,6.5,7.08,9.54,8.95,16.19,9.96,40.82,4.82,63.22-11.33,8.63,4.63,31.92,18.32,31.01,34.59-.32,5.77-3.77,13.34-51.59,38.76-34.44,18.31-51.89,27.43-63.22,25.64-32.23-5.09-50.58-43.92-54.57-68.68-1.2-7.47-3.61-22.41,4.47-29.43,2.31-2.01,6.85-4.55,35.48-1.79,10.6,1.02,19.4,2.28,25.64,3.28Z"/><path class="cls-3" d="m116.42,234.47c.34-.01,7.44-.13,10.7,5.19,3.14,5.12.32,11.37-2.49,14.57-2.9,3.31-6.63,4.3-8.17,4.62,6.62-.02,12.56-3.44,15.28-8.89,2.53-5.06,1.36-10.01.96-11.46-1.88-.88-4.13-1.77-6.73-2.5-3.64-1.02-6.92-1.42-9.56-1.54Z"/><path class="cls-3" d="m162.33,238.82c1.97,1.3,5.25,3.94,6.82,8.29,3.02,8.4-2.41,17.53-8.25,22.15-9.35,7.39-20.92,4.14-22.15,3.77,2.62,1.52,7.75,4.01,14.61,4.24,10.54.36,17.99-4.86,20.27-6.6-.04,1.02-.3,3.54-2.12,5.89-2.89,3.73-7.33,3.98-8.01,4.01,7.29.99,13.58-1.39,15.79-5.89.95-1.93,2.12-6.23-.47-8.72-1.86-1.78-5.06-2.07-8.01-.71,1.17-1.17,2.43-2.36,3.77-3.53,4.69-4.12,9.39-7.28,13.7-9.71l-10.17-2.07c-1.31-1.84-3.49-4.46-6.83-6.83-3.44-2.45-6.74-3.66-8.94-4.29Z"/><path class="cls-3" d="m198.36,263.37c-.67,3.13.31,4.79,0,6.83-.55,3.65-5.11,8.08-22.28,11.74,13.15,4.1,25.95-1.07,30.29-10.33,3.7-7.9.06-16.24-.71-17.91-2.89,2-6.34,5.14-7.3,9.66Z"/><path class="cls-3" d="m1505.07,322.81c2.7,1.73,8.02,5.69,10.64,12.59,4.73,12.45-.82,30.53-13.31,33.92-10.19,2.77-19.81-5.68-20.99-6.75.84,4.21,2.72,6.63,3.94,7.87,5.71,5.84,16.79,6.34,27.36.75-1.47.07-12.14.78-18.37,9.56-5.89,8.3-5.35,20.37,1.72,29.46-1.21-4.94-2-11.83,1.23-18.07,5.12-9.93,15.93-9.67,23.89-19.91,3.17-4.07,6.55-10.66,6.92-21.53.83-10.86-3.55-20.73-11.49-25.24-4.32-2.45-8.69-2.76-11.55-2.65Z"/><path class="cls-3" d="m1598.99,329.71c.68,2.61,1.42,6.66.88,11.47-1.62,14.61-13.54,22.95-28.29,36.54-7.7,7.09-18.41,17.67-30.36,32.12,7.3-5.17,15.06-10.4,23.28-15.62,9.92-6.29,19.58-11.97,28.88-17.09-3.55,3.65-8.6,9.36-13.56,17.09-7.3,11.4-21.19,33.08-12.97,49.22,1.56,3.05,5.35,8.76,15.32,12.97-2.06-2.93-5.43-8.63-5.89-16.21-.91-14.84,9.68-30.69,17.98-30.06,4.78.36,7.95,6.14,9.43,8.84,11.9,21.69-2.76,51.88-7.37,60.69,5.57-3.61,13.42-9.82,18.84-19.78,12.25-22.51,5.12-51.29,1.88-64.36-5.1-20.59-12.31-30.76-6.55-40.06,3.81-6.15,11.18-8.51,16.59-9.55-1.86-2.68-5.05-6.55-10.02-9.89-7.27-4.88-14.43-6.02-18.08-6.34Z"/><path class="cls-3" d="m1546.11,448.95c-2.91-.01-13,.29-20.64,7.75-11.35,11.07-10.33,31.12-1.7,39.55,5.81,5.68,12.95,4,33.17,5.1,16.38.89,29.72,2.98,38.7,4.68,21.94,16.2,34.47,35.08,29.77,45.08-5.71,12.13-38.25,14.27-57.83.85-15.09-10.34-14.74-24.61-33.59-33.17-8.77-3.98-16.87-4.54-25.09-5.1-16.27-1.12-29.53,1.77-37.85,4.25,4.17-4.29,10.32-9.7,18.71-14.46,6.83-3.87,13.21-6.21,18.29-7.65-2.38-2.63-6.25-7.73-7.23-14.88-1.83-13.44,7.58-26.68,19.56-31.89,11.72-5.11,22.86-1.21,25.75-.1Z"/><path class="cls-3" d="m1563.49,580.21c-3.36,2.45-14.63,10.01-30.63,9.33-13.47-.57-22.86-6.68-26.43-9.29,1.96,7.93,5.21,17.33,10.72,27.15,15.64,27.86,39.72,41.54,51.44,47.15,2.52-8.21,5.59-21.78,4.29-38.58-1.23-15.83-5.84-28.16-9.38-35.76Z"/><path class="cls-3" d="m1812.03,339.59c-4.55.94-5.8,12-6.01,14.02-2.1,20.39,8.9,28.46,6.58,43.63-.75,4.89-3.11,12.05-11.08,20.09,14.52-4.81,19.26-11.23,20.98-16.05,3.33-9.33-3.32-16.51-3.32-32.09,0-10.1,2.79-18.27,4.99-23.36-1.09-1-2.75-2.36-4.99-3.65-2.7-1.55-5.21-2.99-7.15-2.59Z"/><path class="cls-3" d="m1861.01,328.85h0s0,0,0,0c0,0,7.05,8.23,9.07,10.91,6.58,8.74,11.52,27.26,2.42,41.21-8.14,12.48-23.13,14.55-25.97,14.89,2.34,1.68,5.55,3.47,9.6,4.45,13.65,3.32,25.16-5.36,27.11-6.87-5.46,4.04-12.17,9.98-18.35,18.35-13.81,18.72-6.54,38.36-16.62,42.25-4.67,1.8-11.2-.4-12.46-3.83-1.26-3.43,2.42-9,9.68-13.14-1.48-.42-5.14-1.25-9,.35-6.3,2.6-9.84,10.24-8.31,15.58,2.22,7.75,14.87,9.82,20.43,10.74,12.1,1.99,17.37-1.76,20.43,1.75,4.11,4.71.86,18.54-8.31,22.83-10.38,4.86-21.58-5.68-22.51-6.58-2.92-2.83-4.6-5.86-5.54-7.96-.44,3.36-.82,10.21,2.88,16.96,7.5,13.67,24.92,14.5,26.55,14.56,21.57.69,47.08-21.99,42.22-43.52-4.12-18.28-27.73-25.12-28.72-25.39.96-4.2,2.29-8.75,4.16-13.51,6.14-15.67,15.35-26.83,22.57-33.98-5.1-2.41-10.2-4.82-15.29-7.23,8.53-7.61,11.8-19.59,8.31-30.47-3.48-10.87-13.07-18.72-24.41-19.98"/><path class="cls-3" d="m1849.66,546.53c6.97,7.23,7.53,11.26,6.64,13.63-2.67,7.11-19.6,2.39-38.57,10.38-2.99,1.26-18.32,8.01-27.1,22.13-12.59,20.24-8.9,51.11,8.45,71.2,23.15,26.8,59.31,21.33,64.37,20.48,3.64-.61,55.63-4.21,52.67-38.04-1.48-16.91,1.99-38.25-2.28-52.99-3.56-12.3-22.53-.99-31.54-11.38-6.29-7.25-2.9-14.02-9.43-22.76-6.12-8.19-15.88-11.3-23.22-12.65Z"/></g><g id="Layer_28"><g><path class="cls-2" d="m1901.05,304.74c-9.66,13.26-20.22,22.03-27.84,27.4-5.22,6.48-10.43,12.96-15.65,19.44,4.4.94,10.23,1.75,17.07,1.54,7.24-.22,13.29-1.5,17.77-2.81-1.55,11.76-5.4,29.66-15.9,48.94-7.79,14.32-16.8,24.89-24,32.11,7.37-.39,17.96-1.87,29.61-6.86,6.74-2.89,12.24-6.26,16.52-9.35-13.83,21.86-27.35,45.32-40.21,70.45-2.57,5.03-5.07,10.03-7.5,15.01,6.31,1.12,18.21,2.33,31.89-2.11,8.19-2.66,14.41-6.5,18.61-9.62-3.59,12.39-10,29.07-21.88,46.42-19.75,28.84-44.3,44.44-58.32,51.92,6.68,1.77,19.28,4.15,34.53,1.03,12.1-2.47,21.08-7.42,26.44-10.96-2.07,20.45-8.34,35.24-12.9,43.99-5.76,11.06-10.2,19.28-19.9,23.7-12.91,5.87-26.23.93-30.29-.76,4.18.34,9.28.41,15.02-.25,4.44-.51,8.37-1.36,11.71-2.29-5.41-2.19-12.96-5.58-21.5-10.58-25.69-15.05-43.18-34.65-42.22-35.82.3-.37,2.2,1.47,6.5,2.48,4.71,1.1,8.73.64,11.15.16-1.94-3.81-4.42-8.08-7.59-12.54-2.73-3.83-5.48-7.13-8.05-9.91,6.47,1.55,14.66,2.87,24.16,2.94,6.38.05,12.12-.48,17.03-1.24-4.83-3.46-14.83-11.66-20.81-25.95-3.81-9.1-4.58-17.33-4.63-22.65,2.45,1.68,6.5,3.98,11.94,5.12,3.25.68,6.13.76,8.38.64.51-2.65,1.14-7.81-.66-13.86-2.26-7.61-7.03-12.16-9.09-13.93-2.43-.96-5.26-2.44-8.02-4.75-9.48-7.97-10.75-19.71-11-23.04,17.34,7.49,34.69,14.97,52.03,22.46-10.35-13.2-21.54-29.31-32.18-48.45-9.34-16.81-16.45-32.7-21.9-46.87,1.96,1.08,16.69,8.92,31.14,2.1,5.18-2.44,8.65-5.98,10.77-8.65-21.71-5.77-30.78-14.92-34.95-22.56-1.8-3.29-2.63-6.2-7.92-18.09-3.85-8.67-7.23-15.69-9.53-20.4.02.02.04.03.05.05-.98-1-1.96-2.02-2.94-3.08-11.12-12.02-18.88-24.14-24.3-34.47,4.86,1.27,12.26,2.58,21.21,1.77,11.63-1.05,20.35-5.19,25.19-7.95-3.21-1.36-6.46-2.82-9.72-4.42-28.67-14-50.27-33.34-66.28-52.14,3.14.6,7.23,1.01,11.93.44,11.83-1.42,19.78-8.04,22.98-11.05-14.08-3.23-42.67-12.02-65.84-37.56-7.73-8.53-13.26-17.15-17.23-24.74-.03,13.73-2.05,41.73-19.44,70.26-9.2,15.08-19.89,25.7-28.28,32.7,3.48.19,8.08.03,13.26-1.33,10.99-2.87,18.03-9.41,21.21-12.81,1.39,10.02,4.15,39.83-14.14,67.61-6.8,10.33-14.69,17.6-21.21,22.54-4.13,2.23-10.16,6.14-15.89,12.59-5.01,5.64-8,11.22-9.77,15.25,8.04-1.25,20.47-4.18,33.9-11.72,14.18-7.96,23.46-17.69,28.73-24.13-4.27,16.78-14.71,47.84-41.58,76.41-14.85,15.78-30.24,26.06-42.16,32.62,6.05,2.25,15.73,5,27.84,4.96,10.7-.04,19.39-2.24,25.17-4.19-8.56,16-25.71,42.55-56.82,63.68-14.55,9.88-28.6,16.16-40.21,20.23,8.66,4.67,22.42,10.66,40.21,12.74,10.85,1.27,20.33.74,27.72-.25-9.15,11.82-21.82,25.45-38.96,37.96-6.08,4.43-12.04,8.23-17.73,11.49,1.33,2.41,2.66,4.83,4,7.24-5.11,2.97-10.28,6.05-15.48,9.24-2.44,1.5-4.86,3-7.24,4.5,3.02,1.18,6.71,2.31,10.99,3,9.57,1.53,17.62.12,22.73-1.25-1.37,2.75-5.05,9.2-12.74,13.74-6,3.55-11.7,4.31-14.74,4.5,6.24,5.33,12.49,10.66,18.73,15.98-4.08,3.16-8.16,6.33-12.24,9.49-6.76-5.04-16.52-13.62-24.86-26.8-6.26-9.89-9.72-19.22-11.71-26.23,2.23-.22,4.46-.45,6.69-.67-8.35-9.26-18.2-22.06-26.8-38.68-5.86-11.32-9.86-21.94-12.64-31.1,4.45,2.49,13.98,7.02,26.8,7.08,10.88.05,19.24-3.13,23.73-5.22-8.51-3.91-22.13-11.49-34.85-25.42-15.14-16.57-21.48-33.9-24.19-43.36,7.57,3.86,18.88,8.43,33.2,10.14,7.7.92,14.57.81,20.29.31-7.24-4.68-19.94-14.32-29.2-31.05-5.27-9.52-7.84-18.45-9.16-25.14,2.87,1.81,11.4,6.67,22.68,5.47,6.25-.67,11-2.94,13.83-4.61-9.85-3.29-31.3-12.1-45.8-33.81-4.17-6.24-6.98-12.38-8.91-17.83,3.07,1.02,6.15,2.05,9.22,3.07.48-3.27.76-7.73,0-12.91-1.13-7.71-4.06-13.49-6.15-16.91,2.42,2,12.81,10.1,26.44,8.3,4.64-.61,8.38-2.2,11.07-3.69-2.13-.53-12.59-3.31-13.74-9.42-2.45-1.3-5.55-3.37-8.4-6.63-7.49-8.56-7.6-18.93-7.51-22.09,1.97.64,8.22,2.38,15.02-.44,3.36-1.39,5.68-3.41,7.07-4.86-7.22-2.52-21.59-8.67-33.58-22.98-6.78-8.09-10.61-16.18-12.81-22.09,1.88,1.94,5.37,5.01,10.6,7.07,6.72,2.64,12.66,2.17,15.47,1.77-8.92-8.38-20.19-21.1-29.16-38.88-3.98-7.89-6.81-15.39-8.84-22.09,1.16.89,4.81,3.47,10.16,3.53,5.62.07,9.48-2.67,10.6-3.53-6.68-7.3-14.11-16.52-21.21-27.84-8.57-13.65-14.27-26.51-18.12-37.12-2.67,9.55-9.89,30.38-29.16,49.05-17.58,17.03-36.47,23.8-45.95,26.51,3.54,1.9,8.79,4.18,15.47,5.3,9.87,1.66,18-.02,22.54-1.33-3.95,8.54-11.93,22.94-26.95,36.23-14.68,13-29.57,19.16-38.44,22.09,2.84,1.39,6.39,2.75,10.6,3.53,13.01,2.44,23.73-2.13,28.28-4.42-4.36,7.72-13.96,22.27-31.81,33.58-13.51,8.56-26.37,11.85-34.47,13.26,1.87,2.66,5.77,7.39,12.37,10.6,11.04,5.38,21.57,2.58,24.3,1.77-3.19,6.12-13.63,24.17-35.35,32.7-8.87,3.48-17.01,4.36-22.98,4.42,1.68,2.52,6.34,8.78,15.02,12.37,9.98,4.13,18.87,2.09,21.65,1.33-2.96,6.55-8.96,17.59-20.33,27.84-11.13,10.04-22.46,14.86-29.23,17.17-5.48-4.08-12.41-10.1-19.12-18.54-6.82-8.58-11.16-16.84-13.9-23.17,2.9,2.01,10.57,6.74,21.43,6.95,12.37.24,21.02-5.54,23.75-7.53-5.04-1.99-22.41-9.55-33.02-28.96-8.58-15.7-8.06-30.59-7.53-36.49,2.87,1.77,9.03,5.01,17.38,5.21,12.31.3,20.82-6.18,23.17-8.11-9.56-7.32-23.3-19.61-35.34-38.23-11.27-17.43-16.82-33.86-19.7-45.18,2.3,3.77,14.79,23.37,39.39,28.38,14.01,2.85,25.62-.32,31.28-2.32-12.03-9.16-31.85-26.92-45.76-55.61-7.77-16.03-11.48-30.88-13.32-42.29,2.9,5,14.36,23.38,37.65,30.7,13.62,4.28,25.48,2.96,31.86,1.74-15.97-13.54-43.68-41.02-59.67-84.57-7.6-20.7-10.55-39.6-11.59-54.45-11.5,12.5-28.95,28.7-53.29,42.87-30.02,17.48-58.06,24.62-76.62,27.81,5.16,5.08,13.04,11.73,23.91,17.38,11.56,6.01,22.16,8.62,29.54,9.85-5.36,7.67-22.2,29.65-53.45,39.97-25.99,8.59-48.28,4.6-57.77,2.32,4.9,4.54,12.55,10.43,23.17,14.48,22.76,8.69,43.33,2.92,50.4.58-10.73,11.38-27.44,26.51-50.98,39.39-27.47,15.03-52.86,20.77-69.51,23.17,6.94,3.53,16.31,7.4,27.81,9.85,17.03,3.63,31.57,2.62,41.13,1.16-6.44,7.28-18.69,19.23-37.65,27.81-17.29,7.82-32.85,9.53-42.29,9.85,1.72,4.28,4.8,9.91,10.43,14.48,17.87,14.53,43.53,3.94,44.6,3.48-5.55,6.02-13.72,13.57-24.91,20.27-15.39,9.22-29.9,12.89-39.39,14.48-3.02,3.48-10.98,11.72-24.23,15.36-16.89,4.65-30.76-1.37-34.48-3.14,2.7,4.49,10.65,16.37,26.35,23.49,16.62,7.53,31.64,5.06,36.66,4.01-5.96,6.87-13.15,14.12-21.77,21.2-25.34,20.79-51.55,30.61-69.89,35.52,4.39,3.48,12.71,9.15,24.63,12.03,13.22,3.19,24.22,1.34,29.79,0-7.38,8.6-18.04,19.12-32.65,28.64-24.64,16.05-48.56,21.44-63.02,23.49,6.79,3.98,16.23,8.41,28.07,10.88,27.47,5.75,50.14-2.68,59.58-6.87-.47,3.12-1.88,9.64-6.87,16.04-4.29,5.51-9.26,8.39-12.03,9.74,5.22.37,10.43.73,15.65,1.1-7.65,12.07-20.14,28.77-39.31,44.66-18.22,15.1-35.98,24.08-48.85,29.39,15.02,4.19,26.13,3.44,33.59,1.91,6.53-1.34,15.36-4.31,27.86-3.05,3.75.38,6.8,1.03,8.78,1.53-3.64,2.31-8.9,5.62-15.27,9.54-27.16,16.72-40.95,25.13-51.12,27.34-8.56,1.87-23.03,2.97-42.82-5.39,3.2.18,10.47.11,17.37-4.49,2.31-1.54,4.07-3.25,5.39-4.79-7.35-.43-15.74-1.83-24.56-5.09-36.71-13.57-52.36-48.95-56.3-58.7,5.08,2.15,11.75,4.4,19.77,5.69,11.14,1.8,20.64,1.06,27.25,0-5.73-2.98-14.38-7.51-24.86-13.18-11.88-6.42-24.72-13.54-28.15-15.57-10.57-6.24-28.3-21.07-46.12-61.39,16.23,9.95,27.91,10.56,35.72,9.12,6.46-1.19,13.53-4.39,25.19-4.03,5.86.18,10.63,1.19,13.77,2.02-2.83-4.15-7.49-10.19-14.44-16.12-10.01-8.53-16.97-10.17-25.53-16.12-6.66-4.63-15.38-12.63-22.84-27.21,4.38,1.24,10.48,2.45,17.8,2.35,9.62-.12,17.3-2.45,22.17-4.37-4.68-2.11-9.67-4.75-14.78-8.06-16.89-10.94-27.7-24.45-34.26-34.6,4.37,1.98,10.39,4.18,17.8,5.37,9.12,1.47,16.86.85,22.17,0-8.55-8.81-16.45-14.69-22.17-18.47-11.89-7.86-20.97-11.02-31.24-21.83-3.75-3.95-6.4-7.6-8.06-10.08,3.37,1.08,7.43,2.09,12.09,2.69,6.88.89,12.87.59,17.47,0-3.95-3.19-9.48-7.88-15.8-13.99-6.1-5.9-6.97-7.36-7.2-9.15-7.92-2.76-18.68-7.58-29.54-16.22-19.49-15.49-28.22-34.42-31.86-44.03,3.9,3.37,13.73,10.94,28.61,13.24,15.91,2.46,28.26-2.55,32.88-4.7-16.17-7.85-41.46-22.93-63.2-50.39-10.22-12.91-17.29-25.56-22.21-36.3,3.24,2.33,6.79,4.64,10.68,6.83,16.25,9.19,32.11,12.96,44.41,14.52-13.05-11.65-30.84-30.31-45.69-57.22-11.22-20.33-17.39-39.23-20.92-53.81-7.74,13.34-22.02,34.04-46.12,52.53-29.34,22.5-58.68,30.56-74.73,33.74,7.64,1.93,16.99,3.6,27.71,4.07,17.26.77,31.74-1.84,42.11-4.62-12.59,14.5-35.21,36.22-69.55,49.72-12.39,4.87-24.04,7.78-34.23,9.51,4.62,3.19,10.31,6.34,17.12,8.69,26.98,9.32,51.89-.74,60.31-4.62-5.78,6.72-13.72,14.75-24.18,22.55-10.57,7.88-20.64,13.22-28.8,16.84-.22,4.53-6.81,7.31-7.26,7.5-8.66,5.2-21.17,11.48-37.15,15.73-15.29,4.07-28.71,4.95-38.56,4.86,2.6,3.89,6.52,8.44,12.28,12,19.89,12.28,43.57,1.56,46.27.29-5.61,7.5-19.61,24.13-44.14,34.22-24.58,10.1-46.27,8.11-55.53,6.71,5.01,6.77,10.36,11.29,14.95,14.34,31.16,20.75,71.55,3.58,76.89,1.22-6.04,7.44-13.95,15.77-24.1,23.8-22.05,17.43-44.42,25.25-59.19,28.98-4.4-3.31-10.63-8.8-16.17-17.09-5.07-7.58-7.72-14.76-9.15-19.83,2.78,3.76,6.72,8.02,12.2,11.59,19.27,12.55,41.57,6.25,46.07,4.88-7.33-2.86-15.67-7.01-24.1-13.12-27.44-19.9-38.13-47.78-42.1-60.72,4.76,3.14,10.65,6.42,17.7,9.15,16.74,6.49,31.91,6.78,41.49,6.1-4.29-6.37-11.15-15.6-21.05-25.32-11.16-10.96-17.49-14.01-24.71-21.05-8.19-7.98-17.88-21.45-22.88-45.16,3.4,3.37,8.82,7.89,16.48,11.29,12.89,5.73,24.67,4.99,30.21,4.27-6.17-9.24-12.62-14.71-17.39-18-9.73-6.71-20.31-9.78-22.27-18.61-.42-1.88-.33-3.51-.21-4.52,2.14-2.64,4.29-5.29,6.43-7.93-2.33-2.21-5.18-5.38-7.72-9.65-3.74-6.28-5.18-12.21-5.79-16.08,2.34,2.32,9.12,8.44,19.94,10.29,11.87,2.03,21-2.37,23.8-3.86-9.65-6.57-30.12-22.54-41.17-50.81-4.9-12.54-6.59-24.04-7.08-32.8-9.19,9.39-22.73,21.2-41.17,31.52-14.36,8.04-27.77,12.97-38.59,16.08,2.95,2.06,6.81,4.23,11.58,5.79,14.35,4.7,27.16.63,32.16-1.29-4.1,5.97-11.42,14.98-23.16,22.51-17.11,10.98-33.92,12.61-41.81,12.86,4.49,1.94,11.23,4.22,19.67,4.85,11.66.87,20.94-1.83,26.17-3.79-1.56,4.32-5.19,12.37-13.27,18.96-15.69,12.8-34.94,9.31-37.92,8.72,2.4,2.02,4.8,4.05,7.21,6.07-3.52.72-8.73,1.35-14.79.38-11.46-1.83-17.94-8.09-29.96-18.2-24.88-20.93-35.03-25.98-33.4-29.89-13.61-17.28-27.23-34.56-40.84-51.83,11.39,7.75,29.12,17.76,52.62,23.56,14.77,3.65,27.97,4.69,38.48,4.71-21.78-9.71-53.61-27.38-83.25-58.9-15.28-16.24-26.44-32.42-34.56-46.34,8.6,7.08,22.21,16.47,40.84,22.78,11.3,3.82,21.56,5.54,29.84,6.28-21-14.96-50.42-40-75.39-78.54C15.33,37.52,6.16,17.11,0,0v1273.39h1920V264.97c-2.56,9.61-7.78,24.44-18.95,39.77Z"/><path class="cls-2" d="m345.85,284.63c2.1,3.28,6.12,3.38,6.44,3.39,2.76-1.67,7.27-3.96,13.21-5.08,2.82-.53,18.05-3.4,30.49,6.77,4.88,3.99,7.79,8.74,9.54,12.73-.12-1.3-.2-2.62-.45-3.97-.31-1.68-.94-3.76-2.28-6.12.82.79,1.75,1.57,2.82,2.32,3.49,2.41,6.86,3.3,8.82,3.66-4.8-10.77-9.59-23.47-13.51-37.95-2.6-9.61-4.46-18.68-5.79-27.02-2.86,7.22-12.01,27.48-33.45,37.31-5.25,2.4-10.3,3.76-14.79,4.5-2.47,2.74-2.85,6.66-1.05,9.46Z"/></g></g><g id="Layer_26"><path class="cls-4" d="m1673.93,165.11c.45,8.18,2.4,18.27,8.17,28.13,20.72,35.43,70.82,33.93,73.36,33.82-10.34-2.29-28.13-7.63-46.3-21.07-19.55-14.46-30.16-31.34-35.23-40.87Z"/><path class="cls-4" d="m1722.09,238.02c-2.28-.12-5.23-.5-8.52-1.54-4.59-1.45-8-3.61-10.2-5.27,3.5,8.55,9.09,19.01,18.19,29.08,27.47,30.38,65.72,33.73,76.53,34.3-12.69-5.48-28.77-13.93-45.41-26.98-12.98-10.18-23.03-20.58-30.59-29.58Z"/><path class="cls-4" d="m1682.5,221.81c1.21,7.23,2.08,17.17.75,28.81-1.67,14.49-6.1,25.87-9.69,33.28,3.72-2.26,13.15-8.67,18.63-21.11,7.15-16.22,2.45-31.04,1.24-34.52-3.64-2.15-7.29-4.3-10.93-6.46Z"/><path class="cls-4" d="m1626.2,268.06c-.19-.55,8.62-2.14,18.8-9.5,13.13-9.5,19.27-21.94,21.61-26.82,6.81-14.21,7.58-27.26,7.45-34.52,1.52,4.92,3.47,13.43,2.24,23.84-.52,4.4-2.66,20.49-15.62,32.86-14.55,13.89-34.19,14.95-34.47,14.14Z"/><path class="cls-4" d="m1751.7,300.76c13.94,13.8,22.14,27.09,27.19,37.5.48.99,1.02,2.33,3.84,8.76,7.22,16.41,10.83,24.61,11.88,26.7,3.79,7.58,12.75,17.77,36.69,25.6-26.44,7.29-40.4-.52-44.79-3.41-13.2-8.69-17.94-25.53-26.88-58.87-4.03-15.03-6.47-27.66-7.93-36.27Z"/><path class="cls-4" d="m1725.84,306.57c2.77,2.9,5.77,6.48,8.67,10.8,4.58,6.82,7.45,13.34,9.28,18.57,1.14-9.17-.28-16.17-1.52-20.39-1.37-4.65-4.12-13.97-9.13-14.3-3.26-.21-30.83-28.69-7.3,5.33Z"/><path class="cls-4" d="m1755.77,371.43c3.49,1.98,7.4,4.54,11.42,7.84,6.36,5.21,10.98,10.62,14.24,15.1-1.56-9.11-4.93-15.4-7.34-19.09-2.65-4.05-7.97-12.19-12.87-11.06-3.19.74-37.79-18.58-5.46,7.21Z"/><path class="cls-4" d="m1680.84,305.59c.6,4.21,1.03,11.13-1.13,19.18-3.04,11.33-9.52,18.6-12.79,21.82,5.2-2.07,14.02-6.39,22.19-15.05,6.43-6.8,11.2-32.26,13.2-36.97-6.77-2.51-14.7,13.52-21.47,11.01Z"/><path class="cls-4" d="m1669.96,296.58c-4,9.68-10.15,21.64-19.67,33.9-17.52,22.55-37.88,35.01-50.64,41.43,9.37-1.49,21.4-4.69,33.9-11.72,10.47-5.89,24.59-13.83,32.22-30.55,6.02-13.19,5.28-25.86,4.19-33.06Z"/><path class="cls-4" d="m1694.66,361.86c.17,7.84-.57,23.4-9.21,40.18-11.29,21.93-29.13,32.41-35.99,35.99,24.08,3.16,35.11-3.08,40.6-8.37,10.62-10.25,9.64-23.51,19.67-62.78,3.27-12.8,6.38-23.03,8.37-29.3-7.81,8.09-15.62,16.18-23.44,24.27Z"/><path class="cls-4" d="m1760.51,401.41c-1.07-10.37-5.61-16.11-10.44-26.8-3.14-6.97-5.66-9.13-7.9-23.06-6.45-9.3-18.5-19.33-20.05-18.92,9.6,7.43,17.32,44.9,18.94,50.28,3.81,12.69,2.9,7.94,9.35,16.81l10.1,1.69Z"/><path class="cls-4" d="m1578.89,445.31c11.06-3.33,26.02-9.34,41.19-20.62,30.97-23.04,43.34-53.54,47.84-66.95-4.01,29.01-12.42,50.56-19.16,64.53-7.27,15.07-12.03,20.16-17.23,23.58-19.89,13.08-46.81,2-52.65-.54Z"/><path class="cls-4" d="m1789.38,405.86c-1.12,7.29-1.13,13.83-.57,19.51,4.29,43.59,44.9,69.85,54.64,75.81-12.17-15.52-25.24-34.73-37.2-57.8-6.83-13.16-12.36-25.78-16.87-37.52Z"/><path class="cls-4" d="m1767.06,462.63c.09,3.97.82,16.63,8.78,27.79,8.63,12.11,16.99,10.17,29.65,22.53,7.77,7.58,12.2,15.71,14.71,21.35.44-2.92,1-9.35-1.95-16.58-2.29-5.62-5.71-9.29-7.8-11.21-2.62-1.05-6.02-2.82-9.26-5.85-8.61-8.04-9.58-18.84-9.75-21.94-3.52-2.34-8.26-6.07-12.68-11.7-5.86-7.47-8.5-14.88-9.75-19.5-1,3.54-2.1,8.78-1.95,15.11Z"/><path class="cls-4" d="m1471.55,269.39c-5.8-5.42-12.29-12.42-18.52-21.22-10.48-14.81-16.23-29.13-19.48-39.76-.78,1.8-1.74,4.46-2.29,7.77-1.98,11.88,3.17,21.51,5.59,26.05,9.91,18.56,29.79,25.57,34.7,27.16Z"/><path class="cls-4" d="m1414.99,143.46c4.84,10.53,10.79,22.05,18.14,34.13,7.09,11.66,14.31,21.92,21.19,30.82-5.88-2.27-16.18-7.23-24.97-17.61-16.29-19.24-14.81-42.23-14.35-47.34Z"/><path class="cls-4" d="m1426.46,254.42c-1.62,3.93-3.52,8.06-5.75,12.32-.99,1.9-2,3.72-3.01,5.48-1.15-.98-2.35-2.08-3.56-3.29-1.79-1.79-3.33-3.54-4.65-5.2,1.29.39,3.49.83,5.75,0,.86-.32,2.91-1.25,7.12-8.49,1.55-2.67,2.72-5.03,3.56-6.84.18,2.01.36,4.02.55,6.02Z"/><path class="cls-4" d="m1417.7,234.7c-2.89,2.66-6.52,5.62-10.95,8.49-4.57,2.96-8.89,5.1-12.59,6.66,1.76-3.24,3.53-6.82,5.2-10.76,2.76-6.52,4.68-12.64,6.02-18.07.55,1.8,1.74,4.9,4.38,7.94,2.91,3.35,6.16,5,7.94,5.75Z"/><path class="cls-4" d="m1750.17,414.73c-3.19,5.38-7.84,12.01-14.48,18.64-9.14,9.13-18.47,14.7-25.22,18.03,3.53-4.6,8.21-11.85,11.29-21.67,4.36-13.88,3.34-25.87,2.29-32.36,3.98,1.64,8.72,3.97,13.75,7.29,5.17,3.42,9.26,6.98,12.37,10.08Z"/><path class="cls-4" d="m1737.63,545.66c-7.89,3.25-12.99,6.04-18.24,3.96-5.2-2.06-7.59-7.46-8.48-9.87-3.28,2.39-6.56,4.78-9.84,7.18-1.5-.35-3-.71-4.5-1.06-.32-1.53-.64-3.07-.97-4.6-1.01,1.77-3.05,4.68-6.42,5.58-1.96.52-4.49.39-11.99-3.96-3.43-1.99-7.96-4.89-12.97-8.97,4.19.62,10.5.96,17.64-1.09,16.86-4.83,24.94-19.08,26.74-22.46.25,3.86,1.34,10.86,6.39,16.98,8.15,9.87,23.22,13.3,38.01,8.59-3.11,2.81-8.21,6.77-15.39,9.73Z"/><path class="cls-4" d="m1491.05,305.49c-6.1-2.13-16.28-6.56-26.11-15.75-11.7-10.94-16.93-23.02-19.17-29.38-.23.95-4.73,21.07,10.21,35.63,14.55,14.18,33.9,9.79,35.07,9.5Z"/><path class="cls-4" d="m1499.16,348.65c-2.92-.82-5.97-2.04-9-3.86-16-9.59-19.57-28.66-20.35-33.63-1.6-.2-3.71-.65-6-1.71-4.59-2.14-7.19-5.53-8.35-7.28-.18,4.1-.19,16.58,8.35,28.28,12.47,17.08,32.69,18.12,35.35,18.21Z"/><path class="cls-4" d="m1445.99,325.93c1.15,2.84,3.18,6.95,6.76,11.11,3.52,4.1,7.2,6.71,9.81,8.28,1.79,2.97,4.17,7.7,5.45,13.95,1.31,6.39.94,11.79.44,15.26-3.51-2.64-7.48-6.25-11.11-11.11-10.93-14.63-11.5-30.78-11.33-37.49Z"/><path class="cls-4" d="m1512.92,422.99c.42-1.07-17.51-4.43-34.55-21.6-10.54-10.61-16.53-22.26-20.07-31.25-1.92-.79-4.31-1.98-6.82-3.79-2.73-1.96-4.73-4.03-6.13-5.7,1.25,8.18,4.09,18.66,10.92,28.8,19.12,28.4,56.28,34.49,56.66,33.54Z"/><path class="cls-4" d="m1477.05,421.99c1.08,5.65,3.14,13.41,7.44,21.78,11.77,22.96,31.34,33.09,30.36,34.5-.95,1.37-18.97-5.7-34.29-21.28-16.27-16.55-22.87-35.95-25.82-48.75,7.44,4.58,14.87,9.16,22.31,13.74Z"/><path class="cls-4" d="m1461.93,467.72c2.57,9.02,8.34,24.8,21.61,40.43,13.67,16.1,28.84,24.41,37.43,28.35-10.3-2.57-33.82-9.89-55.13-31.07-21.31-21.18-28.77-44.65-31.4-54.94,4.93,3.54,10.3,7.13,16.11,10.68,3.88,2.37,7.68,4.55,11.37,6.55Z"/><path class="cls-4" d="m1509.88,604.43c-9.86-3.77-24-10.71-37.43-23.57-27.74-26.56-33.08-59.84-34.38-71.1,2.71,3.59,6.29,7.68,10.94,11.72,7.82,6.79,15.64,10.8,21.43,13.17,2.18,8,5.29,17.07,9.83,26.68,9.06,19.22,20.4,33.42,29.61,43.1Z"/><path class="cls-4" d="m1580.01,679.3c-9.89-2.92-25.1-8.82-40.25-21.17-23.35-19.04-32.93-42.3-36.57-53.03-4.05.79-9.27,1.35-15.28.85-12.77-1.06-22.17-6.31-27.09-9.59-5.83-3.89-11.67-7.78-17.5-11.67,4.66,13.48,12.49,30.77,26.02,48.14,31.77,40.8,74.13,55.28,91.93,60.22-11.88-6.39-30.06-18.16-46.33-38.44-10.74-13.38-17.42-26.45-21.61-36.58,5.08,9.33,15.01,24.67,32.61,38.11,21.46,16.39,43.12,21.4,54.08,23.16Z"/><path class="cls-4" d="m1487.57,673.74c3.13,5.24,7.86,12.4,14.56,20.1,8.39,9.66,30.4,34.99,64.47,42.29,44.07,9.44,80.23-17.29,86.29-21.91-15,28.33-43.2,46.75-73.8,47.48-46.69,1.11-73.07-39.58-77.66-47.06-9.65-15.73-12.75-31.07-13.87-40.9Z"/><path class="cls-4" d="m1594.87,702.06c7.23-1.96,15.1-4.71,23.28-8.61,29.98-14.27,48.29-36.32,58.09-50.7-2.11,25.49-16.66,47.48-38.25,56.97-19.08,8.39-37.03,4.09-43.13,2.34Z"/><path class="cls-4" d="m1391.27,535.93c3.49,10.02,7.54,20.46,12.23,31.2,11.95,27.34,25.51,50.72,38.74,70.25,11.39-29.21,8.25-42.95,2.6-50.05-2.69-3.38-5.57-5.17-9.98-10.67-7.23-9.01-9.75-19.4-10.56-27.88-3.82,0-9.21-.44-15.29-2.45-8.56-2.82-14.46-7.41-17.74-10.4Z"/><path class="cls-4" d="m1458.85,715.99c2.24,8.99,5.93,19.81,12.23,31.2,15.28,27.61,37.22,42.93,49.55,50.16-1.73-9.78-4.79-22.03-10.4-35.48-5.75-13.8-12.49-24.82-18.35-33.03-3.82,0-9.21-.44-15.29-2.45-8.56-2.82-14.46-7.41-17.74-10.4Z"/><path class="cls-4" d="m1764.52,788.65c-28.96-19.4-40.02-51.08-44.24-63.15-3.37-9.64-5.11-18.04-6.08-24.07-1.51,5.55-3.08,13.09-3.52,22-.11-.38-.21-.76-.3-1.11-1.95,8.9-3.68,19.86-4.01,31.99-.81,29.4,7.04,49.02,11.97,58.77,2.38-8.88,4.85-20.05,6.41-32.79,8.13,14.29,21.17,29.03,41.92,36.73,28.7,10.65,61.71,3.98,86.13-16.78-7.34,2.05-50.83,13.49-88.27-11.59Z"/><path class="cls-4" d="m1740.38,613.41c-7.84,4.94-16.96,11.84-25.8,21.39-21.44,23.16-29.12,48.79-32.12,62.77,8.74-4.71,19.42-11.45,30.44-20.99,11.3-9.78,19.66-19.64,25.63-27.77-1.19-3.63-2.46-8.89-2.46-15.29,0-9.02,2.51-16.06,4.32-20.1Z"/><path class="cls-4" d="m1753.02,535.93c-2.24,8.99-5.93,19.81-12.23,31.2-15.28,27.61-37.22,42.93-49.55,50.16,1.73-9.78,4.79-22.03,10.4-35.48,5.75-13.8,12.49-24.82,18.35-33.03,3.82,0,9.21-.44,15.29-2.45,8.56-2.82,14.46-7.41,17.74-10.4Z"/><path class="cls-4" d="m1408.11,471.58c-.87,4.35-2.39,14.99,2.48,26.88,3.38,8.25,8.43,13.66,11.58,16.54-5.75-1.62-13.51-4.76-20.67-11.16-21.36-19.09-17.85-49.65-17.37-53.34,1.57,3.28,4.78,8.88,10.83,13.86,4.98,4.1,9.92,6.17,13.15,7.23Z"/><path class="cls-4" d="m1742.97,490.25c-.87,4.35-2.39,14.99,2.48,26.88,3.38,8.25,8.43,13.66,11.58,16.54-5.75-1.62-13.51-4.76-20.67-11.16-21.36-19.09-17.85-49.65-17.37-53.34,1.57,3.28,4.78,8.88,10.83,13.86,4.98,4.1,9.92,6.17,13.15,7.23Z"/><path class="cls-4" d="m1645.04,459.78c-.58-.21-3.25,21.37-19.69,39.84-25.24,28.37-66.55,30.96-90.84,30.14,20.34,11.94,45.18,21.53,66.18,12.71,37.33-15.68,45.37-82.32,44.35-82.69Z"/><path class="cls-4" d="m1664.16,471.2c-2.13,10.87-7.16,28.63-20.2,46.47-7.37,10.08-15.28,17.42-21.81,22.56,8.33-.89,24.09-3.85,38.44-15.59,32.32-26.44,26.17-71.81,25.71-74.78-1.61,3.53-4.85,9.38-11,14.59-4.09,3.46-8.13,5.53-11.14,6.76Z"/><path class="cls-4" d="m1541.54,674.67c4.64,1.13,9.71,2.14,15.17,2.94,8.53,1.24,16.36,1.69,23.29,1.7-6.62-1.95-14.71-4.97-23.38-9.77-6.77-3.75-12.37-7.75-16.87-11.4,4.07-3.25,8.14-6.5,12.21-9.74-6.24-5.24-12.47-10.49-18.71-15.73,3.19-.22,11.15-1.21,18.58-7.17,4.86-3.89,7.52-8.32,8.89-11.07,5.34-2.02,13.83-6.03,22.01-13.89,6.14-5.9,10-11.96,12.34-16.4,1.21,4.35,4.42,17.99-2.01,32.96-4.2,9.79-10.66,15.83-14.34,18.79,6.19-2.21,13.37-5.47,20.77-10.39,19.91-13.22,30.09-30.86,34.81-40.82.73,5.84,6.61,59.49-30.22,89.78-10.12,8.32-20.94,12.8-30.03,15.28,4.93,1.42,16.24,3.94,29.5,0,8.32-2.47,14.31-6.56,17.91-9.48-7.77,17.65-18.89,25.37-24.23,28.45-25.96,14.97-64.94,6.62-94.89-22.73l27.45-4.75c3.49,1.83,7.34,3.65,11.52,5.37,7.17,2.95,13.91,5.01,19.92,6.47-4.48-4.18-8.96-8.36-13.45-12.54-2.09-1.95-4.18-3.9-6.27-5.85Z"/><path class="cls-4" d="m1756.43,650.65c-.48,4.75-.78,9.92-.81,15.43-.05,8.62.59,16.44,1.53,23.3,1.01-6.83,2.89-15.26,6.45-24.51,2.78-7.22,5.96-13.32,8.96-18.28,3.78,3.58,7.56,7.17,11.34,10.75,4.33-6.9,8.66-13.8,13-20.7.66,3.13,2.74,10.88,9.66,17.42,4.52,4.27,9.28,6.3,12.19,7.27,2.74,5.01,7.88,12.87,16.79,19.88,6.69,5.26,13.22,8.25,17.95,9.96,5.81,8.3,11.62,16.6,17.42,24.89-38.91,19.03-80.3,18.18-105.63-3.49-5.73-4.9-13.62-13.42-19.28-27.63-.73,5.08-1.65,16.63,4.07,29.22,3.59,7.89,8.47,13.27,11.86,16.43-18.55-5.26-27.73-15.21-31.52-20.07-18.41-23.64-15.53-63.41,9.41-97.12,2.83,8.84,5.67,17.69,8.5,26.53-1.33,3.71-2.6,7.77-3.73,12.15-1.93,7.51-3.04,14.47-3.66,20.62,5.16-7.35,10.33-14.71,15.49-22.06Z"/><path class="cls-4" d="m1546.07,591.72c1.35,2.53,2.7,5.05,4.06,7.58,6.47-1.05,13.99-3.02,21.87-6.7,27.74-12.98,40.22-38.04,44.38-47.63-6.39,7.77-15.78,17.55-28.82,26.68-15.75,11.02-30.8,16.87-41.48,20.07Z"/><path class="cls-4" d="m1581.22,604.28c1.35,2.53,2.7,5.05,4.06,7.58,6.47-1.05,13.99-3.02,21.87-6.7,27.74-12.98,40.22-38.04,44.38-47.63-6.39,7.77-15.78,17.55-28.82,26.68-15.75,11.02-30.8,16.87-41.48,20.07Z"/><path class="cls-4" d="m1635.56,526.72c1.35,2.53,2.7,5.05,4.06,7.58,6.47-1.05,13.99-3.02,21.87-6.7,27.74-12.98,40.22-38.04,44.38-47.63-6.39,7.77-15.78,17.55-28.82,26.68-15.75,11.02-30.8,16.87-41.48,20.07Z"/><path class="cls-4" d="m1666.93,431.63c-5.82,2.13-11.65,4.27-17.47,6.4,2.53.78,32.81,9.53,56.13-10.03,12.96-10.88,17.12-24.93,18.47-30.64-5.1,6.7-14.89,17.68-30.68,25.71-10.16,5.17-19.57,7.48-26.44,8.57Z"/><path class="cls-4" d="m1638.26,648.66c-3.87,4.84-7.75,9.69-11.62,14.53,2.56-.65,33-8.87,42.79-37.68,5.44-16.02,1.71-30.2-.1-35.77-.88,8.38-3.57,22.84-12.9,37.89-6.01,9.69-12.85,16.54-18.17,21.04Z"/><path class="cls-4" d="m1680.36,720.37c-.04.13-.08.26-.13.39.01-.13.03-.26.04-.39-9.8,14.38-28.11,36.44-58.09,50.7-8.18,3.89-16.06,6.65-23.28,8.61,6.09,1.76,24.05,6.05,43.13-2.34,11.72-5.15,21.36-14,28.07-25.08,0,0,0,.02,0,.03-1.37,6.16-3.76,13.89-8.13,22.14-8.1,15.31-18.98,24.87-25.93,30.02-5.53,6.91-11.05,13.82-16.58,20.74,3.66-.92,47.08-12.65,61.05-53.77,7.77-22.86,2.44-43.09-.14-51.05Z"/><path class="cls-4" d="m1857.56,351.57c7.19-.57,19.43-2.49,32.57-9.72,16.74-9.2,25.89-22.04,29.87-28.47-.3,1.88-4.76,27.09-27.9,37.18-16,6.98-30.8,2.31-34.54,1.01Z"/><path class="cls-4" d="m1920,367.91c-4.01,8.82-10.69,20.76-21.71,32.61-16.7,17.95-35.05,26.7-45.79,30.84,5.79.28,27.2.6,46.35-14.75,13.17-10.55,18.88-23.4,21.15-29.57v-19.13Z"/><path class="cls-4" d="m1850.92,500.6c8.65-2.58,27.25-9.39,43.82-26.93,18.2-19.27,23.55-40.48,25.26-49.3v37.43c-1.99,6.06-6.1,15.46-14.76,23.74-21.04,20.1-50.28,15.73-54.32,15.06Z"/><path class="cls-4" d="m1920,340.63c-.57,1.79-2.15,5.86-6.17,9.3-3.42,2.92-6.96,3.98-8.78,4.39,1.94.67,7.07,2.11,12.18-.23,1.07-.49,1.99-1.08,2.77-1.68v-11.78Z"/><path class="cls-4" d="m1920,497.63c-5.59,12.78-16.53,33.35-37,52.81-23.41,22.25-47.98,32.28-61.78,36.77,6.57,1.74,24.32,5.51,44.86-1.84,23.35-8.35,35.18-25.65,38.61-31.11,1.24-6.81,4.02-16.14,10.66-25.15,1.52-2.05,3.08-3.89,4.64-5.52v-25.96Z"/><path class="cls-4" d="m1799.85,528.06c-.21,5.08.09,14.65,4.89,25.22,6.01,13.23,15.63,20.47,19.95,23.33-7.77-2.36-23.09-8.2-36.51-22.58-20.76-22.24-22.08-48.96-22.2-56.08,3.99,4.89,8.96,10.32,15.05,15.81,6.66,6,13.13,10.68,18.82,14.3Z"/><path class="cls-4" d="m1799.86,597.45c-4.65-1.38-9.72-3.44-14.83-6.53-22.75-13.74-30.16-38.03-32.34-46.57,5.03,4.98,10.07,10.02,15.13,15.13,5.31,5.36,10.55,10.7,15.72,16.02,3.6,3.62,7.52,8.13,11.27,13.65,1.95,2.87,3.62,5.67,5.04,8.31Z"/><path class="cls-4" d="m1781.37,595.15c-3.9-1.82-8.05-4.03-12.34-6.7-9.92-6.19-17.58-13.03-23.28-19.05,1.95,9.37,5.14,16.95,8.46,22.93,24.26,43.56,82.14,49,91.35,49.73-10.3-5.03-22.32-11.87-34.92-21.16-11.96-8.82-21.64-17.77-29.27-25.75Z"/><path class="cls-4" d="m1692.07,544.38c-6.63,6.64-13.98,15.14-20.95,25.72-12.17,18.49-18.44,36.2-21.84,49.22-2.54-6.67-4.91-15.35-5.4-25.61-1.43-30.1,14.38-52.24,20.35-59.79,2.69,2.47,7.69,6.38,15,8.67,5.14,1.61,9.68,1.87,12.84,1.79Z"/><path class="cls-4" d="m1763.85,434.33c-2.65,4.83-5.4,10.83-7.59,17.94-3.82,12.42-4.45,23.44-4.23,31.33-2.53-3.34-5.29-7.85-7.25-13.55-5.75-16.74-.47-31.81,1.65-37.05,2.1-3.63,6.17-5.58,10.1-4.88,5.21.92,7.22,5.96,7.31,6.21Z"/><path class="cls-4" d="m1676.06,370.99c1.07,6.69,1.75,16.17-.27,27.15-3.8,20.74-14.94,34.58-20.59,40.71-1.91-.27-3.83-.55-5.74-.82,5.11-6.71,10.95-15.67,15.92-26.93,6.92-15.65,9.6-29.88,10.68-40.11Z"/><path class="cls-4" d="m1704.84,534.33c-4.32,4.99-9.12,11.8-12.8,20.64-11.4,27.37-3.58,53.73-.8,61.93.15-11.36,1.01-24.43,3.2-38.76,2.59-16.91,6.44-31.62,10.4-43.81Z"/><path class="cls-4" d="m1406.73,441.88c.45,5.37,1.9,14.43,7.17,24.24,6.08,11.32,14.23,18.03,18.8,21.27-3.7.15-9.67.02-16.57-1.98-3.84-1.11-25.28-7.3-30.67-25.73-.9-3.06-2.16-9.21,0-17.56.14-.54-1.1,10.15-5.44,18.8-5.89,11.75-17.44,17.9-26.47,21.27,4.02-3.23,10.67-9.52,14.84-19.54,8.26-19.84.15-38.28-1.48-41.81,3.07,3.58,7.67,8.11,14.1,12.12,10.18,6.34,19.97,8.25,25.73,8.91Z"/><path class="cls-4" d="m1911.31,536.32c-.07,6.28.32,13.77,1.72,22.1,1.68,9.97,4.35,18.4,6.97,25.03-1.79-1.81-3.98-4.39-5.96-7.81-1.8-3.12-2.9-6.02-3.59-8.32-.53,2.19-1.72,5.89-4.59,9.61-3.53,4.58-7.74,6.79-9.9,7.75,2.18-2.37,5.39-6.46,7.61-12.34,1.89-5.02,2.36-9.48,2.44-12.48-1.34-4.47-2.85-11.35-2.51-19.79.33-8.29,2.29-14.92,3.95-19.24.37,2.96.99,6.31,2.01,9.9.57,2.01,1.21,3.88,1.87,5.6Z"/><path class="cls-4" d="m1814.08,641.46c3.13,1.96,7.59,4.39,13.23,6.37,4.49,1.57,35.43,12.43,59.46-6.12,0,0,25.48-18.42,21.73-55.96,0,0,0,0,0,0,0-.05,0-.09,0-.12,0-.06,0-.06,0-.06.04-.03,3.3,4.06,5.33,6.39,1.36,1.56,3.4,3.73,6.19,6.13-1.01,7.45-3.43,18.89-9.87,31.36-3.82,7.41-13.79,26.16-36.02,38.23-17.67,9.59-34.32,10.36-42.51,10.17-2.16-2-4.55-4.49-6.93-7.52-2.52-3.21-4.45-6.29-5.93-8.99,2.16,1.08,4.66,2.17,7.49,3.15,3.43,1.18,6.6,1.94,9.36,2.44-3.43-2.24-7.93-5.69-12.3-10.78-4.69-5.45-7.52-10.8-9.22-14.7Z"/><path class="cls-4" d="m1452.77,444.18c-3.32-4.4-6.84-9.89-9.92-16.53-7.11-15.34-8.46-29.55-8.5-38.73-3.01-2.39-6.94-5.09-11.81-7.56-5.12-2.59-9.85-4.18-13.7-5.2,2.13,9.32,6.59,23.63,16.53,38.73,9.37,14.23,19.97,23.65,27.39,29.28Z"/><path class="cls-4" d="m1427.74,280.6c.27,3.97.15,10.8-3.26,18.09-7.45,15.95-24.2,20.36-26.78,20.99,3.34,1.1,8.85,2.44,15.56,1.81,4.17-.39,19.54-1.84,24.25-13.03,3.61-8.59-.2-20.24-9.77-27.87Z"/><path class="cls-4" d="m1882.41,781.93c.27,3.97.15,10.8-3.26,18.09-7.45,15.95-24.2,20.36-26.78,20.99,3.34,1.1,8.85,2.44,15.56,1.81,4.17-.39,19.54-1.84,24.25-13.03,3.61-8.59-.2-20.24-9.77-27.87Z"/><path class="cls-4" d="m1690.3,839.88c-3.72,1.39-10.31,3.23-18.27,2.05-17.42-2.58-26.42-17.37-27.77-19.66-.1,3.51.19,9.18,2.71,15.43,1.57,3.88,7.35,18.2,19.42,19.51,9.27,1.01,19.34-5.97,23.91-17.33Z"/><path class="cls-4" d="m1902.64,664.28c-1.58,4.13-5.36,12.24-13.74,18.74-14.92,11.57-32.36,8.71-35.41,8.16-6.25,1.38-12.5,2.76-18.74,4.13,7.96,13.35,21.83,21.43,36.17,20.76,12.93-.61,21.66-8.12,24.4-10.7-2.91,1.13-10.73,3.72-19.9,1.07-4.53-1.31-7.89-3.46-10.06-5.14,3.66.28,12.42.43,20.97-4.92,16.32-10.21,16.34-30.75,16.32-32.1Z"/><path class="cls-4" d="m1901.29,726.59c-3.15,7.59-12.63,27.48-34.57,39.65-40.11,22.24-82.96-2.87-84.95-4.09,12.18,2.6,40.99,6.98,73.59-5.45,22.52-8.59,37.64-21.69,45.93-30.11Z"/><path class="cls-4" d="m395.14,233.36c-1.73,5.13-3.23,11.88-3.02,19.76.67,24.77,17.8,41.14,22.32,45.21-3.82-8.05-7.68-17.41-11.03-28.03-4.32-13.67-6.82-26.21-8.26-36.94Z"/><path class="cls-4" d="m405.52,302.43c-.06-1.5-.27-3.87-1.14-6.6-2.5-7.85-7.67-10.08-11.3-17.57-1.1-2.27-2.43-5.79-2.86-10.68-1.59,4.8-3.92,6.99-5.71,8.1-2.17,1.35-3.79,1.27-7.43,2.75-3.2,1.3-5.58,2.84-7.03,3.88,2.92-.28,15.89-1.19,26.54,7.91,4.94,4.23,7.58,9.06,8.94,12.21Z"/><path class="cls-4" d="m346.9,275.17c3.02.67,8.65,1.5,15.4-.08,7.7-1.8,12.81-5.8,15.17-7.9-1.01,2.88-2.33,4.89-3.32,6.16-7.25,9.38-20.32,9.84-23.7,9.95-2.23.08-4.08-.05-5.32-.18-.29-.61-.72-1.78-.63-3.26.18-2.68,1.98-4.34,2.4-4.7Z"/><path class="cls-4" d="m278.72,162.6c-2.43,5.2-6.05,14.94-5.06,27.17,2.02,24.96,21.54,39.26,24.72,41.51-5.81-3.19-13.33-8.24-20.48-16.06-3.45-3.77-6.18-7.49-8.33-10.88.72,6.29,2.57,11.16,4.46,14.76,13.36,25.51,49.46,27.02,52.94,27.11-8.49-6.01-23.61-18.4-34.91-39.33-9.64-17.85-12.43-34.37-13.33-44.29Z"/><path class="cls-4" d="m296.73,265.52c-2.48-2.35-5.87-6.1-8.71-11.42-3.02-5.65-4.25-10.83-4.79-14.31-2.26,2-3.45,4.03-4.11,5.66-3.29,8.11,1.25,19.2,11.19,28,1.06-.72,2.38-1.47,3.98-2.08,3.96-1.53,7.55-1.43,9.68-1.18-2.41-1.56-4.82-3.11-7.22-4.67Z"/><path class="cls-4" d="m278.27,253.93c-.95,7.5-.1,13.58,1.09,18.09,8.25,31.26,47.36,41.7,50.81,42.56-3.4-5.2-6.75-8.82-9.05-11.07-9.86-9.63-17.53-10.83-25.09-20.44-3-3.81-4.77-7.4-5.73-9.62-1.8-1.52-3.88-3.55-5.85-6.21-3.72-5.02-5.38-10-6.18-13.31Z"/><path class="cls-4" d="m1339.87,219.02c5.41,1.1,14.97,2.31,26.35-.34,14.22-3.31,23.6-10.85,27.84-14.75-1.13,3.29-5.36,14.3-16.19,19.07-6.15,2.71-11.93,2.23-17.05,1.94-9.3-.52-16.56-3.6-20.95-5.92Z"/><path class="cls-4" d="m1312.47,281.32c6.66.27,15.54-.19,25.46-3.06,21.94-6.35,35.3-20.58,40.86-27.33-.55,2.14-.95,4.49-1.08,7.04-.72,13.89,6.98,24.53,10.6,28.91-1.49,0-10.41-.16-16.3-7.19-2.58-3.08-3.62-6.34-4.08-8.39-3.92,2.81-9.94,6.61-17.91,9.79-4.77,1.9-9.32,3.61-15.36,4.27-9.11,1-16.92-1.6-22.19-4.03Z"/><path class="cls-4" d="m1285.08,327.28c.7-1.13,7.51,3.51,14.78,5.15,9.96,2.24,25.11-.21,47.7-21.09-1.14,2.28-2.57,5.8-3.12,10.31-.71,5.79.36,10.5,1.2,13.18-2.03-1.45-5.36-3.33-9.35-3.12-6.02.32-7.79,5.09-14.54,7.95-8.43,3.56-16.98.89-19.91-.02-10.16-3.18-17.56-11.08-16.77-12.35Z"/><path class="cls-4" d="m1263.43,376.77c1.73.61,4.86,1.63,8.86,2.44,4.07.83,33.62,6.35,54.95-12.36,2.36-2.07,6.04-5.69,9.62-11.26-1.5,3.16-3.04,7.04-4.24,11.6-.92,3.49-1.48,6.72-1.8,9.55,2.71-.31,5.86-.97,9.2-2.34,11.69-4.77,17.42-14.74,19.39-18.66-2.63,12.53-8.62,19.46-11.88,22.6-9.18,8.86-20.06,10.32-37.94,12.72-12.08,1.62-19.31,2.54-28.07-.82-9.35-3.59-15.19-9.84-18.09-13.47Z"/><path class="cls-4" d="m1344.4,331.93c.03,1.67.27,3.66.99,5.81,2.51,7.52,8.98,11.2,11.06,12.27-2.12-2.27-4.45-5.1-6.73-8.52-2.3-3.45-4.02-6.71-5.32-9.56Z"/><path class="cls-4" d="m1366.1,340.77c.07-3.53-.71-5.38-1.51-9.07-.46-2.1-2.46-11.27-1.01-19.66.6-3.45,2.17-9.08,7.06-15.38.07,1.22.21,2.97.5,5.04.35,2.44,1.64,11.61,5.8,18.65,4.71,7.97,8.39,5.27,13.61,12.85,6.54,9.5,5.58,20.75,5.29,24.2-.48,5.71-2.05,10.23-3.28,13.11.14-3.92-.15-10.91-3.53-18.65-4.54-10.39-12.01-16.12-15.38-18.4.12,1.79.04,4.17-.76,6.81-2.18,7.2-8.06,10.84-9.83,11.85,1.35-2.6,2.93-6.52,3.02-11.34Z"/><path class="cls-4" d="m1395.9,286.08c.29,2.51.43,5.5.21,8.85-.34,5-1.4,9.19-2.47,12.34,2.85-1.57,5.96-3.92,8.43-7.41,9.5-13.37,1.13-31.34.54-32.55.24,2.32.43,7.34-2.22,12.66-1.39,2.78-3.13,4.78-4.49,6.1Z"/><path class="cls-4" d="m1395.39,349.02c.29,2.51.43,5.5.21,8.85-.34,5-1.4,9.19-2.47,12.34,2.85-1.57,5.96-3.92,8.43-7.41,9.5-13.37,1.13-31.34.54-32.55.24,2.32.43,7.34-2.22,12.66-1.39,2.78-3.13,4.78-4.49,6.1Z"/><path class="cls-4" d="m1394.16,249.85c-.06,1.84.08,4.72,1.32,7.94,2.1,5.43,6.02,8.41,7.68,9.53-.75-2.22-1.44-5.09-1.59-8.47-.35-8.21,2.76-14.5,4.5-17.47-3.97,2.82-7.94,5.65-11.91,8.47Z"/><path class="cls-4" d="m1408.89,186.15c-.66,2.74-1.76,6.12-3.63,9.76-2.91,5.64-6.51,9.58-9.18,12.05,1.61-.18,5.44-.84,8.99-3.83,2.44-2.04,3.74-4.34,4.4-5.74.23,2.5.86,6.06,2.68,9.95,2.99,6.4,7.52,10.14,9.95,11.86-1.23-2.75-2.44-5.55-3.63-8.42-3.67-8.8-6.83-17.37-9.57-25.64Z"/><path class="cls-4" d="m1411.06,332.51c2.35-.42,5.58-1.25,9.11-3.01,3.85-1.92,6.62-4.23,8.42-5.97.28,3.96.98,8.64,2.53,13.72,3.69,12.18,10.35,20.62,14.87,25.41-4.27-1.68-9.34-4.15-14.59-7.85-10.62-7.48-16.9-16.41-20.32-22.3Z"/><path class="cls-4" d="m1394.58,395.31c-1.22-5.26-1.51-10.06-1.38-14.11-1.91-.67-4.52-1.82-7.19-3.87-3.06-2.35-5.05-4.97-6.3-7.01-.2-.91-.46-1.46-.73-1.55-.05-.02-.1-.01-.16,0,0,0,0-.01,0-.01,0,0,0,.02,0,.02-1.57.56-4.2,15.14-17.42,26.37-8.52,7.23-18.18,10.3-25.79,11.72,1.9.82,15.9,6.62,28.72-.59,7.83-4.4,12-11.85,14.06-18.95,1.12,8.09,4.23,17.53,11.77,25.68,8.81,9.52,19.45,12.71,24.34,13.83-5.21-4.4-16.03-14.85-19.91-31.53Z"/><path class="cls-4" d="m1288.78,202.02c-9.87-4.28-21.24-10.31-32.91-18.9-27.41-20.17-42.81-44.41-50.92-60.06-.39,6.06-.27,14.66,2.09,24.59,2.17,9.14,5.52,16.37,8.36,21.43-6.33-5.38-15.52-14.98-20.24-29.38-8.28-25.29.72-54.74,22.37-76.72,1.36,15.86,4.98,37.08,14.51,60.4,16.3,39.87,41.49,65.42,56.74,78.63Z"/><path class="cls-4" d="m1219.27,169.58c-2.2,7.88-6.22,26.58,1.31,47.5,13.78,38.28,53.76,49.36,57.78,50.4-10.93-8.3-28.35-23.8-41.98-48.51-10.63-19.27-15.08-37.15-17.11-49.39Z"/><path class="cls-4" d="m1207.68,241.41c-1.64,7.77-2.7,18.88.59,31.21,9.94,37.3,50.29,50.88,54.44,52.21-9.82-7.64-23.79-20.38-35.95-39.55-10.64-16.79-16.13-32.58-19.09-43.86Z"/><path class="cls-4" d="m1087.61,133.67c7.91,3.2,19.75,6.8,34.36,7.04,28.1.46,48.66-11.82,56.9-17.42-1.66,4.57-13.08,34.83-34.84,37.16-1.84.2-5.63.4-14.1-2.07-9.69-2.82-25.46-9.11-42.32-24.71Z"/><path class="cls-4" d="m1029.85,203.18c9.65,3.97,25.87,9.09,46.15,8.18,36.49-1.64,61.08-21.68,68.96-28.69-1.99,1.77-7.44,7.1-9.38,16-1.68,7.71.17,13.97,1.1,16.55-11.09,1.01-22.18,2.02-33.27,3.02-6.5,2.26-17.39,5.05-30.79,3.82-22.43-2.07-37.4-14.09-42.78-18.88Z"/><path class="cls-4" d="m572.11,131.52c3.81,15.73,11.07,38.01,25.61,61.88,13.78,22.62,29.25,38.68,41,49.15-9.88-4.17-22.01-10.33-34.78-19.43-13.71-9.77-24.02-20-31.4-28.46-.33-6.54-.65-13.08-.98-19.63,1.74.79,3.8,1.91,5.93,3.49,3.38,2.51,5.68,5.24,7.16,7.33-.75-2.67-2.46-7.4-6.46-12.04-3.61-4.18-7.53-6.49-9.95-7.68l-8.38,1.75c2.91-2.21,5.82-4.42,8.73-6.63,1.17-9.91,2.34-19.82,3.51-29.73Z"/><path class="cls-4" d="m583.64,221.19c-4.96-3.03-9.91-6.07-14.87-9.1.82,3.5,2.09,8.35,4.06,13.99,1.56,4.48,9.66,26.89,26.17,45.12,25.07,27.68,59.74,34.88,70.04,36.68-14.56-7.39-35.97-20.56-56.06-43-14.16-15.82-23.39-31.46-29.35-43.69Z"/><path class="cls-4" d="m607.55,299.34c.78,5.63,1.43,13.92.29,23.76-1.53,13.14-5.03,18.43-7.09,27.19-6.14,26.07,8.08,50.66,9.54,50.33,1.21-.28-5.71-17.55.5-38.51,2.42-8.15,6.12-14.51,9.31-19.03,9.26,4.57,18.7,9.42,28.29,14.59,15.37,8.28,29.89,16.67,43.56,25.05l-22.88-20.32c-6.43-3.38-13.36-7.64-20.41-13.06-21.58-16.59-34.09-36.21-41.11-50Z"/><path class="cls-4" d="m723.86,430.42c-7.48-7.78-14.28-13.01-18.93-16.26-13.19-9.21-18.48-9.06-28.08-18.1-7.57-7.13-7-9.79-13.88-15.18-8.2-6.43-17.01-8.91-23.12-10,4.38,7.8,10.62,16.91,19.48,25.79,23.46,23.51,50.98,31.06,64.53,33.75Z"/><path class="cls-4" d="m807.87,727.33c-7.48-7.78-14.28-13.01-18.93-16.26-13.19-9.21-18.48-9.06-28.08-18.1-7.57-7.13-7-9.79-13.88-15.18-8.2-6.43-17.01-8.91-23.12-10,4.38,7.8,10.62,16.91,19.48,25.79,23.46,23.51,50.98,31.06,64.53,33.75Z"/><path class="cls-4" d="m732.93,467.7c-9.4-4.35-22.41-11.84-34.74-24.57-6.09-6.28-10.75-12.54-14.3-18.09-4.36-1.96-9.28-4.57-14.41-8.07-8.89-6.06-15.32-12.7-19.76-18.11,4.01,9.64,12.14,25.6,27.99,40.33,21.27,19.78,44.47,26.23,55.21,28.5Z"/><path class="cls-4" d="m982.92,280.8c23.04.37,55.49-2.07,91.49-14.92,16.29-5.81,30.31-12.69,42.02-19.46,1.15,2.35,2.23,4.84,3.2,7.49,7.02,19.14,5.15,37.41,2.32,49.87-2.25-10.12-4.5-20.24-6.75-30.36-26.67,12.04-48.83,16.52-63.34,18.39-12.25,1.58-19.62,1.37-23.34,1.18-20.12-1.07-35.89-7.35-45.59-12.18Z"/><path class="cls-4" d="m971.92,329.46c8.12,2.64,18.89,5.12,31.63,5.35,28.5.53,50.04-10.44,60.24-16.6-.7,6.43-2.71,17.02-9.22,28.27-9.03,15.62-21.63,23.7-27.66,27.04,3.8-4.75,9.94-14.02,10.45-26.43.1-2.5-.04-4.83-.32-6.97-2.12,2.04-5.47,4.86-10.09,7.28-2.65,1.39-22.31,11.29-39.67.97-9.53-5.66-13.73-14.65-15.36-18.93Z"/><path class="cls-4" d="m1005.78,365.35l8.29-13.34c2.08-.44,4.45-1.08,7.01-2.01,2.42-.88,4.53-1.87,6.33-2.82-2.89,3.18-6.4,6.65-10.59,10.14-3.88,3.23-7.62,5.87-11.04,8.04Z"/><path class="cls-4" d="m903.93,394.4c6.24,5.1,20.38,15.21,41.02,18.07,30.55,4.23,53.35-10.49,59.06-14.41-3.27,4.34-15.44,19.39-37.06,23.84-6.74,1.39-18.76,2.65-32.26-2.23-18.63-6.73-28.02-20.79-30.76-25.27Z"/><path class="cls-4" d="m875.29,478.61c11.65,2.14,26.35,3.43,43.05,1.53,47.3-5.39,78.96-32.81,91.36-44.92-1.95,7.07-5.29,15.25-11.1,23.22-22.31,30.57-62.16,32.06-68.88,32.21-6.51,1.48-20.47,3.67-36.23-1.92-8-2.84-14.05-6.82-18.19-10.11Z"/><path class="cls-4" d="m834.04,542.78c.6-2.99,25.37,4.54,57.32-.22,28.1-4.19,50.16-16.15,65.39-26.67-1.03,3.93-3.15,9.77-7.74,15.49-9.7,12.09-23.31,14.77-27.31,15.41-8.98,3.97-22.77,8.64-39.81,8.81-25.82.26-48.42-9.93-47.84-12.82Z"/><path class="cls-4" d="m774.32,779.81c.6-2.99,25.37,4.54,57.32-.22,28.1-4.19,50.16-16.15,65.39-26.67-1.03,3.93-3.15,9.77-7.74,15.49-9.7,12.09-23.31,14.77-27.31,15.41-8.98,3.97-22.77,8.64-39.81,8.81-25.82.26-48.42-9.93-47.84-12.82Z"/><path class="cls-4" d="m902.78,572.57c9.18-2.47,20.53-6.41,32.78-12.87,10.53-5.55,19.08-11.58,25.75-16.98-2.02,3.69-15.94,28.18-41.59,31.12-6.41.74-12.17-.03-16.93-1.27Z"/><path class="cls-4" d="m830.27,647.71c13.32-.45,32.87-2.71,54.69-11.33,29.95-11.83,49.54-29.86,59.83-40.88,9.51-7.77,24.56-18.18,45.16-25.57,16.32-5.85,30.92-7.94,41.76-8.64-15.36,7.86-32.54,17.97-50.4,30.96-25.26,18.37-44.93,37.44-59.79,54.04-4.38-1.24-8.76-2.48-13.15-3.72-6.61,4.55-13.23,9.1-19.84,13.66-6.67.14-14.05-.08-22.01-.9-14.11-1.46-26.31-4.43-36.24-7.62Z"/><path class="cls-4" d="m1000.24,505.66c4.6-6.32,7.26-12.15,9.58-18.06,9.18-23.45,13.18-48.92,15.03-66.75,4.43,11.58,10.67,33.38,4.84,58.64-1.5,6.52-3.59,12.29-5.84,17.29,2.6-1.74,5.84-3.83,9.66-6.08,0,0,2.57-1.52,5.2-2.96,5.39-2.96,19.02-9.04,37.68-15.92-9.51,8.37-20.89,17.23-34.31,25.73-25.9,16.4-50.62,25.89-70.17,31.57,7.5-3.69,19.05-10.71,28.32-23.45Z"/><path class="cls-4" d="m1262.71,393.18c-7.5-1.75-38.62-9.89-58.89-40.2-14.39-21.52-15.9-43.13-16-52.32,3.3,5.04,9.04,12.41,18.23,18.8,5.93,4.13,11.62,6.67,16.11,8.26-.36,6.51-.16,19.4,6.68,33.32,10.26,20.9,28.38,29.71,33.87,32.13Z"/><path class="cls-4" d="m1200.51,200.72c-2.89,12.14-12.92,18.56-18.11,21.88-6.47,4.14-12.62,5.94-16.6,6.79,1.08-5.7,2.13-15.04,0-26.21-1.97-10.36-5.89-18.18-8.8-23.01,2.91,2.3,7.46,6.53,10.83,13.2,5.34,10.57,4.32,20.56,3.72,24.36,3.83-1.67,9.58-4.78,14.89-10.49,9.6-10.32,11.4-22.3,11.84-26.73,1.71,3.87,4.3,11.48,2.22,20.21Z"/><path class="cls-4" d="m1155.99,234.41c1.08.17,3.03,18.69-4.99,36.94-7.5,17.07-20.7,27.03-28.91,32.06,3.2-4.48,6.42-9.55,9.46-15.24,8.76-16.41,12.79-32.02,14.72-44.15,1.07-.2,2.72-.64,4.36-1.76,4.28-2.93,4.78-7.94,5.35-7.85Z"/><path class="cls-4" d="m1043.49,394.69c5.95-11.4,15.83-27.21,31.64-42.85,15.16-15,30.38-24.5,41.53-30.32,4.64,6.63,9.99,15.88,13.84,27.69,7.33,22.48,5.25,42.16,3.3,52.74-1.37-9.36-4.45-22.37-11.87-36.26-3.81-7.14-7.99-13.05-11.87-17.8-11.15,5.93-23.44,13.29-36.26,22.41-11.61,8.26-21.68,16.56-30.32,24.39Z"/><path class="cls-4" d="m1093.47,380.46c-5.71,3.74-12.74,9.34-19.16,17.52-15.5,19.72-17.31,41.41-17.52,50.38,3.45-7.98,9.31-19.02,19.16-30.12,12.46-14.03,25.82-22,34.5-26.28,2.96-5.7.58-12.44-4.38-14.78-4.06-1.91-9.37-.66-12.59,3.29Z"/><path class="cls-4" d="m1168.86,326.07c3.32,7.43,8.75,22.39,7.02,41.44-2.66,29.41-20.51,47.94-25.82,53.09,2.8-7.51,5.39-16.23,7.18-26.06,4.79-26.27,1.79-48.82-1.72-63.96,1.71.04,4.43-.11,7.51-1.23,2.63-.96,4.57-2.28,5.82-3.28Z"/><path class="cls-4" d="m1159.89,304.18c-.91-5.53-2.1-17.63,3.55-30.93,3.16-7.44,7.4-12.79,10.65-16.23,4.9,2.95,14.14,9.47,20.79,21.3,4.06,7.22,5.8,14,6.59,18.76-4.85-2.11-13.25-6.64-19.78-15.72-2.31-3.21-3.93-6.36-5.07-9.13-2.66,2.27-5.77,5.42-8.62,9.64-5.88,8.69-7.56,17.34-8.11,22.31Z"/><path class="cls-4" d="m451.26,217.78c11.8.31,29.04-.57,48.81-6.46,20.91-6.23,36.49-15.63,46.36-22.69-3.95,8.64-12.09,22.21-27.25,29.1-10.03,4.56-19.26,4.44-33.43,4.25-14.66-.19-26.58-2.35-34.48-4.21Z"/><path class="cls-4" d="m417.3,276.46c18.31,2,47.91,2.57,80.82-9.36,13.34-4.84,24.55-10.76,33.63-16.49-2.06,2.51-4.22,5.47-6.29,8.9-3.95,6.54-6.33,12.75-7.81,17.79-7.98,1.24-15.97,2.47-23.95,3.71-6.42,3.15-18.56,8.03-34.42,7.98-20.78-.07-35.82-8.56-41.97-12.52Z"/><path class="cls-4" d="m623.26,370.73c-1.32.53.52,5.56-2.41,13.75-.87,2.44-1.9,4.41-2.75,5.84,5.69,6.93,12.01,15.72,17.88,26.47,7.2,13.19,11.64,25.47,14.44,35.41.43-8.13.26-19.82-2.75-33.35-6.27-28.15-21.54-49.27-24.41-48.13Z"/><path class="cls-4" d="m1218.37,395.65c5.43,9.6,12.96,20.91,23.32,32.41,16.18,17.96,33.09,29.52,45.76,36.71-10.07-.17-30.51-1.98-50.93-15.11-37.06-23.83-43.43-65.22-44.36-71.95,1.28,2.68,4.76,8.98,12.16,13.47,5.7,3.46,11.13,4.26,14.05,4.48Z"/><path class="cls-4" d="m1305.47,412.48c-3.41,4.07-8.01,8.7-14.06,12.98-15.07,10.65-30.57,13.03-38.87,13.65,4.36,3.71,8.72,7.42,13.07,11.13,4.42-.78,19.39-4.01,30.3-17.56,6.16-7.66,8.55-15.52,9.55-20.19Z"/><path class="cls-4" d="m1302.92,461.96c-4.14,5.74-10.92,13.64-21.21,20.45-17.47,11.57-34.92,13.35-43.18,13.64,4.07,1.62,11.6,4.18,21.21,4.55,29.21,1.11,58.8-18.74,56.82-29.55-.44-2.42-2.78-6.04-13.64-9.09Z"/><path class="cls-4" d="m1133.31,420.2c-2.29,1.02.13,18.04,10.41,31.74,6.93,9.23,15.49,14.38,21.33,17.17.15-3.14-.05-7.69-2.08-12.49-2.64-6.24-6.85-9.29-10.93-13.01-13.82-12.59-16.79-24.28-18.73-23.41Z"/><path class="cls-4" d="m634.23,748.34c-2.29,1.02.13,18.04,10.41,31.74,6.93,9.23,15.49,14.38,21.33,17.17.15-3.14-.05-7.69-2.08-12.49-2.64-6.24-6.85-9.29-10.93-13.01-13.82-12.59-16.79-24.28-18.73-23.41Z"/><path class="cls-4" d="m1173.38,433.73c-1.67,1.51,5.68,10.64,14.57,27.06,14.35,26.51,12.91,35.47,21.85,50.47,6.81,11.43,19.29,25.79,44.23,37.46-5.58-8.33-11.16-17.18-16.65-26.54-13.02-22.19-23.41-43.59-31.74-63.48-24.45-22.61-30.97-26.14-32.26-24.98Z"/><path class="cls-4" d="m1186.01,526.45c.3,4.98,1.08,12.19,3.25,20.59,2.4,9.3,9.29,35.96,32.51,53.65,20.37,15.51,46.59,19,46.61,18.97,0,0,0,0,0,0-8.18-3.81-23.61-12.32-36.85-29.26-14.37-18.4-18.61-37.07-20.05-46.06-3.31-3.36-7.61-7.17-13.01-10.84-4.47-3.04-8.73-5.32-12.46-7.04Z"/><path class="cls-4" d="m1058.3,507.35c-.93,9.96-.96,22.14,1.52,35.67,7.31,39.98,31.7,65.88,43.26,76.65-1.06-16.65-1.31-35.52,0-56.16,1.17-18.37,3.39-35.14,6.07-50.09-4.44,4.31-11.23,12.04-15.94,23.53-6.31,15.4-5.42,29.13-4.55,35.67-4.33-8.27-8.64-16.87-12.9-25.8-6.46-13.55-12.25-26.73-17.45-39.46Z"/><path class="cls-4" d="m1109.43,480.15c1.51,7.88,4.2,17.41,9.17,27.51,12.7,25.84,32.7,40.15,43.3,46.6,3.37-3.15,6.86-7.24,9.68-12.46,11.74-21.72,2.55-45.48.51-50.44-2.77,1.91-6.11,4.69-9.17,8.66-7.53,9.76-8.52,20.36-8.66,24.96-4.06-1.85-8.36-4.19-12.74-7.13-17.51-11.8-27.09-27.4-32.1-37.7Z"/><path class="cls-4" d="m1145.67,580.79c-2.85,2.02,16.06,28.72,31.28,68.08,7.74,20.01,12.17,37.19,14.72,48.76,4.11-4.55,8.7-9.19,13.8-13.8,17.51-15.83,35.47-26.22,50.6-33.12-16.87,3.68-33.73,7.36-50.6,11.04,5.76-2.12,13.67-5.85,21.52-12.53,4-3.4,7.16-6.86,9.62-9.97-8.63-1.8-20.67-5.12-33.84-11.75-36.89-18.58-54.17-48.78-57.1-46.71Z"/><path class="cls-4" d="m1334.03,494.73c-8.6,6.33-27.13,18.13-53.46,21.15-18.39,2.11-33.53-.87-42.89-3.52,2.52,2.11,25.14,20.45,55.22,13.51,26.74-6.17,39.18-27.65,41.12-31.14Z"/><path class="cls-4" d="m1204.15,567.42c7.03.92,18.86,1.47,32.31-2.94,23.83-7.81,36.22-25.8,39.95-31.72.76.38,10.59,5.56,11.72,16.44.76,7.29-2.86,12.68-3.91,14.13-3.34,2.85-27.08,22.45-56.28,15.83-10.79-2.44-18.77-7.66-23.8-11.74Z"/><path class="cls-4" d="m1329.68,561.31c-19.57,26.83-45.99,36.47-55.58,39.46,7.6.91,20.19,1.36,34.53-3.29,24.23-7.85,37.57-25.08,42.09-31.57,4.15,5.47,9.14,11.29,15.13,17.1,15.38,14.92,31.38,24.03,43.74,29.6-8.13-8.52-16.67-18.56-24.99-30.26-17.77-24.97-28.67-49.22-35.52-68.73-1.49,10.09-5.7,28.9-19.4,47.69Z"/><path class="cls-4" d="m1272.54,686.2c3.36-3.85,7.26-7.81,11.79-11.69,17.23-14.76,35.6-21.55,48.6-24.87-2.32-3.61-5.48-7.85-9.7-12.17-4.89-5-9.76-8.61-13.75-11.15-6.5,6.13-14.53,14.91-21.93,26.72-7.86,12.54-12.36,24.29-15.01,33.16Z"/><path class="cls-4" d="m1111.26,648.99c7.98,9.21,20.11,24.89,29.91,46.77,14.42,32.19,11.39,50.06,26.65,71.79,7.37,10.5,21.08,24.84,48.41,35.35-7.24-5.44-16.38-13.69-24.48-25.56-16.64-24.4-18.8-49.33-19.04-60.92-6.52-11.08-15.66-24.42-28.28-38.07-11.68-12.64-23.29-22.24-33.18-29.37Z"/><path class="cls-4" d="m988.57,629.11c-8.9,6.22-19.1,12.58-30.64,18.6-23.07,12.05-44.75,19.26-62.74,23.71,6.69,4.02,12.94,6.16,18.24,7.29,39.27,8.44,73.51-27.57,77.69-32.1-1.16-1.92-3.02-5.62-3.28-10.58-.15-2.83.27-5.22.73-6.93Z"/><path class="cls-4" d="m1007.49,631.67c4.67-9.9,6.88-12.97,7.94-14.36,10.86-14.31,27.54-19.24,38.17-21.16,2.73,2.78,5.39,5.79,7.94,9.07,22.34,28.75,24.65,63.03,23.81,83.9-1.23-9.63-4.46-25.22-13.98-41.95-8.09-14.22-17.7-23.93-24.57-29.86-6.57,2.08-14.92,5.59-23.43,11.72-19.98,14.39-28.03,34-30.99,42.71,4.91-16.88,10.51-30.31,15.12-40.06Z"/><path class="cls-4" d="m983.2,761.11c-8.37,7.06-11.65,8.93-13.2,9.75-15.84,8.48-33.05,6.03-43.52,3.34-1.32-3.66-2.49-7.51-3.44-11.55-8.34-35.44,3.85-67.57,13.3-86.2-2.89,9.27-6.45,24.79-4.76,43.96,1.44,16.3,6.12,29.12,9.9,37.38,6.84.85,15.9,1.13,26.18-.89,24.16-4.76,39.65-19.23,45.96-25.92-11.5,13.3-22.18,23.17-30.43,30.13Z"/><path class="cls-4" d="m1041,662.78c1.72,7.92,5.04,13.29,6,14.93,4.9,8.36,9.96,24.77,11.23,59.84,4.1-6.32,8.22-14.79,9.99-25.23,6.36-37.46-23.25-66.79-27.17-70.55-1.04,5.05-1.9,12.52-.05,21.01Z"/><path class="cls-4" d="m1347.02,623.78c3.23,12.47,9.09,28.74,20.21,45.48,25.45,38.33,61.89,54.16,77.35,59.83-16-10.97-41.22-31.57-60.25-65.41-9.36-16.65-14.91-32.38-18.31-45.28-2,1.29-4.87,2.84-8.56,3.96-4.21,1.27-7.89,1.48-10.44,1.42Z"/><path class="cls-4" d="m1414.68,635.47c-.63,20.67,2.06,37.38,4.67,48.82,6.53,28.53,15.7,37.58,20.64,41.56,1.85,1.49,3.49,2.56,4.59,3.24-5.19-8-12.64-21.65-16.4-40.12-3.79-18.62-2.2-34.21-.52-43.63-4.33-3.29-8.66-6.58-12.98-9.87Z"/><path class="cls-4" d="m676.52,459.73c7.31,5.35,8.31,4.49,14.27,8.92,14.26,10.59,12.11,17.98,25,28.28,9.04,7.22,11.66,4.66,22.08,12.57,8.81,6.69,14.46,14.24,17.89,19.67-2.72-.23-6.88-.73-11.77-2.04-13.09-3.49-18.69-9.29-28.95-13.92-10.69-4.82-14.9-3.18-25.98-5.94-20.36-5.06-33.31-17.38-54.62-37.66-8.7-8.28-19.89-20.01-31.44-35.52,10.7,8.67,25.12,18.61,43.44,27.07,11.36,5.24,22.03,8.91,31.44,11.51-3.3-2.18-8.49-6.2-12.95-12.78-4.98-7.35-6.71-14.43-7.38-18.47,3.85,4.87,10.02,11.75,18.97,18.3Z"/><path class="cls-4" d="m358.77,348.01c10.37,3.16,23.73,5.92,39.33,5.93,41.5.03,71.88-19.43,84.54-28.72-5.08,6.94-12.12,15.05-21.68,22.76-20.8,16.78-42.47,22.77-55.01,25.15,2.37-2.3,4.84-4.91,7.31-7.86,1.42-1.7,2.73-3.37,3.93-5-2.56,1.35-22.39,11.42-42.03,1.92-8.48-4.11-13.66-10.28-16.37-14.19Z"/><path class="cls-4" d="m317.66,401.23c4.64,5.87,12.05,13.43,23.02,18.82,31.55,15.5,64.25-.88,68.82-3.26,4.63-2.37,11.71-5.32,20.77-6.68,8.23-1.24,15.23-.74,20.12,0-5.34-2.17-13.73-5.06-24.3-6.45-20.87-2.75-34.32,2.47-49.74,4.56-13.27,1.79-32.98,1.93-58.7-6.98Z"/><path class="cls-4" d="m535.05,269.41c-10.2,11.97-12.76,24.89-13.53,30.63,3.72-5.6,9.13-12.5,16.74-19.23,5.15-4.56,10.19-8.04,14.6-10.69,4.08,4.62,9.61,10.06,16.82,15.29,8.81,6.39,17.24,10.35,23.78,12.85-6.56-4.58-14.36-10.87-22.23-19.27-8.01-8.55-13.84-16.89-18.02-23.83-4.7,2.38-11.74,6.71-18.16,14.25Z"/><path class="cls-4" d="m526.47,312.09c3.87,16.36,10.62,36.83,22.82,58.46,5.6,9.92,11.5,18.58,17.22,26.03-11.12-5.88-30.27-18.34-40.84-41.24-1.91-4.13-3.33-8.16-4.4-12.01-4.19,5.4-10.41,12.08-19.22,18.02-18.56,12.52-37.47,14.22-46.45,14.42,9.46-3.17,23.36-9.13,37.41-20.52,19-15.4,28.81-33.06,33.47-43.15Z"/><path class="cls-4" d="m225.71,778.3c13.06,14.51,31.48,31.57,56.45,46.68,11.45,6.93,22.55,12.39,32.8,16.72-15.26.38-42.81-1.36-66.7-18.71-4.3-3.12-8.04-6.43-11.29-9.76-1.63,7.93-4.77,18.34-11.12,29.48-13.39,23.48-33,36.09-42.65,41.45,8.56-8.69,20.43-22.77,29.53-42.5,12.3-26.68,13.4-50.38,12.99-63.38Z"/><path class="cls-4" d="m564.88,669.85c3.87,16.36,10.62,36.83,22.82,58.46,5.6,9.92,11.5,18.58,17.22,26.03-11.12-5.88-30.27-18.34-40.84-41.24-1.91-4.13-3.33-8.16-4.4-12.01-4.19,5.4-10.41,12.08-19.22,18.02-18.56,12.52-37.47,14.22-46.45,14.42,9.46-3.17,23.36-9.13,37.41-20.52,19-15.4,28.81-33.06,33.47-43.15Z"/><path class="cls-4" d="m556.86,308.3c.23-.27.58-.65,1.02-1.09,4.27-4.19,9.43-5.15,10.21-5.28,5.45-.94,9.71.81,11.23,1.52-1.91,5.85-3.55,12.78-4.25,20.64-2.35,26.39,7.28,47.34,13.05,57.66-7.43-8.94-17.16-22.88-23.98-41.88-4.28-11.93-6.32-22.79-7.28-31.56Z"/><path class="cls-4" d="m511.31,375.51c-6.07,4.97-12.59,11.06-19.03,18.49-15.28,17.62-23.88,35.58-28.82,48.93,6.15-7.68,13.69-16.05,22.83-24.47,14.27-13.13,28.36-22.6,40.23-29.36-5.07-4.53-10.15-9.06-15.22-13.59Z"/><path class="cls-4" d="m539.46,634.08c-6.07,4.97-12.59,11.06-19.03,18.49-15.28,17.62-23.88,35.58-28.82,48.93,6.15-7.68,13.69-16.05,22.83-24.47,14.27-13.13,28.36-22.6,40.23-29.36-5.07-4.53-10.15-9.06-15.22-13.59Z"/><path class="cls-4" d="m519.67,411.52c7.05,4.22,17.52,11.63,27.18,23.71,10.48,13.09,15.48,26,17.93,34.12.39-6.52,1.57-14.71,4.63-23.71,6.22-18.36,16.99-30.55,23.71-37.01-3.4.22-10.35,1.17-17.02,6.05-12.46,9.11-13.29,24.13-13.38,26.28-1.87-4.22-7.76-16.03-21.31-23.48-8.79-4.84-17.08-5.79-21.74-5.96Z"/><path class="cls-4" d="m444.97,420.15c-2.69,6.4-5.61,15.26-6.87,26.11-1.81,15.54.57,28.36,2.75,36.42,5.82-5.16,12.88-10.63,21.3-15.8,18.03-11.08,35.29-16.47,48.1-19.24-9.24,10.98-23.55,25.5-43.98,38.48-17.29,10.98-33.56,17.43-46.04,21.3-2.21-7.46-7.39-28.63,1.37-52.91,6.44-17.84,17.41-29.06,23.36-34.36Z"/><path class="cls-4" d="m878.66,667.44c-4.07,5.63-8.91,13.6-12.59,23.88-5.27,14.73-5.86,27.76-5.55,36.1,6.83-3.71,14.95-7.45,24.32-10.58,20.07-6.72,38.09-8.07,51.2-7.88-11.48,8.61-28.71,19.52-51.53,27.55-19.32,6.79-36.62,9.39-49.66,10.35-.46-7.77-.73-29.56,13.29-51.23,10.3-15.93,23.52-24.38,30.52-28.19Z"/><path class="cls-4" d="m523.15,451.4c.19,9.12,1.54,21.41,6.42,34.99,9.95,27.69,28.61,44.18,37.91,51.32,1.9-8.08,4.8-17.43,9.33-27.41,8.96-19.74,20.66-33.93,29.74-43.16-5.85,1.83-16.98,6.16-27.41,16.33-9.63,9.39-14.22,19.43-16.33,25.08-6.46-7.63-13.15-16.17-19.83-25.66-7.74-11-14.29-21.61-19.83-31.49Z"/><path class="cls-4" d="m624.26,666.27c3.83,8.28,9.99,19,19.91,29.48,20.22,21.38,43.93,28.99,55.31,31.81-1.5-8.16-2.59-17.89-2.45-28.85.29-21.67,5.32-39.37,9.94-51.46-4.63,4.02-13.08,12.45-18.56,25.95-5.06,12.47-5.24,23.5-4.9,29.52-8.98-4.4-18.53-9.54-28.46-15.55-11.5-6.97-21.76-14.06-30.79-20.9Z"/><path class="cls-4" d="m780.21,612.2c-.58,1.34-19.48-4.7-38.15-12.76-29.6-12.77-51.03-22.02-68.09-43.14-6.9-8.55-17.64-24.67-22.45-50.21,4.09,1.57,8.51,3.5,13.14,5.89,6.36,3.28,11.83,6.77,16.42,10.07,6.28,15.7,13.72,27.42,19.5,35.31,5.24,7.16,10.37,14.06,19.14,20.91,7.02,5.48,11.2,6.89,24.44,13.47,12.59,6.27,36.72,18.88,36.04,20.45Z"/><path class="cls-4" d="m814.05,670.3c-6.15,1.08-16.34,2.22-28.38.15-29.2-5.02-42.48-24.33-78.33-48.06-9.24-6.12-23.59-14.91-42.63-23.73,10.9-.51,23.9-.29,38.39,1.63,11.31,1.5,21.39,3.76,30.09,6.21,3.42,8.64,12.45,28.07,33.18,43.87,19.15,14.59,38.48,18.61,47.67,19.92Z"/><path class="cls-4" d="m595.87,531.65c1.16,6.96,4.58,21.35,16.07,34.83,17.61,20.65,41.38,24.11,47.33,24.8-5.53-4.21-11.74-9.89-17.46-17.45-17.4-22.97-19.03-48.24-19.03-59.34-2.73,3.21-7.07,7.56-13.34,11.33-5.13,3.09-9.93,4.82-13.57,5.82Z"/><path class="cls-4" d="m1253.46,651.03c-7.7,11.49-10.74,21.41-12.13,27.79-4.99,22.9,3.21,37.18,6.15,73.5,1.01,12.56.99,22.71.87,28.62,2.89-5.72,7.68-14.05,15.22-22.74,17.27-19.91,31.59-21.75,42.69-37.51,5.2-7.38,10.72-19.27,10.67-38.48-1.9,6.88-6.67,20.55-18.79,33.42-12.74,13.53-26.91,19.07-33.74,21.26-4.62-9.02-10.71-23.57-13.04-42.44-2.27-18.38-.08-33.61,2.11-43.39Z"/><path class="cls-4" d="m1302.74,673.57c11.49,6.06,31.09,18.43,47.4,41.08,24.53,34.07,25.94,69.64,25.81,82.69,3.24-11.19,7.89-32.99,2.63-59.52-6.69-33.75-25.5-55.31-33.71-63.73-14.05-.18-28.09-.35-42.14-.53Z"/><path class="cls-4" d="m352.13,390.55c-14.07-13.67-26.86-22.58-35.92-28.19-9.94-6.15-12.45-6.5-36.62-20.29-18.05-10.3-23.61-14.08-29.05-18.41-9.95-7.91-17.08-15.74-21.69-21.33,4.9,3.07,10.37,6.18,16.39,9.16,9.76,4.84,18.99,8.35,27.21,10.94-2.43-2.51-5.1-5.8-7.44-9.98-6.32-11.25-6.58-22.29-6.27-27.96,3.33,2.99,7.3,7.11,11.09,12.53,3.31,4.75,5.62,9.25,7.23,13.02,2.14-3.68,4.28-7.35,6.42-11.03.97,6.92,3.32,17.38,9.97,27.9,8.46,13.39,18,17.59,31.34,29.89,7.35,6.78,17.5,17.55,27.34,33.74Z"/><path class="cls-4" d="m252.27,296.51c-1.14-2.08-2.83-5.83-3.12-10.78-.42-7.26,2.43-12.65,3.69-14.75,3.65,1.97,9.32,5.62,14.47,11.92,4.09,5,6.41,9.9,7.74,13.4.15-11.46-3.18-17.12-6.54-20.17-4.17-3.79-9.61-4.68-14.57-11.2-1.94-2.55-3.07-5-3.73-6.72-.17,2.23-.61,5.54-1.87,9.34-1.85,5.56-3.88,7.39-4.67,10.27-1.01,3.67-.13,9.47,8.6,18.71Z"/><path class="cls-4" d="m198.96,210.2c5.41,1.36,15.25,3.06,27.16.73,14.32-2.8,23.98-9.95,28.38-13.68-.92,3.54-3.7,12.12-11.79,17.45-9.76,6.43-20.92,3.97-27.16,2.6-7.62-1.68-13.26-4.89-16.58-7.1Z"/><path class="cls-4" d="m177.73,250.08c9.1,3.77,16.98,4.74,21.98,4.98,15.84.77,29.12-5.8,37.08-9.56,1.78-.84,3.23-1.59,4.23-2.11-.48-1.58-.92-3.38-1.23-5.37-.15-.99-.26-1.93-.33-2.83-2.84,3-6.29,6-10.48,8.65-20.46,12.93-43.73,8.13-51.24,6.25Z"/><path class="cls-4" d="m264.28,199.36c2.29,3.15,4.58,6.3,6.87,9.44"/><path class="cls-4" d="m172.38,278.83c4.95,1.58,13.52,3.62,24.19,2.68,10.77-.95,18.91-4.52,23.51-6.96-1.11,1.86-2.23,3.71-3.34,5.57-4.3,2.07-11.02,4.67-19.62,5.57-7.19.75-13.26.05-17.55-.79-2.4-2.02-4.8-4.05-7.21-6.07Z"/><path class="cls-4" d="m357.47,448.45c-17.83-3.2-30.25-9.97-37.86-15.16-12.91-8.8-20.54-18.84-31.23-33.15-3.85-5.16-6.51-9.27-9.22-13.44-9.39-14.46-16.1-27.04-20.56-36.08,5.64,2.4,12.68,6.02,20.02,11.5,6.04,4.51,10.76,9.14,14.33,13.16,2.79,9.58,8.7,25.24,21.6,40.88,15.52,18.83,33.32,28.1,42.93,32.28Z"/><path class="cls-4" d="m302.14,380.63c-.12,1.36-.23,3.27-.16,5.54.33,10.22,4.01,17.13,3.5,17.35-.45.19-3.51-5.14-6.86-12.89-2.73-6.32-4.55-11.69-5.68-15.34,3.07,1.78,6.13,3.56,9.2,5.34Z"/><path class="cls-4" d="m258.28,209.3c-2.67,4.4-2.76,6.99-5.44,10.89-3,4.36-6.96,7.05-10.31,8.75,1.1,2.27,2.2,4.54,3.31,6.81,2.35-2.18,5.12-5.13,7.78-8.95,2.75-3.94,4.59-7.67,5.83-10.7.65,4.53,1.11,11.87-1.17,20.42-1.49,5.61-3.72,10.05-5.64,13.22,9.25-7.53,11.87-14.29,12.45-19.25.76-6.5-1.82-11.39-.19-21.2.72-4.35,1.96-7.82,2.92-10.11-4.82,3.47-7.71,7.12-9.53,10.11Z"/><path class="cls-4" d="m230.01,275.53c-2.67-1.05-6.26,8.05-14.49,13.97-6.1,4.38-16.19,8.06-33.73,5.01,3.69,1.47,9.84,3.48,17.65,3.95,5.78.35,23.74,1.42,30.04-8.96,3.31-5.47,2.77-13.08.53-13.97Z"/><path class="cls-4" d="m0,0v32.83c3.39,11.16,8.63,24.01,16.92,37.17,27.33,43.4,69.44,61.09,87.66,67.44-17.49-13.74-39.31-33.63-60.32-61.04C22.54,48.07,8.75,20.93,0,0Z"/><path class="cls-4" d="m34.59,109.56c-2.93-.21-9.21-1.06-15.53-5.39-8.03-5.5-11.04-13.13-11.96-15.81,5.35,16,14.81,37.36,32.04,58.52,39.66,48.72,93.05,62.65,112.56,66.73-19.72-8.74-48.17-24.27-75.83-51.35-19.1-18.71-32.33-37.55-41.28-52.71Z"/><path class="cls-4" d="m60.6,185.34c-.87,2.33-2.34,5.6-4.87,9.01-5.88,7.93-11.12,8-12.41,11.28-2.88,7.34,15.4,26.93,58.11,51.9,17.63,10.31,42.92,23.6,75.44,35.82-24.15-11.91-41.45-25.13-52.91-35.21-14.52-12.78-25.1-25.33-38.19-40.86-10.72-12.71-19.18-23.8-25.17-31.94Z"/><path class="cls-4" d="m80.6,286.37c4.53,11.97,10.8,24.28,19.45,36.19,46.78,64.4,130.05,71.61,151.08,72.83-20.62-12.18-37.66-21.68-49.31-28.05-34.04-18.61-48.11-24.76-66.5-40.26-13.06-11.01-22.3-21.69-28.05-28.95-8.9-3.92-17.79-7.84-26.69-11.76Z"/><path class="cls-4" d="m175,304.76c-4.4,2.68-10.86,5.83-19.13,7.36-18.69,3.45-33.71-3.75-39-6.62,5.93,5.19,12.22,10.44,18.89,15.7,11.27,8.9,22.3,16.79,32.87,23.79.69-4.63,2.16-10.78,5.4-17.42,5.81-11.91,14.26-19.05,19.13-22.57-6.05-.08-12.1-.16-18.15-.25Z"/><path class="cls-4" d="m168.99,408.43c5.35,12.62,11.87,22.59,18.24,30.39,46.59,57.1,129.84,52.97,145.34,51.95-14.11-.68-44.88-4.06-76.81-24.31-31.33-19.87-47.43-45.62-54.16-58.02h-32.6Z"/><path class="cls-4" d="m114.84,352.62c.33.7.81,1.74,1.39,3.01,6.55,14.24,11.78,26.8,15.74,36.78,2.92,7.36,6.32,16.28,9.95,26.53-11.92-6.02-25.34-13.93-39.24-24.31-23.39-17.49-40.26-36.14-51.95-51.39,2.75,10.7,14.85,52.63,56.37,79.58,27.67,17.96,55.07,20.61,67.97,21-5.61-11.8-12.34-24.45-20.45-37.58-13.16-21.32-26.98-39.11-39.79-53.6Z"/><path class="cls-4" d="m9.6,250.5c3.92,8.95,10.97,22.19,23.36,35.31,12.94,13.71,26.38,21.68,35.31,26.08-6.32-9.24-12.93-20.28-19.01-33.14-9.8-20.71-15.29-39.89-18.47-55.41-1.72-.06-9.17-.12-15.21,5.43-5.77,5.3-8.03,13.67-5.98,21.73Z"/><path class="cls-4" d="m12.25,139.81c-.79,4.81-2.32,11-5.37,17.76-2.18,4.83-4.63,8.82-6.88,11.98v-16.94c1.44-3.77,2.83-8.05,3.99-12.8,1.73-7.06,2.55-13.5,2.89-19,1.79,6.33,3.58,12.67,5.37,19Z"/><path class="cls-4" d="m61.17,403.68c19.16,26.34,40.88,42.24,54.87,50.91-7.92,2.47-18.15,4.5-29.98,3.96-39.06-1.8-64.21-30.24-70.15-37.34,9.09,7.55,23.63,17.48,43.56,23.19,7.81,2.24,15.06,3.43,21.43,4.02-8.24-4.99-18.51-12.7-27.66-24.38-25.1-32.05-22.6-69.54-21.5-80.33,4.36,14.93,12.73,37.03,29.42,59.96Z"/><path class="cls-4" d="m231.21,323.44c2.38,5.95,4.71,12.08,6.99,18.39,5.37,14.89,9.85,29.28,13.61,43.03-4.59-5.56-9.59-12.4-14.34-20.59-5.87-10.12-9.81-19.62-12.5-27.58-3.22.81-6.83,1.98-10.66,3.68-8.4,3.73-14.59,8.58-18.76,12.5-.13-1.51-1.02-14.08,8.83-23.17,11.26-10.39,26.01-6.49,26.85-6.25Z"/><path class="cls-4" d="m270.28,418.99c1.8,4.78,4.5,10.37,8.66,16.02,12.43,16.9,29.7,23.29,37.43,25.6-7.17-5.55-15.87-13.39-24.23-24.08-11.44-14.63-17.82-28.92-21.43-39.18-.9,4.3-2.8,10.82-7.14,17.75-4.9,7.82-10.75,12.7-14.5,15.37,3.05-.52,7.64-1.69,12.55-4.55,3.94-2.29,6.78-4.9,8.66-6.93Z"/><path class="cls-4" d="m268.12,438.47c-.65,3.44-2.24,9.33-6.49,15.37-3.46,4.91-7.36,8.05-10.05,9.87,2.33,1.58,4.82,3.19,7.48,4.78,2.98,1.79,5.87,3.39,8.64,4.82,2.05-3.95,6.85-14.59,3.67-26.83-.81-3.13-2-5.8-3.25-8.01Z"/><path class="cls-4" d="m233.3,516.02c7.29,11.44,18.36,25.49,34.78,37.95,45.87,34.78,98.77,30.76,114.37,28.99-18.89-3.5-59.18-13.88-91.7-48.49-10.34-11-17.79-22.21-23.19-32.15-11.42,4.57-22.84,9.14-34.26,13.7Z"/><path class="cls-4" d="m145.28,487.04c6.15,9.53,14.81,20.6,26.88,31.09,32.77,28.5,69.87,34.69,86.96,36.36-10.25-5.72-23.67-14.83-36.37-28.99-6.43-7.16-11.42-14.22-15.28-20.55-7.28-2.11-16.44-4.75-23.72-6.85-12.83-3.7-25.65-7.39-38.47-11.07Z"/><path class="cls-4" d="m272.3,590.86c7.75,16.96,23.29,44.86,52.7,69.57,18.24,15.32,36.26,24.75,50.07,30.57-9.49,1.66-24.53,3.1-41.64-1.05-35.58-8.64-50.32-34.26-89.08-65.04-13.74-10.92-34.93-26.01-64.29-40.36,16.68,2.23,29.47,6.06,38.22,9.24,7.76,2.82,10.58,4.48,16.07,5.52,14.97,2.85,28.6-2.94,37.95-8.43Z"/><path class="cls-4" d="m89.75,482.9c2.02,3.8,20.61,40.18,2.72,70.36-4.35,7.34-9.96,12.79-15.43,16.8-6.61-5.81-14.99-14.55-22.24-26.78-12.21-20.61-14.83-40.38-15.43-51.3-3.06,9.3-5.48,21.25-4.54,34.96,3.35,49.03,46.75,77.8,53.57,82.17,4.83-5.38,24.56-28.59,24.51-64.01-.05-33.95-18.24-56.48-23.15-62.19Z"/><path class="cls-4" d="m99.55,667.79c2.48,10.61,9.75,35.28,31.78,57.35,24.71,24.74,53.06,31.27,63.56,33.16.2-4.03.04-12.39-4.62-21.31-3.04-5.81-6.88-9.73-9.59-12.08,9.17,7.35,22.52,16.18,40.13,22.37,38.37,13.5,72.42,5.88,86.66,1.78-4.15-4.81-11.38-12.79-21.31-21.66-23.42-20.94-37.71-25.3-58.6-44.39-6.37-5.82-15.9-15.34-25.93-29.12,9,20.07,20.05,31.77,28.41,38.71,12.65,10.5,24.39,14.5,38.36,30.19,6.57,7.38,10.92,14.29,13.5,18.82-13.14.66-31.62,0-52.56-6.04-35.63-10.27-58.99-30.52-70.32-41.91.72,5.08,1.83,10.7,3.55,16.69,3.47,12.12,8.31,21.99,12.79,29.48-9.65-4.76-20.85-11.38-32.32-20.6-22.1-17.76-35.61-37.47-43.49-51.44Z"/><path class="cls-4" d="m44.44,685.36c6.67,20.38,17.33,46.27,34.72,73.78,20.74,32.81,43.72,56.35,61.63,72.04-13.13.38-33.46-.9-55.55-10.42-47.97-20.65-67.42-64.27-72.04-75.51,9.33,12.97,25.38,31.79,50.34,47.74,16.81,10.74,32.73,17.04,45.13,20.83-9.78-7.67-20.94-18.13-31.25-32.11-27.54-37.38-32.14-77.03-32.98-96.34Z"/><path class="cls-4" d="m358.56,718.07c6.25,14.39,16.74,32.95,34.96,53.49,21.73,24.49,46.78,43.15,66.5,55.92-15.36-1.5-38.99-5.06-64.06-14.3-54.44-20.07-73.86-51.55-78.4-59.61,9.92,9.83,27.23,24.44,55.16,38.32,18.81,9.35,36.92,15.64,51.12,19.81-10.84-6.38-23.08-14.8-34.05-25.43-29.33-28.43-31.7-55.3-31.22-68.21Z"/><path class="cls-4" d="m275.03,504.26c9.54,5.52,22.75,11.04,38.79,11.9,55.07,2.95,90.72-51.9,93.01-55.54-15.45,7.13-32.36,14.16-50.69,20.72-29.14,10.43-56.49,17.74-81.1,22.92Z"/><path class="cls-4" d="m288.2,523.44c7,.76,15.16,1.1,24.21.48,17.24-1.17,31.42-5.41,41.64-9.44-.37,3.87-1.53,9.8-5.33,15.74-9.49,14.84-27.15,16.71-29.78,16.95-5.46-1.98-13.52-5.71-21.3-12.83-4.12-3.77-7.19-7.59-9.44-10.89Z"/><path class="cls-4" d="m463.51,516.78c16.22-13.31,25.74-28.18,31.08-38.39,3.53,6.78,7.36,13.67,11.49,20.63,17.49,29.47,36.84,54,55.63,74.18-7.8-.85-20.2-3.27-33.17-10.97-23.29-13.82-32.64-35.28-35.52-42.83-10.88,8.03-31.9,21.2-61.38,25.86-18.15,2.87-33.69,1.58-44.66-.26,12.48-.43,46.16-3.3,76.53-28.21Z"/><path class="cls-4" d="m320.41,593.04c12.76-2.47,24.85-4.26,36.14-5.53,3.75.08,9.16.02,15.63-.65,10.52-1.09,16.34-3.02,16.6-2.28.49,1.36-18.66,8.73-32.56,15.3-18.06,8.55-35.97,17.12-53.72,25.72-3.21-1.94-8.02-5.4-12.37-11.07-3.67-4.78-5.7-9.42-6.84-12.7,11.37-3.19,23.76-6.2,37.11-8.79Z"/><path class="cls-4" d="m459.58,549.85c5.89,6.75,13.79,17.62,18.84,32.7,9.93,29.65,2.17,55.58-1.11,64.84,4.87-5.09,20.67-22.86,23.28-50.98,2.53-27.25-8.92-47.13-12.75-53.2-3.29,1.88-8.16,4.17-14.41,5.54-5.52,1.21-10.32,1.31-13.85,1.11Z"/><path class="cls-4" d="m377.47,587.4c.96.2,2.15.34,3.5.25,3.82-.24,6.57-2.1,7.81-3.08-2.96,6.32-6.36,15.49-7.77,26.95-2.09,17.02,1.23,30.85,3.79,38.73,5.09-.96,12.12-2.93,19.57-7.22,13.15-7.58,20.2-18.13,23.33-23.62-1.49,2.06-10.19,14.49-6.6,30.13,1.97,8.61,6.78,14.31,9.37,16.97,4.55-3.42,11.04-9.15,16.76-17.82,5.11-7.75,7.77-15.08,9.21-20.28,2.02,5.08,3.62,11.62,3.03,19.06-2.19,27.42-32.22,41.43-34.18,42.31-3.3-3.43-8.3-9.5-11.76-18.37-2.97-7.61-3.68-14.39-3.79-18.86-3.24,2.3-7.1,4.64-11.59,6.72-13.14,6.08-25.44,7.01-33.45,6.85-1.01-7.12-1.59-15.34-1.21-24.41,1-23.5,8.07-42.21,14-54.32Z"/><path class="cls-4" d="m416.63,579.5c3.11,8.81,6.38,11.99,7.84,21.09,1,6.24.41,10.7,1.31,10.83,1.3.18,2.14-9.26,7.28-18.29,4.33-7.62,10.4-12.61,15.49-15.87-3.48.3-11.52.54-20.35-3.73-8.59-4.15-13.35-10.36-15.31-13.25.45,8.44,2.19,14.86,3.73,19.23Z"/><path class="cls-4" d="m542.73,597.95c-2.04,3.23,13.52,13.45,30.28,33.03,18.2,21.26,28.2,42.35,33.72,56.42-.54-7.87-.51-16.92.69-26.84,3.23-26.69,13.42-47.14,21.33-59.87-3.44.99-13.03,4.25-20.64,13.76-7.96,9.95-8.81,20.56-8.95,24.08-3.41-6.89-9.47-16.81-19.96-25.46-14.85-12.25-34.36-18.47-36.47-15.14Z"/></g></g></svg>